<?xml version="1.0" encoding="UTF-8" standalone="no"?>
<svg
   version="1.2"
   width="352.77777mm"
   height="18.378937mm"
   viewBox="0 0 200.74998 10.458626"
   id="svg63"
   xmlns:xlink="http://www.w3.org/1999/xlink"
   xmlns="http://www.w3.org/2000/svg"
   xmlns:svg="http://www.w3.org/2000/svg">
  <defs
     id="defs63" />
  <style
     type="text/css"
     id="style1"><![CDATA[
tspan { white-space: pre; }
]]></style>
  <!-- Page: 1/1 -->
  <g
     id="g64"
     transform="matrix(0.35277779,0,0,0.35277779,-0.20078348,-0.35277779)">
    <g
       transform="translate(0.5691,28.5)"
       id="g1">
      <line
         stroke-linejoin="round"
         stroke-linecap="round"
         stroke-width="0.2371"
         stroke="currentColor"
         x1="0.1186"
         y1="0"
         x2="568.93652"
         y2="0"
         id="line1" />
    </g>
    <g
       transform="translate(0.5691,23.5)"
       id="g2">
      <line
         stroke-linejoin="round"
         stroke-linecap="round"
         stroke-width="0.2371"
         stroke="currentColor"
         x1="0.1186"
         y1="0"
         x2="568.93652"
         y2="0"
         id="line2" />
    </g>
    <g
       transform="translate(0.5691,18.5)"
       id="g3">
      <line
         stroke-linejoin="round"
         stroke-linecap="round"
         stroke-width="0.2371"
         stroke="currentColor"
         x1="0.1186"
         y1="0"
         x2="568.93652"
         y2="0"
         id="line3" />
    </g>
    <g
       transform="translate(0.5691,13.5)"
       id="g4">
      <line
         stroke-linejoin="round"
         stroke-linecap="round"
         stroke-width="0.2371"
         stroke="currentColor"
         x1="0.1186"
         y1="0"
         x2="568.93652"
         y2="0"
         id="line4" />
    </g>
    <g
       transform="translate(0.5691,8.5)"
       id="g5">
      <line
         stroke-linejoin="round"
         stroke-linecap="round"
         stroke-width="0.2371"
         stroke="currentColor"
         x1="0.1186"
         y1="0"
         x2="568.93652"
         y2="0"
         id="line5" />
    </g>
    <a
       style="color:inherit"
       xlink:href="textedit://C:/Users/jwloy/Documents/GitHub/interactiveLoopingLine_20231129/public/pieces/interactiveLoopingLine20231129/notation/proportional%20spacing%20template_withStaffLines.ly:65:42:43"
       id="a6">
      <g
         transform="translate(315.4271,28.5)"
         id="g6">
        <path
           transform="scale(0.0159,-0.0159)"
           d="m 222,135 c 53,0 104,-27 104,-86 0,-71 -56,-120 -103,-148 -36,-22 -76,-36 -118,-36 -53,0 -105,27 -105,86 0,71 57,120 104,148 36,22 76,36 118,36 z"
           fill="currentColor"
           id="path5" />
      </g>
    </a>
    <g
       transform="translate(320.455,18.5)"
       id="g7">
      <rect
         x="-0.1541"
         y="-17.5"
         width="0.30829999"
         height="26.719299"
         ry="0.039999999"
         fill="currentColor"
         id="rect6" />
    </g>
    <a
       style="color:inherit"
       xlink:href="textedit://C:/Users/jwloy/Documents/GitHub/interactiveLoopingLine_20231129/public/pieces/interactiveLoopingLine20231129/notation/proportional%20spacing%20template_withStaffLines.ly:65:44:45"
       id="a8">
      <g
         transform="translate(334.9807,28.5)"
         id="g8">
        <path
           transform="scale(0.0159,-0.0159)"
           d="m 222,135 c 53,0 104,-27 104,-86 0,-71 -56,-120 -103,-148 -36,-22 -76,-36 -118,-36 -53,0 -105,27 -105,86 0,71 57,120 104,148 36,22 76,36 118,36 z"
           fill="currentColor"
           id="path7" />
      </g>
    </a>
    <g
       transform="translate(340.0086,18.5)"
       id="g9">
      <rect
         x="-0.1541"
         y="-17.5"
         width="0.30829999"
         height="26.719299"
         ry="0.039999999"
         fill="currentColor"
         id="rect8" />
    </g>
    <a
       style="color:inherit"
       xlink:href="textedit://C:/Users/jwloy/Documents/GitHub/interactiveLoopingLine_20231129/public/pieces/interactiveLoopingLine20231129/notation/proportional%20spacing%20template_withStaffLines.ly:65:46:47"
       id="a10">
      <g
         transform="translate(354.5343,28.5)"
         id="g10">
        <path
           transform="scale(0.0159,-0.0159)"
           d="m 222,135 c 53,0 104,-27 104,-86 0,-71 -56,-120 -103,-148 -36,-22 -76,-36 -118,-36 -53,0 -105,27 -105,86 0,71 57,120 104,148 36,22 76,36 118,36 z"
           fill="currentColor"
           id="path9" />
      </g>
    </a>
    <g
       transform="translate(359.5623,18.5)"
       id="g11">
      <rect
         x="-0.1541"
         y="-17.5"
         width="0.30829999"
         height="26.719299"
         ry="0.039999999"
         fill="currentColor"
         id="rect10" />
    </g>
    <a
       style="color:inherit"
       xlink:href="textedit://C:/Users/jwloy/Documents/GitHub/interactiveLoopingLine_20231129/public/pieces/interactiveLoopingLine20231129/notation/proportional%20spacing%20template_withStaffLines.ly:65:48:49"
       id="a12">
      <g
         transform="translate(374.0879,28.5)"
         id="g12">
        <path
           transform="scale(0.0159,-0.0159)"
           d="m 222,135 c 53,0 104,-27 104,-86 0,-71 -56,-120 -103,-148 -36,-22 -76,-36 -118,-36 -53,0 -105,27 -105,86 0,71 57,120 104,148 36,22 76,36 118,36 z"
           fill="currentColor"
           id="path11" />
      </g>
    </a>
    <g
       transform="translate(379.1159,18.5)"
       id="g13">
      <rect
         x="-0.1541"
         y="-17.5"
         width="0.30829999"
         height="26.719299"
         ry="0.039999999"
         fill="currentColor"
         id="rect12" />
    </g>
    <a
       style="color:inherit"
       xlink:href="textedit://C:/Users/jwloy/Documents/GitHub/interactiveLoopingLine_20231129/public/pieces/interactiveLoopingLine20231129/notation/proportional%20spacing%20template_withStaffLines.ly:65:32:33"
       id="a14">
      <g
         transform="translate(217.6589,28.5)"
         id="g14">
        <path
           transform="scale(0.0159,-0.0159)"
           d="m 222,135 c 53,0 104,-27 104,-86 0,-71 -56,-120 -103,-148 -36,-22 -76,-36 -118,-36 -53,0 -105,27 -105,86 0,71 57,120 104,148 36,22 76,36 118,36 z"
           fill="currentColor"
           id="path13" />
      </g>
    </a>
    <a
       style="color:inherit"
       xlink:href="textedit://C:/Users/jwloy/Documents/GitHub/interactiveLoopingLine_20231129/public/pieces/interactiveLoopingLine20231129/notation/proportional%20spacing%20template_withStaffLines.ly:65:36:37"
       id="a15">
      <g
         transform="translate(256.7662,28.5)"
         id="g15">
        <path
           transform="scale(0.0159,-0.0159)"
           d="m 222,135 c 53,0 104,-27 104,-86 0,-71 -56,-120 -103,-148 -36,-22 -76,-36 -118,-36 -53,0 -105,27 -105,86 0,71 57,120 104,148 36,22 76,36 118,36 z"
           fill="currentColor"
           id="path14" />
      </g>
    </a>
    <g
       transform="translate(222.6869,18.5)"
       id="g16">
      <rect
         x="-0.1541"
         y="-17.5"
         width="0.30829999"
         height="26.719299"
         ry="0.039999999"
         fill="currentColor"
         id="rect15" />
    </g>
    <a
       style="color:inherit"
       xlink:href="textedit://C:/Users/jwloy/Documents/GitHub/interactiveLoopingLine_20231129/public/pieces/interactiveLoopingLine20231129/notation/proportional%20spacing%20template_withStaffLines.ly:65:34:35"
       id="a17">
      <g
         transform="translate(237.2126,28.5)"
         id="g17">
        <path
           transform="scale(0.0159,-0.0159)"
           d="m 222,135 c 53,0 104,-27 104,-86 0,-71 -56,-120 -103,-148 -36,-22 -76,-36 -118,-36 -53,0 -105,27 -105,86 0,71 57,120 104,148 36,22 76,36 118,36 z"
           fill="currentColor"
           id="path16" />
      </g>
    </a>
    <g
       transform="translate(242.2405,18.5)"
       id="g18">
      <rect
         x="-0.1541"
         y="-17.5"
         width="0.30829999"
         height="26.719299"
         ry="0.039999999"
         fill="currentColor"
         id="rect17" />
    </g>
    <g
       transform="translate(300.9014,18.5)"
       id="g19">
      <rect
         x="-0.1541"
         y="-17.5"
         width="0.30829999"
         height="26.719299"
         ry="0.039999999"
         fill="currentColor"
         id="rect18" />
    </g>
    <g
       transform="translate(261.7941,18.5)"
       id="g20">
      <rect
         x="-0.1541"
         y="-17.5"
         width="0.30829999"
         height="26.719299"
         ry="0.039999999"
         fill="currentColor"
         id="rect19" />
    </g>
    <a
       style="color:inherit"
       xlink:href="textedit://C:/Users/jwloy/Documents/GitHub/interactiveLoopingLine_20231129/public/pieces/interactiveLoopingLine20231129/notation/proportional%20spacing%20template_withStaffLines.ly:65:38:39"
       id="a21">
      <g
         transform="translate(276.3198,28.5)"
         id="g21">
        <path
           transform="scale(0.0159,-0.0159)"
           d="m 222,135 c 53,0 104,-27 104,-86 0,-71 -56,-120 -103,-148 -36,-22 -76,-36 -118,-36 -53,0 -105,27 -105,86 0,71 57,120 104,148 36,22 76,36 118,36 z"
           fill="currentColor"
           id="path20" />
      </g>
    </a>
    <g
       transform="translate(281.3478,18.5)"
       id="g22">
      <rect
         x="-0.1541"
         y="-17.5"
         width="0.30829999"
         height="26.719299"
         ry="0.039999999"
         fill="currentColor"
         id="rect21" />
    </g>
    <a
       style="color:inherit"
       xlink:href="textedit://C:/Users/jwloy/Documents/GitHub/interactiveLoopingLine_20231129/public/pieces/interactiveLoopingLine20231129/notation/proportional%20spacing%20template_withStaffLines.ly:65:40:41"
       id="a23">
      <g
         transform="translate(295.8734,28.5)"
         id="g23">
        <path
           transform="scale(0.0159,-0.0159)"
           d="m 222,135 c 53,0 104,-27 104,-86 0,-71 -56,-120 -103,-148 -36,-22 -76,-36 -118,-36 -53,0 -105,27 -105,86 0,71 57,120 104,148 36,22 76,36 118,36 z"
           fill="currentColor"
           id="path22" />
      </g>
    </a>
    <a
       style="color:inherit"
       xlink:href="textedit://C:/Users/jwloy/Documents/GitHub/interactiveLoopingLine_20231129/public/pieces/interactiveLoopingLine20231129/notation/proportional%20spacing%20template_withStaffLines.ly:65:61:62"
       id="a24">
      <g
         transform="translate(491.4097,28.5)"
         id="g24">
        <path
           transform="scale(0.0159,-0.0159)"
           d="m 222,135 c 53,0 104,-27 104,-86 0,-71 -56,-120 -103,-148 -36,-22 -76,-36 -118,-36 -53,0 -105,27 -105,86 0,71 57,120 104,148 36,22 76,36 118,36 z"
           fill="currentColor"
           id="path23" />
      </g>
    </a>
    <g
       transform="translate(496.4376,18.5)"
       id="g25">
      <rect
         x="-0.1541"
         y="-17.5"
         width="0.30829999"
         height="26.719299"
         ry="0.039999999"
         fill="currentColor"
         id="rect24" />
    </g>
    <a
       style="color:inherit"
       xlink:href="textedit://C:/Users/jwloy/Documents/GitHub/interactiveLoopingLine_20231129/public/pieces/interactiveLoopingLine20231129/notation/proportional%20spacing%20template_withStaffLines.ly:65:63:64"
       id="a26">
      <g
         transform="translate(510.9633,28.5)"
         id="g26">
        <path
           transform="scale(0.0159,-0.0159)"
           d="m 222,135 c 53,0 104,-27 104,-86 0,-71 -56,-120 -103,-148 -36,-22 -76,-36 -118,-36 -53,0 -105,27 -105,86 0,71 57,120 104,148 36,22 76,36 118,36 z"
           fill="currentColor"
           id="path25" />
      </g>
    </a>
    <g
       transform="translate(515.9913,18.5)"
       id="g27">
      <rect
         x="-0.1541"
         y="-17.5"
         width="0.30829999"
         height="26.719299"
         ry="0.039999999"
         fill="currentColor"
         id="rect26" />
    </g>
    <g
       transform="translate(476.884,18.5)"
       id="g28">
      <rect
         x="-0.1541"
         y="-17.5"
         width="0.30829999"
         height="26.719299"
         ry="0.039999999"
         fill="currentColor"
         id="rect27" />
    </g>
    <a
       style="color:inherit"
       xlink:href="textedit://C:/Users/jwloy/Documents/GitHub/interactiveLoopingLine_20231129/public/pieces/interactiveLoopingLine20231129/notation/proportional%20spacing%20template_withStaffLines.ly:65:65:66"
       id="a29">
      <g
         transform="translate(530.5169,28.5)"
         id="g29">
        <path
           transform="scale(0.0159,-0.0159)"
           d="m 222,135 c 53,0 104,-27 104,-86 0,-71 -56,-120 -103,-148 -36,-22 -76,-36 -118,-36 -53,0 -105,27 -105,86 0,71 57,120 104,148 36,22 76,36 118,36 z"
           fill="currentColor"
           id="path28" />
      </g>
    </a>
    <g
       transform="translate(535.5449,18.5)"
       id="g30">
      <rect
         x="-0.1541"
         y="-17.5"
         width="0.30829999"
         height="26.719299"
         ry="0.039999999"
         fill="currentColor"
         id="rect29" />
    </g>
    <a
       style="color:inherit"
       xlink:href="textedit://C:/Users/jwloy/Documents/GitHub/interactiveLoopingLine_20231129/public/pieces/interactiveLoopingLine20231129/notation/proportional%20spacing%20template_withStaffLines.ly:65:67:68"
       id="a31">
      <g
         transform="translate(550.0705,28.5)"
         id="g31">
        <path
           transform="scale(0.0159,-0.0159)"
           d="m 222,135 c 53,0 104,-27 104,-86 0,-71 -56,-120 -103,-148 -36,-22 -76,-36 -118,-36 -53,0 -105,27 -105,86 0,71 57,120 104,148 36,22 76,36 118,36 z"
           fill="currentColor"
           id="path30" />
      </g>
    </a>
    <g
       transform="translate(555.0985,18.5)"
       id="g32">
      <rect
         x="-0.1541"
         y="-17.5"
         width="0.30829999"
         height="26.719299"
         ry="0.039999999"
         fill="currentColor"
         id="rect31" />
    </g>
    <a
       style="color:inherit"
       xlink:href="textedit://C:/Users/jwloy/Documents/GitHub/interactiveLoopingLine_20231129/public/pieces/interactiveLoopingLine20231129/notation/proportional%20spacing%20template_withStaffLines.ly:65:55:56"
       id="a33">
      <g
         transform="translate(432.7488,28.5)"
         id="g33">
        <path
           transform="scale(0.0159,-0.0159)"
           d="m 222,135 c 53,0 104,-27 104,-86 0,-71 -56,-120 -103,-148 -36,-22 -76,-36 -118,-36 -53,0 -105,27 -105,86 0,71 57,120 104,148 36,22 76,36 118,36 z"
           fill="currentColor"
           id="path32" />
      </g>
    </a>
    <a
       style="color:inherit"
       xlink:href="textedit://C:/Users/jwloy/Documents/GitHub/interactiveLoopingLine_20231129/public/pieces/interactiveLoopingLine20231129/notation/proportional%20spacing%20template_withStaffLines.ly:65:50:51"
       id="a34">
      <g
         transform="translate(393.6416,28.5)"
         id="g34">
        <path
           transform="scale(0.0159,-0.0159)"
           d="m 222,135 c 53,0 104,-27 104,-86 0,-71 -56,-120 -103,-148 -36,-22 -76,-36 -118,-36 -53,0 -105,27 -105,86 0,71 57,120 104,148 36,22 76,36 118,36 z"
           fill="currentColor"
           id="path33" />
      </g>
    </a>
    <g
       transform="translate(398.6695,18.5)"
       id="g35">
      <rect
         x="-0.1541"
         y="-17.5"
         width="0.30829999"
         height="26.719299"
         ry="0.039999999"
         fill="currentColor"
         id="rect34" />
    </g>
    <a
       style="color:inherit"
       xlink:href="textedit://C:/Users/jwloy/Documents/GitHub/interactiveLoopingLine_20231129/public/pieces/interactiveLoopingLine20231129/notation/proportional%20spacing%20template_withStaffLines.ly:65:52:53"
       id="a36">
      <g
         transform="translate(413.1952,28.5)"
         id="g36">
        <path
           transform="scale(0.0159,-0.0159)"
           d="m 222,135 c 53,0 104,-27 104,-86 0,-71 -56,-120 -103,-148 -36,-22 -76,-36 -118,-36 -53,0 -105,27 -105,86 0,71 57,120 104,148 36,22 76,36 118,36 z"
           fill="currentColor"
           id="path35" />
      </g>
    </a>
    <g
       transform="translate(418.2231,18.5)"
       id="g37">
      <rect
         x="-0.1541"
         y="-17.5"
         width="0.30829999"
         height="26.719299"
         ry="0.039999999"
         fill="currentColor"
         id="rect36" />
    </g>
    <g
       transform="translate(437.7768,18.5)"
       id="g38">
      <rect
         x="-0.1541"
         y="-17.5"
         width="0.30829999"
         height="26.719299"
         ry="0.039999999"
         fill="currentColor"
         id="rect37" />
    </g>
    <a
       style="color:inherit"
       xlink:href="textedit://C:/Users/jwloy/Documents/GitHub/interactiveLoopingLine_20231129/public/pieces/interactiveLoopingLine20231129/notation/proportional%20spacing%20template_withStaffLines.ly:65:57:58"
       id="a39">
      <g
         transform="translate(452.3024,28.5)"
         id="g39">
        <path
           transform="scale(0.0159,-0.0159)"
           d="m 222,135 c 53,0 104,-27 104,-86 0,-71 -56,-120 -103,-148 -36,-22 -76,-36 -118,-36 -53,0 -105,27 -105,86 0,71 57,120 104,148 36,22 76,36 118,36 z"
           fill="currentColor"
           id="path38" />
      </g>
    </a>
    <g
       transform="translate(457.3304,18.5)"
       id="g40">
      <rect
         x="-0.1541"
         y="-17.5"
         width="0.30829999"
         height="26.719299"
         ry="0.039999999"
         fill="currentColor"
         id="rect39" />
    </g>
    <a
       style="color:inherit"
       xlink:href="textedit://C:/Users/jwloy/Documents/GitHub/interactiveLoopingLine_20231129/public/pieces/interactiveLoopingLine20231129/notation/proportional%20spacing%20template_withStaffLines.ly:65:59:60"
       id="a41">
      <g
         transform="translate(471.856,28.5)"
         id="g41">
        <path
           transform="scale(0.0159,-0.0159)"
           d="m 222,135 c 53,0 104,-27 104,-86 0,-71 -56,-120 -103,-148 -36,-22 -76,-36 -118,-36 -53,0 -105,27 -105,86 0,71 57,120 104,148 36,22 76,36 118,36 z"
           fill="currentColor"
           id="path40" />
      </g>
    </a>
    <a
       style="color:inherit"
       xlink:href="textedit://C:/Users/jwloy/Documents/GitHub/interactiveLoopingLine_20231129/public/pieces/interactiveLoopingLine20231129/notation/proportional%20spacing%20template_withStaffLines.ly:65:14:15"
       id="a42">
      <g
         transform="translate(41.6763,28.5)"
         id="g42">
        <path
           transform="scale(0.0159,-0.0159)"
           d="m 222,135 c 53,0 104,-27 104,-86 0,-71 -56,-120 -103,-148 -36,-22 -76,-36 -118,-36 -53,0 -105,27 -105,86 0,71 57,120 104,148 36,22 76,36 118,36 z"
           fill="currentColor"
           id="path41" />
      </g>
    </a>
    <g
       transform="translate(46.7043,18.5)"
       id="g43">
      <rect
         x="-0.1541"
         y="-17.5"
         width="0.30829999"
         height="26.719299"
         ry="0.039999999"
         fill="currentColor"
         id="rect42" />
    </g>
    <a
       style="color:inherit"
       xlink:href="textedit://C:/Users/jwloy/Documents/GitHub/interactiveLoopingLine_20231129/public/pieces/interactiveLoopingLine20231129/notation/proportional%20spacing%20template_withStaffLines.ly:65:16:17"
       id="a44">
      <g
         transform="translate(61.2299,28.5)"
         id="g44">
        <path
           transform="scale(0.0159,-0.0159)"
           d="m 222,135 c 53,0 104,-27 104,-86 0,-71 -56,-120 -103,-148 -36,-22 -76,-36 -118,-36 -53,0 -105,27 -105,86 0,71 57,120 104,148 36,22 76,36 118,36 z"
           fill="currentColor"
           id="path43" />
      </g>
    </a>
    <g
       transform="translate(66.2579,18.5)"
       id="g45">
      <rect
         x="-0.1541"
         y="-17.5"
         width="0.30829999"
         height="26.719299"
         ry="0.039999999"
         fill="currentColor"
         id="rect44" />
    </g>
    <a
       style="color:inherit"
       xlink:href="textedit://C:/Users/jwloy/Documents/GitHub/interactiveLoopingLine_20231129/public/pieces/interactiveLoopingLine20231129/notation/proportional%20spacing%20template_withStaffLines.ly:65:18:19"
       id="a46">
      <g
         transform="translate(80.7836,28.5)"
         id="g46">
        <path
           transform="scale(0.0159,-0.0159)"
           d="m 222,135 c 53,0 104,-27 104,-86 0,-71 -56,-120 -103,-148 -36,-22 -76,-36 -118,-36 -53,0 -105,27 -105,86 0,71 57,120 104,148 36,22 76,36 118,36 z"
           fill="currentColor"
           id="path45" />
      </g>
    </a>
    <g
       transform="translate(85.8115,18.5)"
       id="g47">
      <rect
         x="-0.1541"
         y="-17.5"
         width="0.30829999"
         height="26.719299"
         ry="0.039999999"
         fill="currentColor"
         id="rect46" />
    </g>
    <a
       style="color:inherit"
       xlink:href="textedit://C:/Users/jwloy/Documents/GitHub/interactiveLoopingLine_20231129/public/pieces/interactiveLoopingLine20231129/notation/proportional%20spacing%20template_withStaffLines.ly:65:20:21"
       id="a48">
      <g
         transform="translate(100.3372,28.5)"
         id="g48">
        <path
           transform="scale(0.0159,-0.0159)"
           d="m 222,135 c 53,0 104,-27 104,-86 0,-71 -56,-120 -103,-148 -36,-22 -76,-36 -118,-36 -53,0 -105,27 -105,86 0,71 57,120 104,148 36,22 76,36 118,36 z"
           fill="currentColor"
           id="path47" />
      </g>
    </a>
    <g
       transform="translate(105.3651,18.5)"
       id="g49">
      <rect
         x="-0.1541"
         y="-17.5"
         width="0.30829999"
         height="26.719299"
         ry="0.039999999"
         fill="currentColor"
         id="rect48" />
    </g>
    <a
       style="color:inherit"
       xlink:href="textedit://C:/Users/jwloy/Documents/GitHub/interactiveLoopingLine_20231129/public/pieces/interactiveLoopingLine20231129/notation/proportional%20spacing%20template_withStaffLines.ly:65:8:9"
       id="a50">
      <g
         transform="translate(2.5691,28.5)"
         id="g50">
        <path
           transform="scale(0.0159,-0.0159)"
           d="m 222,135 c 53,0 104,-27 104,-86 0,-71 -56,-120 -103,-148 -36,-22 -76,-36 -118,-36 -53,0 -105,27 -105,86 0,71 57,120 104,148 36,22 76,36 118,36 z"
           fill="currentColor"
           id="path49" />
      </g>
    </a>
    <g
       transform="translate(7.597,18.5)"
       id="g51">
      <rect
         x="-0.1541"
         y="-17.5"
         width="0.30829999"
         height="26.719299"
         ry="0.039999999"
         fill="currentColor"
         id="rect50" />
    </g>
    <a
       style="color:inherit"
       xlink:href="textedit://C:/Users/jwloy/Documents/GitHub/interactiveLoopingLine_20231129/public/pieces/interactiveLoopingLine20231129/notation/proportional%20spacing%20template_withStaffLines.ly:65:12:13"
       id="a52">
      <g
         transform="translate(22.1227,28.5)"
         id="g52">
        <path
           transform="scale(0.0159,-0.0159)"
           d="m 222,135 c 53,0 104,-27 104,-86 0,-71 -56,-120 -103,-148 -36,-22 -76,-36 -118,-36 -53,0 -105,27 -105,86 0,71 57,120 104,148 36,22 76,36 118,36 z"
           fill="currentColor"
           id="path51" />
      </g>
    </a>
    <g
       transform="translate(27.1506,18.5)"
       id="g53">
      <rect
         x="-0.1541"
         y="-17.5"
         width="0.30829999"
         height="26.719299"
         ry="0.039999999"
         fill="currentColor"
         id="rect52" />
    </g>
    <a
       style="color:inherit"
       xlink:href="textedit://C:/Users/jwloy/Documents/GitHub/interactiveLoopingLine_20231129/public/pieces/interactiveLoopingLine20231129/notation/proportional%20spacing%20template_withStaffLines.ly:65:28:29"
       id="a54">
      <g
         transform="translate(178.5517,28.5)"
         id="g54">
        <path
           transform="scale(0.0159,-0.0159)"
           d="m 222,135 c 53,0 104,-27 104,-86 0,-71 -56,-120 -103,-148 -36,-22 -76,-36 -118,-36 -53,0 -105,27 -105,86 0,71 57,120 104,148 36,22 76,36 118,36 z"
           fill="currentColor"
           id="path53" />
      </g>
    </a>
    <a
       style="color:inherit"
       xlink:href="textedit://C:/Users/jwloy/Documents/GitHub/interactiveLoopingLine_20231129/public/pieces/interactiveLoopingLine20231129/notation/proportional%20spacing%20template_withStaffLines.ly:65:26:27"
       id="a55">
      <g
         transform="translate(158.9981,28.5)"
         id="g55">
        <path
           transform="scale(0.0159,-0.0159)"
           d="m 222,135 c 53,0 104,-27 104,-86 0,-71 -56,-120 -103,-148 -36,-22 -76,-36 -118,-36 -53,0 -105,27 -105,86 0,71 57,120 104,148 36,22 76,36 118,36 z"
           fill="currentColor"
           id="path54" />
      </g>
    </a>
    <g
       transform="translate(164.026,18.5)"
       id="g56">
      <rect
         x="-0.1541"
         y="-17.5"
         width="0.30829999"
         height="26.719299"
         ry="0.039999999"
         fill="currentColor"
         id="rect55" />
    </g>
    <g
       transform="translate(183.5796,18.5)"
       id="g57">
      <rect
         x="-0.1541"
         y="-17.5"
         width="0.30829999"
         height="26.719299"
         ry="0.039999999"
         fill="currentColor"
         id="rect56" />
    </g>
    <a
       style="color:inherit"
       xlink:href="textedit://C:/Users/jwloy/Documents/GitHub/interactiveLoopingLine_20231129/public/pieces/interactiveLoopingLine20231129/notation/proportional%20spacing%20template_withStaffLines.ly:65:30:31"
       id="a58">
      <g
         transform="translate(198.1053,28.5)"
         id="g58">
        <path
           transform="scale(0.0159,-0.0159)"
           d="m 222,135 c 53,0 104,-27 104,-86 0,-71 -56,-120 -103,-148 -36,-22 -76,-36 -118,-36 -53,0 -105,27 -105,86 0,71 57,120 104,148 36,22 76,36 118,36 z"
           fill="currentColor"
           id="path57" />
      </g>
    </a>
    <g
       transform="translate(203.1333,18.5)"
       id="g59">
      <rect
         x="-0.1541"
         y="-17.5"
         width="0.30829999"
         height="26.719299"
         ry="0.039999999"
         fill="currentColor"
         id="rect58" />
    </g>
    <g
       transform="translate(144.4724,18.5)"
       id="g60">
      <rect
         x="-0.1541"
         y="-17.5"
         width="0.30829999"
         height="26.719299"
         ry="0.039999999"
         fill="currentColor"
         id="rect59" />
    </g>
    <a
       style="color:inherit"
       xlink:href="textedit://C:/Users/jwloy/Documents/GitHub/interactiveLoopingLine_20231129/public/pieces/interactiveLoopingLine20231129/notation/proportional%20spacing%20template_withStaffLines.ly:65:24:25"
       id="a61">
      <g
         transform="translate(139.4444,28.5)"
         id="g61">
        <path
           transform="scale(0.0159,-0.0159)"
           d="m 222,135 c 53,0 104,-27 104,-86 0,-71 -56,-120 -103,-148 -36,-22 -76,-36 -118,-36 -53,0 -105,27 -105,86 0,71 57,120 104,148 36,22 76,36 118,36 z"
           fill="currentColor"
           id="path60" />
      </g>
    </a>
    <g
       transform="translate(124.9188,18.5)"
       id="g62">
      <rect
         x="-0.1541"
         y="-17.5"
         width="0.30829999"
         height="26.719299"
         ry="0.039999999"
         fill="currentColor"
         id="rect61" />
    </g>
    <a
       style="color:inherit"
       xlink:href="textedit://C:/Users/jwloy/Documents/GitHub/interactiveLoopingLine_20231129/public/pieces/interactiveLoopingLine20231129/notation/proportional%20spacing%20template_withStaffLines.ly:65:22:23"
       id="a63">
      <g
         transform="translate(119.8908,28.5)"
         id="g63">
        <path
           transform="scale(0.0159,-0.0159)"
           d="m 222,135 c 53,0 104,-27 104,-86 0,-71 -56,-120 -103,-148 -36,-22 -76,-36 -118,-36 -53,0 -105,27 -105,86 0,71 57,120 104,148 36,22 76,36 118,36 z"
           fill="currentColor"
           id="path62" />
      </g>
    </a>
  </g>
</svg>
