<svg xmlns="http://www.w3.org/2000/svg" xmlns:xlink="http://www.w3.org/1999/xlink" version="1.2" width="1000.00mm" height="200.00mm" viewBox="0 0 569.0551 113.8110">
<style text="style/css">
<![CDATA[
tspan { white-space: pre; }
]]>
</style>
<!-- Page: 1/1 -->
<text transform="translate(0.5691, -0.0000)" font-family="serif" font-size="2.2001" text-anchor="start" fill="currentColor">
<tspan/>
</text>
<rect transform="translate(155.2307, 13.3876)" x="-0.0795" y="-3.2424" width="0.1590" height="10.2718" ry="0.0400" fill="currentColor"/>
<a style="color:inherit;" xlink:href="textedit:///Users/jwy/Documents/OPUS/GitHub/interactiveLoopingLine_20231129/public/pieces/interactiveLoopingLine20231129/notation/ill20231129_002ly.ly:73:18:19">
<path transform="translate(172.4958, 7.8876) scale(0.0052, -0.0052)" d="M222 135c53 0 104 -27 104 -86c0 -71 -56 -120 -103 -148c-36 -22 -76 -36 -118 -36c-53 0 -105 27 -105 86c0 71 57 120 104 148c36 22 76 36 118 36z" fill="currentColor"/>
</a>
<rect transform="translate(163.6530, 13.3876)" x="-0.0795" y="2.7576" width="0.1590" height="7.3918" ry="0.0400" fill="currentColor"/>
<a style="color:inherit;" xlink:href="textedit:///Users/jwy/Documents/OPUS/GitHub/interactiveLoopingLine_20231129/public/pieces/interactiveLoopingLine20231129/notation/ill20231129_002ly.ly:73:13:14">
<path transform="translate(163.5735, 15.8876) scale(0.0052, -0.0052)" d="M222 135c53 0 104 -27 104 -86c0 -71 -56 -120 -103 -148c-36 -22 -76 -36 -118 -36c-53 0 -105 27 -105 86c0 71 57 120 104 148c36 22 76 36 118 36z" fill="currentColor"/>
</a>
<a style="color:inherit;" xlink:href="textedit:///Users/jwy/Documents/OPUS/GitHub/interactiveLoopingLine_20231129/public/pieces/interactiveLoopingLine20231129/notation/ill20231129_002ly.ly:73:8:9">
<path transform="translate(155.1512, 9.8876) scale(0.0052, -0.0052)" d="M222 135c53 0 104 -27 104 -86c0 -71 -56 -120 -103 -148c-36 -22 -76 -36 -118 -36c-53 0 -105 27 -105 86c0 71 57 120 104 148c36 22 76 36 118 36z" fill="currentColor"/>
</a>
<a style="color:inherit;" xlink:href="textedit:///Users/jwy/Documents/OPUS/GitHub/interactiveLoopingLine_20231129/public/pieces/interactiveLoopingLine20231129/notation/ill20231129_002ly.ly:72:17:18">
<path transform="translate(146.5390, 13.3876) scale(0.0066, -0.0066)" d="M76 -250l116 327c-35 -12 -70 -23 -107 -23c-46 0 -87 34 -87 80c0 39 31 71 71 71c26 0 49 -16 57 -40c10 -28 6 -60 35 -60c17 0 58 54 65 70c5 11 20 10 24 0l-126 -425c-7 -6 -16 -9 -24 -9s-17 3 -24 9z" fill="currentColor"/>
</a>
<rect transform="translate(98.6863, 13.3876)" x="-0.0795" y="-2.5000" width="0.1590" height="8.6485" ry="0.0400" fill="currentColor"/>
<path transform="translate(99.5195, 19.8876) scale(0.0066, -0.0066)" d="M0 0c0 32 25 57 57 57s57 -25 57 -57s-25 -57 -57 -57s-57 25 -57 57z" fill="currentColor"/>
<rect transform="translate(181.2577, 13.3876)" x="-0.0795" y="2.2576" width="0.1590" height="8.1845" ry="0.0400" fill="currentColor"/>
<rect transform="translate(191.7412, 13.3876)" x="-0.0795" y="-5.8211" width="0.1590" height="8.5635" ry="0.0400" fill="currentColor"/>
<a style="color:inherit;" xlink:href="textedit:///Users/jwy/Documents/OPUS/GitHub/interactiveLoopingLine_20231129/public/pieces/interactiveLoopingLine20231129/notation/ill20231129_002ly.ly:74:21:22">
<path transform="translate(190.1106, 16.3876) scale(0.0052, -0.0052)" d="M222 135c53 0 104 -27 104 -86c0 -71 -56 -120 -103 -148c-36 -22 -76 -36 -118 -36c-53 0 -105 27 -105 86c0 71 57 120 104 148c36 22 76 36 118 36z" fill="currentColor"/>
</a>
<rect transform="translate(185.5989, 13.3876)" x="-0.0795" y="5.2576" width="0.1590" height="6.8900" ry="0.0400" fill="currentColor"/>
<a style="color:inherit;" xlink:href="textedit:///Users/jwy/Documents/OPUS/GitHub/interactiveLoopingLine_20231129/public/pieces/interactiveLoopingLine20231129/notation/ill20231129_002ly.ly:73:32:33">
<path transform="translate(185.5194, 18.3876) scale(0.0052, -0.0052)" d="M222 135c53 0 104 -27 104 -86c0 -71 -56 -120 -103 -148c-36 -22 -76 -36 -118 -36c-53 0 -105 27 -105 86c0 71 57 120 104 148c36 22 76 36 118 36z" fill="currentColor"/>
</a>
<rect transform="translate(172.5753, 13.3876)" x="-0.0795" y="-5.2424" width="0.1590" height="12.2736" ry="0.0400" fill="currentColor"/>
<a style="color:inherit;" xlink:href="textedit:///Users/jwy/Documents/OPUS/GitHub/interactiveLoopingLine_20231129/public/pieces/interactiveLoopingLine20231129/notation/ill20231129_002ly.ly:73:29:30">
<path transform="translate(181.1782, 15.3876) scale(0.0052, -0.0052)" d="M222 135c53 0 104 -27 104 -86c0 -71 -56 -120 -103 -148c-36 -22 -76 -36 -118 -36c-53 0 -105 27 -105 86c0 71 57 120 104 148c36 22 76 36 118 36z" fill="currentColor"/>
</a>
<rect transform="translate(176.9165, 13.3876)" x="-0.0795" y="-1.2424" width="0.1590" height="9.9791" ry="0.0400" fill="currentColor"/>
<a style="color:inherit;" xlink:href="textedit:///Users/jwy/Documents/OPUS/GitHub/interactiveLoopingLine_20231129/public/pieces/interactiveLoopingLine20231129/notation/ill20231129_002ly.ly:73:25:26">
<path transform="translate(176.8370, 11.8876) scale(0.0052, -0.0052)" d="M222 135c53 0 104 -27 104 -86c0 -71 -56 -120 -103 -148c-36 -22 -76 -36 -118 -36c-53 0 -105 27 -105 86c0 71 57 120 104 148c36 22 76 36 118 36z" fill="currentColor"/>
</a>
<a style="color:inherit;" xlink:href="textedit:///Users/jwy/Documents/OPUS/GitHub/interactiveLoopingLine_20231129/public/pieces/interactiveLoopingLine20231129/notation/ill20231129_002ly.ly:72:13:14">
<path transform="translate(96.9690, 19.8876) scale(0.0052, -0.0052)" d="M316 67c0 25 -20 42 -42 42c-4 0 -9 -1 -13 -2c-31 -9 -79 -41 -117 -65s-86 -55 -107 -80c-7 -8 -10 -19 -10 -29c0 -25 20 -42 42 -42c4 0 9 1 13 2c31 9 79 41 117 65s86 55 107 80c7 8 10 19 10 29zM265 135c44 0 78 -21 78 -68c0 -19 -5 -39 -11 -57
c-12 -37 -33 -71 -65 -93c-53 -36 -114 -52 -189 -52c-44 0 -78 21 -78 68c0 19 5 39 11 57c12 37 33 71 65 93c53 36 114 52 189 52z" fill="currentColor"/>
</a>
<rect transform="translate(45.6787, 13.3876)" x="-0.0795" y="-8.1789" width="0.1590" height="8.4212" ry="0.0400" fill="currentColor"/>
<a style="color:inherit;" xlink:href="textedit:///Users/jwy/Documents/OPUS/GitHub/interactiveLoopingLine_20231129/public/pieces/interactiveLoopingLine20231129/notation/ill20231129_002ly.ly:71:28:29">
<path transform="translate(44.0481, 13.8876) scale(0.0052, -0.0052)" d="M222 135c53 0 104 -27 104 -86c0 -71 -56 -120 -103 -148c-36 -22 -76 -36 -118 -36c-53 0 -105 27 -105 86c0 71 57 120 104 148c36 22 76 36 118 36z" fill="currentColor"/>
</a>
<rect transform="translate(41.6537, 13.3876)" x="-0.0795" y="-7.1572" width="0.1590" height="9.8996" ry="0.0400" fill="currentColor"/>
<a style="color:inherit;" xlink:href="textedit:///Users/jwy/Documents/OPUS/GitHub/interactiveLoopingLine_20231129/public/pieces/interactiveLoopingLine20231129/notation/ill20231129_002ly.ly:71:25:26">
<path transform="translate(40.0231, 16.3876) scale(0.0052, -0.0052)" d="M222 135c53 0 104 -27 104 -86c0 -71 -56 -120 -103 -148c-36 -22 -76 -36 -118 -36c-53 0 -105 27 -105 86c0 71 57 120 104 148c36 22 76 36 118 36z" fill="currentColor"/>
</a>
<rect transform="translate(37.8787, 13.3876)" x="-0.0795" y="-6.1990" width="0.1590" height="9.4414" ry="0.0400" fill="currentColor"/>
<a style="color:inherit;" xlink:href="textedit:///Users/jwy/Documents/OPUS/GitHub/interactiveLoopingLine_20231129/public/pieces/interactiveLoopingLine20231129/notation/ill20231129_002ly.ly:71:21:22">
<path transform="translate(36.2481, 16.8876) scale(0.0052, -0.0052)" d="M222 135c53 0 104 -27 104 -86c0 -71 -56 -120 -103 -148c-36 -22 -76 -36 -118 -36c-53 0 -105 27 -105 86c0 71 57 120 104 148c36 22 76 36 118 36z" fill="currentColor"/>
</a>
<rect transform="translate(21.2942, 13.3876)" x="-0.0795" y="-7.0000" width="0.1590" height="8.7424" ry="0.0400" fill="currentColor"/>
<a style="color:inherit;" xlink:href="textedit:///Users/jwy/Documents/OPUS/GitHub/interactiveLoopingLine_20231129/public/pieces/interactiveLoopingLine20231129/notation/ill20231129_002ly.ly:70:22:23">
<path transform="translate(19.6636, 15.3876) scale(0.0052, -0.0052)" d="M222 135c53 0 104 -27 104 -86c0 -71 -56 -120 -103 -148c-36 -22 -76 -36 -118 -36c-53 0 -105 27 -105 86c0 71 57 120 104 148c36 22 76 36 118 36z" fill="currentColor"/>
</a>
<rect transform="translate(64.3029, 13.3876)" x="-0.0795" y="-0.1485" width="0.1590" height="8.6485" ry="0.0400" fill="currentColor"/>
<a style="color:inherit;" xlink:href="textedit:///Users/jwy/Documents/OPUS/GitHub/interactiveLoopingLine_20231129/public/pieces/interactiveLoopingLine20231129/notation/ill20231129_002ly.ly:72:8:9">
<path transform="translate(64.2234, 12.8876) scale(0.0052, -0.0052)" d="M316 67c0 25 -20 42 -42 42c-4 0 -9 -1 -13 -2c-31 -9 -79 -41 -117 -65s-86 -55 -107 -80c-7 -8 -10 -19 -10 -29c0 -25 20 -42 42 -42c4 0 9 1 13 2c31 9 79 41 117 65s86 55 107 80c7 8 10 19 10 29zM265 135c44 0 78 -21 78 -68c0 -19 -5 -39 -11 -57
c-12 -37 -33 -71 -65 -93c-53 -36 -114 -52 -189 -52c-44 0 -78 21 -78 68c0 19 5 39 11 57c12 37 33 71 65 93c53 36 114 52 189 52z" fill="currentColor"/>
</a>
<path transform="translate(55.7101, 19.3476) scale(0.0066, -0.0066)" d="M0 0h-14v250h14c98 58 228 147 228 259c0 57 -15 112 -40 164c-3 15 9 25 21 25c7 0 14 -3 18 -10c25 -56 40 -117 40 -179c0 -203 -267 -306 -267 -509z" fill="currentColor"/>
<rect transform="translate(55.6306, 13.3876)" x="-0.0795" y="-2.7424" width="0.1590" height="8.7424" ry="0.0400" fill="currentColor"/>
<a style="color:inherit;" xlink:href="textedit:///Users/jwy/Documents/OPUS/GitHub/interactiveLoopingLine_20231129/public/pieces/interactiveLoopingLine20231129/notation/ill20231129_002ly.ly:71:41:42">
<path transform="translate(55.5511, 10.3876) scale(0.0052, -0.0052)" d="M222 135c53 0 104 -27 104 -86c0 -71 -56 -120 -103 -148c-36 -22 -76 -36 -118 -36c-53 0 -105 27 -105 86c0 71 57 120 104 148c36 22 76 36 118 36z" fill="currentColor"/>
</a>
<rect transform="translate(53.4786, 13.3876)" x="-0.0795" y="-10.1587" width="0.1590" height="6.9010" ry="0.0400" fill="currentColor"/>
<a style="color:inherit;" xlink:href="textedit:///Users/jwy/Documents/OPUS/GitHub/interactiveLoopingLine_20231129/public/pieces/interactiveLoopingLine20231129/notation/ill20231129_002ly.ly:71:35:36">
<path transform="translate(51.8480, 10.3876) scale(0.0052, -0.0052)" d="M222 135c53 0 104 -27 104 -86c0 -71 -56 -120 -103 -148c-36 -22 -76 -36 -118 -36c-53 0 -105 27 -105 86c0 71 57 120 104 148c36 22 76 36 118 36z" fill="currentColor"/>
</a>
<rect transform="translate(49.7037, 13.3876)" x="-0.0795" y="-9.2005" width="0.1590" height="6.4429" ry="0.0400" fill="currentColor"/>
<a style="color:inherit;" xlink:href="textedit:///Users/jwy/Documents/OPUS/GitHub/interactiveLoopingLine_20231129/public/pieces/interactiveLoopingLine20231129/notation/ill20231129_002ly.ly:71:31:32">
<path transform="translate(48.0730, 10.8876) scale(0.0052, -0.0052)" d="M222 135c53 0 104 -27 104 -86c0 -71 -56 -120 -103 -148c-36 -22 -76 -36 -118 -36c-53 0 -105 27 -105 86c0 71 57 120 104 148c36 22 76 36 118 36z" fill="currentColor"/>
</a>
<polygon transform="translate(394.5317, 21.3876)" stroke-linejoin="round" stroke-linecap="round" stroke-width="0.0800" fill="currentColor" stroke="currentColor" points="27.7784 -0.2000 27.7784 0.2000 0.0400 0.2000 0.0400 -0.2000"/>
<a style="color:inherit;" xlink:href="textedit:///Users/jwy/Documents/OPUS/GitHub/interactiveLoopingLine_20231129/public/pieces/interactiveLoopingLine20231129/notation/ill20231129_002ly.ly:91:8:9">
<line transform="translate(447.7738, 23.2120)" stroke-linejoin="round" stroke-linecap="round" stroke-width="0.1957" stroke="currentColor" x1="20.0817" y1="-3.6837" x2="20.0817" y2="-4.3837"/>
<line transform="translate(447.7738, 23.2120)" stroke-linejoin="round" stroke-linecap="round" stroke-width="0.1957" stroke="currentColor" x1="-0.1967" y1="0.0361" x2="-0.1967" y2="-0.6639"/>
<line transform="translate(447.7738, 23.2120)" stroke-linejoin="round" stroke-linecap="round" stroke-width="0.1957" stroke="currentColor" x1="20.0817" y1="-3.6837" x2="12.4133" y2="-2.2770"/>
<line transform="translate(447.7738, 23.2120)" stroke-linejoin="round" stroke-linecap="round" stroke-width="0.1957" stroke="currentColor" x1="-0.1967" y1="0.0361" x2="7.6684" y2="-1.4067"/>
</a>
<a style="color:inherit;" xlink:href="textedit:///Users/jwy/Documents/OPUS/GitHub/interactiveLoopingLine_20231129/public/pieces/interactiveLoopingLine20231129/notation/ill20231129_002ly.ly:91:8:9">
<text transform="translate(455.8043, 22.3271)" font-family="serif" font-style="italic" font-size="2.8814" text-anchor="start" fill="currentColor">
<tspan>7:1</tspan>
</text>
</a>
<polygon transform="translate(430.7102, 5.8876)" stroke-linejoin="round" stroke-linecap="round" stroke-width="0.0800" fill="currentColor" stroke="currentColor" points="14.1425 -1.7000 14.1425 -1.3000 0.0400 0.2000 0.0400 -0.2000"/>
<polygon transform="translate(430.7102, 6.7087)" stroke-linejoin="round" stroke-linecap="round" stroke-width="0.0800" fill="currentColor" stroke="currentColor" points="14.1425 -1.7000 14.1425 -1.3000 0.0400 0.2000 0.0400 -0.2000"/>
<polygon transform="translate(447.7738, 20.2453)" stroke-linejoin="round" stroke-linecap="round" stroke-width="0.0800" fill="currentColor" stroke="currentColor" points="18.6719 -3.8789 18.6719 -3.4789 0.0400 0.2000 0.0400 -0.2000"/>
<polygon transform="translate(447.7738, 21.0665)" stroke-linejoin="round" stroke-linecap="round" stroke-width="0.0800" fill="currentColor" stroke="currentColor" points="18.6719 -3.8789 18.6719 -3.4789 0.0400 0.2000 0.0400 -0.2000"/>
<polygon transform="translate(447.7738, 21.8876)" stroke-linejoin="round" stroke-linecap="round" stroke-width="0.0800" fill="currentColor" stroke="currentColor" points="18.6719 -3.8789 18.6719 -3.4789 0.0400 0.2000 0.0400 -0.2000"/>
<rect transform="translate(334.9777, 13.3876)" x="-0.0795" y="-7.8211" width="0.1590" height="7.5635" ry="0.0400" fill="currentColor"/>
<a style="color:inherit;" xlink:href="textedit:///Users/jwy/Documents/OPUS/GitHub/interactiveLoopingLine_20231129/public/pieces/interactiveLoopingLine20231129/notation/ill20231129_002ly.ly:81:26:27">
<path transform="translate(333.3471, 13.3876) scale(0.0052, -0.0052)" d="M222 135c53 0 104 -27 104 -86c0 -71 -56 -120 -103 -148c-36 -22 -76 -36 -118 -36c-53 0 -105 27 -105 86c0 71 57 120 104 148c36 22 76 36 118 36z" fill="currentColor"/>
</a>
<a style="color:inherit;" xlink:href="textedit:///Users/jwy/Documents/OPUS/GitHub/interactiveLoopingLine_20231129/public/pieces/interactiveLoopingLine20231129/notation/ill20231129_002ly.ly:85:8:9">
<text transform="translate(409.2142, 23.6665)" font-family="serif" font-style="italic" font-size="2.8814" text-anchor="start" fill="currentColor">
<tspan>5:2</tspan>
</text>
</a>
<rect transform="translate(328.1879, 13.3876)" x="-0.0795" y="-7.8211" width="0.1590" height="5.0635" ry="0.0400" fill="currentColor"/>
<a style="color:inherit;" xlink:href="textedit:///Users/jwy/Documents/OPUS/GitHub/interactiveLoopingLine_20231129/public/pieces/interactiveLoopingLine20231129/notation/ill20231129_002ly.ly:81:21:22">
<path transform="translate(326.5572, 10.8876) scale(0.0052, -0.0052)" d="M222 135c53 0 104 -27 104 -86c0 -71 -56 -120 -103 -148c-36 -22 -76 -36 -118 -36c-53 0 -105 27 -105 86c0 71 57 120 104 148c36 22 76 36 118 36z" fill="currentColor"/>
</a>
<path transform="translate(316.9462, 8.4276) scale(0.0066, -0.0066)" d="M0 0c0 -198 207 -336 207 -534c0 -71 -16 -142 -42 -208c-4 -7 -10 -11 -17 -11c-12 0 -24 10 -21 25c26 62 41 127 41 194c0 104 -96 209 -168 284h-14v250h14z" fill="currentColor"/>
<rect transform="translate(316.8667, 13.3876)" x="-0.0795" y="-5.0000" width="0.1590" height="8.7424" ry="0.0400" fill="currentColor"/>
<a style="color:inherit;" xlink:href="textedit:///Users/jwy/Documents/OPUS/GitHub/interactiveLoopingLine_20231129/public/pieces/interactiveLoopingLine20231129/notation/ill20231129_002ly.ly:76:25:26">
<path transform="translate(315.2361, 17.3876) scale(0.0052, -0.0052)" d="M222 135c53 0 104 -27 104 -86c0 -71 -56 -120 -103 -148c-36 -22 -76 -36 -118 -36c-53 0 -105 27 -105 86c0 71 57 120 104 148c36 22 76 36 118 36z" fill="currentColor"/>
</a>
<a style="color:inherit;" xlink:href="textedit:///Users/jwy/Documents/OPUS/GitHub/interactiveLoopingLine_20231129/public/pieces/interactiveLoopingLine20231129/notation/ill20231129_002ly.ly:74:35:36">
<path transform="translate(205.2105, 13.3876)" stroke-width="0.0978" stroke-linejoin="round" stroke-linecap="round" stroke="currentColor" fill="currentColor" d="M1.0550 3.7500C1.6009 4.3856 2.8367 4.3856 3.3825 3.7500L3.3825 3.7500C2.8367 4.2389 1.6009 4.2389 1.0550 3.7500z"/>
</a>
<a style="color:inherit;" xlink:href="textedit:///Users/jwy/Documents/OPUS/GitHub/interactiveLoopingLine_20231129/public/pieces/interactiveLoopingLine20231129/notation/ill20231129_002ly.ly:70:8:9">
<polygon transform="translate(2.5691, 21.0665)" stroke-linejoin="round" stroke-linecap="round" stroke-width="0.0800" fill="currentColor" stroke="currentColor" points="1.1395 0.3242 1.1395 0.7242 0.0400 0.2000 0.0400 -0.2000"/>
<polygon transform="translate(2.5691, 21.8876)" stroke-linejoin="round" stroke-linecap="round" stroke-width="0.0800" fill="currentColor" stroke="currentColor" points="4.4602 1.8000 4.4602 2.2000 0.0400 0.2000 0.0400 -0.2000"/>
</a>
<a style="color:inherit;" xlink:href="textedit:///Users/jwy/Documents/OPUS/GitHub/interactiveLoopingLine_20231129/public/pieces/interactiveLoopingLine20231129/notation/ill20231129_002ly.ly:70:19:20">
<path transform="translate(6.9102, 13.3876)" stroke-width="0.0978" stroke-linejoin="round" stroke-linecap="round" stroke="currentColor" fill="currentColor" d="M1.0550 2.7500C2.3867 3.7256 12.0768 3.7256 13.4084 2.7500L13.4084 2.7500C12.0768 3.5789 2.3867 3.5789 1.0550 2.7500z"/>
</a>
<a style="color:inherit;" xlink:href="textedit:///Users/jwy/Documents/OPUS/GitHub/interactiveLoopingLine_20231129/public/pieces/interactiveLoopingLine20231129/notation/ill20231129_002ly.ly:71:8:9">
<line transform="translate(37.7993, 5.1019)" stroke-linejoin="round" stroke-linecap="round" stroke-width="0.1957" stroke="currentColor" x1="16.5080" y1="-4.0068" x2="16.5080" y2="-3.3068"/>
<line transform="translate(37.7993, 5.1019)" stroke-linejoin="round" stroke-linecap="round" stroke-width="0.1957" stroke="currentColor" x1="-0.1944" y1="0.0472" x2="-0.1944" y2="0.7472"/>
<line transform="translate(37.7993, 5.1019)" stroke-linejoin="round" stroke-linecap="round" stroke-width="0.1957" stroke="currentColor" x1="16.5080" y1="-4.0068" x2="9.4367" y2="-2.2905"/>
<line transform="translate(37.7993, 5.1019)" stroke-linejoin="round" stroke-linecap="round" stroke-width="0.1957" stroke="currentColor" x1="-0.1944" y1="0.0472" x2="7.0713" y2="-1.7164"/>
</a>
<a style="color:inherit;" xlink:href="textedit:///Users/jwy/Documents/OPUS/GitHub/interactiveLoopingLine_20231129/public/pieces/interactiveLoopingLine20231129/notation/ill20231129_002ly.ly:71:8:9">
<text transform="translate(45.2391, 4.0269)" font-family="serif" font-style="italic" font-size="2.8814" text-anchor="start" fill="currentColor">
<tspan>5</tspan>
</text>
</a>
<a style="color:inherit;" xlink:href="textedit:///Users/jwy/Documents/OPUS/GitHub/interactiveLoopingLine_20231129/public/pieces/interactiveLoopingLine20231129/notation/ill20231129_002ly.ly:71:38:39">
<path transform="translate(51.8480, 13.3876)" stroke-width="0.0978" stroke-linejoin="round" stroke-linecap="round" stroke="currentColor" fill="currentColor" d="M2.0306 -3.7500C2.5765 -4.3856 3.8122 -4.3856 4.3581 -3.7500L4.3581 -3.7500C3.8122 -4.2389 2.5765 -4.2389 2.0306 -3.7500z"/>
</a>
<polygon transform="translate(37.7993, 7.2087)" stroke-linejoin="round" stroke-linecap="round" stroke-width="0.0800" fill="currentColor" stroke="currentColor" points="15.7189 -4.2000 15.7189 -3.8000 0.0400 0.2000 0.0400 -0.2000"/>
<polygon transform="translate(37.7993, 8.0299)" stroke-linejoin="round" stroke-linecap="round" stroke-width="0.0800" fill="currentColor" stroke="currentColor" points="15.7189 -4.2000 15.7189 -3.8000 0.0400 0.2000 0.0400 -0.2000"/>
<polygon transform="translate(155.1512, 20.3876)" stroke-linejoin="round" stroke-linecap="round" stroke-width="0.0800" fill="currentColor" stroke="currentColor" points="8.5413 2.9789 8.5413 3.3789 0.0400 0.2000 0.0400 -0.2000"/>
<a style="color:inherit;" xlink:href="textedit:///Users/jwy/Documents/OPUS/GitHub/interactiveLoopingLine_20231129/public/pieces/interactiveLoopingLine20231129/notation/ill20231129_002ly.ly:74:8:9">
<line transform="translate(191.6617, 6.2265)" stroke-linejoin="round" stroke-linecap="round" stroke-width="0.1957" stroke="currentColor" x1="16.0136" y1="-0.0000" x2="16.0136" y2="0.7000"/>
<line transform="translate(191.6617, 6.2265)" stroke-linejoin="round" stroke-linecap="round" stroke-width="0.1957" stroke="currentColor" x1="-0.2000" y1="-0.0000" x2="-0.2000" y2="0.7000"/>
<line transform="translate(191.6617, 6.2265)" stroke-linejoin="round" stroke-linecap="round" stroke-width="0.1957" stroke="currentColor" x1="16.0136" y1="-0.0000" x2="9.2238" y2="-0.0000"/>
<line transform="translate(191.6617, 6.2265)" stroke-linejoin="round" stroke-linecap="round" stroke-width="0.1957" stroke="currentColor" x1="-0.2000" y1="-0.0000" x2="6.7898" y2="-0.0000"/>
</a>
<a style="color:inherit;" xlink:href="textedit:///Users/jwy/Documents/OPUS/GitHub/interactiveLoopingLine_20231129/public/pieces/interactiveLoopingLine20231129/notation/ill20231129_002ly.ly:74:8:9">
<text transform="translate(198.8515, 7.1313)" font-family="serif" font-style="italic" font-size="2.8814" text-anchor="start" fill="currentColor">
<tspan>5</tspan>
</text>
</a>
<polygon transform="translate(172.4958, 19.5665)" stroke-linejoin="round" stroke-linecap="round" stroke-width="0.0800" fill="currentColor" stroke="currentColor" points="13.1425 4.9789 13.1425 5.3789 0.0400 0.2000 0.0400 -0.2000"/>
<polygon transform="translate(172.4958, 20.3876)" stroke-linejoin="round" stroke-linecap="round" stroke-width="0.0800" fill="currentColor" stroke="currentColor" points="13.1425 4.9789 13.1425 5.3789 0.0400 0.2000 0.0400 -0.2000"/>
<polygon transform="translate(191.6617, 7.5665)" stroke-linejoin="round" stroke-linecap="round" stroke-width="0.0800" fill="currentColor" stroke="currentColor" points="15.2189 -0.2000 15.2189 0.2000 0.0400 0.2000 0.0400 -0.2000"/>
<polygon transform="translate(191.6617, 8.3876)" stroke-linejoin="round" stroke-linecap="round" stroke-width="0.0800" fill="currentColor" stroke="currentColor" points="15.2189 -0.2000 15.2189 0.2000 0.0400 0.2000 0.0400 -0.2000"/>
<polygon transform="translate(208.9135, 23.0665)" stroke-linejoin="round" stroke-linecap="round" stroke-width="0.0800" fill="currentColor" stroke="currentColor" points="1.1395 -0.8319 1.1395 -0.4319 0.0400 0.2000 0.0400 -0.2000"/>
<polygon transform="translate(208.9135, 23.8876)" stroke-linejoin="round" stroke-linecap="round" stroke-width="0.0800" fill="currentColor" stroke="currentColor" points="4.9602 -2.8789 4.9602 -2.4789 0.0400 0.2000 0.0400 -0.2000"/>
<a style="color:inherit;" xlink:href="textedit:///Users/jwy/Documents/OPUS/GitHub/interactiveLoopingLine_20231129/public/pieces/interactiveLoopingLine20231129/notation/ill20231129_002ly.ly:76:8:9">
<line transform="translate(294.7613, 5.3839)" stroke-linejoin="round" stroke-linecap="round" stroke-width="0.1957" stroke="currentColor" x1="30.5574" y1="1.9601" x2="30.5574" y2="2.6601"/>
<line transform="translate(294.7613, 5.3839)" stroke-linejoin="round" stroke-linecap="round" stroke-width="0.1957" stroke="currentColor" x1="-0.1996" y1="-0.0128" x2="-0.1996" y2="0.6872"/>
<line transform="translate(294.7613, 5.3839)" stroke-linejoin="round" stroke-linecap="round" stroke-width="0.1957" stroke="currentColor" x1="30.5574" y1="1.9601" x2="16.4932" y2="1.0579"/>
<line transform="translate(294.7613, 5.3839)" stroke-linejoin="round" stroke-linecap="round" stroke-width="0.1957" stroke="currentColor" x1="-0.1996" y1="-0.0128" x2="14.0642" y2="0.9021"/>
</a>
<a style="color:inherit;" xlink:href="textedit:///Users/jwy/Documents/OPUS/GitHub/interactiveLoopingLine_20231129/public/pieces/interactiveLoopingLine20231129/notation/ill20231129_002ly.ly:76:8:9">
<text transform="translate(309.2232, 7.3136)" font-family="serif" font-style="italic" font-size="2.8814" text-anchor="start" fill="currentColor">
<tspan>3</tspan>
</text>
</a>
<a style="color:inherit;" xlink:href="textedit:///Users/jwy/Documents/OPUS/GitHub/interactiveLoopingLine_20231129/public/pieces/interactiveLoopingLine20231129/notation/ill20231129_002ly.ly:81:8:9">
<line transform="translate(328.1084, 4.2265)" stroke-linejoin="round" stroke-linecap="round" stroke-width="0.1957" stroke="currentColor" x1="31.8380" y1="-0.0000" x2="31.8380" y2="0.7000"/>
<line transform="translate(328.1084, 4.2265)" stroke-linejoin="round" stroke-linecap="round" stroke-width="0.1957" stroke="currentColor" x1="-0.2000" y1="-0.0000" x2="-0.2000" y2="0.7000"/>
<line transform="translate(328.1084, 4.2265)" stroke-linejoin="round" stroke-linecap="round" stroke-width="0.1957" stroke="currentColor" x1="31.8380" y1="-0.0000" x2="18.3310" y2="-0.0000"/>
<line transform="translate(328.1084, 4.2265)" stroke-linejoin="round" stroke-linecap="round" stroke-width="0.1957" stroke="currentColor" x1="-0.2000" y1="-0.0000" x2="13.5070" y2="-0.0000"/>
</a>
<a style="color:inherit;" xlink:href="textedit:///Users/jwy/Documents/OPUS/GitHub/interactiveLoopingLine_20231129/public/pieces/interactiveLoopingLine20231129/notation/ill20231129_002ly.ly:81:8:9">
<text transform="translate(342.0154, 5.1654)" font-family="serif" font-style="italic" font-size="2.8814" text-anchor="start" fill="currentColor">
<tspan>5:2</tspan>
</text>
</a>
<a style="color:inherit;" xlink:href="textedit:///Users/jwy/Documents/OPUS/GitHub/interactiveLoopingLine_20231129/public/pieces/interactiveLoopingLine20231129/notation/ill20231129_002ly.ly:83:8:9">
<line transform="translate(362.7357, 3.8839)" stroke-linejoin="round" stroke-linecap="round" stroke-width="0.1957" stroke="currentColor" x1="30.5574" y1="1.9601" x2="30.5574" y2="2.6601"/>
<line transform="translate(362.7357, 3.8839)" stroke-linejoin="round" stroke-linecap="round" stroke-width="0.1957" stroke="currentColor" x1="-0.1996" y1="-0.0128" x2="-0.1996" y2="0.6872"/>
<line transform="translate(362.7357, 3.8839)" stroke-linejoin="round" stroke-linecap="round" stroke-width="0.1957" stroke="currentColor" x1="30.5574" y1="1.9601" x2="16.4932" y2="1.0579"/>
<line transform="translate(362.7357, 3.8839)" stroke-linejoin="round" stroke-linecap="round" stroke-width="0.1957" stroke="currentColor" x1="-0.1996" y1="-0.0128" x2="14.0642" y2="0.9021"/>
</a>
<a style="color:inherit;" xlink:href="textedit:///Users/jwy/Documents/OPUS/GitHub/interactiveLoopingLine_20231129/public/pieces/interactiveLoopingLine20231129/notation/ill20231129_002ly.ly:83:8:9">
<text transform="translate(377.1976, 5.8136)" font-family="serif" font-style="italic" font-size="2.8814" text-anchor="start" fill="currentColor">
<tspan>3</tspan>
</text>
</a>
<polygon transform="translate(328.1084, 5.5665)" stroke-linejoin="round" stroke-linecap="round" stroke-width="0.0800" fill="currentColor" stroke="currentColor" points="27.7784 -0.2000 27.7784 0.2000 0.0400 0.2000 0.0400 -0.2000"/>
<a style="color:inherit;" xlink:href="textedit:///Users/jwy/Documents/OPUS/GitHub/interactiveLoopingLine_20231129/public/pieces/interactiveLoopingLine20231129/notation/ill20231129_002ly.ly:85:8:9">
<line transform="translate(394.5317, 22.7276)" stroke-linejoin="round" stroke-linecap="round" stroke-width="0.1957" stroke="currentColor" x1="33.3892" y1="-0.0000" x2="33.3892" y2="-0.7000"/>
<line transform="translate(394.5317, 22.7276)" stroke-linejoin="round" stroke-linecap="round" stroke-width="0.1957" stroke="currentColor" x1="-0.2000" y1="-0.0000" x2="-0.2000" y2="-0.7000"/>
<line transform="translate(394.5317, 22.7276)" stroke-linejoin="round" stroke-linecap="round" stroke-width="0.1957" stroke="currentColor" x1="33.3892" y1="-0.0000" x2="19.1066" y2="-0.0000"/>
<line transform="translate(394.5317, 22.7276)" stroke-linejoin="round" stroke-linecap="round" stroke-width="0.1957" stroke="currentColor" x1="-0.2000" y1="-0.0000" x2="14.2826" y2="-0.0000"/>
</a>
<rect transform="translate(206.8411, 13.3876)" x="-0.0795" y="-5.8211" width="0.1590" height="8.5635" ry="0.0400" fill="currentColor"/>
<a style="color:inherit;" xlink:href="textedit:///Users/jwy/Documents/OPUS/GitHub/interactiveLoopingLine_20231129/public/pieces/interactiveLoopingLine20231129/notation/ill20231129_002ly.ly:74:33:34">
<path transform="translate(205.2105, 16.3876) scale(0.0052, -0.0052)" d="M222 135c53 0 104 -27 104 -86c0 -71 -56 -120 -103 -148c-36 -22 -76 -36 -118 -36c-53 0 -105 27 -105 86c0 71 57 120 104 148c36 22 76 36 118 36z" fill="currentColor"/>
</a>
<rect transform="translate(203.0661, 13.3876)" x="-0.0795" y="-5.8211" width="0.1590" height="8.5635" ry="0.0400" fill="currentColor"/>
<a style="color:inherit;" xlink:href="textedit:///Users/jwy/Documents/OPUS/GitHub/interactiveLoopingLine_20231129/public/pieces/interactiveLoopingLine20231129/notation/ill20231129_002ly.ly:74:30:31">
<path transform="translate(201.4355, 16.3876) scale(0.0052, -0.0052)" d="M222 135c53 0 104 -27 104 -86c0 -71 -56 -120 -103 -148c-36 -22 -76 -36 -118 -36c-53 0 -105 27 -105 86c0 71 57 120 104 148c36 22 76 36 118 36z" fill="currentColor"/>
</a>
<rect transform="translate(199.2911, 13.3876)" x="-0.0795" y="-5.8211" width="0.1590" height="8.5635" ry="0.0400" fill="currentColor"/>
<a style="color:inherit;" xlink:href="textedit:///Users/jwy/Documents/OPUS/GitHub/interactiveLoopingLine_20231129/public/pieces/interactiveLoopingLine20231129/notation/ill20231129_002ly.ly:74:27:28">
<path transform="translate(197.6605, 16.3876) scale(0.0052, -0.0052)" d="M222 135c53 0 104 -27 104 -86c0 -71 -56 -120 -103 -148c-36 -22 -76 -36 -118 -36c-53 0 -105 27 -105 86c0 71 57 120 104 148c36 22 76 36 118 36z" fill="currentColor"/>
</a>
<rect transform="translate(195.5161, 13.3876)" x="-0.0795" y="-5.8211" width="0.1590" height="8.5635" ry="0.0400" fill="currentColor"/>
<a style="color:inherit;" xlink:href="textedit:///Users/jwy/Documents/OPUS/GitHub/interactiveLoopingLine_20231129/public/pieces/interactiveLoopingLine20231129/notation/ill20231129_002ly.ly:74:24:25">
<path transform="translate(193.8855, 16.3876) scale(0.0052, -0.0052)" d="M222 135c53 0 104 -27 104 -86c0 -71 -56 -120 -103 -148c-36 -22 -76 -36 -118 -36c-53 0 -105 27 -105 86c0 71 57 120 104 148c36 22 76 36 118 36z" fill="currentColor"/>
</a>
<rect transform="translate(294.8408, 13.3876)" x="-0.0795" y="-7.0000" width="0.1590" height="8.7424" ry="0.0400" fill="currentColor"/>
<a style="color:inherit;" xlink:href="textedit:///Users/jwy/Documents/OPUS/GitHub/interactiveLoopingLine_20231129/public/pieces/interactiveLoopingLine20231129/notation/ill20231129_002ly.ly:76:21:22">
<path transform="translate(293.2102, 15.3876) scale(0.0052, -0.0052)" d="M222 135c53 0 104 -27 104 -86c0 -71 -56 -120 -103 -148c-36 -22 -76 -36 -118 -36c-53 0 -105 27 -105 86c0 71 57 120 104 148c36 22 76 36 118 36z" fill="currentColor"/>
</a>
<a style="color:inherit;" xlink:href="textedit:///Users/jwy/Documents/OPUS/GitHub/interactiveLoopingLine_20231129/public/pieces/interactiveLoopingLine20231129/notation/ill20231129_002ly.ly:74:51:52">
<path transform="translate(226.5081, 20.3876) scale(0.0052, -0.0052)" d="M215 114c-50 0 -71 -42 -71 -88c0 -79 60 -140 139 -140c50 0 70 42 70 88c0 79 -59 140 -138 140zM497 0c0 -43 -35 -74 -73 -95c-54 -29 -114 -40 -175 -40s-122 11 -176 40c-38 21 -73 52 -73 95s35 74 73 95c54 29 115 40 176 40s121 -11 175 -40
c38 -21 73 -52 73 -95z" fill="currentColor"/>
</a>
<rect transform="translate(213.8342, 13.3876)" x="-0.0795" y="-3.7424" width="0.1590" height="11.6061" ry="0.0400" fill="currentColor"/>
<path transform="translate(216.2185, 9.3876) scale(0.0066, -0.0066)" d="M0 0c0 32 25 57 57 57s57 -25 57 -57s-25 -57 -57 -57s-57 25 -57 57z" fill="currentColor"/>
<a style="color:inherit;" xlink:href="textedit:///Users/jwy/Documents/OPUS/GitHub/interactiveLoopingLine_20231129/public/pieces/interactiveLoopingLine20231129/notation/ill20231129_002ly.ly:74:43:44">
<path transform="translate(213.7547, 9.3876) scale(0.0052, -0.0052)" d="M222 135c53 0 104 -27 104 -86c0 -71 -56 -120 -103 -148c-36 -22 -76 -36 -118 -36c-53 0 -105 27 -105 86c0 71 57 120 104 148c36 22 76 36 118 36z" fill="currentColor"/>
</a>
<rect transform="translate(208.9930, 13.3876)" x="-0.0795" y="3.2576" width="0.1590" height="7.1998" ry="0.0400" fill="currentColor"/>
<a style="color:inherit;" xlink:href="textedit:///Users/jwy/Documents/OPUS/GitHub/interactiveLoopingLine_20231129/public/pieces/interactiveLoopingLine20231129/notation/ill20231129_002ly.ly:74:38:39">
<path transform="translate(208.9135, 16.3876) scale(0.0052, -0.0052)" d="M222 135c53 0 104 -27 104 -86c0 -71 -56 -120 -103 -148c-36 -22 -76 -36 -118 -36c-53 0 -105 27 -105 86c0 71 57 120 104 148c36 22 76 36 118 36z" fill="currentColor"/>
</a>
<rect transform="translate(408.1909, 13.3876)" x="-0.0795" y="1.2576" width="0.1590" height="6.7424" ry="0.0400" fill="currentColor"/>
<rect transform="translate(422.2706, 13.3876)" x="-0.0795" y="1.2576" width="0.1590" height="6.7424" ry="0.0400" fill="currentColor"/>
<a style="color:inherit;" xlink:href="textedit:///Users/jwy/Documents/OPUS/GitHub/interactiveLoopingLine_20231129/public/pieces/interactiveLoopingLine20231129/notation/ill20231129_002ly.ly:85:39:40">
<path transform="translate(422.1911, 14.3876) scale(0.0052, -0.0052)" d="M222 135c53 0 104 -27 104 -86c0 -71 -56 -120 -103 -148c-36 -22 -76 -36 -118 -36c-53 0 -105 27 -105 86c0 71 57 120 104 148c36 22 76 36 118 36z" fill="currentColor"/>
</a>
<rect transform="translate(415.4807, 13.3876)" x="-0.0795" y="-4.2424" width="0.1590" height="12.2424" ry="0.0400" fill="currentColor"/>
<a style="color:inherit;" xlink:href="textedit:///Users/jwy/Documents/OPUS/GitHub/interactiveLoopingLine_20231129/public/pieces/interactiveLoopingLine20231129/notation/ill20231129_002ly.ly:85:34:35">
<path transform="translate(415.4012, 8.8876) scale(0.0052, -0.0052)" d="M222 135c53 0 104 -27 104 -86c0 -71 -56 -120 -103 -148c-36 -22 -76 -36 -118 -36c-53 0 -105 27 -105 86c0 71 57 120 104 148c36 22 76 36 118 36z" fill="currentColor"/>
</a>
<a style="color:inherit;" xlink:href="textedit:///Users/jwy/Documents/OPUS/GitHub/interactiveLoopingLine_20231129/public/pieces/interactiveLoopingLine20231129/notation/ill20231129_002ly.ly:85:31:32">
<path transform="translate(408.1114, 14.3876) scale(0.0052, -0.0052)" d="M222 135c53 0 104 -27 104 -86c0 -71 -56 -120 -103 -148c-36 -22 -76 -36 -118 -36c-53 0 -105 27 -105 86c0 71 57 120 104 148c36 22 76 36 118 36z" fill="currentColor"/>
</a>
<rect transform="translate(401.4010, 13.3876)" x="-0.0795" y="-1.7424" width="0.1590" height="9.7424" ry="0.0400" fill="currentColor"/>
<a style="color:inherit;" xlink:href="textedit:///Users/jwy/Documents/OPUS/GitHub/interactiveLoopingLine_20231129/public/pieces/interactiveLoopingLine20231129/notation/ill20231129_002ly.ly:85:27:28">
<path transform="translate(401.3215, 11.3876) scale(0.0052, -0.0052)" d="M222 135c53 0 104 -27 104 -86c0 -71 -56 -120 -103 -148c-36 -22 -76 -36 -118 -36c-53 0 -105 27 -105 86c0 71 57 120 104 148c36 22 76 36 118 36z" fill="currentColor"/>
</a>
<rect transform="translate(444.8132, 13.3876)" x="-0.0795" y="-8.9916" width="0.1590" height="6.7340" ry="0.0400" fill="currentColor"/>
<a style="color:inherit;" xlink:href="textedit:///Users/jwy/Documents/OPUS/GitHub/interactiveLoopingLine_20231129/public/pieces/interactiveLoopingLine20231129/notation/ill20231129_002ly.ly:88:19:20">
<path transform="translate(443.1826, 11.3876) scale(0.0052, -0.0052)" d="M222 135c53 0 104 -27 104 -86c0 -71 -56 -120 -103 -148c-36 -22 -76 -36 -118 -36c-53 0 -105 27 -105 86c0 71 57 120 104 148c36 22 76 36 118 36z" fill="currentColor"/>
</a>
<rect transform="translate(439.9720, 13.3876)" x="-0.0795" y="-8.4796" width="0.1590" height="10.7219" ry="0.0400" fill="currentColor"/>
<a style="color:inherit;" xlink:href="textedit:///Users/jwy/Documents/OPUS/GitHub/interactiveLoopingLine_20231129/public/pieces/interactiveLoopingLine20231129/notation/ill20231129_002ly.ly:88:16:17">
<path transform="translate(438.3414, 15.8876) scale(0.0052, -0.0052)" d="M222 135c53 0 104 -27 104 -86c0 -71 -56 -120 -103 -148c-36 -22 -76 -36 -118 -36c-53 0 -105 27 -105 86c0 71 57 120 104 148c36 22 76 36 118 36z" fill="currentColor"/>
</a>
<rect transform="translate(394.6112, 13.3876)" x="-0.0795" y="-3.7424" width="0.1590" height="11.7424" ry="0.0400" fill="currentColor"/>
<a style="color:inherit;" xlink:href="textedit:///Users/jwy/Documents/OPUS/GitHub/interactiveLoopingLine_20231129/public/pieces/interactiveLoopingLine20231129/notation/ill20231129_002ly.ly:88:13:14">
<path transform="translate(434.0002, 13.8876) scale(0.0052, -0.0052)" d="M222 135c53 0 104 -27 104 -86c0 -71 -56 -120 -103 -148c-36 -22 -76 -36 -118 -36c-53 0 -105 27 -105 86c0 71 57 120 104 148c36 22 76 36 118 36z" fill="currentColor"/>
</a>
<rect transform="translate(430.7896, 13.3876)" x="-0.0795" y="-7.5084" width="0.1590" height="8.7508" ry="0.0400" fill="currentColor"/>
<a style="color:inherit;" xlink:href="textedit:///Users/jwy/Documents/OPUS/GitHub/interactiveLoopingLine_20231129/public/pieces/interactiveLoopingLine20231129/notation/ill20231129_002ly.ly:88:8:9">
<path transform="translate(429.1590, 14.8876) scale(0.0052, -0.0052)" d="M222 135c53 0 104 -27 104 -86c0 -71 -56 -120 -103 -148c-36 -22 -76 -36 -118 -36c-53 0 -105 27 -105 86c0 71 57 120 104 148c36 22 76 36 118 36z" fill="currentColor"/>
</a>
<rect transform="translate(341.7676, 13.3876)" x="-0.0795" y="-7.8211" width="0.1590" height="10.5635" ry="0.0400" fill="currentColor"/>
<a style="color:inherit;" xlink:href="textedit:///Users/jwy/Documents/OPUS/GitHub/interactiveLoopingLine_20231129/public/pieces/interactiveLoopingLine20231129/notation/ill20231129_002ly.ly:81:29:30">
<path transform="translate(340.1370, 16.3876) scale(0.0052, -0.0052)" d="M222 135c53 0 104 -27 104 -86c0 -71 -56 -120 -103 -148c-36 -22 -76 -36 -118 -36c-53 0 -105 27 -105 86c0 71 57 120 104 148c36 22 76 36 118 36z" fill="currentColor"/>
</a>
<a style="color:inherit;" xlink:href="textedit:///Users/jwy/Documents/OPUS/GitHub/interactiveLoopingLine_20231129/public/pieces/interactiveLoopingLine20231129/notation/ill20231129_002ly.ly:81:32:33">
<path transform="translate(347.4268, 10.8876) scale(0.0052, -0.0052)" d="M222 135c53 0 104 -27 104 -86c0 -71 -56 -120 -103 -148c-36 -22 -76 -36 -118 -36c-53 0 -105 27 -105 86c0 71 57 120 104 148c36 22 76 36 118 36z" fill="currentColor"/>
</a>
<rect transform="translate(2.6485, 13.3876)" x="-0.0795" y="-1.7424" width="0.1590" height="10.2777" ry="0.0400" fill="currentColor"/>
<a style="color:inherit;" xlink:href="textedit:///Users/jwy/Documents/OPUS/GitHub/interactiveLoopingLine_20231129/public/pieces/interactiveLoopingLine20231129/notation/ill20231129_002ly.ly:66:8:9">
</a>
<a style="color:inherit;" xlink:href="textedit:///Users/jwy/Documents/OPUS/GitHub/interactiveLoopingLine_20231129/public/pieces/interactiveLoopingLine20231129/notation/ill20231129_002ly.ly:70:9:10">
<path transform="translate(2.5691, 11.3876) scale(0.0052, -0.0052)" d="M222 135c53 0 104 -27 104 -86c0 -71 -56 -120 -103 -148c-36 -22 -76 -36 -118 -36c-53 0 -105 27 -105 86c0 71 57 120 104 148c36 22 76 36 118 36z" fill="currentColor"/>
</a>
<a style="color:inherit;" xlink:href="textedit:///Users/jwy/Documents/OPUS/GitHub/interactiveLoopingLine_20231129/public/pieces/interactiveLoopingLine20231129/notation/ill20231129_002ly.ly:83:21:22">
<path transform="translate(361.1846, 13.8876) scale(0.0052, -0.0052)" d="M222 135c53 0 104 -27 104 -86c0 -71 -56 -120 -103 -148c-36 -22 -76 -36 -118 -36c-53 0 -105 27 -105 86c0 71 57 120 104 148c36 22 76 36 118 36z" fill="currentColor"/>
</a>
<a style="color:inherit;" xlink:href="textedit:///Users/jwy/Documents/OPUS/GitHub/interactiveLoopingLine_20231129/public/pieces/interactiveLoopingLine20231129/notation/ill20231129_002ly.ly:85:21:22">
<path transform="translate(394.5317, 9.3876) scale(0.0052, -0.0052)" d="M222 135c53 0 104 -27 104 -86c0 -71 -56 -120 -103 -148c-36 -22 -76 -36 -118 -36c-53 0 -105 27 -105 86c0 71 57 120 104 148c36 22 76 36 118 36z" fill="currentColor"/>
</a>
<path transform="translate(384.9207, 6.9276) scale(0.0066, -0.0066)" d="M0 0c0 -198 207 -336 207 -534c0 -71 -16 -142 -42 -208c-4 -7 -10 -11 -17 -11c-12 0 -24 10 -21 25c26 62 41 127 41 194c0 104 -96 209 -168 284h-14v250h14z" fill="currentColor"/>
<rect transform="translate(384.8412, 13.3876)" x="-0.0795" y="-6.5000" width="0.1590" height="8.7424" ry="0.0400" fill="currentColor"/>
<a style="color:inherit;" xlink:href="textedit:///Users/jwy/Documents/OPUS/GitHub/interactiveLoopingLine_20231129/public/pieces/interactiveLoopingLine20231129/notation/ill20231129_002ly.ly:83:25:26">
<path transform="translate(383.2106, 15.8876) scale(0.0052, -0.0052)" d="M222 135c53 0 104 -27 104 -86c0 -71 -56 -120 -103 -148c-36 -22 -76 -36 -118 -36c-53 0 -105 27 -105 86c0 71 57 120 104 148c36 22 76 36 118 36z" fill="currentColor"/>
</a>
<rect transform="translate(362.8152, 13.3876)" x="-0.0795" y="-8.5000" width="0.1590" height="8.7424" ry="0.0400" fill="currentColor"/>
<rect transform="translate(435.6308, 13.3876)" x="-0.0795" y="-8.0204" width="0.1590" height="8.2628" ry="0.0400" fill="currentColor"/>
<rect transform="translate(355.8473, 13.3876)" x="-0.0795" y="-7.8211" width="0.1590" height="10.5635" ry="0.0400" fill="currentColor"/>
<a style="color:inherit;" xlink:href="textedit:///Users/jwy/Documents/OPUS/GitHub/interactiveLoopingLine_20231129/public/pieces/interactiveLoopingLine20231129/notation/ill20231129_002ly.ly:81:36:37">
<path transform="translate(354.2167, 16.3876) scale(0.0052, -0.0052)" d="M222 135c53 0 104 -27 104 -86c0 -71 -56 -120 -103 -148c-36 -22 -76 -36 -118 -36c-53 0 -105 27 -105 86c0 71 57 120 104 148c36 22 76 36 118 36z" fill="currentColor"/>
</a>
<rect transform="translate(349.0574, 13.3876)" x="-0.0795" y="-7.8211" width="0.1590" height="5.0635" ry="0.0400" fill="currentColor"/>
<rect transform="translate(466.4062, 13.3876)" x="-0.0795" y="-6.2424" width="0.1590" height="11.0791" ry="0.0400" fill="currentColor"/>
<a style="color:inherit;" xlink:href="textedit:///Users/jwy/Documents/OPUS/GitHub/interactiveLoopingLine_20231129/public/pieces/interactiveLoopingLine20231129/notation/ill20231129_002ly.ly:91:47:48">
<path transform="translate(466.3267, 6.8876) scale(0.0052, -0.0052)" d="M222 135c53 0 104 -27 104 -86c0 -71 -56 -120 -103 -148c-36 -22 -76 -36 -118 -36c-53 0 -105 27 -105 86c0 71 57 120 104 148c36 22 76 36 118 36z" fill="currentColor"/>
</a>
<rect transform="translate(463.3140, 13.3876)" x="-0.0795" y="-4.2424" width="0.1590" height="9.6871" ry="0.0400" fill="currentColor"/>
<a style="color:inherit;" xlink:href="textedit:///Users/jwy/Documents/OPUS/GitHub/interactiveLoopingLine_20231129/public/pieces/interactiveLoopingLine20231129/notation/ill20231129_002ly.ly:93:8:9">
<path transform="translate(469.0969, 26.8876) scale(0.0052, -0.0052)" d="M215 114c-50 0 -71 -42 -71 -88c0 -79 60 -140 139 -140c50 0 70 42 70 88c0 79 -59 140 -138 140zM497 0c0 -43 -35 -74 -73 -95c-54 -29 -114 -40 -175 -40s-122 11 -176 40c-38 21 -73 52 -73 95s35 74 73 95c54 29 115 40 176 40s121 -11 175 -40
c38 -21 73 -52 73 -95z" fill="currentColor"/>
</a>
<rect transform="translate(460.2219, 13.3876)" x="-0.0795" y="-3.2424" width="0.1590" height="9.2950" ry="0.0400" fill="currentColor"/>
<a style="color:inherit;" xlink:href="textedit:///Users/jwy/Documents/OPUS/GitHub/interactiveLoopingLine_20231129/public/pieces/interactiveLoopingLine20231129/notation/ill20231129_002ly.ly:91:38:39">
<path transform="translate(460.1424, 9.8876) scale(0.0052, -0.0052)" d="M222 135c53 0 104 -27 104 -86c0 -71 -56 -120 -103 -148c-36 -22 -76 -36 -118 -36c-53 0 -105 27 -105 86c0 71 57 120 104 148c36 22 76 36 118 36z" fill="currentColor"/>
</a>
<rect transform="translate(6.9897, 13.3876)" x="-0.0795" y="2.2576" width="0.1590" height="8.2070" ry="0.0400" fill="currentColor"/>
<path transform="translate(9.3740, 15.3876) scale(0.0066, -0.0066)" d="M0 0c0 32 25 57 57 57s57 -25 57 -57s-25 -57 -57 -57s-57 25 -57 57z" fill="currentColor"/>
<a style="color:inherit;" xlink:href="textedit:///Users/jwy/Documents/OPUS/GitHub/interactiveLoopingLine_20231129/public/pieces/interactiveLoopingLine20231129/notation/ill20231129_002ly.ly:70:15:16">
<path transform="translate(6.9102, 15.3876) scale(0.0052, -0.0052)" d="M222 135c53 0 104 -27 104 -86c0 -71 -56 -120 -103 -148c-36 -22 -76 -36 -118 -36c-53 0 -105 27 -105 86c0 71 57 120 104 148c36 22 76 36 118 36z" fill="currentColor"/>
</a>
<a style="color:inherit;" xlink:href="textedit:///Users/jwy/Documents/OPUS/GitHub/interactiveLoopingLine_20231129/public/pieces/interactiveLoopingLine20231129/notation/ill20231129_002ly.ly:91:42:43">
<path transform="translate(463.2345, 8.8876) scale(0.0052, -0.0052)" d="M222 135c53 0 104 -27 104 -86c0 -71 -56 -120 -103 -148c-36 -22 -76 -36 -118 -36c-53 0 -105 27 -105 86c0 71 57 120 104 148c36 22 76 36 118 36z" fill="currentColor"/>
</a>
<path transform="translate(472.4551, 26.8876) scale(0.0066, -0.0066)" d="M0 0c0 32 25 57 57 57s57 -25 57 -57s-25 -57 -57 -57s-57 25 -57 57z" fill="currentColor"/>
<a style="color:inherit;" xlink:href="textedit:///Users/jwy/Documents/OPUS/GitHub/interactiveLoopingLine_20231129/public/pieces/interactiveLoopingLine20231129/notation/ill20231129_002ly.ly:91:30:31">
<path transform="translate(453.9581, 11.8876) scale(0.0052, -0.0052)" d="M222 135c53 0 104 -27 104 -86c0 -71 -56 -120 -103 -148c-36 -22 -76 -36 -118 -36c-53 0 -105 27 -105 86c0 71 57 120 104 148c36 22 76 36 118 36z" fill="currentColor"/>
</a>
<rect transform="translate(454.0376, 13.3876)" x="-0.0795" y="-1.2424" width="0.1590" height="8.5109" ry="0.0400" fill="currentColor"/>
<rect transform="translate(447.8533, 13.3876)" x="-0.0795" y="0.7576" width="0.1590" height="7.7267" ry="0.0400" fill="currentColor"/>
<a style="color:inherit;" xlink:href="textedit:///Users/jwy/Documents/OPUS/GitHub/interactiveLoopingLine_20231129/public/pieces/interactiveLoopingLine20231129/notation/ill20231129_002ly.ly:91:21:22">
<path transform="translate(447.7738, 13.8876) scale(0.0052, -0.0052)" d="M222 135c53 0 104 -27 104 -86c0 -71 -56 -120 -103 -148c-36 -22 -76 -36 -118 -36c-53 0 -105 27 -105 86c0 71 57 120 104 148c36 22 76 36 118 36z" fill="currentColor"/>
</a>
<a style="color:inherit;" xlink:href="textedit:///Users/jwy/Documents/OPUS/GitHub/interactiveLoopingLine_20231129/public/pieces/interactiveLoopingLine20231129/notation/ill20231129_002ly.ly:91:26:27">
<path transform="translate(450.8659, 12.8876) scale(0.0052, -0.0052)" d="M222 135c53 0 104 -27 104 -86c0 -71 -56 -120 -103 -148c-36 -22 -76 -36 -118 -36c-53 0 -105 27 -105 86c0 71 57 120 104 148c36 22 76 36 118 36z" fill="currentColor"/>
</a>
<rect transform="translate(457.1297, 13.3876)" x="-0.0795" y="-2.2424" width="0.1590" height="8.9029" ry="0.0400" fill="currentColor"/>
<rect transform="translate(450.9454, 13.3876)" x="-0.0795" y="-0.2424" width="0.1590" height="8.1188" ry="0.0400" fill="currentColor"/>
<a style="color:inherit;" xlink:href="textedit:///Users/jwy/Documents/OPUS/GitHub/interactiveLoopingLine_20231129/public/pieces/interactiveLoopingLine20231129/notation/ill20231129_002ly.ly:91:34:35">
<path transform="translate(457.0502, 10.8876) scale(0.0052, -0.0052)" d="M222 135c53 0 104 -27 104 -86c0 -71 -56 -120 -103 -148c-36 -22 -76 -36 -118 -36c-53 0 -105 27 -105 86c0 71 57 120 104 148c36 22 76 36 118 36z" fill="currentColor"/>
</a>
</svg>
