<svg xmlns="http://www.w3.org/2000/svg" xmlns:xlink="http://www.w3.org/1999/xlink" version="1.2" width="800.00mm" height="300.00mm" viewBox="0 0 455.2441 170.7165">
<style text="style/css">
<![CDATA[
tspan { white-space: pre; }
]]>
</style>
<!-- Page: 2/2 -->
<text transform="translate(0.0000, 1.5023)" font-family="serif" font-size="2.2001" text-anchor="start" fill="currentColor">
<tspan>2</tspan>
</text>
<text transform="translate(455.2441, 1.5023)" font-family="serif" font-size="2.2001" text-anchor="start" fill="currentColor">
<tspan/>
</text>
<line transform="translate(0.0000, 89.1578)" stroke-linejoin="round" stroke-linecap="round" stroke-width="0.2937" stroke="currentColor" x1="0.1469" y1="-0.0000" x2="455.0972" y2="-0.0000"/>
<line transform="translate(0.0000, 82.5078)" stroke-linejoin="round" stroke-linecap="round" stroke-width="0.2937" stroke="currentColor" x1="0.1469" y1="-0.0000" x2="455.0972" y2="-0.0000"/>
<line transform="translate(0.0000, 75.8578)" stroke-linejoin="round" stroke-linecap="round" stroke-width="0.2937" stroke="currentColor" x1="0.1469" y1="-0.0000" x2="455.0972" y2="-0.0000"/>
<line transform="translate(0.0000, 69.2078)" stroke-linejoin="round" stroke-linecap="round" stroke-width="0.2937" stroke="currentColor" x1="0.1469" y1="-0.0000" x2="455.0972" y2="-0.0000"/>
<line transform="translate(0.0000, 62.5578)" stroke-linejoin="round" stroke-linecap="round" stroke-width="0.2937" stroke="currentColor" x1="0.1469" y1="-0.0000" x2="455.0972" y2="-0.0000"/>
<rect transform="translate(0.0000, 95.8078)" x="343.9698" y="-0.4794" width="19.8377" height="0.9587" ry="0.4794" fill="currentColor"/>
<rect transform="translate(0.0000, 102.4578)" x="343.9698" y="-0.4794" width="19.8377" height="0.9587" ry="0.4794" fill="currentColor"/>
<rect transform="translate(0.0000, 109.1078)" x="343.9698" y="-0.4794" width="19.8377" height="0.9587" ry="0.4794" fill="currentColor"/>
<rect transform="translate(0.0000, 115.7578)" x="343.9698" y="-0.4794" width="19.8377" height="0.9587" ry="0.4794" fill="currentColor"/>
<rect transform="translate(0.0000, 122.4078)" x="343.9698" y="-0.4794" width="19.8377" height="0.9587" ry="0.4794" fill="currentColor"/>
<rect transform="translate(0.0000, 129.0578)" x="343.9698" y="-0.4794" width="19.8377" height="0.9587" ry="0.4794" fill="currentColor"/>
<rect transform="translate(0.0000, 135.7078)" x="343.9698" y="-0.4794" width="19.8377" height="0.9587" ry="0.4794" fill="currentColor"/>
<rect transform="translate(0.0000, 142.3578)" x="343.9698" y="-0.4794" width="19.8377" height="0.9587" ry="0.4794" fill="currentColor"/>
<rect transform="translate(0.0000, 149.0078)" x="343.9698" y="-0.4794" width="19.8377" height="0.9587" ry="0.4794" fill="currentColor"/>
<rect transform="translate(0.0000, 155.6578)" x="343.9698" y="-0.4794" width="19.8377" height="0.9587" ry="0.4794" fill="currentColor"/>
<rect transform="translate(0.0000, 162.3078)" x="343.9698" y="-0.4794" width="19.8377" height="0.9587" ry="0.4794" fill="currentColor"/>
<rect transform="translate(0.0000, 35.9578)" x="335.1441" y="-0.4794" width="12.9754" height="0.9587" ry="0.4794" fill="currentColor"/>
<rect transform="translate(0.0000, 42.6078)" x="335.1441" y="-0.4794" width="12.9754" height="0.9587" ry="0.4794" fill="currentColor"/>
<rect transform="translate(0.0000, 49.2578)" x="335.1441" y="-0.4794" width="12.9754" height="0.9587" ry="0.4794" fill="currentColor"/>
<rect transform="translate(0.0000, 55.9078)" x="335.1441" y="-0.4794" width="12.9754" height="0.9587" ry="0.4794" fill="currentColor"/>
<rect transform="translate(0.0000, 49.2578)" x="322.1187" y="-0.4794" width="12.9254" height="0.9587" ry="0.4794" fill="currentColor"/>
<rect transform="translate(0.0000, 55.9078)" x="322.1187" y="-0.4794" width="12.9254" height="0.9587" ry="0.4794" fill="currentColor"/>
<rect transform="translate(0.0000, 55.9078)" x="310.3862" y="-0.4794" width="11.6325" height="0.9587" ry="0.4794" fill="currentColor"/>
<rect transform="translate(0.0000, 49.2578)" x="198.9897" y="-0.4794" width="13.0254" height="0.9587" ry="0.4794" fill="currentColor"/>
<rect transform="translate(0.0000, 55.9078)" x="198.9897" y="-0.4794" width="13.0254" height="0.9587" ry="0.4794" fill="currentColor"/>
<rect transform="translate(0.0000, 49.2578)" x="155.5586" y="-0.4794" width="13.0254" height="0.9587" ry="0.4794" fill="currentColor"/>
<rect transform="translate(0.0000, 55.9078)" x="155.5586" y="-0.4794" width="13.0254" height="0.9587" ry="0.4794" fill="currentColor"/>
<rect transform="translate(0.0000, 95.8078)" x="108.3391" y="-0.4794" width="13.0254" height="0.9587" ry="0.4794" fill="currentColor"/>
<rect transform="translate(0.0000, 95.8078)" x="79.2184" y="-0.4794" width="13.0254" height="0.9587" ry="0.4794" fill="currentColor"/>
<rect transform="translate(0.0000, 95.8078)" x="45.2686" y="-0.4794" width="13.0254" height="0.9587" ry="0.4794" fill="currentColor"/>
<rect transform="translate(0.0000, 102.4578)" x="45.2686" y="-0.4794" width="13.0254" height="0.9587" ry="0.4794" fill="currentColor"/>
<rect transform="translate(0.0000, 95.8078)" x="0.8149" y="-0.4794" width="13.0254" height="0.9587" ry="0.4794" fill="currentColor"/>
<rect transform="translate(0.0000, 102.4578)" x="0.8149" y="-0.4794" width="13.0254" height="0.9587" ry="0.4794" fill="currentColor"/>
<rect transform="translate(0.0000, 109.1078)" x="0.8149" y="-0.4794" width="13.0254" height="0.9587" ry="0.4794" fill="currentColor"/>
<rect transform="translate(0.0000, 115.7578)" x="0.8149" y="-0.4794" width="13.0254" height="0.9587" ry="0.4794" fill="currentColor"/>
<rect transform="translate(0.0000, 122.4078)" x="0.8149" y="-0.4794" width="13.0254" height="0.9587" ry="0.4794" fill="currentColor"/>
<a style="color:inherit;" xlink:href="textedit:///Users/jwy/Documents/OPUS/GitHub/interactiveLoopingLine_20231129/public/pieces/interactiveLoopingLine20231129/notation/ill20231129.ly:74:13:14">
<path transform="translate(234.1361, 79.1828) scale(0.0266, -0.0266)" d="M222 135c53 0 104 -27 104 -86c0 -71 -56 -120 -103 -148c-36 -22 -76 -36 -118 -36c-53 0 -105 27 -105 86c0 71 57 120 104 148c36 22 76 36 118 36z" fill="currentColor"/>
</a>
<rect transform="translate(242.6288, 75.8578)" x="-0.1909" y="-64.9008" width="0.3818" height="66.9176" ry="0.0400" fill="currentColor"/>
<a style="color:inherit;" xlink:href="textedit:///Users/jwy/Documents/OPUS/GitHub/interactiveLoopingLine_20231129/public/pieces/interactiveLoopingLine20231129/notation/ill20231129.ly:74:16:17">
<path transform="translate(245.7926, 92.4828) scale(0.0266, -0.0266)" d="M222 135c53 0 104 -27 104 -86c0 -71 -56 -120 -103 -148c-36 -22 -76 -36 -118 -36c-53 0 -105 27 -105 86c0 71 57 120 104 148c36 22 76 36 118 36z" fill="currentColor"/>
</a>
<rect transform="translate(254.2853, 75.8578)" x="-0.1909" y="-68.2322" width="0.3818" height="83.5489" ry="0.0400" fill="currentColor"/>
<a style="color:inherit;" xlink:href="textedit:///Users/jwy/Documents/OPUS/GitHub/interactiveLoopingLine_20231129/public/pieces/interactiveLoopingLine20231129/notation/ill20231129.ly:74:19:20">
<path transform="translate(257.9492, 62.5578) scale(0.0266, -0.0266)" d="M222 135c53 0 104 -27 104 -86c0 -71 -56 -120 -103 -148c-36 -22 -76 -36 -118 -36c-53 0 -105 27 -105 86c0 71 57 120 104 148c36 22 76 36 118 36z" fill="currentColor"/>
</a>
<rect transform="translate(266.4419, 75.8578)" x="-0.1909" y="-71.7064" width="0.3818" height="57.0982" ry="0.0400" fill="currentColor"/>
<a style="color:inherit;" xlink:href="textedit:///Users/jwy/Documents/OPUS/GitHub/interactiveLoopingLine_20231129/public/pieces/interactiveLoopingLine20231129/notation/ill20231129.ly:77:21:22">
<path transform="translate(269.8558, 79.1828) scale(0.0266, -0.0266)" d="M222 135c53 0 104 -27 104 -86c0 -71 -56 -120 -103 -148c-36 -22 -76 -36 -118 -36c-53 0 -105 27 -105 86c0 71 57 120 104 148c36 22 76 36 118 36z" fill="currentColor"/>
</a>
<rect transform="translate(270.0467, 75.8578)" x="-0.1909" y="4.6333" width="0.3818" height="61.7959" ry="0.0400" fill="currentColor"/>
<a style="color:inherit;" xlink:href="textedit:///Users/jwy/Documents/OPUS/GitHub/interactiveLoopingLine_20231129/public/pieces/interactiveLoopingLine20231129/notation/ill20231129.ly:71:27:28">
<path transform="translate(172.0398, 62.5578) scale(0.0266, -0.0266)" d="M222 135c53 0 104 -27 104 -86c0 -71 -56 -120 -103 -148c-36 -22 -76 -36 -118 -36c-53 0 -105 27 -105 86c0 71 57 120 104 148c36 22 76 36 118 36z" fill="currentColor"/>
</a>
<a style="color:inherit;" xlink:href="textedit:///Users/jwy/Documents/OPUS/GitHub/interactiveLoopingLine_20231129/public/pieces/interactiveLoopingLine20231129/notation/ill20231129.ly:71:34:35">
<path transform="translate(201.1606, 45.9328) scale(0.0266, -0.0266)" d="M222 135c53 0 104 -27 104 -86c0 -71 -56 -120 -103 -148c-36 -22 -76 -36 -118 -36c-53 0 -105 27 -105 86c0 71 57 120 104 148c36 22 76 36 118 36z" fill="currentColor"/>
</a>
<a style="color:inherit;" xlink:href="textedit:///Users/jwy/Documents/OPUS/GitHub/interactiveLoopingLine_20231129/public/pieces/interactiveLoopingLine20231129/notation/ill20231129.ly:62:8:9">
<line transform="translate(36.7131, 19.3729)" stroke-linejoin="round" stroke-linecap="round" stroke-width="0.4699" stroke="currentColor" x1="24.2672" y1="13.6171" x2="24.2672" y2="18.2721"/>
<line transform="translate(36.7131, 19.3729)" stroke-linejoin="round" stroke-linecap="round" stroke-width="0.4699" stroke="currentColor" x1="-1.1599" y1="-0.6508" x2="-1.1599" y2="4.0042"/>
<line transform="translate(36.7131, 19.3729)" stroke-linejoin="round" stroke-linecap="round" stroke-width="0.4699" stroke="currentColor" x1="24.2672" y1="13.6171" x2="14.6079" y2="8.1970"/>
<line transform="translate(36.7131, 19.3729)" stroke-linejoin="round" stroke-linecap="round" stroke-width="0.4699" stroke="currentColor" x1="-1.1599" y1="-0.6508" x2="8.6739" y2="4.8672"/>
</a>
<rect transform="translate(172.2308, 75.8578)" x="-0.1909" y="-11.9917" width="0.3818" height="13.7067" ry="0.0400" fill="currentColor"/>
<a style="color:inherit;" xlink:href="textedit:///Users/jwy/Documents/OPUS/GitHub/interactiveLoopingLine_20231129/public/pieces/interactiveLoopingLine20231129/notation/ill20231129.ly:71:31:32">
<path transform="translate(178.2984, 82.5078) scale(0.0266, -0.0266)" d="M222 135c53 0 104 -27 104 -86c0 -71 -56 -120 -103 -148c-36 -22 -76 -36 -118 -36c-53 0 -105 27 -105 86c0 71 57 120 104 148c36 22 76 36 118 36z" fill="currentColor"/>
</a>
<rect transform="translate(186.7911, 75.8578)" x="-0.1909" y="-6.5788" width="0.3818" height="11.9205" ry="0.0400" fill="currentColor"/>
<rect transform="translate(230.4722, 75.8578)" x="-0.1909" y="-61.4266" width="0.3818" height="70.0933" ry="0.0400" fill="currentColor"/>
<rect transform="translate(201.3515, 75.8578)" x="-0.1909" y="-28.6167" width="0.3818" height="13.7442" ry="0.0400" fill="currentColor"/>
<a style="color:inherit;" xlink:href="textedit:///Users/jwy/Documents/OPUS/GitHub/interactiveLoopingLine_20231129/public/pieces/interactiveLoopingLine20231129/notation/ill20231129.ly:71:39:40">
<path transform="translate(207.4191, 82.5078) scale(0.0266, -0.0266)" d="M222 135c53 0 104 -27 104 -86c0 -71 -56 -120 -103 -148c-36 -22 -76 -36 -118 -36c-53 0 -105 27 -105 86c0 71 57 120 104 148c36 22 76 36 118 36z" fill="currentColor"/>
</a>
<rect transform="translate(215.9118, 75.8578)" x="-0.1909" y="-23.1663" width="0.3818" height="28.5080" ry="0.0400" fill="currentColor"/>
<a style="color:inherit;" xlink:href="textedit:///Users/jwy/Documents/OPUS/GitHub/interactiveLoopingLine_20231129/public/pieces/interactiveLoopingLine20231129/notation/ill20231129.ly:74:8:9">
<path transform="translate(221.9795, 85.8328) scale(0.0266, -0.0266)" d="M222 135c53 0 104 -27 104 -86c0 -71 -56 -120 -103 -148c-36 -22 -76 -36 -118 -36c-53 0 -105 27 -105 86c0 71 57 120 104 148c36 22 76 36 118 36z" fill="currentColor"/>
</a>
<polygon transform="translate(269.8558, 131.9560)" stroke-linejoin="round" stroke-linecap="round" stroke-width="0.0800" fill="currentColor" stroke="currentColor" points="67.7510 -26.7069 67.7510 -23.5949 0.0400 1.5560 0.0400 -1.5560"/>
<polygon transform="translate(269.8558, 137.1569)" stroke-linejoin="round" stroke-linecap="round" stroke-width="0.0800" fill="currentColor" stroke="currentColor" points="67.7510 -26.7069 67.7510 -23.5949 0.0400 1.5560 0.0400 -1.5560"/>
<polygon transform="translate(269.8558, 142.3578)" stroke-linejoin="round" stroke-linecap="round" stroke-width="0.0800" fill="currentColor" stroke="currentColor" points="67.7510 -26.7069 67.7510 -23.5949 0.0400 1.5560 0.0400 -1.5560"/>
<rect transform="translate(324.4305, 75.8578)" x="-0.1909" y="-28.6167" width="0.3818" height="74.8692" ry="0.0400" fill="currentColor"/>
<a style="color:inherit;" xlink:href="textedit:///Users/jwy/Documents/OPUS/GitHub/interactiveLoopingLine_20231129/public/pieces/interactiveLoopingLine20231129/notation/ill20231129.ly:77:47:48">
<path transform="translate(337.2650, 32.6328) scale(0.0266, -0.0266)" d="M222 135c53 0 104 -27 104 -86c0 -71 -56 -120 -103 -148c-36 -22 -76 -36 -118 -36c-53 0 -105 27 -105 86c0 71 57 120 104 148c36 22 76 36 118 36z" fill="currentColor"/>
</a>
<rect transform="translate(337.4559, 75.8578)" x="-0.1909" y="-41.9167" width="0.3818" height="83.3367" ry="0.0400" fill="currentColor"/>
<a style="color:inherit;" xlink:href="textedit:///Users/jwy/Documents/OPUS/GitHub/interactiveLoopingLine_20231129/public/pieces/interactiveLoopingLine20231129/notation/ill20231129.ly:79:8:9">
<path transform="translate(347.2760, 165.6328) scale(0.0266, -0.0266)" d="M215 114c-50 0 -71 -42 -71 -88c0 -79 60 -140 139 -140c50 0 70 42 70 88c0 79 -59 140 -138 140zM497 0c0 -43 -35 -74 -73 -95c-54 -29 -114 -40 -175 -40s-122 11 -176 40c-38 21 -73 52 -73 95s35 74 73 95c54 29 115 40 176 40s121 -11 175 -40
c38 -21 73 -52 73 -95z" fill="currentColor"/>
</a>
<a style="color:inherit;" xlink:href="textedit:///Users/jwy/Documents/OPUS/GitHub/interactiveLoopingLine_20231129/public/pieces/interactiveLoopingLine20231129/notation/ill20231129.ly:77:42:43">
<path transform="translate(324.2396, 45.9328) scale(0.0266, -0.0266)" d="M222 135c53 0 104 -27 104 -86c0 -71 -56 -120 -103 -148c-36 -22 -76 -36 -118 -36c-53 0 -105 27 -105 86c0 71 57 120 104 148c36 22 76 36 118 36z" fill="currentColor"/>
</a>
<polygon transform="translate(230.2813, 14.4858)" stroke-linejoin="round" stroke-linecap="round" stroke-width="0.0800" fill="currentColor" stroke="currentColor" points="36.3116 -11.9450 36.3116 -8.8330 0.0400 1.5560 0.0400 -1.5560"/>
<polygon transform="translate(230.2813, 19.6866)" stroke-linejoin="round" stroke-linecap="round" stroke-width="0.0800" fill="currentColor" stroke="currentColor" points="36.3116 -11.9450 36.3116 -8.8330 0.0400 1.5560 0.0400 -1.5560"/>
<a style="color:inherit;" xlink:href="textedit:///Users/jwy/Documents/OPUS/GitHub/interactiveLoopingLine_20231129/public/pieces/interactiveLoopingLine20231129/notation/ill20231129.ly:77:8:9">
<text transform="translate(300.0825, 136.3195)" font-family="serif" font-style="italic" font-size="11.6123" text-anchor="start" fill="currentColor">
<tspan>7:1</tspan>
</text>
</a>
<a style="color:inherit;" xlink:href="textedit:///Users/jwy/Documents/OPUS/GitHub/interactiveLoopingLine_20231129/public/pieces/interactiveLoopingLine20231129/notation/ill20231129.ly:77:8:9">
<line transform="translate(269.8558, 144.9829)" stroke-linejoin="round" stroke-linecap="round" stroke-width="0.4699" stroke="currentColor" x1="77.1835" y1="-25.4253" x2="77.1835" y2="-30.0803"/>
<line transform="translate(269.8558, 144.9829)" stroke-linejoin="round" stroke-linecap="round" stroke-width="0.4699" stroke="currentColor" x1="-1.2632" y1="0.4161" x2="-1.2632" y2="-4.2389"/>
<line transform="translate(269.8558, 144.9829)" stroke-linejoin="round" stroke-linecap="round" stroke-width="0.4699" stroke="currentColor" x1="77.1835" y1="-25.4253" x2="45.8752" y2="-15.1119"/>
<line transform="translate(269.8558, 144.9829)" stroke-linejoin="round" stroke-linecap="round" stroke-width="0.4699" stroke="currentColor" x1="-1.2632" y1="0.4161" x2="30.2350" y2="-9.9598"/>
</a>
<polygon transform="translate(157.7295, 85.8328)" stroke-linejoin="round" stroke-linecap="round" stroke-width="0.0800" fill="currentColor" stroke="currentColor" points="58.3333 -34.8060 58.3333 -31.6940 0.0400 1.5560 0.0400 -1.5560"/>
<a style="color:inherit;" xlink:href="textedit:///Users/jwy/Documents/OPUS/GitHub/interactiveLoopingLine_20231129/public/pieces/interactiveLoopingLine20231129/notation/ill20231129.ly:71:8:9">
<text transform="translate(181.3710, 94.5128)" font-family="serif" font-style="italic" font-size="11.6123" text-anchor="start" fill="currentColor">
<tspan>5:2</tspan>
</text>
</a>
<a style="color:inherit;" xlink:href="textedit:///Users/jwy/Documents/OPUS/GitHub/interactiveLoopingLine_20231129/public/pieces/interactiveLoopingLine20231129/notation/ill20231129.ly:71:8:9">
<line transform="translate(157.7295, 90.6546)" stroke-linejoin="round" stroke-linecap="round" stroke-width="0.4699" stroke="currentColor" x1="64.0800" y1="-0.0000" x2="64.0800" y2="-4.6550"/>
<line transform="translate(157.7295, 90.6546)" stroke-linejoin="round" stroke-linecap="round" stroke-width="0.4699" stroke="currentColor" x1="-1.3300" y1="-0.0000" x2="-1.3300" y2="-4.6550"/>
<line transform="translate(157.7295, 90.6546)" stroke-linejoin="round" stroke-linecap="round" stroke-width="0.4699" stroke="currentColor" x1="64.0800" y1="-0.0000" x2="39.7085" y2="-0.0000"/>
<line transform="translate(157.7295, 90.6546)" stroke-linejoin="round" stroke-linecap="round" stroke-width="0.4699" stroke="currentColor" x1="-1.3300" y1="-0.0000" x2="23.2415" y2="-0.0000"/>
</a>
<polygon transform="translate(60.8204, 99.1328)" stroke-linejoin="round" stroke-linecap="round" stroke-width="0.0800" fill="currentColor" stroke="currentColor" points="58.3333 -34.8060 58.3333 -31.6940 0.0400 1.5560 0.0400 -1.5560"/>
<a style="color:inherit;" xlink:href="textedit:///Users/jwy/Documents/OPUS/GitHub/interactiveLoopingLine_20231129/public/pieces/interactiveLoopingLine20231129/notation/ill20231129.ly:69:8:9">
<text transform="translate(142.2736, 19.7393)" font-family="serif" font-style="italic" font-size="11.6123" text-anchor="start" fill="currentColor">
<tspan>3</tspan>
</text>
</a>
<a style="color:inherit;" xlink:href="textedit:///Users/jwy/Documents/OPUS/GitHub/interactiveLoopingLine_20231129/public/pieces/interactiveLoopingLine20231129/notation/ill20231129.ly:69:8:9">
<line transform="translate(133.6222, 9.3979)" stroke-linejoin="round" stroke-linecap="round" stroke-width="0.4699" stroke="currentColor" x1="24.2672" y1="13.6171" x2="24.2672" y2="18.2721"/>
<line transform="translate(133.6222, 9.3979)" stroke-linejoin="round" stroke-linecap="round" stroke-width="0.4699" stroke="currentColor" x1="-1.1599" y1="-0.6508" x2="-1.1599" y2="4.0042"/>
<line transform="translate(133.6222, 9.3979)" stroke-linejoin="round" stroke-linecap="round" stroke-width="0.4699" stroke="currentColor" x1="24.2672" y1="13.6171" x2="14.6079" y2="8.1970"/>
<line transform="translate(133.6222, 9.3979)" stroke-linejoin="round" stroke-linecap="round" stroke-width="0.4699" stroke="currentColor" x1="-1.1599" y1="-0.6508" x2="8.6739" y2="4.8672"/>
</a>
<a style="color:inherit;" xlink:href="textedit:///Users/jwy/Documents/OPUS/GitHub/interactiveLoopingLine_20231129/public/pieces/interactiveLoopingLine20231129/notation/ill20231129.ly:67:8:9">
<text transform="translate(84.5869, 105.5782)" font-family="serif" font-style="italic" font-size="11.6123" text-anchor="start" fill="currentColor">
<tspan>5:2</tspan>
</text>
</a>
<a style="color:inherit;" xlink:href="textedit:///Users/jwy/Documents/OPUS/GitHub/interactiveLoopingLine_20231129/public/pieces/interactiveLoopingLine20231129/notation/ill20231129.ly:67:8:9">
<line transform="translate(60.8204, 101.7200)" stroke-linejoin="round" stroke-linecap="round" stroke-width="0.4699" stroke="currentColor" x1="64.3300" y1="-0.0000" x2="64.3300" y2="-4.6550"/>
<line transform="translate(60.8204, 101.7200)" stroke-linejoin="round" stroke-linecap="round" stroke-width="0.4699" stroke="currentColor" x1="-1.3300" y1="-0.0000" x2="-1.3300" y2="-4.6550"/>
<line transform="translate(60.8204, 101.7200)" stroke-linejoin="round" stroke-linecap="round" stroke-width="0.4699" stroke="currentColor" x1="64.3300" y1="-0.0000" x2="39.8335" y2="-0.0000"/>
<line transform="translate(60.8204, 101.7200)" stroke-linejoin="round" stroke-linecap="round" stroke-width="0.4699" stroke="currentColor" x1="-1.3300" y1="-0.0000" x2="23.3665" y2="-0.0000"/>
</a>
<a style="color:inherit;" xlink:href="textedit:///Users/jwy/Documents/OPUS/GitHub/interactiveLoopingLine_20231129/public/pieces/interactiveLoopingLine20231129/notation/ill20231129.ly:62:8:9">
<text transform="translate(45.3645, 29.7143)" font-family="serif" font-style="italic" font-size="11.6123" text-anchor="start" fill="currentColor">
<tspan>3</tspan>
</text>
</a>
<a style="color:inherit;" xlink:href="textedit:///Users/jwy/Documents/OPUS/GitHub/interactiveLoopingLine_20231129/public/pieces/interactiveLoopingLine20231129/notation/ill20231129.ly:77:26:27">
<path transform="translate(280.1954, 72.5328) scale(0.0266, -0.0266)" d="M222 135c53 0 104 -27 104 -86c0 -71 -56 -120 -103 -148c-36 -22 -76 -36 -118 -36c-53 0 -105 27 -105 86c0 71 57 120 104 148c36 22 76 36 118 36z" fill="currentColor"/>
</a>
<rect transform="translate(280.3863, 75.8578)" x="-0.1909" y="-2.0167" width="0.3818" height="64.6099" ry="0.0400" fill="currentColor"/>
<a style="color:inherit;" xlink:href="textedit:///Users/jwy/Documents/OPUS/GitHub/interactiveLoopingLine_20231129/public/pieces/interactiveLoopingLine20231129/notation/ill20231129.ly:77:30:31">
<path transform="translate(290.5350, 65.8828) scale(0.0266, -0.0266)" d="M222 135c53 0 104 -27 104 -86c0 -71 -56 -120 -103 -148c-36 -22 -76 -36 -118 -36c-53 0 -105 27 -105 86c0 71 57 120 104 148c36 22 76 36 118 36z" fill="currentColor"/>
</a>
<rect transform="translate(290.7259, 75.8578)" x="-0.1909" y="-8.6667" width="0.3818" height="67.4238" ry="0.0400" fill="currentColor"/>
<a style="color:inherit;" xlink:href="textedit:///Users/jwy/Documents/OPUS/GitHub/interactiveLoopingLine_20231129/public/pieces/interactiveLoopingLine20231129/notation/ill20231129.ly:77:34:35">
<path transform="translate(300.8746, 59.2328) scale(0.0266, -0.0266)" d="M222 135c53 0 104 -27 104 -86c0 -71 -56 -120 -103 -148c-36 -22 -76 -36 -118 -36c-53 0 -105 27 -105 86c0 71 57 120 104 148c36 22 76 36 118 36z" fill="currentColor"/>
</a>
<rect transform="translate(301.0655, 75.8578)" x="-0.1909" y="-15.3167" width="0.3818" height="70.2378" ry="0.0400" fill="currentColor"/>
<a style="color:inherit;" xlink:href="textedit:///Users/jwy/Documents/OPUS/GitHub/interactiveLoopingLine_20231129/public/pieces/interactiveLoopingLine20231129/notation/ill20231129.ly:77:38:39">
<path transform="translate(311.2142, 52.5828) scale(0.0266, -0.0266)" d="M222 135c53 0 104 -27 104 -86c0 -71 -56 -120 -103 -148c-36 -22 -76 -36 -118 -36c-53 0 -105 27 -105 86c0 71 57 120 104 148c36 22 76 36 118 36z" fill="currentColor"/>
</a>
<rect transform="translate(311.4051, 75.8578)" x="-0.1909" y="-21.9667" width="0.3818" height="73.0517" ry="0.0400" fill="currentColor"/>
<path transform="translate(56.1231, 29.3478) scale(0.0266, -0.0266)" d="M0 0c0 -198 207 -336 207 -534c0 -71 -16 -142 -42 -208c-4 -7 -10 -11 -17 -11c-12 0 -24 10 -21 25c26 62 41 127 41 194c0 104 -96 209 -168 284h-14v250h14z" fill="currentColor"/>
<a style="color:inherit;" xlink:href="textedit:///Users/jwy/Documents/OPUS/GitHub/interactiveLoopingLine_20231129/public/pieces/interactiveLoopingLine20231129/notation/ill20231129.ly:60:13:14">
<path transform="translate(2.9858, 122.4078) scale(0.0266, -0.0266)" d="M222 135c53 0 104 -27 104 -86c0 -71 -56 -120 -103 -148c-36 -22 -76 -36 -118 -36c-53 0 -105 27 -105 86c0 71 57 120 104 148c36 22 76 36 118 36z" fill="currentColor"/>
</a>
<rect transform="translate(11.4785, 75.8578)" x="-0.1909" y="-26.6000" width="0.3818" height="71.8417" ry="0.0400" fill="currentColor"/>
<a style="color:inherit;" xlink:href="textedit:///Users/jwy/Documents/OPUS/GitHub/interactiveLoopingLine_20231129/public/pieces/interactiveLoopingLine20231129/notation/ill20231129.ly:62:21:22">
<path transform="translate(28.4113, 89.1578) scale(0.0266, -0.0266)" d="M222 135c53 0 104 -27 104 -86c0 -71 -56 -120 -103 -148c-36 -22 -76 -36 -118 -36c-53 0 -105 27 -105 86c0 71 57 120 104 148c36 22 76 36 118 36z" fill="currentColor"/>
</a>
<rect transform="translate(36.9040, 75.8578)" x="-0.1909" y="-59.8500" width="0.3818" height="71.8417" ry="0.0400" fill="currentColor"/>
<a style="color:inherit;" xlink:href="textedit:///Users/jwy/Documents/OPUS/GitHub/interactiveLoopingLine_20231129/public/pieces/interactiveLoopingLine20231129/notation/ill20231129.ly:62:25:26">
<path transform="translate(47.4395, 102.4578) scale(0.0266, -0.0266)" d="M222 135c53 0 104 -27 104 -86c0 -71 -56 -120 -103 -148c-36 -22 -76 -36 -118 -36c-53 0 -105 27 -105 86c0 71 57 120 104 148c36 22 76 36 118 36z" fill="currentColor"/>
</a>
<rect transform="translate(55.9322, 75.8578)" x="-0.1909" y="-46.5500" width="0.3818" height="71.8417" ry="0.0400" fill="currentColor"/>
<a style="color:inherit;" xlink:href="textedit:///Users/jwy/Documents/OPUS/GitHub/interactiveLoopingLine_20231129/public/pieces/interactiveLoopingLine20231129/notation/ill20231129.ly:67:21:22">
<path transform="translate(60.8204, 59.2328) scale(0.0266, -0.0266)" d="M222 135c53 0 104 -27 104 -86c0 -71 -56 -120 -103 -148c-36 -22 -76 -36 -118 -36c-53 0 -105 27 -105 86c0 71 57 120 104 148c36 22 76 36 118 36z" fill="currentColor"/>
</a>
<rect transform="translate(61.0113, 75.8578)" x="-0.1909" y="-15.3167" width="0.3818" height="38.4830" ry="0.0400" fill="currentColor"/>
<a style="color:inherit;" xlink:href="textedit:///Users/jwy/Documents/OPUS/GitHub/interactiveLoopingLine_20231129/public/pieces/interactiveLoopingLine20231129/notation/ill20231129.ly:67:26:27">
<path transform="translate(75.1307, 75.8578) scale(0.0266, -0.0266)" d="M222 135c53 0 104 -27 104 -86c0 -71 -56 -120 -103 -148c-36 -22 -76 -36 -118 -36c-53 0 -105 27 -105 86c0 71 57 120 104 148c36 22 76 36 118 36z" fill="currentColor"/>
</a>
<rect transform="translate(75.3216, 75.8578)" x="-0.1909" y="1.3083" width="0.3818" height="13.7067" ry="0.0400" fill="currentColor"/>
<a style="color:inherit;" xlink:href="textedit:///Users/jwy/Documents/OPUS/GitHub/interactiveLoopingLine_20231129/public/pieces/interactiveLoopingLine20231129/notation/ill20231129.ly:60:12:13">
<path transform="translate(0.0000, 75.8578)" stroke-width="0.2350" stroke-linejoin="round" stroke-linecap="round" stroke="currentColor" fill="currentColor" d="M0.2000 49.8750C0.7886 50.6459 2.1972 50.6459 2.7858 49.8750L2.7858 49.8750C2.1972 50.2935 0.7886 50.2935 0.2000 49.8750z"/>
</a>
<a style="color:inherit;" xlink:href="textedit:///Users/jwy/Documents/OPUS/GitHub/interactiveLoopingLine_20231129/public/pieces/interactiveLoopingLine20231129/notation/ill20231129.ly:81:8:9">
<path transform="translate(430.0686, 89.1578) scale(0.0266, -0.0266)" d="M222 135c53 0 104 -27 104 -86c0 -71 -56 -120 -103 -148c-36 -22 -76 -36 -118 -36c-53 0 -105 27 -105 86c0 71 57 120 104 148c36 22 76 36 118 36z" fill="currentColor"/>
</a>
<rect transform="translate(438.5613, 75.8578)" x="-0.1909" y="-59.8500" width="0.3818" height="71.8417" ry="0.0400" fill="currentColor"/>
<a style="color:inherit;" xlink:href="textedit:///Users/jwy/Documents/OPUS/GitHub/interactiveLoopingLine_20231129/public/pieces/interactiveLoopingLine20231129/notation/ill20231129.ly:67:36:37">
<path transform="translate(110.5100, 95.8078) scale(0.0266, -0.0266)" d="M222 135c53 0 104 -27 104 -86c0 -71 -56 -120 -103 -148c-36 -22 -76 -36 -118 -36c-53 0 -105 27 -105 86c0 71 57 120 104 148c36 22 76 36 118 36z" fill="currentColor"/>
</a>
<rect transform="translate(119.0027, 75.8578)" x="-0.1909" y="-9.8663" width="0.3818" height="28.5080" ry="0.0400" fill="currentColor"/>
<a style="color:inherit;" xlink:href="textedit:///Users/jwy/Documents/OPUS/GitHub/interactiveLoopingLine_20231129/public/pieces/interactiveLoopingLine20231129/notation/ill20231129.ly:69:21:22">
<path transform="translate(125.3204, 79.1828) scale(0.0266, -0.0266)" d="M222 135c53 0 104 -27 104 -86c0 -71 -56 -120 -103 -148c-36 -22 -76 -36 -118 -36c-53 0 -105 27 -105 86c0 71 57 120 104 148c36 22 76 36 118 36z" fill="currentColor"/>
</a>
<rect transform="translate(133.8131, 75.8578)" x="-0.1909" y="-69.8250" width="0.3818" height="71.8417" ry="0.0400" fill="currentColor"/>
<a style="color:inherit;" xlink:href="textedit:///Users/jwy/Documents/OPUS/GitHub/interactiveLoopingLine_20231129/public/pieces/interactiveLoopingLine20231129/notation/ill20231129.ly:69:25:26">
<path transform="translate(144.3486, 92.4828) scale(0.0266, -0.0266)" d="M222 135c53 0 104 -27 104 -86c0 -71 -56 -120 -103 -148c-36 -22 -76 -36 -118 -36c-53 0 -105 27 -105 86c0 71 57 120 104 148c36 22 76 36 118 36z" fill="currentColor"/>
</a>
<rect transform="translate(152.8413, 75.8578)" x="-0.1909" y="-56.5250" width="0.3818" height="71.8417" ry="0.0400" fill="currentColor"/>
<path transform="translate(153.0322, 19.3728) scale(0.0266, -0.0266)" d="M0 0c0 -198 207 -336 207 -534c0 -71 -16 -142 -42 -208c-4 -7 -10 -11 -17 -11c-12 0 -24 10 -21 25c26 62 41 127 41 194c0 104 -96 209 -168 284h-14v250h14z" fill="currentColor"/>
<a style="color:inherit;" xlink:href="textedit:///Users/jwy/Documents/OPUS/GitHub/interactiveLoopingLine_20231129/public/pieces/interactiveLoopingLine20231129/notation/ill20231129.ly:71:21:22">
<path transform="translate(157.7295, 49.2578) scale(0.0266, -0.0266)" d="M222 135c53 0 104 -27 104 -86c0 -71 -56 -120 -103 -148c-36 -22 -76 -36 -118 -36c-53 0 -105 27 -105 86c0 71 57 120 104 148c36 22 76 36 118 36z" fill="currentColor"/>
</a>
<rect transform="translate(157.9204, 75.8578)" x="-0.1909" y="-25.2917" width="0.3818" height="35.1580" ry="0.0400" fill="currentColor"/>
<rect transform="translate(89.8820, 75.8578)" x="-0.1909" y="6.7212" width="0.3818" height="11.9205" ry="0.0400" fill="currentColor"/>
<a style="color:inherit;" xlink:href="textedit:///Users/jwy/Documents/OPUS/GitHub/interactiveLoopingLine_20231129/public/pieces/interactiveLoopingLine20231129/notation/ill20231129.ly:67:29:30">
<path transform="translate(81.3893, 95.8078) scale(0.0266, -0.0266)" d="M222 135c53 0 104 -27 104 -86c0 -71 -56 -120 -103 -148c-36 -22 -76 -36 -118 -36c-53 0 -105 27 -105 86c0 71 57 120 104 148c36 22 76 36 118 36z" fill="currentColor"/>
</a>
<a style="color:inherit;" xlink:href="textedit:///Users/jwy/Documents/OPUS/GitHub/interactiveLoopingLine_20231129/public/pieces/interactiveLoopingLine20231129/notation/ill20231129.ly:67:32:33">
<path transform="translate(104.2515, 59.2328) scale(0.0266, -0.0266)" d="M222 135c53 0 104 -27 104 -86c0 -71 -56 -120 -103 -148c-36 -22 -76 -36 -118 -36c-53 0 -105 27 -105 86c0 71 57 120 104 148c36 22 76 36 118 36z" fill="currentColor"/>
</a>
<rect transform="translate(104.4424, 75.8578)" x="-0.1909" y="-15.3167" width="0.3818" height="13.7442" ry="0.0400" fill="currentColor"/>
</svg>
