<svg xmlns="http://www.w3.org/2000/svg" xmlns:xlink="http://www.w3.org/1999/xlink" version="1.2" width="1450.00mm" height="100.00mm" viewBox="0 0 825.1299 56.9055">
<style text="style/css">
<![CDATA[
tspan { white-space: pre; }
]]>
</style>
<!-- Page: 1/1 -->
<text transform="translate(0.0000, -0.0000)" font-family="serif" font-size="2.2001" text-anchor="start" fill="currentColor">
<tspan/>
</text>
<rect transform="translate(213.6306, 17.8600)" x="-0.0795" y="-11.9725" width="0.1590" height="6.2149" ry="0.0400" fill="currentColor"/>
<a style="color:inherit;" xlink:href="textedit:///Users/jwy/Documents/OPUS/GitHub/interactiveLoopingLine_20231129/public/pieces/interactiveLoopingLine20231129/notation/ill20231129.ly:81:18:19">
<path transform="translate(212.0000, 12.3600) scale(0.0052, -0.0052)" d="M222 135c53 0 104 -27 104 -86c0 -71 -56 -120 -103 -148c-36 -22 -76 -36 -118 -36c-53 0 -105 27 -105 86c0 71 57 120 104 148c36 22 76 36 118 36z" fill="currentColor"/>
</a>
<rect transform="translate(203.1306, 17.8600)" x="-0.0795" y="-8.5248" width="0.1590" height="10.7671" ry="0.0400" fill="currentColor"/>
<a style="color:inherit;" xlink:href="textedit:///Users/jwy/Documents/OPUS/GitHub/interactiveLoopingLine_20231129/public/pieces/interactiveLoopingLine20231129/notation/ill20231129.ly:81:13:14">
<path transform="translate(201.5000, 20.3600) scale(0.0052, -0.0052)" d="M222 135c53 0 104 -27 104 -86c0 -71 -56 -120 -103 -148c-36 -22 -76 -36 -118 -36c-53 0 -105 27 -105 86c0 71 57 120 104 148c36 22 76 36 118 36z" fill="currentColor"/>
</a>
<rect transform="translate(192.6306, 17.8600)" x="-0.0795" y="-11.7964" width="0.1590" height="8.0387" ry="0.0400" fill="currentColor"/>
<a style="color:inherit;" xlink:href="textedit:///Users/jwy/Documents/OPUS/GitHub/interactiveLoopingLine_20231129/public/pieces/interactiveLoopingLine20231129/notation/ill20231129.ly:81:8:9">
<path transform="translate(191.0000, 14.3600) scale(0.0052, -0.0052)" d="M222 135c53 0 104 -27 104 -86c0 -71 -56 -120 -103 -148c-36 -22 -76 -36 -118 -36c-53 0 -105 27 -105 86c0 71 57 120 104 148c36 22 76 36 118 36z" fill="currentColor"/>
</a>
<a style="color:inherit;" xlink:href="textedit:///Users/jwy/Documents/OPUS/GitHub/interactiveLoopingLine_20231129/public/pieces/interactiveLoopingLine20231129/notation/ill20231129.ly:80:17:18">
<path transform="translate(180.5000, 17.8600) scale(0.0066, -0.0066)" d="M76 -250l116 327c-35 -12 -70 -23 -107 -23c-46 0 -87 34 -87 80c0 39 31 71 71 71c26 0 49 -16 57 -40c10 -28 6 -60 35 -60c17 0 58 54 65 70c5 11 20 10 24 0l-126 -425c-7 -6 -16 -9 -24 -9s-17 3 -24 9z" fill="currentColor"/>
</a>
<rect transform="translate(234.6306, 17.8600)" x="-0.0795" y="-5.8211" width="0.1590" height="8.5635" ry="0.0400" fill="currentColor"/>
<a style="color:inherit;" xlink:href="textedit:///Users/jwy/Documents/OPUS/GitHub/interactiveLoopingLine_20231129/public/pieces/interactiveLoopingLine20231129/notation/ill20231129.ly:82:21:22">
<path transform="translate(233.0000, 20.8600) scale(0.0052, -0.0052)" d="M222 135c53 0 104 -27 104 -86c0 -71 -56 -120 -103 -148c-36 -22 -76 -36 -118 -36c-53 0 -105 27 -105 86c0 71 57 120 104 148c36 22 76 36 118 36z" fill="currentColor"/>
</a>
<rect transform="translate(229.3806, 17.8600)" x="-0.0795" y="-6.5275" width="0.1590" height="11.2698" ry="0.0400" fill="currentColor"/>
<a style="color:inherit;" xlink:href="textedit:///Users/jwy/Documents/OPUS/GitHub/interactiveLoopingLine_20231129/public/pieces/interactiveLoopingLine20231129/notation/ill20231129.ly:81:32:33">
<path transform="translate(227.7500, 22.8600) scale(0.0052, -0.0052)" d="M222 135c53 0 104 -27 104 -86c0 -71 -56 -120 -103 -148c-36 -22 -76 -36 -118 -36c-53 0 -105 27 -105 86c0 71 57 120 104 148c36 22 76 36 118 36z" fill="currentColor"/>
</a>
<rect transform="translate(224.1306, 17.8600)" x="-0.0795" y="-8.3425" width="0.1590" height="10.0849" ry="0.0400" fill="currentColor"/>
<a style="color:inherit;" xlink:href="textedit:///Users/jwy/Documents/OPUS/GitHub/interactiveLoopingLine_20231129/public/pieces/interactiveLoopingLine20231129/notation/ill20231129.ly:81:29:30">
<path transform="translate(222.5000, 19.8600) scale(0.0052, -0.0052)" d="M222 135c53 0 104 -27 104 -86c0 -71 -56 -120 -103 -148c-36 -22 -76 -36 -118 -36c-53 0 -105 27 -105 86c0 71 57 120 104 148c36 22 76 36 118 36z" fill="currentColor"/>
</a>
<rect transform="translate(218.8806, 17.8600)" x="-0.0795" y="-10.1575" width="0.1590" height="8.3999" ry="0.0400" fill="currentColor"/>
<a style="color:inherit;" xlink:href="textedit:///Users/jwy/Documents/OPUS/GitHub/interactiveLoopingLine_20231129/public/pieces/interactiveLoopingLine20231129/notation/ill20231129.ly:81:25:26">
<path transform="translate(217.2500, 16.3600) scale(0.0052, -0.0052)" d="M222 135c53 0 104 -27 104 -86c0 -71 -56 -120 -103 -148c-36 -22 -76 -36 -118 -36c-53 0 -105 27 -105 86c0 71 57 120 104 148c36 22 76 36 118 36z" fill="currentColor"/>
</a>
<rect transform="translate(119.2173, 17.8600)" x="-0.0795" y="-2.5000" width="0.1590" height="8.6485" ry="0.0400" fill="currentColor"/>
<a style="color:inherit;" xlink:href="textedit:///Users/jwy/Documents/OPUS/GitHub/interactiveLoopingLine_20231129/public/pieces/interactiveLoopingLine20231129/notation/ill20231129.ly:79:31:32">
<path transform="translate(56.6000, 15.3600) scale(0.0052, -0.0052)" d="M222 135c53 0 104 -27 104 -86c0 -71 -56 -120 -103 -148c-36 -22 -76 -36 -118 -36c-53 0 -105 27 -105 86c0 71 57 120 104 148c36 22 76 36 118 36z" fill="currentColor"/>
</a>
<rect transform="translate(54.0306, 17.8600)" x="-0.0795" y="-8.1789" width="0.1590" height="8.4212" ry="0.0400" fill="currentColor"/>
<a style="color:inherit;" xlink:href="textedit:///Users/jwy/Documents/OPUS/GitHub/interactiveLoopingLine_20231129/public/pieces/interactiveLoopingLine20231129/notation/ill20231129.ly:79:28:29">
<path transform="translate(52.4000, 18.3600) scale(0.0052, -0.0052)" d="M222 135c53 0 104 -27 104 -86c0 -71 -56 -120 -103 -148c-36 -22 -76 -36 -118 -36c-53 0 -105 27 -105 86c0 71 57 120 104 148c36 22 76 36 118 36z" fill="currentColor"/>
</a>
<rect transform="translate(49.8306, 17.8600)" x="-0.0795" y="-7.1882" width="0.1590" height="9.9306" ry="0.0400" fill="currentColor"/>
<rect transform="translate(58.2306, 17.8600)" x="-0.0795" y="-9.1695" width="0.1590" height="6.4118" ry="0.0400" fill="currentColor"/>
<rect transform="translate(45.6306, 17.8600)" x="-0.0795" y="-6.1976" width="0.1590" height="9.4400" ry="0.0400" fill="currentColor"/>
<a style="color:inherit;" xlink:href="textedit:///Users/jwy/Documents/OPUS/GitHub/interactiveLoopingLine_20231129/public/pieces/interactiveLoopingLine20231129/notation/ill20231129.ly:79:21:22">
<path transform="translate(44.0000, 21.3600) scale(0.0052, -0.0052)" d="M222 135c53 0 104 -27 104 -86c0 -71 -56 -120 -103 -148c-36 -22 -76 -36 -118 -36c-53 0 -105 27 -105 86c0 71 57 120 104 148c36 22 76 36 118 36z" fill="currentColor"/>
</a>
<rect transform="translate(24.6306, 17.8600)" x="-0.0795" y="-7.0000" width="0.1590" height="8.7424" ry="0.0400" fill="currentColor"/>
<a style="color:inherit;" xlink:href="textedit:///Users/jwy/Documents/OPUS/GitHub/interactiveLoopingLine_20231129/public/pieces/interactiveLoopingLine20231129/notation/ill20231129.ly:78:22:23">
<path transform="translate(23.0000, 19.8600) scale(0.0052, -0.0052)" d="M222 135c53 0 104 -27 104 -86c0 -71 -56 -120 -103 -148c-36 -22 -76 -36 -118 -36c-53 0 -105 27 -105 86c0 71 57 120 104 148c36 22 76 36 118 36z" fill="currentColor"/>
</a>
<rect transform="translate(66.6306, 17.8600)" x="-0.0795" y="-11.5000" width="0.1590" height="8.2424" ry="0.0400" fill="currentColor"/>
<path transform="translate(120.0505, 24.3600) scale(0.0066, -0.0066)" d="M0 0c0 32 25 57 57 57s57 -25 57 -57s-25 -57 -57 -57s-57 25 -57 57z" fill="currentColor"/>
<a style="color:inherit;" xlink:href="textedit:///Users/jwy/Documents/OPUS/GitHub/interactiveLoopingLine_20231129/public/pieces/interactiveLoopingLine20231129/notation/ill20231129.ly:80:13:14">
<path transform="translate(117.5000, 24.3600) scale(0.0052, -0.0052)" d="M316 67c0 25 -20 42 -42 42c-4 0 -9 -1 -13 -2c-31 -9 -79 -41 -117 -65s-86 -55 -107 -80c-7 -8 -10 -19 -10 -29c0 -25 20 -42 42 -42c4 0 9 1 13 2c31 9 79 41 117 65s86 55 107 80c7 8 10 19 10 29zM265 135c44 0 78 -21 78 -68c0 -19 -5 -39 -11 -57
c-12 -37 -33 -71 -65 -93c-53 -36 -114 -52 -189 -52c-44 0 -78 21 -78 68c0 19 5 39 11 57c12 37 33 71 65 93c53 36 114 52 189 52z" fill="currentColor"/>
</a>
<rect transform="translate(77.2173, 17.8600)" x="-0.0795" y="-9.1667" width="0.1590" height="8.3152" ry="0.0400" fill="currentColor"/>
<a style="color:inherit;" xlink:href="textedit:///Users/jwy/Documents/OPUS/GitHub/interactiveLoopingLine_20231129/public/pieces/interactiveLoopingLine20231129/notation/ill20231129.ly:80:8:9">
<path transform="translate(75.5000, 17.3600) scale(0.0052, -0.0052)" d="M316 67c0 25 -20 42 -42 42c-4 0 -9 -1 -13 -2c-31 -9 -79 -41 -117 -65s-86 -55 -107 -80c-7 -8 -10 -19 -10 -29c0 -25 20 -42 42 -42c4 0 9 1 13 2c31 9 79 41 117 65s86 55 107 80c7 8 10 19 10 29zM265 135c44 0 78 -21 78 -68c0 -19 -5 -39 -11 -57
c-12 -37 -33 -71 -65 -93c-53 -36 -114 -52 -189 -52c-44 0 -78 21 -78 68c0 19 5 39 11 57c12 37 33 71 65 93c53 36 114 52 189 52z" fill="currentColor"/>
</a>
<path transform="translate(66.7101, 6.4000) scale(0.0066, -0.0066)" d="M0 0c0 -198 207 -336 207 -534c0 -71 -16 -142 -42 -208c-4 -7 -10 -11 -17 -11c-12 0 -24 10 -21 25c26 62 41 127 41 194c0 104 -96 209 -168 284h-14v250h14z" fill="currentColor"/>
<a style="color:inherit;" xlink:href="textedit:///Users/jwy/Documents/OPUS/GitHub/interactiveLoopingLine_20231129/public/pieces/interactiveLoopingLine20231129/notation/ill20231129.ly:79:41:42">
<path transform="translate(65.0000, 14.8600) scale(0.0052, -0.0052)" d="M222 135c53 0 104 -27 104 -86c0 -71 -56 -120 -103 -148c-36 -22 -76 -36 -118 -36c-53 0 -105 27 -105 86c0 71 57 120 104 148c36 22 76 36 118 36z" fill="currentColor"/>
</a>
<rect transform="translate(62.4306, 17.8600)" x="-0.0795" y="-10.1601" width="0.1590" height="6.9025" ry="0.0400" fill="currentColor"/>
<a style="color:inherit;" xlink:href="textedit:///Users/jwy/Documents/OPUS/GitHub/interactiveLoopingLine_20231129/public/pieces/interactiveLoopingLine20231129/notation/ill20231129.ly:79:35:36">
<path transform="translate(60.8000, 14.8600) scale(0.0052, -0.0052)" d="M222 135c53 0 104 -27 104 -86c0 -71 -56 -120 -103 -148c-36 -22 -76 -36 -118 -36c-53 0 -105 27 -105 86c0 71 57 120 104 148c36 22 76 36 118 36z" fill="currentColor"/>
</a>
<rect transform="translate(390.0306, 17.8600)" x="-0.0795" y="-7.8211" width="0.1590" height="7.5635" ry="0.0400" fill="currentColor"/>
<polygon transform="translate(444.5511, 8.0389)" stroke-linejoin="round" stroke-linecap="round" stroke-width="0.0800" fill="currentColor" stroke="currentColor" points="33.7190 -0.2000 33.7190 0.2000 0.0400 0.2000 0.0400 -0.2000"/>
<a style="color:inherit;" xlink:href="textedit:///Users/jwy/Documents/OPUS/GitHub/interactiveLoopingLine_20231129/public/pieces/interactiveLoopingLine20231129/notation/ill20231129.ly:99:8:9">
<line transform="translate(507.5511, 4.9247)" stroke-linejoin="round" stroke-linecap="round" stroke-width="0.1957" stroke="currentColor" x1="18.1446" y1="-3.8290" x2="18.1446" y2="-3.1290"/>
<line transform="translate(507.5511, 4.9247)" stroke-linejoin="round" stroke-linecap="round" stroke-width="0.1957" stroke="currentColor" x1="-0.1957" y1="0.0413" x2="-0.1957" y2="0.7413"/>
<line transform="translate(507.5511, 4.9247)" stroke-linejoin="round" stroke-linecap="round" stroke-width="0.1957" stroke="currentColor" x1="18.1446" y1="-3.8290" x2="11.4323" y2="-2.4125"/>
<line transform="translate(507.5511, 4.9247)" stroke-linejoin="round" stroke-linecap="round" stroke-width="0.1957" stroke="currentColor" x1="-0.1957" y1="0.0413" x2="6.7122" y2="-1.4165"/>
</a>
<a style="color:inherit;" xlink:href="textedit:///Users/jwy/Documents/OPUS/GitHub/interactiveLoopingLine_20231129/public/pieces/interactiveLoopingLine20231129/notation/ill20231129.ly:99:8:9">
<text transform="translate(514.6135, 3.9698)" font-family="serif" font-style="italic" font-size="2.8814" text-anchor="start" fill="currentColor">
<tspan>7:1</tspan>
</text>
</a>
<polygon transform="translate(486.5511, 10.3600)" stroke-linejoin="round" stroke-linecap="round" stroke-width="0.0800" fill="currentColor" stroke="currentColor" points="15.8690 -1.7000 15.8690 -1.3000 0.0400 0.2000 0.0400 -0.2000"/>
<polygon transform="translate(486.5511, 11.1812)" stroke-linejoin="round" stroke-linecap="round" stroke-width="0.0800" fill="currentColor" stroke="currentColor" points="15.8690 -1.7000 15.8690 -1.3000 0.0400 0.2000 0.0400 -0.2000"/>
<polygon transform="translate(507.5511, 8.6812)" stroke-linejoin="round" stroke-linecap="round" stroke-width="0.0800" fill="currentColor" stroke="currentColor" points="18.1190 -4.0211 18.1190 -3.6211 0.0400 0.2000 0.0400 -0.2000"/>
<polygon transform="translate(507.5511, 9.5023)" stroke-linejoin="round" stroke-linecap="round" stroke-width="0.0800" fill="currentColor" stroke="currentColor" points="18.1190 -4.0211 18.1190 -3.6211 0.0400 0.2000 0.0400 -0.2000"/>
<polygon transform="translate(507.5511, 10.3234)" stroke-linejoin="round" stroke-linecap="round" stroke-width="0.0800" fill="currentColor" stroke="currentColor" points="18.1190 -4.0211 18.1190 -3.6211 0.0400 0.2000 0.0400 -0.2000"/>
<rect transform="translate(398.4306, 17.8600)" x="-0.0795" y="-7.8211" width="0.1590" height="10.5635" ry="0.0400" fill="currentColor"/>
<a style="color:inherit;" xlink:href="textedit:///Users/jwy/Documents/OPUS/GitHub/interactiveLoopingLine_20231129/public/pieces/interactiveLoopingLine20231129/notation/ill20231129.ly:89:29:30">
<path transform="translate(396.8000, 20.8600) scale(0.0052, -0.0052)" d="M222 135c53 0 104 -27 104 -86c0 -71 -56 -120 -103 -148c-36 -22 -76 -36 -118 -36c-53 0 -105 27 -105 86c0 71 57 120 104 148c36 22 76 36 118 36z" fill="currentColor"/>
</a>
<a style="color:inherit;" xlink:href="textedit:///Users/jwy/Documents/OPUS/GitHub/interactiveLoopingLine_20231129/public/pieces/interactiveLoopingLine20231129/notation/ill20231129.ly:93:8:9">
<text transform="translate(462.1135, 5.7378)" font-family="serif" font-style="italic" font-size="2.8814" text-anchor="start" fill="currentColor">
<tspan>5:2</tspan>
</text>
</a>
<a style="color:inherit;" xlink:href="textedit:///Users/jwy/Documents/OPUS/GitHub/interactiveLoopingLine_20231129/public/pieces/interactiveLoopingLine20231129/notation/ill20231129.ly:89:26:27">
<path transform="translate(388.4000, 17.8600) scale(0.0052, -0.0052)" d="M222 135c53 0 104 -27 104 -86c0 -71 -56 -120 -103 -148c-36 -22 -76 -36 -118 -36c-53 0 -105 27 -105 86c0 71 57 120 104 148c36 22 76 36 118 36z" fill="currentColor"/>
</a>
<rect transform="translate(381.6306, 17.8600)" x="-0.0795" y="-7.8211" width="0.1590" height="5.0635" ry="0.0400" fill="currentColor"/>
<a style="color:inherit;" xlink:href="textedit:///Users/jwy/Documents/OPUS/GitHub/interactiveLoopingLine_20231129/public/pieces/interactiveLoopingLine20231129/notation/ill20231129.ly:89:21:22">
<path transform="translate(380.0000, 15.3600) scale(0.0052, -0.0052)" d="M222 135c53 0 104 -27 104 -86c0 -71 -56 -120 -103 -148c-36 -22 -76 -36 -118 -36c-53 0 -105 27 -105 86c0 71 57 120 104 148c36 22 76 36 118 36z" fill="currentColor"/>
</a>
<path transform="translate(374.7101, 12.9000) scale(0.0066, -0.0066)" d="M0 0c0 -198 207 -336 207 -534c0 -71 -16 -142 -42 -208c-4 -7 -10 -11 -17 -11c-12 0 -24 10 -21 25c26 62 41 127 41 194c0 104 -96 209 -168 284h-14v250h14z" fill="currentColor"/>
<a style="color:inherit;" xlink:href="textedit:///Users/jwy/Documents/OPUS/GitHub/interactiveLoopingLine_20231129/public/pieces/interactiveLoopingLine20231129/notation/ill20231129.ly:82:35:36">
<path transform="translate(249.8000, 17.8600)" stroke-width="0.0978" stroke-linejoin="round" stroke-linecap="round" stroke="currentColor" fill="currentColor" d="M1.0550 3.7500C1.8150 4.5266 4.0950 4.5266 4.8550 3.7500L4.8550 3.7500C4.0950 4.3799 1.8150 4.3799 1.0550 3.7500z"/>
</a>
<a style="color:inherit;" xlink:href="textedit:///Users/jwy/Documents/OPUS/GitHub/interactiveLoopingLine_20231129/public/pieces/interactiveLoopingLine20231129/notation/ill20231129.ly:78:8:9">
<polygon transform="translate(3.5511, 7.3600)" stroke-linejoin="round" stroke-linecap="round" stroke-width="0.0800" fill="currentColor" stroke="currentColor" points="5.3690 1.8000 5.3690 2.2000 0.0400 0.2000 0.0400 -0.2000"/>
<polygon transform="translate(3.5511, 8.1812)" stroke-linejoin="round" stroke-linecap="round" stroke-width="0.0800" fill="currentColor" stroke="currentColor" points="1.1395 0.2361 1.1395 0.6361 0.0400 0.2000 0.0400 -0.2000"/>
</a>
<a style="color:inherit;" xlink:href="textedit:///Users/jwy/Documents/OPUS/GitHub/interactiveLoopingLine_20231129/public/pieces/interactiveLoopingLine20231129/notation/ill20231129.ly:78:19:20">
<path transform="translate(7.2500, 17.8600)" stroke-width="0.0978" stroke-linejoin="round" stroke-linecap="round" stroke="currentColor" fill="currentColor" d="M1.0550 2.7500C2.4796 3.7445 14.9805 3.7445 16.4050 2.7500L16.4050 2.7500C14.9805 3.5977 2.4796 3.5977 1.0550 2.7500z"/>
</a>
<a style="color:inherit;" xlink:href="textedit:///Users/jwy/Documents/OPUS/GitHub/interactiveLoopingLine_20231129/public/pieces/interactiveLoopingLine20231129/notation/ill20231129.ly:79:8:9">
<line transform="translate(45.5511, 7.6487)" stroke-linejoin="round" stroke-linecap="round" stroke-width="0.1957" stroke="currentColor" x1="18.1442" y1="-4.0056" x2="18.1442" y2="-3.3056"/>
<line transform="translate(45.5511, 7.6487)" stroke-linejoin="round" stroke-linecap="round" stroke-width="0.1957" stroke="currentColor" x1="-0.1953" y1="0.0431" x2="-0.1953" y2="0.7431"/>
<line transform="translate(45.5511, 7.6487)" stroke-linejoin="round" stroke-linecap="round" stroke-width="0.1957" stroke="currentColor" x1="18.1442" y1="-4.0056" x2="10.2605" y2="-2.2652"/>
<line transform="translate(45.5511, 7.6487)" stroke-linejoin="round" stroke-linecap="round" stroke-width="0.1957" stroke="currentColor" x1="-0.1953" y1="0.0431" x2="7.8837" y2="-1.7405"/>
</a>
<a style="color:inherit;" xlink:href="textedit:///Users/jwy/Documents/OPUS/GitHub/interactiveLoopingLine_20231129/public/pieces/interactiveLoopingLine20231129/notation/ill20231129.ly:79:8:9">
<text transform="translate(53.8086, 6.5722)" font-family="serif" font-style="italic" font-size="2.8814" text-anchor="start" fill="currentColor">
<tspan>5</tspan>
</text>
</a>
<a style="color:inherit;" xlink:href="textedit:///Users/jwy/Documents/OPUS/GitHub/interactiveLoopingLine_20231129/public/pieces/interactiveLoopingLine20231129/notation/ill20231129.ly:79:38:39">
<path transform="translate(60.8000, 17.8600)" stroke-width="0.0978" stroke-linejoin="round" stroke-linecap="round" stroke="currentColor" fill="currentColor" d="M1.0550 -2.2500C1.8150 -1.4734 4.0950 -1.4734 4.8550 -2.2500L4.8550 -2.2500C4.0950 -1.6201 1.8150 -1.6201 1.0550 -2.2500z"/>
</a>
<polygon transform="translate(45.5511, 11.6812)" stroke-linejoin="round" stroke-linecap="round" stroke-width="0.0800" fill="currentColor" stroke="currentColor" points="16.9190 -4.2000 16.9190 -3.8000 0.0400 0.2000 0.0400 -0.2000"/>
<polygon transform="translate(45.5511, 12.5023)" stroke-linejoin="round" stroke-linecap="round" stroke-width="0.0800" fill="currentColor" stroke="currentColor" points="16.9190 -4.2000 16.9190 -3.8000 0.0400 0.2000 0.0400 -0.2000"/>
<polygon transform="translate(192.5511, 6.0389)" stroke-linejoin="round" stroke-linecap="round" stroke-width="0.0800" fill="currentColor" stroke="currentColor" points="10.6190 3.1211 10.6190 3.5211 0.0400 0.2000 0.0400 -0.2000"/>
<a style="color:inherit;" xlink:href="textedit:///Users/jwy/Documents/OPUS/GitHub/interactiveLoopingLine_20231129/public/pieces/interactiveLoopingLine20231129/notation/ill20231129.ly:82:8:9">
<line transform="translate(234.5511, 8.7989)" stroke-linejoin="round" stroke-linecap="round" stroke-width="0.1957" stroke="currentColor" x1="18.1489" y1="-0.0000" x2="18.1489" y2="0.7000"/>
<line transform="translate(234.5511, 8.7989)" stroke-linejoin="round" stroke-linecap="round" stroke-width="0.1957" stroke="currentColor" x1="-0.2000" y1="-0.0000" x2="-0.2000" y2="0.7000"/>
<line transform="translate(234.5511, 8.7989)" stroke-linejoin="round" stroke-linecap="round" stroke-width="0.1957" stroke="currentColor" x1="18.1489" y1="-0.0000" x2="10.2914" y2="-0.0000"/>
<line transform="translate(234.5511, 8.7989)" stroke-linejoin="round" stroke-linecap="round" stroke-width="0.1957" stroke="currentColor" x1="-0.2000" y1="-0.0000" x2="7.8574" y2="-0.0000"/>
</a>
<a style="color:inherit;" xlink:href="textedit:///Users/jwy/Documents/OPUS/GitHub/interactiveLoopingLine_20231129/public/pieces/interactiveLoopingLine20231129/notation/ill20231129.ly:82:8:9">
<text transform="translate(242.8086, 9.7037)" font-family="serif" font-style="italic" font-size="2.8814" text-anchor="start" fill="currentColor">
<tspan>5</tspan>
</text>
</a>
<polygon transform="translate(213.5511, 5.8600)" stroke-linejoin="round" stroke-linecap="round" stroke-width="0.0800" fill="currentColor" stroke="currentColor" points="15.8690 5.3000 15.8690 5.7000 0.0400 0.2000 0.0400 -0.2000"/>
<polygon transform="translate(213.5511, 6.6812)" stroke-linejoin="round" stroke-linecap="round" stroke-width="0.0800" fill="currentColor" stroke="currentColor" points="15.8690 5.3000 15.8690 5.7000 0.0400 0.2000 0.0400 -0.2000"/>
<rect transform="translate(374.6306, 17.8600)" x="-0.0795" y="-5.0000" width="0.1590" height="8.7424" ry="0.0400" fill="currentColor"/>
<polygon transform="translate(234.5511, 12.0389)" stroke-linejoin="round" stroke-linecap="round" stroke-width="0.0800" fill="currentColor" stroke="currentColor" points="16.9190 -0.2000 16.9190 0.2000 0.0400 0.2000 0.0400 -0.2000"/>
<polygon transform="translate(234.5511, 12.8600)" stroke-linejoin="round" stroke-linecap="round" stroke-width="0.0800" fill="currentColor" stroke="currentColor" points="16.9190 -0.2000 16.9190 0.2000 0.0400 0.2000 0.0400 -0.2000"/>
<polygon transform="translate(255.5511, 9.6812)" stroke-linejoin="round" stroke-linecap="round" stroke-width="0.0800" fill="currentColor" stroke="currentColor" points="5.3690 -3.0211 5.3690 -2.6211 0.0400 0.2000 0.0400 -0.2000"/>
<polygon transform="translate(255.5511, 10.5023)" stroke-linejoin="round" stroke-linecap="round" stroke-width="0.0800" fill="currentColor" stroke="currentColor" points="1.1395 -0.8152 1.1395 -0.4152 0.0400 0.2000 0.0400 -0.2000"/>
<a style="color:inherit;" xlink:href="textedit:///Users/jwy/Documents/OPUS/GitHub/interactiveLoopingLine_20231129/public/pieces/interactiveLoopingLine20231129/notation/ill20231129.ly:84:8:9">
<line transform="translate(360.5511, 8.0194)" stroke-linejoin="round" stroke-linecap="round" stroke-width="0.1957" stroke="currentColor" x1="18.1477" y1="1.9688" x2="18.1477" y2="2.6688"/>
<line transform="translate(360.5511, 8.0194)" stroke-linejoin="round" stroke-linecap="round" stroke-width="0.1957" stroke="currentColor" x1="-0.1988" y1="-0.0216" x2="-0.1988" y2="0.6784"/>
<line transform="translate(360.5511, 8.0194)" stroke-linejoin="round" stroke-linecap="round" stroke-width="0.1957" stroke="currentColor" x1="18.1477" y1="1.9688" x2="10.2838" y2="1.1157"/>
<line transform="translate(360.5511, 8.0194)" stroke-linejoin="round" stroke-linecap="round" stroke-width="0.1957" stroke="currentColor" x1="-0.1988" y1="-0.0216" x2="7.8639" y2="0.8532"/>
</a>
<a style="color:inherit;" xlink:href="textedit:///Users/jwy/Documents/OPUS/GitHub/interactiveLoopingLine_20231129/public/pieces/interactiveLoopingLine20231129/notation/ill20231129.ly:84:8:9">
<text transform="translate(368.8086, 9.9491)" font-family="serif" font-style="italic" font-size="2.8814" text-anchor="start" fill="currentColor">
<tspan>3</tspan>
</text>
</a>
<a style="color:inherit;" xlink:href="textedit:///Users/jwy/Documents/OPUS/GitHub/interactiveLoopingLine_20231129/public/pieces/interactiveLoopingLine20231129/notation/ill20231129.ly:89:8:9">
<line transform="translate(381.5511, 6.7989)" stroke-linejoin="round" stroke-linecap="round" stroke-width="0.1957" stroke="currentColor" x1="39.1489" y1="-0.0000" x2="39.1489" y2="0.7000"/>
<line transform="translate(381.5511, 6.7989)" stroke-linejoin="round" stroke-linecap="round" stroke-width="0.1957" stroke="currentColor" x1="-0.2000" y1="-0.0000" x2="-0.2000" y2="0.7000"/>
<line transform="translate(381.5511, 6.7989)" stroke-linejoin="round" stroke-linecap="round" stroke-width="0.1957" stroke="currentColor" x1="39.1489" y1="-0.0000" x2="21.9865" y2="-0.0000"/>
<line transform="translate(381.5511, 6.7989)" stroke-linejoin="round" stroke-linecap="round" stroke-width="0.1957" stroke="currentColor" x1="-0.2000" y1="-0.0000" x2="17.1624" y2="-0.0000"/>
</a>
<a style="color:inherit;" xlink:href="textedit:///Users/jwy/Documents/OPUS/GitHub/interactiveLoopingLine_20231129/public/pieces/interactiveLoopingLine20231129/notation/ill20231129.ly:89:8:9">
<text transform="translate(399.1135, 7.7378)" font-family="serif" font-style="italic" font-size="2.8814" text-anchor="start" fill="currentColor">
<tspan>5:2</tspan>
</text>
</a>
<a style="color:inherit;" xlink:href="textedit:///Users/jwy/Documents/OPUS/GitHub/interactiveLoopingLine_20231129/public/pieces/interactiveLoopingLine20231129/notation/ill20231129.ly:91:8:9">
<line transform="translate(423.5511, 6.5194)" stroke-linejoin="round" stroke-linecap="round" stroke-width="0.1957" stroke="currentColor" x1="18.1477" y1="1.9688" x2="18.1477" y2="2.6688"/>
<line transform="translate(423.5511, 6.5194)" stroke-linejoin="round" stroke-linecap="round" stroke-width="0.1957" stroke="currentColor" x1="-0.1988" y1="-0.0216" x2="-0.1988" y2="0.6784"/>
<line transform="translate(423.5511, 6.5194)" stroke-linejoin="round" stroke-linecap="round" stroke-width="0.1957" stroke="currentColor" x1="18.1477" y1="1.9688" x2="10.2838" y2="1.1157"/>
<line transform="translate(423.5511, 6.5194)" stroke-linejoin="round" stroke-linecap="round" stroke-width="0.1957" stroke="currentColor" x1="-0.1988" y1="-0.0216" x2="7.8639" y2="0.8532"/>
</a>
<a style="color:inherit;" xlink:href="textedit:///Users/jwy/Documents/OPUS/GitHub/interactiveLoopingLine_20231129/public/pieces/interactiveLoopingLine20231129/notation/ill20231129.ly:91:8:9">
<text transform="translate(431.8086, 8.4491)" font-family="serif" font-style="italic" font-size="2.8814" text-anchor="start" fill="currentColor">
<tspan>3</tspan>
</text>
</a>
<polygon transform="translate(381.5511, 10.0389)" stroke-linejoin="round" stroke-linecap="round" stroke-width="0.0800" fill="currentColor" stroke="currentColor" points="33.7190 -0.2000 33.7190 0.2000 0.0400 0.2000 0.0400 -0.2000"/>
<a style="color:inherit;" xlink:href="textedit:///Users/jwy/Documents/OPUS/GitHub/interactiveLoopingLine_20231129/public/pieces/interactiveLoopingLine20231129/notation/ill20231129.ly:93:8:9">
<line transform="translate(444.5511, 4.7989)" stroke-linejoin="round" stroke-linecap="round" stroke-width="0.1957" stroke="currentColor" x1="39.1489" y1="-0.0000" x2="39.1489" y2="0.7000"/>
<line transform="translate(444.5511, 4.7989)" stroke-linejoin="round" stroke-linecap="round" stroke-width="0.1957" stroke="currentColor" x1="-0.2000" y1="-0.0000" x2="-0.2000" y2="0.7000"/>
<line transform="translate(444.5511, 4.7989)" stroke-linejoin="round" stroke-linecap="round" stroke-width="0.1957" stroke="currentColor" x1="39.1489" y1="-0.0000" x2="21.9865" y2="-0.0000"/>
<line transform="translate(444.5511, 4.7989)" stroke-linejoin="round" stroke-linecap="round" stroke-width="0.1957" stroke="currentColor" x1="-0.2000" y1="-0.0000" x2="17.1624" y2="-0.0000"/>
</a>
<rect transform="translate(251.4306, 17.8600)" x="-0.0795" y="-5.8211" width="0.1590" height="8.5635" ry="0.0400" fill="currentColor"/>
<a style="color:inherit;" xlink:href="textedit:///Users/jwy/Documents/OPUS/GitHub/interactiveLoopingLine_20231129/public/pieces/interactiveLoopingLine20231129/notation/ill20231129.ly:82:33:34">
<path transform="translate(249.8000, 20.8600) scale(0.0052, -0.0052)" d="M222 135c53 0 104 -27 104 -86c0 -71 -56 -120 -103 -148c-36 -22 -76 -36 -118 -36c-53 0 -105 27 -105 86c0 71 57 120 104 148c36 22 76 36 118 36z" fill="currentColor"/>
</a>
<rect transform="translate(247.2306, 17.8600)" x="-0.0795" y="-5.8211" width="0.1590" height="8.5635" ry="0.0400" fill="currentColor"/>
<a style="color:inherit;" xlink:href="textedit:///Users/jwy/Documents/OPUS/GitHub/interactiveLoopingLine_20231129/public/pieces/interactiveLoopingLine20231129/notation/ill20231129.ly:82:30:31">
<path transform="translate(245.6000, 20.8600) scale(0.0052, -0.0052)" d="M222 135c53 0 104 -27 104 -86c0 -71 -56 -120 -103 -148c-36 -22 -76 -36 -118 -36c-53 0 -105 27 -105 86c0 71 57 120 104 148c36 22 76 36 118 36z" fill="currentColor"/>
</a>
<a style="color:inherit;" xlink:href="textedit:///Users/jwy/Documents/OPUS/GitHub/interactiveLoopingLine_20231129/public/pieces/interactiveLoopingLine20231129/notation/ill20231129.ly:82:38:39">
<path transform="translate(254.0000, 20.8600) scale(0.0052, -0.0052)" d="M222 135c53 0 104 -27 104 -86c0 -71 -56 -120 -103 -148c-36 -22 -76 -36 -118 -36c-53 0 -105 27 -105 86c0 71 57 120 104 148c36 22 76 36 118 36z" fill="currentColor"/>
</a>
<rect transform="translate(243.0306, 17.8600)" x="-0.0795" y="-5.8211" width="0.1590" height="8.5635" ry="0.0400" fill="currentColor"/>
<a style="color:inherit;" xlink:href="textedit:///Users/jwy/Documents/OPUS/GitHub/interactiveLoopingLine_20231129/public/pieces/interactiveLoopingLine20231129/notation/ill20231129.ly:82:27:28">
<path transform="translate(241.4000, 20.8600) scale(0.0052, -0.0052)" d="M222 135c53 0 104 -27 104 -86c0 -71 -56 -120 -103 -148c-36 -22 -76 -36 -118 -36c-53 0 -105 27 -105 86c0 71 57 120 104 148c36 22 76 36 118 36z" fill="currentColor"/>
</a>
<rect transform="translate(238.8306, 17.8600)" x="-0.0795" y="-5.8211" width="0.1590" height="8.5635" ry="0.0400" fill="currentColor"/>
<a style="color:inherit;" xlink:href="textedit:///Users/jwy/Documents/OPUS/GitHub/interactiveLoopingLine_20231129/public/pieces/interactiveLoopingLine20231129/notation/ill20231129.ly:82:24:25">
<path transform="translate(237.2000, 20.8600) scale(0.0052, -0.0052)" d="M222 135c53 0 104 -27 104 -86c0 -71 -56 -120 -103 -148c-36 -22 -76 -36 -118 -36c-53 0 -105 27 -105 86c0 71 57 120 104 148c36 22 76 36 118 36z" fill="currentColor"/>
</a>
<a style="color:inherit;" xlink:href="textedit:///Users/jwy/Documents/OPUS/GitHub/interactiveLoopingLine_20231129/public/pieces/interactiveLoopingLine20231129/notation/ill20231129.ly:84:25:26">
<path transform="translate(373.0000, 21.8600) scale(0.0052, -0.0052)" d="M222 135c53 0 104 -27 104 -86c0 -71 -56 -120 -103 -148c-36 -22 -76 -36 -118 -36c-53 0 -105 27 -105 86c0 71 57 120 104 148c36 22 76 36 118 36z" fill="currentColor"/>
</a>
<rect transform="translate(360.6306, 17.8600)" x="-0.0795" y="-7.0000" width="0.1590" height="8.7424" ry="0.0400" fill="currentColor"/>
<a style="color:inherit;" xlink:href="textedit:///Users/jwy/Documents/OPUS/GitHub/interactiveLoopingLine_20231129/public/pieces/interactiveLoopingLine20231129/notation/ill20231129.ly:84:21:22">
<path transform="translate(359.0000, 19.8600) scale(0.0052, -0.0052)" d="M222 135c53 0 104 -27 104 -86c0 -71 -56 -120 -103 -148c-36 -22 -76 -36 -118 -36c-53 0 -105 27 -105 86c0 71 57 120 104 148c36 22 76 36 118 36z" fill="currentColor"/>
</a>
<a style="color:inherit;" xlink:href="textedit:///Users/jwy/Documents/OPUS/GitHub/interactiveLoopingLine_20231129/public/pieces/interactiveLoopingLine20231129/notation/ill20231129.ly:82:51:52">
<path transform="translate(275.0000, 24.8600) scale(0.0052, -0.0052)" d="M215 114c-50 0 -71 -42 -71 -88c0 -79 60 -140 139 -140c50 0 70 42 70 88c0 79 -59 140 -138 140zM497 0c0 -43 -35 -74 -73 -95c-54 -29 -114 -40 -175 -40s-122 11 -176 40c-38 21 -73 52 -73 95s35 74 73 95c54 29 115 40 176 40s121 -11 175 -40
c38 -21 73 -52 73 -95z" fill="currentColor"/>
</a>
<a style="color:inherit;" xlink:href="textedit:///Users/jwy/Documents/OPUS/GitHub/interactiveLoopingLine_20231129/public/pieces/interactiveLoopingLine20231129/notation/ill20231129.ly:79:25:26">
<path transform="translate(48.2000, 20.8600) scale(0.0052, -0.0052)" d="M222 135c53 0 104 -27 104 -86c0 -71 -56 -120 -103 -148c-36 -22 -76 -36 -118 -36c-53 0 -105 27 -105 86c0 71 57 120 104 148c36 22 76 36 118 36z" fill="currentColor"/>
</a>
<rect transform="translate(260.8806, 17.8600)" x="-0.0795" y="-10.9585" width="0.1590" height="6.7009" ry="0.0400" fill="currentColor"/>
<path transform="translate(261.7138, 13.8600) scale(0.0066, -0.0066)" d="M0 0c0 32 25 57 57 57s57 -25 57 -57s-25 -57 -57 -57s-57 25 -57 57z" fill="currentColor"/>
<a style="color:inherit;" xlink:href="textedit:///Users/jwy/Documents/OPUS/GitHub/interactiveLoopingLine_20231129/public/pieces/interactiveLoopingLine20231129/notation/ill20231129.ly:82:43:44">
<path transform="translate(259.2500, 13.8600) scale(0.0052, -0.0052)" d="M222 135c53 0 104 -27 104 -86c0 -71 -56 -120 -103 -148c-36 -22 -76 -36 -118 -36c-53 0 -105 27 -105 86c0 71 57 120 104 148c36 22 76 36 118 36z" fill="currentColor"/>
</a>
<rect transform="translate(255.6306, 17.8600)" x="-0.0795" y="-8.2203" width="0.1590" height="10.9627" ry="0.0400" fill="currentColor"/>
<rect transform="translate(478.2306, 17.8600)" x="-0.0795" y="-9.8211" width="0.1590" height="10.5635" ry="0.0400" fill="currentColor"/>
<a style="color:inherit;" xlink:href="textedit:///Users/jwy/Documents/OPUS/GitHub/interactiveLoopingLine_20231129/public/pieces/interactiveLoopingLine20231129/notation/ill20231129.ly:93:39:40">
<path transform="translate(476.6000, 18.8600) scale(0.0052, -0.0052)" d="M222 135c53 0 104 -27 104 -86c0 -71 -56 -120 -103 -148c-36 -22 -76 -36 -118 -36c-53 0 -105 27 -105 86c0 71 57 120 104 148c36 22 76 36 118 36z" fill="currentColor"/>
</a>
<rect transform="translate(469.8306, 17.8600)" x="-0.0795" y="-9.8211" width="0.1590" height="5.0635" ry="0.0400" fill="currentColor"/>
<a style="color:inherit;" xlink:href="textedit:///Users/jwy/Documents/OPUS/GitHub/interactiveLoopingLine_20231129/public/pieces/interactiveLoopingLine20231129/notation/ill20231129.ly:93:34:35">
<path transform="translate(468.2000, 13.3600) scale(0.0052, -0.0052)" d="M222 135c53 0 104 -27 104 -86c0 -71 -56 -120 -103 -148c-36 -22 -76 -36 -118 -36c-53 0 -105 27 -105 86c0 71 57 120 104 148c36 22 76 36 118 36z" fill="currentColor"/>
</a>
<rect transform="translate(461.4306, 17.8600)" x="-0.0795" y="-9.8211" width="0.1590" height="10.5635" ry="0.0400" fill="currentColor"/>
<a style="color:inherit;" xlink:href="textedit:///Users/jwy/Documents/OPUS/GitHub/interactiveLoopingLine_20231129/public/pieces/interactiveLoopingLine20231129/notation/ill20231129.ly:93:31:32">
<path transform="translate(459.8000, 18.8600) scale(0.0052, -0.0052)" d="M222 135c53 0 104 -27 104 -86c0 -71 -56 -120 -103 -148c-36 -22 -76 -36 -118 -36c-53 0 -105 27 -105 86c0 71 57 120 104 148c36 22 76 36 118 36z" fill="currentColor"/>
</a>
<rect transform="translate(453.0306, 17.8600)" x="-0.0795" y="-9.8211" width="0.1590" height="7.5635" ry="0.0400" fill="currentColor"/>
<a style="color:inherit;" xlink:href="textedit:///Users/jwy/Documents/OPUS/GitHub/interactiveLoopingLine_20231129/public/pieces/interactiveLoopingLine20231129/notation/ill20231129.ly:93:27:28">
<path transform="translate(451.4000, 15.8600) scale(0.0052, -0.0052)" d="M222 135c53 0 104 -27 104 -86c0 -71 -56 -120 -103 -148c-36 -22 -76 -36 -118 -36c-53 0 -105 27 -105 86c0 71 57 120 104 148c36 22 76 36 118 36z" fill="currentColor"/>
</a>
<rect transform="translate(502.3806, 17.8600)" x="-0.0795" y="-8.9925" width="0.1590" height="6.7349" ry="0.0400" fill="currentColor"/>
<a style="color:inherit;" xlink:href="textedit:///Users/jwy/Documents/OPUS/GitHub/interactiveLoopingLine_20231129/public/pieces/interactiveLoopingLine20231129/notation/ill20231129.ly:96:19:20">
<path transform="translate(500.7500, 15.8600) scale(0.0052, -0.0052)" d="M222 135c53 0 104 -27 104 -86c0 -71 -56 -120 -103 -148c-36 -22 -76 -36 -118 -36c-53 0 -105 27 -105 86c0 71 57 120 104 148c36 22 76 36 118 36z" fill="currentColor"/>
</a>
<rect transform="translate(497.1306, 17.8600)" x="-0.0795" y="-8.4975" width="0.1590" height="10.7399" ry="0.0400" fill="currentColor"/>
<a style="color:inherit;" xlink:href="textedit:///Users/jwy/Documents/OPUS/GitHub/interactiveLoopingLine_20231129/public/pieces/interactiveLoopingLine20231129/notation/ill20231129.ly:96:16:17">
<path transform="translate(495.5000, 20.3600) scale(0.0052, -0.0052)" d="M222 135c53 0 104 -27 104 -86c0 -71 -56 -120 -103 -148c-36 -22 -76 -36 -118 -36c-53 0 -105 27 -105 86c0 71 57 120 104 148c36 22 76 36 118 36z" fill="currentColor"/>
</a>
<rect transform="translate(491.8806, 17.8600)" x="-0.0795" y="-8.0025" width="0.1590" height="8.2449" ry="0.0400" fill="currentColor"/>
<a style="color:inherit;" xlink:href="textedit:///Users/jwy/Documents/OPUS/GitHub/interactiveLoopingLine_20231129/public/pieces/interactiveLoopingLine20231129/notation/ill20231129.ly:96:13:14">
<path transform="translate(490.2500, 18.3600) scale(0.0052, -0.0052)" d="M222 135c53 0 104 -27 104 -86c0 -71 -56 -120 -103 -148c-36 -22 -76 -36 -118 -36c-53 0 -105 27 -105 86c0 71 57 120 104 148c36 22 76 36 118 36z" fill="currentColor"/>
</a>
<rect transform="translate(486.6306, 17.8600)" x="-0.0795" y="-7.5075" width="0.1590" height="8.7499" ry="0.0400" fill="currentColor"/>
<a style="color:inherit;" xlink:href="textedit:///Users/jwy/Documents/OPUS/GitHub/interactiveLoopingLine_20231129/public/pieces/interactiveLoopingLine20231129/notation/ill20231129.ly:96:8:9">
<path transform="translate(485.0000, 19.3600) scale(0.0052, -0.0052)" d="M222 135c53 0 104 -27 104 -86c0 -71 -56 -120 -103 -148c-36 -22 -76 -36 -118 -36c-53 0 -105 27 -105 86c0 71 57 120 104 148c36 22 76 36 118 36z" fill="currentColor"/>
</a>
<rect transform="translate(406.8306, 17.8600)" x="-0.0795" y="-7.8211" width="0.1590" height="5.0635" ry="0.0400" fill="currentColor"/>
<a style="color:inherit;" xlink:href="textedit:///Users/jwy/Documents/OPUS/GitHub/interactiveLoopingLine_20231129/public/pieces/interactiveLoopingLine20231129/notation/ill20231129.ly:89:32:33">
<path transform="translate(405.2000, 15.3600) scale(0.0052, -0.0052)" d="M222 135c53 0 104 -27 104 -86c0 -71 -56 -120 -103 -148c-36 -22 -76 -36 -118 -36c-53 0 -105 27 -105 86c0 71 57 120 104 148c36 22 76 36 118 36z" fill="currentColor"/>
</a>
<rect transform="translate(3.6306, 17.8600)" x="-0.0795" y="-10.4706" width="0.1590" height="8.2130" ry="0.0400" fill="currentColor"/>
<a style="color:inherit;" xlink:href="textedit:///Users/jwy/Documents/OPUS/GitHub/interactiveLoopingLine_20231129/public/pieces/interactiveLoopingLine20231129/notation/ill20231129.ly:74:8:9">
</a>
<a style="color:inherit;" xlink:href="textedit:///Users/jwy/Documents/OPUS/GitHub/interactiveLoopingLine_20231129/public/pieces/interactiveLoopingLine20231129/notation/ill20231129.ly:78:9:10">
<path transform="translate(2.0000, 15.8600) scale(0.0052, -0.0052)" d="M222 135c53 0 104 -27 104 -86c0 -71 -56 -120 -103 -148c-36 -22 -76 -36 -118 -36c-53 0 -105 27 -105 86c0 71 57 120 104 148c36 22 76 36 118 36z" fill="currentColor"/>
</a>
<rect transform="translate(444.6306, 17.8600)" x="-0.0795" y="-9.8211" width="0.1590" height="5.5635" ry="0.0400" fill="currentColor"/>
<a style="color:inherit;" xlink:href="textedit:///Users/jwy/Documents/OPUS/GitHub/interactiveLoopingLine_20231129/public/pieces/interactiveLoopingLine20231129/notation/ill20231129.ly:93:21:22">
<path transform="translate(443.0000, 13.8600) scale(0.0052, -0.0052)" d="M222 135c53 0 104 -27 104 -86c0 -71 -56 -120 -103 -148c-36 -22 -76 -36 -118 -36c-53 0 -105 27 -105 86c0 71 57 120 104 148c36 22 76 36 118 36z" fill="currentColor"/>
</a>
<path transform="translate(437.7101, 11.4000) scale(0.0066, -0.0066)" d="M0 0c0 -198 207 -336 207 -534c0 -71 -16 -142 -42 -208c-4 -7 -10 -11 -17 -11c-12 0 -24 10 -21 25c26 62 41 127 41 194c0 104 -96 209 -168 284h-14v250h14z" fill="currentColor"/>
<rect transform="translate(437.6306, 17.8600)" x="-0.0795" y="-6.5000" width="0.1590" height="8.7424" ry="0.0400" fill="currentColor"/>
<a style="color:inherit;" xlink:href="textedit:///Users/jwy/Documents/OPUS/GitHub/interactiveLoopingLine_20231129/public/pieces/interactiveLoopingLine20231129/notation/ill20231129.ly:91:25:26">
<path transform="translate(436.0000, 20.3600) scale(0.0052, -0.0052)" d="M222 135c53 0 104 -27 104 -86c0 -71 -56 -120 -103 -148c-36 -22 -76 -36 -118 -36c-53 0 -105 27 -105 86c0 71 57 120 104 148c36 22 76 36 118 36z" fill="currentColor"/>
</a>
<rect transform="translate(423.6306, 17.8600)" x="-0.0795" y="-8.5000" width="0.1590" height="8.7424" ry="0.0400" fill="currentColor"/>
<a style="color:inherit;" xlink:href="textedit:///Users/jwy/Documents/OPUS/GitHub/interactiveLoopingLine_20231129/public/pieces/interactiveLoopingLine20231129/notation/ill20231129.ly:91:21:22">
<path transform="translate(422.0000, 18.3600) scale(0.0052, -0.0052)" d="M222 135c53 0 104 -27 104 -86c0 -71 -56 -120 -103 -148c-36 -22 -76 -36 -118 -36c-53 0 -105 27 -105 86c0 71 57 120 104 148c36 22 76 36 118 36z" fill="currentColor"/>
</a>
<rect transform="translate(415.2306, 17.8600)" x="-0.0795" y="-7.8211" width="0.1590" height="10.5635" ry="0.0400" fill="currentColor"/>
<a style="color:inherit;" xlink:href="textedit:///Users/jwy/Documents/OPUS/GitHub/interactiveLoopingLine_20231129/public/pieces/interactiveLoopingLine20231129/notation/ill20231129.ly:89:36:37">
<path transform="translate(413.6000, 20.8600) scale(0.0052, -0.0052)" d="M222 135c53 0 104 -27 104 -86c0 -71 -56 -120 -103 -148c-36 -22 -76 -36 -118 -36c-53 0 -105 27 -105 86c0 71 57 120 104 148c36 22 76 36 118 36z" fill="currentColor"/>
</a>
<rect transform="translate(522.6306, 17.8600)" x="-0.0795" y="-12.3520" width="0.1590" height="7.5944" ry="0.0400" fill="currentColor"/>
<a style="color:inherit;" xlink:href="textedit:///Users/jwy/Documents/OPUS/GitHub/interactiveLoopingLine_20231129/public/pieces/interactiveLoopingLine20231129/notation/ill20231129.ly:99:42:43">
<path transform="translate(521.0000, 13.3600) scale(0.0052, -0.0052)" d="M222 135c53 0 104 -27 104 -86c0 -71 -56 -120 -103 -148c-36 -22 -76 -36 -118 -36c-53 0 -105 27 -105 86c0 71 57 120 104 148c36 22 76 36 118 36z" fill="currentColor"/>
</a>
<rect transform="translate(519.6306, 17.8600)" x="-0.0795" y="-11.7207" width="0.1590" height="7.9631" ry="0.0400" fill="currentColor"/>
<a style="color:inherit;" xlink:href="textedit:///Users/jwy/Documents/OPUS/GitHub/interactiveLoopingLine_20231129/public/pieces/interactiveLoopingLine20231129/notation/ill20231129.ly:99:38:39">
<path transform="translate(518.0000, 14.3600) scale(0.0052, -0.0052)" d="M222 135c53 0 104 -27 104 -86c0 -71 -56 -120 -103 -148c-36 -22 -76 -36 -118 -36c-53 0 -105 27 -105 86c0 71 57 120 104 148c36 22 76 36 118 36z" fill="currentColor"/>
</a>
<a style="color:inherit;" xlink:href="textedit:///Users/jwy/Documents/OPUS/GitHub/interactiveLoopingLine_20231129/public/pieces/interactiveLoopingLine20231129/notation/ill20231129.ly:101:8:9">
<path transform="translate(527.0000, 31.3600) scale(0.0052, -0.0052)" d="M215 114c-50 0 -71 -42 -71 -88c0 -79 60 -140 139 -140c50 0 70 42 70 88c0 79 -59 140 -138 140zM497 0c0 -43 -35 -74 -73 -95c-54 -29 -114 -40 -175 -40s-122 11 -176 40c-38 21 -73 52 -73 95s35 74 73 95c54 29 115 40 176 40s121 -11 175 -40
c38 -21 73 -52 73 -95z" fill="currentColor"/>
</a>
<a style="color:inherit;" xlink:href="textedit:///Users/jwy/Documents/OPUS/GitHub/interactiveLoopingLine_20231129/public/pieces/interactiveLoopingLine20231129/notation/ill20231129.ly:103:8:9">
<path transform="translate(611.0000, 19.8600) scale(0.0052, -0.0052)" d="M222 135c53 0 104 -27 104 -86c0 -71 -56 -120 -103 -148c-36 -22 -76 -36 -118 -36c-53 0 -105 27 -105 86c0 71 57 120 104 148c36 22 76 36 118 36z" fill="currentColor"/>
</a>
<rect transform="translate(525.6306, 17.8600)" x="-0.0795" y="-12.9833" width="0.1590" height="6.2256" ry="0.0400" fill="currentColor"/>
<a style="color:inherit;" xlink:href="textedit:///Users/jwy/Documents/OPUS/GitHub/interactiveLoopingLine_20231129/public/pieces/interactiveLoopingLine20231129/notation/ill20231129.ly:99:47:48">
<path transform="translate(524.0000, 11.3600) scale(0.0052, -0.0052)" d="M222 135c53 0 104 -27 104 -86c0 -71 -56 -120 -103 -148c-36 -22 -76 -36 -118 -36c-53 0 -105 27 -105 86c0 71 57 120 104 148c36 22 76 36 118 36z" fill="currentColor"/>
</a>
<rect transform="translate(612.6306, 17.8600)" x="-0.0795" y="-7.0000" width="0.1590" height="8.7424" ry="0.0400" fill="currentColor"/>
<a style="color:inherit;" xlink:href="textedit:///Users/jwy/Documents/OPUS/GitHub/interactiveLoopingLine_20231129/public/pieces/interactiveLoopingLine20231129/notation/ill20231129.ly:99:26:27">
<path transform="translate(509.0000, 17.3600) scale(0.0052, -0.0052)" d="M222 135c53 0 104 -27 104 -86c0 -71 -56 -120 -103 -148c-36 -22 -76 -36 -118 -36c-53 0 -105 27 -105 86c0 71 57 120 104 148c36 22 76 36 118 36z" fill="currentColor"/>
</a>
<a style="color:inherit;" xlink:href="textedit:///Users/jwy/Documents/OPUS/GitHub/interactiveLoopingLine_20231129/public/pieces/interactiveLoopingLine20231129/notation/ill20231129.ly:99:30:31">
<path transform="translate(512.0000, 16.3600) scale(0.0052, -0.0052)" d="M222 135c53 0 104 -27 104 -86c0 -71 -56 -120 -103 -148c-36 -22 -76 -36 -118 -36c-53 0 -105 27 -105 86c0 71 57 120 104 148c36 22 76 36 118 36z" fill="currentColor"/>
</a>
<rect transform="translate(8.8806, 17.8600)" x="-0.0795" y="-8.5294" width="0.1590" height="10.2718" ry="0.0400" fill="currentColor"/>
<rect transform="translate(510.6306, 17.8600)" x="-0.0795" y="-9.8269" width="0.1590" height="9.0692" ry="0.0400" fill="currentColor"/>
<rect transform="translate(507.6306, 17.8600)" x="-0.0795" y="-9.1956" width="0.1590" height="9.4379" ry="0.0400" fill="currentColor"/>
<a style="color:inherit;" xlink:href="textedit:///Users/jwy/Documents/OPUS/GitHub/interactiveLoopingLine_20231129/public/pieces/interactiveLoopingLine20231129/notation/ill20231129.ly:99:21:22">
<path transform="translate(506.0000, 18.3600) scale(0.0052, -0.0052)" d="M222 135c53 0 104 -27 104 -86c0 -71 -56 -120 -103 -148c-36 -22 -76 -36 -118 -36c-53 0 -105 27 -105 86c0 71 57 120 104 148c36 22 76 36 118 36z" fill="currentColor"/>
</a>
<a style="color:inherit;" xlink:href="textedit:///Users/jwy/Documents/OPUS/GitHub/interactiveLoopingLine_20231129/public/pieces/interactiveLoopingLine20231129/notation/ill20231129.ly:99:34:35">
<path transform="translate(515.0000, 15.3600) scale(0.0052, -0.0052)" d="M222 135c53 0 104 -27 104 -86c0 -71 -56 -120 -103 -148c-36 -22 -76 -36 -118 -36c-53 0 -105 27 -105 86c0 71 57 120 104 148c36 22 76 36 118 36z" fill="currentColor"/>
</a>
<path transform="translate(9.7138, 19.8600) scale(0.0066, -0.0066)" d="M0 0c0 32 25 57 57 57s57 -25 57 -57s-25 -57 -57 -57s-57 25 -57 57z" fill="currentColor"/>
<rect transform="translate(516.6306, 17.8600)" x="-0.0795" y="-11.0894" width="0.1590" height="8.3318" ry="0.0400" fill="currentColor"/>
<a style="color:inherit;" xlink:href="textedit:///Users/jwy/Documents/OPUS/GitHub/interactiveLoopingLine_20231129/public/pieces/interactiveLoopingLine20231129/notation/ill20231129.ly:78:15:16">
<path transform="translate(7.2500, 19.8600) scale(0.0052, -0.0052)" d="M222 135c53 0 104 -27 104 -86c0 -71 -56 -120 -103 -148c-36 -22 -76 -36 -118 -36c-53 0 -105 27 -105 86c0 71 57 120 104 148c36 22 76 36 118 36z" fill="currentColor"/>
</a>
<rect transform="translate(513.6306, 17.8600)" x="-0.0795" y="-10.4581" width="0.1590" height="8.7005" ry="0.0400" fill="currentColor"/>
</svg>
