<svg xmlns="http://www.w3.org/2000/svg" xmlns:xlink="http://www.w3.org/1999/xlink" version="1.2" width="1000.00mm" height="100.00mm" viewBox="0 0 569.0551 56.9055">
<style text="style/css">
<![CDATA[
tspan { white-space: pre; }
]]>
</style>
<!-- Page: 1/1 -->
<text transform="translate(0.5691, -0.0000)" font-family="serif" font-size="2.2001" text-anchor="start" fill="currentColor">
<tspan/>
</text>
<rect transform="translate(176.6485, 15.3116)" x="-0.0795" y="-5.2424" width="0.1590" height="12.2735" ry="0.0400" fill="currentColor"/>
<a style="color:inherit;" xlink:href="textedit:///Users/jwy/Documents/OPUS/GitHub/interactiveLoopingLine_20231129/public/pieces/interactiveLoopingLine20231129/notation/ill20231129_003.ly:75:18:19">
<path transform="translate(176.5691, 9.8116) scale(0.0052, -0.0052)" d="M222 135c53 0 104 -27 104 -86c0 -71 -56 -120 -103 -148c-36 -22 -76 -36 -118 -36c-53 0 -105 27 -105 86c0 71 57 120 104 148c36 22 76 36 118 36z" fill="currentColor"/>
</a>
<rect transform="translate(167.9485, 15.3116)" x="-0.0795" y="2.7576" width="0.1590" height="7.3927" ry="0.0400" fill="currentColor"/>
<a style="color:inherit;" xlink:href="textedit:///Users/jwy/Documents/OPUS/GitHub/interactiveLoopingLine_20231129/public/pieces/interactiveLoopingLine20231129/notation/ill20231129_003.ly:75:13:14">
<path transform="translate(167.8691, 17.8116) scale(0.0052, -0.0052)" d="M222 135c53 0 104 -27 104 -86c0 -71 -56 -120 -103 -148c-36 -22 -76 -36 -118 -36c-53 0 -105 27 -105 86c0 71 57 120 104 148c36 22 76 36 118 36z" fill="currentColor"/>
</a>
<rect transform="translate(159.2485, 15.3116)" x="-0.0795" y="-3.2424" width="0.1590" height="10.2709" ry="0.0400" fill="currentColor"/>
<a style="color:inherit;" xlink:href="textedit:///Users/jwy/Documents/OPUS/GitHub/interactiveLoopingLine_20231129/public/pieces/interactiveLoopingLine20231129/notation/ill20231129_003.ly:75:8:9">
<path transform="translate(159.1691, 11.8116) scale(0.0052, -0.0052)" d="M222 135c53 0 104 -27 104 -86c0 -71 -56 -120 -103 -148c-36 -22 -76 -36 -118 -36c-53 0 -105 27 -105 86c0 71 57 120 104 148c36 22 76 36 118 36z" fill="currentColor"/>
</a>
<a style="color:inherit;" xlink:href="textedit:///Users/jwy/Documents/OPUS/GitHub/interactiveLoopingLine_20231129/public/pieces/interactiveLoopingLine20231129/notation/ill20231129_003.ly:74:17:18">
<path transform="translate(150.4691, 15.3116) scale(0.0066, -0.0066)" d="M76 -250l116 327c-35 -12 -70 -23 -107 -23c-46 0 -87 34 -87 80c0 39 31 71 71 71c26 0 49 -16 57 -40c10 -28 6 -60 35 -60c17 0 58 54 65 70c5 11 20 10 24 0l-126 -425c-7 -6 -16 -9 -24 -9s-17 3 -24 9z" fill="currentColor"/>
</a>
<rect transform="translate(195.5997, 15.3116)" x="-0.0795" y="-5.8211" width="0.1590" height="8.5635" ry="0.0400" fill="currentColor"/>
<a style="color:inherit;" xlink:href="textedit:///Users/jwy/Documents/OPUS/GitHub/interactiveLoopingLine_20231129/public/pieces/interactiveLoopingLine20231129/notation/ill20231129_003.ly:76:21:22">
<path transform="translate(193.9691, 18.3116) scale(0.0052, -0.0052)" d="M222 135c53 0 104 -27 104 -86c0 -71 -56 -120 -103 -148c-36 -22 -76 -36 -118 -36c-53 0 -105 27 -105 86c0 71 57 120 104 148c36 22 76 36 118 36z" fill="currentColor"/>
</a>
<rect transform="translate(189.6985, 15.3116)" x="-0.0795" y="5.2576" width="0.1590" height="6.8901" ry="0.0400" fill="currentColor"/>
<a style="color:inherit;" xlink:href="textedit:///Users/jwy/Documents/OPUS/GitHub/interactiveLoopingLine_20231129/public/pieces/interactiveLoopingLine20231129/notation/ill20231129_003.ly:75:32:33">
<path transform="translate(189.6191, 20.3116) scale(0.0052, -0.0052)" d="M222 135c53 0 104 -27 104 -86c0 -71 -56 -120 -103 -148c-36 -22 -76 -36 -118 -36c-53 0 -105 27 -105 86c0 71 57 120 104 148c36 22 76 36 118 36z" fill="currentColor"/>
</a>
<rect transform="translate(185.3485, 15.3116)" x="-0.0795" y="2.2576" width="0.1590" height="8.1845" ry="0.0400" fill="currentColor"/>
<a style="color:inherit;" xlink:href="textedit:///Users/jwy/Documents/OPUS/GitHub/interactiveLoopingLine_20231129/public/pieces/interactiveLoopingLine20231129/notation/ill20231129_003.ly:75:29:30">
<path transform="translate(185.2691, 17.3116) scale(0.0052, -0.0052)" d="M222 135c53 0 104 -27 104 -86c0 -71 -56 -120 -103 -148c-36 -22 -76 -36 -118 -36c-53 0 -105 27 -105 86c0 71 57 120 104 148c36 22 76 36 118 36z" fill="currentColor"/>
</a>
<rect transform="translate(180.9985, 15.3116)" x="-0.0795" y="-1.2424" width="0.1590" height="9.9790" ry="0.0400" fill="currentColor"/>
<a style="color:inherit;" xlink:href="textedit:///Users/jwy/Documents/OPUS/GitHub/interactiveLoopingLine_20231129/public/pieces/interactiveLoopingLine20231129/notation/ill20231129_003.ly:75:25:26">
<path transform="translate(180.9191, 13.8116) scale(0.0052, -0.0052)" d="M222 135c53 0 104 -27 104 -86c0 -71 -56 -120 -103 -148c-36 -22 -76 -36 -118 -36c-53 0 -105 27 -105 86c0 71 57 120 104 148c36 22 76 36 118 36z" fill="currentColor"/>
</a>
<rect transform="translate(99.9864, 15.3116)" x="-0.0795" y="-2.5000" width="0.1590" height="8.6485" ry="0.0400" fill="currentColor"/>
<a style="color:inherit;" xlink:href="textedit:///Users/jwy/Documents/OPUS/GitHub/interactiveLoopingLine_20231129/public/pieces/interactiveLoopingLine20231129/notation/ill20231129_003.ly:73:31:32">
<path transform="translate(47.8091, 12.8116) scale(0.0052, -0.0052)" d="M222 135c53 0 104 -27 104 -86c0 -71 -56 -120 -103 -148c-36 -22 -76 -36 -118 -36c-53 0 -105 27 -105 86c0 71 57 120 104 148c36 22 76 36 118 36z" fill="currentColor"/>
</a>
<rect transform="translate(45.9597, 15.3116)" x="-0.0795" y="-8.1789" width="0.1590" height="8.4212" ry="0.0400" fill="currentColor"/>
<a style="color:inherit;" xlink:href="textedit:///Users/jwy/Documents/OPUS/GitHub/interactiveLoopingLine_20231129/public/pieces/interactiveLoopingLine20231129/notation/ill20231129_003.ly:73:28:29">
<path transform="translate(44.3291, 15.8116) scale(0.0052, -0.0052)" d="M222 135c53 0 104 -27 104 -86c0 -71 -56 -120 -103 -148c-36 -22 -76 -36 -118 -36c-53 0 -105 27 -105 86c0 71 57 120 104 148c36 22 76 36 118 36z" fill="currentColor"/>
</a>
<rect transform="translate(42.4797, 15.3116)" x="-0.0795" y="-7.1901" width="0.1590" height="9.9325" ry="0.0400" fill="currentColor"/>
<rect transform="translate(49.4397, 15.3116)" x="-0.0795" y="-9.1676" width="0.1590" height="6.4099" ry="0.0400" fill="currentColor"/>
<rect transform="translate(38.9997, 15.3116)" x="-0.0795" y="-6.2014" width="0.1590" height="9.4438" ry="0.0400" fill="currentColor"/>
<a style="color:inherit;" xlink:href="textedit:///Users/jwy/Documents/OPUS/GitHub/interactiveLoopingLine_20231129/public/pieces/interactiveLoopingLine20231129/notation/ill20231129_003.ly:73:21:22">
<path transform="translate(37.3691, 18.8116) scale(0.0052, -0.0052)" d="M222 135c53 0 104 -27 104 -86c0 -71 -56 -120 -103 -148c-36 -22 -76 -36 -118 -36c-53 0 -105 27 -105 86c0 71 57 120 104 148c36 22 76 36 118 36z" fill="currentColor"/>
</a>
<rect transform="translate(21.5997, 15.3116)" x="-0.0795" y="-7.0000" width="0.1590" height="8.7424" ry="0.0400" fill="currentColor"/>
<a style="color:inherit;" xlink:href="textedit:///Users/jwy/Documents/OPUS/GitHub/interactiveLoopingLine_20231129/public/pieces/interactiveLoopingLine20231129/notation/ill20231129_003.ly:72:22:23">
<path transform="translate(19.9691, 17.3116) scale(0.0052, -0.0052)" d="M222 135c53 0 104 -27 104 -86c0 -71 -56 -120 -103 -148c-36 -22 -76 -36 -118 -36c-53 0 -105 27 -105 86c0 71 57 120 104 148c36 22 76 36 118 36z" fill="currentColor"/>
</a>
<rect transform="translate(54.8485, 15.3116)" x="-0.0795" y="-2.7424" width="0.1590" height="8.7424" ry="0.0400" fill="currentColor"/>
<path transform="translate(100.8195, 21.8116) scale(0.0066, -0.0066)" d="M0 0c0 32 25 57 57 57s57 -25 57 -57s-25 -57 -57 -57s-57 25 -57 57z" fill="currentColor"/>
<a style="color:inherit;" xlink:href="textedit:///Users/jwy/Documents/OPUS/GitHub/interactiveLoopingLine_20231129/public/pieces/interactiveLoopingLine20231129/notation/ill20231129_003.ly:74:13:14">
<path transform="translate(98.2691, 21.8116) scale(0.0052, -0.0052)" d="M316 67c0 25 -20 42 -42 42c-4 0 -9 -1 -13 -2c-31 -9 -79 -41 -117 -65s-86 -55 -107 -80c-7 -8 -10 -19 -10 -29c0 -25 20 -42 42 -42c4 0 9 1 13 2c31 9 79 41 117 65s86 55 107 80c7 8 10 19 10 29zM265 135c44 0 78 -21 78 -68c0 -19 -5 -39 -11 -57
c-12 -37 -33 -71 -65 -93c-53 -36 -114 -52 -189 -52c-44 0 -78 21 -78 68c0 19 5 39 11 57c12 37 33 71 65 93c53 36 114 52 189 52z" fill="currentColor"/>
</a>
<rect transform="translate(63.5485, 15.3116)" x="-0.0795" y="-0.1485" width="0.1590" height="8.6485" ry="0.0400" fill="currentColor"/>
<a style="color:inherit;" xlink:href="textedit:///Users/jwy/Documents/OPUS/GitHub/interactiveLoopingLine_20231129/public/pieces/interactiveLoopingLine20231129/notation/ill20231129_003.ly:74:8:9">
<path transform="translate(63.4691, 14.8116) scale(0.0052, -0.0052)" d="M316 67c0 25 -20 42 -42 42c-4 0 -9 -1 -13 -2c-31 -9 -79 -41 -117 -65s-86 -55 -107 -80c-7 -8 -10 -19 -10 -29c0 -25 20 -42 42 -42c4 0 9 1 13 2c31 9 79 41 117 65s86 55 107 80c7 8 10 19 10 29zM265 135c44 0 78 -21 78 -68c0 -19 -5 -39 -11 -57
c-12 -37 -33 -71 -65 -93c-53 -36 -114 -52 -189 -52c-44 0 -78 21 -78 68c0 19 5 39 11 57c12 37 33 71 65 93c53 36 114 52 189 52z" fill="currentColor"/>
</a>
<path transform="translate(54.9280, 21.2716) scale(0.0066, -0.0066)" d="M0 0h-14v250h14c98 58 228 147 228 259c0 57 -15 112 -40 164c-3 15 9 25 21 25c7 0 14 -3 18 -10c25 -56 40 -117 40 -179c0 -203 -267 -306 -267 -509z" fill="currentColor"/>
<a style="color:inherit;" xlink:href="textedit:///Users/jwy/Documents/OPUS/GitHub/interactiveLoopingLine_20231129/public/pieces/interactiveLoopingLine20231129/notation/ill20231129_003.ly:73:41:42">
<path transform="translate(54.7691, 12.3116) scale(0.0052, -0.0052)" d="M222 135c53 0 104 -27 104 -86c0 -71 -56 -120 -103 -148c-36 -22 -76 -36 -118 -36c-53 0 -105 27 -105 86c0 71 57 120 104 148c36 22 76 36 118 36z" fill="currentColor"/>
</a>
<rect transform="translate(52.9197, 15.3116)" x="-0.0795" y="-10.1563" width="0.1590" height="6.8986" ry="0.0400" fill="currentColor"/>
<a style="color:inherit;" xlink:href="textedit:///Users/jwy/Documents/OPUS/GitHub/interactiveLoopingLine_20231129/public/pieces/interactiveLoopingLine20231129/notation/ill20231129_003.ly:73:35:36">
<path transform="translate(51.2891, 12.3116) scale(0.0052, -0.0052)" d="M222 135c53 0 104 -27 104 -86c0 -71 -56 -120 -103 -148c-36 -22 -76 -36 -118 -36c-53 0 -105 27 -105 86c0 71 57 120 104 148c36 22 76 36 118 36z" fill="currentColor"/>
</a>
<rect transform="translate(324.3597, 15.3116)" x="-0.0795" y="-7.8211" width="0.1590" height="7.5635" ry="0.0400" fill="currentColor"/>
<polygon transform="translate(367.9691, 23.3116)" stroke-linejoin="round" stroke-linecap="round" stroke-width="0.0800" fill="currentColor" stroke="currentColor" points="27.9590 -0.2000 27.9590 0.2000 0.0400 0.2000 0.0400 -0.2000"/>
<a style="color:inherit;" xlink:href="textedit:///Users/jwy/Documents/OPUS/GitHub/interactiveLoopingLine_20231129/public/pieces/interactiveLoopingLine20231129/notation/ill20231129_003.ly:93:8:9">
<line transform="translate(420.1691, 27.3535)" stroke-linejoin="round" stroke-linecap="round" stroke-width="0.1957" stroke="currentColor" x1="16.0951" y1="-3.6481" x2="16.0951" y2="-4.3481"/>
<line transform="translate(420.1691, 27.3535)" stroke-linejoin="round" stroke-linecap="round" stroke-width="0.1957" stroke="currentColor" x1="-0.1951" y1="0.0442" x2="-0.1951" y2="-0.6558"/>
<line transform="translate(420.1691, 27.3535)" stroke-linejoin="round" stroke-linecap="round" stroke-width="0.1957" stroke="currentColor" x1="16.0951" y1="-3.6481" x2="10.3999" y2="-2.3572"/>
<line transform="translate(420.1691, 27.3535)" stroke-linejoin="round" stroke-linecap="round" stroke-width="0.1957" stroke="currentColor" x1="-0.1951" y1="0.0442" x2="5.6952" y2="-1.2909"/>
</a>
<a style="color:inherit;" xlink:href="textedit:///Users/jwy/Documents/OPUS/GitHub/interactiveLoopingLine_20231129/public/pieces/interactiveLoopingLine20231129/notation/ill20231129_003.ly:93:8:9">
<text transform="translate(426.2070, 26.4905)" font-family="serif" font-style="italic" font-size="2.8814" text-anchor="start" fill="currentColor">
<tspan>7:1</tspan>
</text>
</a>
<polygon transform="translate(404.3202, 7.8116)" stroke-linejoin="round" stroke-linecap="round" stroke-width="0.0800" fill="currentColor" stroke="currentColor" points="13.1690 -1.7000 13.1690 -1.3000 0.0400 0.2000 0.0400 -0.2000"/>
<polygon transform="translate(404.3202, 8.6327)" stroke-linejoin="round" stroke-linecap="round" stroke-width="0.0800" fill="currentColor" stroke="currentColor" points="13.1690 -1.7000 13.1690 -1.3000 0.0400 0.2000 0.0400 -0.2000"/>
<polygon transform="translate(420.1691, 22.4904)" stroke-linejoin="round" stroke-linecap="round" stroke-width="0.0800" fill="currentColor" stroke="currentColor" points="15.0333 -3.8423 15.0333 -3.4423 0.0400 0.2000 0.0400 -0.2000"/>
<polygon transform="translate(420.1691, 23.3116)" stroke-linejoin="round" stroke-linecap="round" stroke-width="0.0800" fill="currentColor" stroke="currentColor" points="15.0333 -3.8423 15.0333 -3.4423 0.0400 0.2000 0.0400 -0.2000"/>
<polygon transform="translate(420.1691, 24.1327)" stroke-linejoin="round" stroke-linecap="round" stroke-width="0.0800" fill="currentColor" stroke="currentColor" points="15.0333 -3.8423 15.0333 -3.4423 0.0400 0.2000 0.0400 -0.2000"/>
<rect transform="translate(331.3197, 15.3116)" x="-0.0795" y="-7.8211" width="0.1590" height="10.5635" ry="0.0400" fill="currentColor"/>
<a style="color:inherit;" xlink:href="textedit:///Users/jwy/Documents/OPUS/GitHub/interactiveLoopingLine_20231129/public/pieces/interactiveLoopingLine20231129/notation/ill20231129_003.ly:83:29:30">
<path transform="translate(329.6891, 18.3116) scale(0.0052, -0.0052)" d="M222 135c53 0 104 -27 104 -86c0 -71 -56 -120 -103 -148c-36 -22 -76 -36 -118 -36c-53 0 -105 27 -105 86c0 71 57 120 104 148c36 22 76 36 118 36z" fill="currentColor"/>
</a>
<a style="color:inherit;" xlink:href="textedit:///Users/jwy/Documents/OPUS/GitHub/interactiveLoopingLine_20231129/public/pieces/interactiveLoopingLine20231129/notation/ill20231129_003.ly:87:8:9">
<text transform="translate(382.7070, 27.4905)" font-family="serif" font-style="italic" font-size="2.8814" text-anchor="start" fill="currentColor">
<tspan>5:2</tspan>
</text>
</a>
<a style="color:inherit;" xlink:href="textedit:///Users/jwy/Documents/OPUS/GitHub/interactiveLoopingLine_20231129/public/pieces/interactiveLoopingLine20231129/notation/ill20231129_003.ly:83:26:27">
<path transform="translate(322.7291, 15.3116) scale(0.0052, -0.0052)" d="M222 135c53 0 104 -27 104 -86c0 -71 -56 -120 -103 -148c-36 -22 -76 -36 -118 -36c-53 0 -105 27 -105 86c0 71 57 120 104 148c36 22 76 36 118 36z" fill="currentColor"/>
</a>
<rect transform="translate(317.3997, 15.3116)" x="-0.0795" y="-7.8211" width="0.1590" height="5.0635" ry="0.0400" fill="currentColor"/>
<a style="color:inherit;" xlink:href="textedit:///Users/jwy/Documents/OPUS/GitHub/interactiveLoopingLine_20231129/public/pieces/interactiveLoopingLine20231129/notation/ill20231129_003.ly:83:21:22">
<path transform="translate(315.7691, 12.8116) scale(0.0052, -0.0052)" d="M222 135c53 0 104 -27 104 -86c0 -71 -56 -120 -103 -148c-36 -22 -76 -36 -118 -36c-53 0 -105 27 -105 86c0 71 57 120 104 148c36 22 76 36 118 36z" fill="currentColor"/>
</a>
<path transform="translate(311.6791, 10.3516) scale(0.0066, -0.0066)" d="M0 0c0 -198 207 -336 207 -534c0 -71 -16 -142 -42 -208c-4 -7 -10 -11 -17 -11c-12 0 -24 10 -21 25c26 62 41 127 41 194c0 104 -96 209 -168 284h-14v250h14z" fill="currentColor"/>
<a style="color:inherit;" xlink:href="textedit:///Users/jwy/Documents/OPUS/GitHub/interactiveLoopingLine_20231129/public/pieces/interactiveLoopingLine20231129/notation/ill20231129_003.ly:76:35:36">
<path transform="translate(207.8891, 15.3116)" stroke-width="0.0978" stroke-linejoin="round" stroke-linecap="round" stroke="currentColor" fill="currentColor" d="M1.0550 3.7500C1.5619 4.3539 2.6527 4.3539 3.1595 3.7500L3.1595 3.7500C2.6527 4.2071 1.5619 4.2071 1.0550 3.7500z"/>
</a>
<a style="color:inherit;" xlink:href="textedit:///Users/jwy/Documents/OPUS/GitHub/interactiveLoopingLine_20231129/public/pieces/interactiveLoopingLine20231129/notation/ill20231129_003.ly:72:8:9">
<polygon transform="translate(2.5691, 22.9904)" stroke-linejoin="round" stroke-linecap="round" stroke-width="0.0800" fill="currentColor" stroke="currentColor" points="1.1395 0.3232 1.1395 0.7232 0.0400 0.2000 0.0400 -0.2000"/>
<polygon transform="translate(2.5691, 23.8116)" stroke-linejoin="round" stroke-linecap="round" stroke-width="0.0800" fill="currentColor" stroke="currentColor" points="4.4690 1.8000 4.4690 2.2000 0.0400 0.2000 0.0400 -0.2000"/>
</a>
<a style="color:inherit;" xlink:href="textedit:///Users/jwy/Documents/OPUS/GitHub/interactiveLoopingLine_20231129/public/pieces/interactiveLoopingLine20231129/notation/ill20231129_003.ly:72:19:20">
<path transform="translate(6.9191, 15.3116)" stroke-width="0.0978" stroke-linejoin="round" stroke-linecap="round" stroke="currentColor" fill="currentColor" d="M1.0550 2.7500C2.3972 3.7279 12.3629 3.7279 13.7050 2.7500L13.7050 2.7500C12.3629 3.5811 2.3972 3.5811 1.0550 2.7500z"/>
</a>
<a style="color:inherit;" xlink:href="textedit:///Users/jwy/Documents/OPUS/GitHub/interactiveLoopingLine_20231129/public/pieces/interactiveLoopingLine20231129/notation/ill20231129_003.ly:73:8:9">
<line transform="translate(38.9202, 5.1023)" stroke-linejoin="round" stroke-linecap="round" stroke-width="0.1957" stroke="currentColor" x1="14.5417" y1="-4.0080" x2="14.5417" y2="-3.3080"/>
<line transform="translate(38.9202, 5.1023)" stroke-linejoin="round" stroke-linecap="round" stroke-width="0.1957" stroke="currentColor" x1="-0.1928" y1="0.0531" x2="-0.1928" y2="0.7531"/>
<line transform="translate(38.9202, 5.1023)" stroke-linejoin="round" stroke-linecap="round" stroke-width="0.1957" stroke="currentColor" x1="14.5417" y1="-4.0080" x2="8.4441" y2="-2.3274"/>
<line transform="translate(38.9202, 5.1023)" stroke-linejoin="round" stroke-linecap="round" stroke-width="0.1957" stroke="currentColor" x1="-0.1928" y1="0.0531" x2="6.0976" y2="-1.6806"/>
</a>
<a style="color:inherit;" xlink:href="textedit:///Users/jwy/Documents/OPUS/GitHub/interactiveLoopingLine_20231129/public/pieces/interactiveLoopingLine20231129/notation/ill20231129_003.ly:73:8:9">
<text transform="translate(45.3776, 4.0297)" font-family="serif" font-style="italic" font-size="2.8814" text-anchor="start" fill="currentColor">
<tspan>5</tspan>
</text>
</a>
<a style="color:inherit;" xlink:href="textedit:///Users/jwy/Documents/OPUS/GitHub/interactiveLoopingLine_20231129/public/pieces/interactiveLoopingLine20231129/notation/ill20231129_003.ly:73:38:39">
<path transform="translate(51.2891, 15.3116)" stroke-width="0.0978" stroke-linejoin="round" stroke-linecap="round" stroke="currentColor" fill="currentColor" d="M2.0306 -3.7500C2.5374 -4.3539 3.6282 -4.3539 4.1350 -3.7500L4.1350 -3.7500C3.6282 -4.2071 2.5374 -4.2071 2.0306 -3.7500z"/>
</a>
<polygon transform="translate(38.9202, 9.1327)" stroke-linejoin="round" stroke-linecap="round" stroke-width="0.0800" fill="currentColor" stroke="currentColor" points="14.0390 -4.2000 14.0390 -3.8000 0.0400 0.2000 0.0400 -0.2000"/>
<polygon transform="translate(38.9202, 9.9538)" stroke-linejoin="round" stroke-linecap="round" stroke-width="0.0800" fill="currentColor" stroke="currentColor" points="14.0390 -4.2000 14.0390 -3.8000 0.0400 0.2000 0.0400 -0.2000"/>
<polygon transform="translate(159.1691, 22.3116)" stroke-linejoin="round" stroke-linecap="round" stroke-width="0.0800" fill="currentColor" stroke="currentColor" points="8.8190 2.9789 8.8190 3.3789 0.0400 0.2000 0.0400 -0.2000"/>
<a style="color:inherit;" xlink:href="textedit:///Users/jwy/Documents/OPUS/GitHub/interactiveLoopingLine_20231129/public/pieces/interactiveLoopingLine20231129/notation/ill20231129_003.ly:76:8:9">
<line transform="translate(195.5202, 6.2504)" stroke-linejoin="round" stroke-linecap="round" stroke-width="0.1957" stroke="currentColor" x1="14.5489" y1="-0.0000" x2="14.5489" y2="0.7000"/>
<line transform="translate(195.5202, 6.2504)" stroke-linejoin="round" stroke-linecap="round" stroke-width="0.1957" stroke="currentColor" x1="-0.2000" y1="-0.0000" x2="-0.2000" y2="0.7000"/>
<line transform="translate(195.5202, 6.2504)" stroke-linejoin="round" stroke-linecap="round" stroke-width="0.1957" stroke="currentColor" x1="14.5489" y1="-0.0000" x2="8.4914" y2="-0.0000"/>
<line transform="translate(195.5202, 6.2504)" stroke-linejoin="round" stroke-linecap="round" stroke-width="0.1957" stroke="currentColor" x1="-0.2000" y1="-0.0000" x2="6.0574" y2="-0.0000"/>
</a>
<a style="color:inherit;" xlink:href="textedit:///Users/jwy/Documents/OPUS/GitHub/interactiveLoopingLine_20231129/public/pieces/interactiveLoopingLine20231129/notation/ill20231129_003.ly:76:8:9">
<text transform="translate(201.9776, 7.1552)" font-family="serif" font-style="italic" font-size="2.8814" text-anchor="start" fill="currentColor">
<tspan>5</tspan>
</text>
</a>
<polygon transform="translate(176.5691, 21.4904)" stroke-linejoin="round" stroke-linecap="round" stroke-width="0.0800" fill="currentColor" stroke="currentColor" points="13.1690 4.9789 13.1690 5.3789 0.0400 0.2000 0.0400 -0.2000"/>
<polygon transform="translate(176.5691, 22.3116)" stroke-linejoin="round" stroke-linecap="round" stroke-width="0.0800" fill="currentColor" stroke="currentColor" points="13.1690 4.9789 13.1690 5.3789 0.0400 0.2000 0.0400 -0.2000"/>
<rect transform="translate(311.5997, 15.3116)" x="-0.0795" y="-5.0000" width="0.1590" height="8.7424" ry="0.0400" fill="currentColor"/>
<polygon transform="translate(195.5202, 9.4904)" stroke-linejoin="round" stroke-linecap="round" stroke-width="0.0800" fill="currentColor" stroke="currentColor" points="14.0390 -0.2000 14.0390 0.2000 0.0400 0.2000 0.0400 -0.2000"/>
<polygon transform="translate(195.5202, 10.3116)" stroke-linejoin="round" stroke-linecap="round" stroke-width="0.0800" fill="currentColor" stroke="currentColor" points="14.0390 -0.2000 14.0390 0.2000 0.0400 0.2000 0.0400 -0.2000"/>
<polygon transform="translate(211.3691, 24.9904)" stroke-linejoin="round" stroke-linecap="round" stroke-width="0.0800" fill="currentColor" stroke="currentColor" points="1.1395 -0.8540 1.1395 -0.4540 0.0400 0.2000 0.0400 -0.2000"/>
<polygon transform="translate(211.3691, 25.8116)" stroke-linejoin="round" stroke-linecap="round" stroke-width="0.0800" fill="currentColor" stroke="currentColor" points="4.4690 -2.7000 4.4690 -2.3000 0.0400 0.2000 0.0400 -0.2000"/>
<a style="color:inherit;" xlink:href="textedit:///Users/jwy/Documents/OPUS/GitHub/interactiveLoopingLine_20231129/public/pieces/interactiveLoopingLine20231129/notation/ill20231129_003.ly:78:8:9">
<line transform="translate(299.9202, 5.5084)" stroke-linejoin="round" stroke-linecap="round" stroke-width="0.1957" stroke="currentColor" x1="14.5471" y1="1.9742" x2="14.5471" y2="2.6742"/>
<line transform="translate(299.9202, 5.5084)" stroke-linejoin="round" stroke-linecap="round" stroke-width="0.1957" stroke="currentColor" x1="-0.1982" y1="-0.0269" x2="-0.1982" y2="0.6731"/>
<line transform="translate(299.9202, 5.5084)" stroke-linejoin="round" stroke-linecap="round" stroke-width="0.1957" stroke="currentColor" x1="14.5471" y1="1.9742" x2="8.4795" y2="1.1507"/>
<line transform="translate(299.9202, 5.5084)" stroke-linejoin="round" stroke-linecap="round" stroke-width="0.1957" stroke="currentColor" x1="-0.1982" y1="-0.0269" x2="6.0676" y2="0.8234"/>
</a>
<a style="color:inherit;" xlink:href="textedit:///Users/jwy/Documents/OPUS/GitHub/interactiveLoopingLine_20231129/public/pieces/interactiveLoopingLine20231129/notation/ill20231129_003.ly:78:8:9">
<text transform="translate(306.3776, 7.4380)" font-family="serif" font-style="italic" font-size="2.8814" text-anchor="start" fill="currentColor">
<tspan>3</tspan>
</text>
</a>
<a style="color:inherit;" xlink:href="textedit:///Users/jwy/Documents/OPUS/GitHub/interactiveLoopingLine_20231129/public/pieces/interactiveLoopingLine20231129/notation/ill20231129_003.ly:83:8:9">
<line transform="translate(317.3202, 4.2504)" stroke-linejoin="round" stroke-linecap="round" stroke-width="0.1957" stroke="currentColor" x1="31.9489" y1="-0.0000" x2="31.9489" y2="0.7000"/>
<line transform="translate(317.3202, 4.2504)" stroke-linejoin="round" stroke-linecap="round" stroke-width="0.1957" stroke="currentColor" x1="-0.2000" y1="-0.0000" x2="-0.2000" y2="0.7000"/>
<line transform="translate(317.3202, 4.2504)" stroke-linejoin="round" stroke-linecap="round" stroke-width="0.1957" stroke="currentColor" x1="31.9489" y1="-0.0000" x2="18.3865" y2="-0.0000"/>
<line transform="translate(317.3202, 4.2504)" stroke-linejoin="round" stroke-linecap="round" stroke-width="0.1957" stroke="currentColor" x1="-0.2000" y1="-0.0000" x2="13.5624" y2="-0.0000"/>
</a>
<a style="color:inherit;" xlink:href="textedit:///Users/jwy/Documents/OPUS/GitHub/interactiveLoopingLine_20231129/public/pieces/interactiveLoopingLine20231129/notation/ill20231129_003.ly:83:8:9">
<text transform="translate(331.2826, 5.1894)" font-family="serif" font-style="italic" font-size="2.8814" text-anchor="start" fill="currentColor">
<tspan>5:2</tspan>
</text>
</a>
<a style="color:inherit;" xlink:href="textedit:///Users/jwy/Documents/OPUS/GitHub/interactiveLoopingLine_20231129/public/pieces/interactiveLoopingLine20231129/notation/ill20231129_003.ly:85:8:9">
<line transform="translate(352.1202, 4.0084)" stroke-linejoin="round" stroke-linecap="round" stroke-width="0.1957" stroke="currentColor" x1="14.5471" y1="1.9742" x2="14.5471" y2="2.6742"/>
<line transform="translate(352.1202, 4.0084)" stroke-linejoin="round" stroke-linecap="round" stroke-width="0.1957" stroke="currentColor" x1="-0.1982" y1="-0.0269" x2="-0.1982" y2="0.6731"/>
<line transform="translate(352.1202, 4.0084)" stroke-linejoin="round" stroke-linecap="round" stroke-width="0.1957" stroke="currentColor" x1="14.5471" y1="1.9742" x2="8.4795" y2="1.1507"/>
<line transform="translate(352.1202, 4.0084)" stroke-linejoin="round" stroke-linecap="round" stroke-width="0.1957" stroke="currentColor" x1="-0.1982" y1="-0.0269" x2="6.0676" y2="0.8234"/>
</a>
<a style="color:inherit;" xlink:href="textedit:///Users/jwy/Documents/OPUS/GitHub/interactiveLoopingLine_20231129/public/pieces/interactiveLoopingLine20231129/notation/ill20231129_003.ly:85:8:9">
<text transform="translate(358.5776, 5.9380)" font-family="serif" font-style="italic" font-size="2.8814" text-anchor="start" fill="currentColor">
<tspan>3</tspan>
</text>
</a>
<polygon transform="translate(317.3202, 7.4904)" stroke-linejoin="round" stroke-linecap="round" stroke-width="0.0800" fill="currentColor" stroke="currentColor" points="27.9590 -0.2000 27.9590 0.2000 0.0400 0.2000 0.0400 -0.2000"/>
<a style="color:inherit;" xlink:href="textedit:///Users/jwy/Documents/OPUS/GitHub/interactiveLoopingLine_20231129/public/pieces/interactiveLoopingLine20231129/notation/ill20231129_003.ly:87:8:9">
<line transform="translate(367.9691, 26.5516)" stroke-linejoin="round" stroke-linecap="round" stroke-width="0.1957" stroke="currentColor" x1="33.5000" y1="-0.0000" x2="33.5000" y2="-0.7000"/>
<line transform="translate(367.9691, 26.5516)" stroke-linejoin="round" stroke-linecap="round" stroke-width="0.1957" stroke="currentColor" x1="-0.2000" y1="-0.0000" x2="-0.2000" y2="-0.7000"/>
<line transform="translate(367.9691, 26.5516)" stroke-linejoin="round" stroke-linecap="round" stroke-width="0.1957" stroke="currentColor" x1="33.5000" y1="-0.0000" x2="19.1620" y2="-0.0000"/>
<line transform="translate(367.9691, 26.5516)" stroke-linejoin="round" stroke-linecap="round" stroke-width="0.1957" stroke="currentColor" x1="-0.2000" y1="-0.0000" x2="14.3380" y2="-0.0000"/>
</a>
<rect transform="translate(209.5197, 15.3116)" x="-0.0795" y="-5.8211" width="0.1590" height="8.5635" ry="0.0400" fill="currentColor"/>
<a style="color:inherit;" xlink:href="textedit:///Users/jwy/Documents/OPUS/GitHub/interactiveLoopingLine_20231129/public/pieces/interactiveLoopingLine20231129/notation/ill20231129_003.ly:76:33:34">
<path transform="translate(207.8891, 18.3116) scale(0.0052, -0.0052)" d="M222 135c53 0 104 -27 104 -86c0 -71 -56 -120 -103 -148c-36 -22 -76 -36 -118 -36c-53 0 -105 27 -105 86c0 71 57 120 104 148c36 22 76 36 118 36z" fill="currentColor"/>
</a>
<rect transform="translate(206.0397, 15.3116)" x="-0.0795" y="-5.8211" width="0.1590" height="8.5635" ry="0.0400" fill="currentColor"/>
<a style="color:inherit;" xlink:href="textedit:///Users/jwy/Documents/OPUS/GitHub/interactiveLoopingLine_20231129/public/pieces/interactiveLoopingLine20231129/notation/ill20231129_003.ly:76:30:31">
<path transform="translate(204.4091, 18.3116) scale(0.0052, -0.0052)" d="M222 135c53 0 104 -27 104 -86c0 -71 -56 -120 -103 -148c-36 -22 -76 -36 -118 -36c-53 0 -105 27 -105 86c0 71 57 120 104 148c36 22 76 36 118 36z" fill="currentColor"/>
</a>
<a style="color:inherit;" xlink:href="textedit:///Users/jwy/Documents/OPUS/GitHub/interactiveLoopingLine_20231129/public/pieces/interactiveLoopingLine20231129/notation/ill20231129_003.ly:76:38:39">
<path transform="translate(211.3691, 18.3116) scale(0.0052, -0.0052)" d="M222 135c53 0 104 -27 104 -86c0 -71 -56 -120 -103 -148c-36 -22 -76 -36 -118 -36c-53 0 -105 27 -105 86c0 71 57 120 104 148c36 22 76 36 118 36z" fill="currentColor"/>
</a>
<rect transform="translate(202.5597, 15.3116)" x="-0.0795" y="-5.8211" width="0.1590" height="8.5635" ry="0.0400" fill="currentColor"/>
<a style="color:inherit;" xlink:href="textedit:///Users/jwy/Documents/OPUS/GitHub/interactiveLoopingLine_20231129/public/pieces/interactiveLoopingLine20231129/notation/ill20231129_003.ly:76:27:28">
<path transform="translate(200.9291, 18.3116) scale(0.0052, -0.0052)" d="M222 135c53 0 104 -27 104 -86c0 -71 -56 -120 -103 -148c-36 -22 -76 -36 -118 -36c-53 0 -105 27 -105 86c0 71 57 120 104 148c36 22 76 36 118 36z" fill="currentColor"/>
</a>
<rect transform="translate(199.0797, 15.3116)" x="-0.0795" y="-5.8211" width="0.1590" height="8.5635" ry="0.0400" fill="currentColor"/>
<a style="color:inherit;" xlink:href="textedit:///Users/jwy/Documents/OPUS/GitHub/interactiveLoopingLine_20231129/public/pieces/interactiveLoopingLine20231129/notation/ill20231129_003.ly:76:24:25">
<path transform="translate(197.4491, 18.3116) scale(0.0052, -0.0052)" d="M222 135c53 0 104 -27 104 -86c0 -71 -56 -120 -103 -148c-36 -22 -76 -36 -118 -36c-53 0 -105 27 -105 86c0 71 57 120 104 148c36 22 76 36 118 36z" fill="currentColor"/>
</a>
<a style="color:inherit;" xlink:href="textedit:///Users/jwy/Documents/OPUS/GitHub/interactiveLoopingLine_20231129/public/pieces/interactiveLoopingLine20231129/notation/ill20231129_003.ly:78:25:26">
<path transform="translate(309.9691, 19.3116) scale(0.0052, -0.0052)" d="M222 135c53 0 104 -27 104 -86c0 -71 -56 -120 -103 -148c-36 -22 -76 -36 -118 -36c-53 0 -105 27 -105 86c0 71 57 120 104 148c36 22 76 36 118 36z" fill="currentColor"/>
</a>
<rect transform="translate(299.9997, 15.3116)" x="-0.0795" y="-7.0000" width="0.1590" height="8.7424" ry="0.0400" fill="currentColor"/>
<a style="color:inherit;" xlink:href="textedit:///Users/jwy/Documents/OPUS/GitHub/interactiveLoopingLine_20231129/public/pieces/interactiveLoopingLine20231129/notation/ill20231129_003.ly:78:21:22">
<path transform="translate(298.3691, 17.3116) scale(0.0052, -0.0052)" d="M222 135c53 0 104 -27 104 -86c0 -71 -56 -120 -103 -148c-36 -22 -76 -36 -118 -36c-53 0 -105 27 -105 86c0 71 57 120 104 148c36 22 76 36 118 36z" fill="currentColor"/>
</a>
<a style="color:inherit;" xlink:href="textedit:///Users/jwy/Documents/OPUS/GitHub/interactiveLoopingLine_20231129/public/pieces/interactiveLoopingLine20231129/notation/ill20231129_003.ly:76:51:52">
<path transform="translate(228.7691, 22.3116) scale(0.0052, -0.0052)" d="M215 114c-50 0 -71 -42 -71 -88c0 -79 60 -140 139 -140c50 0 70 42 70 88c0 79 -59 140 -138 140zM497 0c0 -43 -35 -74 -73 -95c-54 -29 -114 -40 -175 -40s-122 11 -176 40c-38 21 -73 52 -73 95s35 74 73 95c54 29 115 40 176 40s121 -11 175 -40
c38 -21 73 -52 73 -95z" fill="currentColor"/>
</a>
<a style="color:inherit;" xlink:href="textedit:///Users/jwy/Documents/OPUS/GitHub/interactiveLoopingLine_20231129/public/pieces/interactiveLoopingLine20231129/notation/ill20231129_003.ly:73:25:26">
<path transform="translate(40.8491, 18.3116) scale(0.0052, -0.0052)" d="M222 135c53 0 104 -27 104 -86c0 -71 -56 -120 -103 -148c-36 -22 -76 -36 -118 -36c-53 0 -105 27 -105 86c0 71 57 120 104 148c36 22 76 36 118 36z" fill="currentColor"/>
</a>
<rect transform="translate(215.7985, 15.3116)" x="-0.0795" y="-3.7424" width="0.1590" height="11.7864" ry="0.0400" fill="currentColor"/>
<path transform="translate(218.1828, 11.3116) scale(0.0066, -0.0066)" d="M0 0c0 32 25 57 57 57s57 -25 57 -57s-25 -57 -57 -57s-57 25 -57 57z" fill="currentColor"/>
<a style="color:inherit;" xlink:href="textedit:///Users/jwy/Documents/OPUS/GitHub/interactiveLoopingLine_20231129/public/pieces/interactiveLoopingLine20231129/notation/ill20231129_003.ly:76:43:44">
<path transform="translate(215.7191, 11.3116) scale(0.0052, -0.0052)" d="M222 135c53 0 104 -27 104 -86c0 -71 -56 -120 -103 -148c-36 -22 -76 -36 -118 -36c-53 0 -105 27 -105 86c0 71 57 120 104 148c36 22 76 36 118 36z" fill="currentColor"/>
</a>
<rect transform="translate(211.4485, 15.3116)" x="-0.0795" y="3.2576" width="0.1590" height="7.1983" ry="0.0400" fill="currentColor"/>
<rect transform="translate(395.8885, 15.3116)" x="-0.0795" y="1.2576" width="0.1590" height="6.7424" ry="0.0400" fill="currentColor"/>
<a style="color:inherit;" xlink:href="textedit:///Users/jwy/Documents/OPUS/GitHub/interactiveLoopingLine_20231129/public/pieces/interactiveLoopingLine20231129/notation/ill20231129_003.ly:87:39:40">
<path transform="translate(395.8091, 16.3116) scale(0.0052, -0.0052)" d="M222 135c53 0 104 -27 104 -86c0 -71 -56 -120 -103 -148c-36 -22 -76 -36 -118 -36c-53 0 -105 27 -105 86c0 71 57 120 104 148c36 22 76 36 118 36z" fill="currentColor"/>
</a>
<rect transform="translate(388.9285, 15.3116)" x="-0.0795" y="-4.2424" width="0.1590" height="12.2424" ry="0.0400" fill="currentColor"/>
<a style="color:inherit;" xlink:href="textedit:///Users/jwy/Documents/OPUS/GitHub/interactiveLoopingLine_20231129/public/pieces/interactiveLoopingLine20231129/notation/ill20231129_003.ly:87:34:35">
<path transform="translate(388.8491, 10.8116) scale(0.0052, -0.0052)" d="M222 135c53 0 104 -27 104 -86c0 -71 -56 -120 -103 -148c-36 -22 -76 -36 -118 -36c-53 0 -105 27 -105 86c0 71 57 120 104 148c36 22 76 36 118 36z" fill="currentColor"/>
</a>
<rect transform="translate(381.9685, 15.3116)" x="-0.0795" y="1.2576" width="0.1590" height="6.7424" ry="0.0400" fill="currentColor"/>
<a style="color:inherit;" xlink:href="textedit:///Users/jwy/Documents/OPUS/GitHub/interactiveLoopingLine_20231129/public/pieces/interactiveLoopingLine20231129/notation/ill20231129_003.ly:87:31:32">
<path transform="translate(381.8891, 16.3116) scale(0.0052, -0.0052)" d="M222 135c53 0 104 -27 104 -86c0 -71 -56 -120 -103 -148c-36 -22 -76 -36 -118 -36c-53 0 -105 27 -105 86c0 71 57 120 104 148c36 22 76 36 118 36z" fill="currentColor"/>
</a>
<rect transform="translate(375.0085, 15.3116)" x="-0.0795" y="-1.7424" width="0.1590" height="9.7424" ry="0.0400" fill="currentColor"/>
<a style="color:inherit;" xlink:href="textedit:///Users/jwy/Documents/OPUS/GitHub/interactiveLoopingLine_20231129/public/pieces/interactiveLoopingLine20231129/notation/ill20231129_003.ly:87:27:28">
<path transform="translate(374.9291, 13.3116) scale(0.0052, -0.0052)" d="M222 135c53 0 104 -27 104 -86c0 -71 -56 -120 -103 -148c-36 -22 -76 -36 -118 -36c-53 0 -105 27 -105 86c0 71 57 120 104 148c36 22 76 36 118 36z" fill="currentColor"/>
</a>
<rect transform="translate(417.4497, 15.3116)" x="-0.0795" y="-8.9910" width="0.1590" height="6.7333" ry="0.0400" fill="currentColor"/>
<a style="color:inherit;" xlink:href="textedit:///Users/jwy/Documents/OPUS/GitHub/interactiveLoopingLine_20231129/public/pieces/interactiveLoopingLine20231129/notation/ill20231129_003.ly:90:19:20">
<path transform="translate(415.8191, 13.3116) scale(0.0052, -0.0052)" d="M222 135c53 0 104 -27 104 -86c0 -71 -56 -120 -103 -148c-36 -22 -76 -36 -118 -36c-53 0 -105 27 -105 86c0 71 57 120 104 148c36 22 76 36 118 36z" fill="currentColor"/>
</a>
<rect transform="translate(413.0997, 15.3116)" x="-0.0795" y="-8.4970" width="0.1590" height="10.7394" ry="0.0400" fill="currentColor"/>
<a style="color:inherit;" xlink:href="textedit:///Users/jwy/Documents/OPUS/GitHub/interactiveLoopingLine_20231129/public/pieces/interactiveLoopingLine20231129/notation/ill20231129_003.ly:90:16:17">
<path transform="translate(411.4691, 17.8116) scale(0.0052, -0.0052)" d="M222 135c53 0 104 -27 104 -86c0 -71 -56 -120 -103 -148c-36 -22 -76 -36 -118 -36c-53 0 -105 27 -105 86c0 71 57 120 104 148c36 22 76 36 118 36z" fill="currentColor"/>
</a>
<rect transform="translate(408.7497, 15.3116)" x="-0.0795" y="-8.0030" width="0.1590" height="8.2454" ry="0.0400" fill="currentColor"/>
<a style="color:inherit;" xlink:href="textedit:///Users/jwy/Documents/OPUS/GitHub/interactiveLoopingLine_20231129/public/pieces/interactiveLoopingLine20231129/notation/ill20231129_003.ly:90:13:14">
<path transform="translate(407.1191, 15.8116) scale(0.0052, -0.0052)" d="M222 135c53 0 104 -27 104 -86c0 -71 -56 -120 -103 -148c-36 -22 -76 -36 -118 -36c-53 0 -105 27 -105 86c0 71 57 120 104 148c36 22 76 36 118 36z" fill="currentColor"/>
</a>
<rect transform="translate(404.3997, 15.3116)" x="-0.0795" y="-7.5090" width="0.1590" height="8.7514" ry="0.0400" fill="currentColor"/>
<a style="color:inherit;" xlink:href="textedit:///Users/jwy/Documents/OPUS/GitHub/interactiveLoopingLine_20231129/public/pieces/interactiveLoopingLine20231129/notation/ill20231129_003.ly:90:8:9">
<path transform="translate(402.7691, 16.8116) scale(0.0052, -0.0052)" d="M222 135c53 0 104 -27 104 -86c0 -71 -56 -120 -103 -148c-36 -22 -76 -36 -118 -36c-53 0 -105 27 -105 86c0 71 57 120 104 148c36 22 76 36 118 36z" fill="currentColor"/>
</a>
<rect transform="translate(338.2797, 15.3116)" x="-0.0795" y="-7.8211" width="0.1590" height="5.0635" ry="0.0400" fill="currentColor"/>
<a style="color:inherit;" xlink:href="textedit:///Users/jwy/Documents/OPUS/GitHub/interactiveLoopingLine_20231129/public/pieces/interactiveLoopingLine20231129/notation/ill20231129_003.ly:83:32:33">
<path transform="translate(336.6491, 12.8116) scale(0.0052, -0.0052)" d="M222 135c53 0 104 -27 104 -86c0 -71 -56 -120 -103 -148c-36 -22 -76 -36 -118 -36c-53 0 -105 27 -105 86c0 71 57 120 104 148c36 22 76 36 118 36z" fill="currentColor"/>
</a>
<rect transform="translate(2.6485, 15.3116)" x="-0.0795" y="-1.7424" width="0.1590" height="10.2776" ry="0.0400" fill="currentColor"/>
<a style="color:inherit;" xlink:href="textedit:///Users/jwy/Documents/OPUS/GitHub/interactiveLoopingLine_20231129/public/pieces/interactiveLoopingLine20231129/notation/ill20231129_003.ly:68:8:9">
</a>
<a style="color:inherit;" xlink:href="textedit:///Users/jwy/Documents/OPUS/GitHub/interactiveLoopingLine_20231129/public/pieces/interactiveLoopingLine20231129/notation/ill20231129_003.ly:72:9:10">
<path transform="translate(2.5691, 13.3116) scale(0.0052, -0.0052)" d="M222 135c53 0 104 -27 104 -86c0 -71 -56 -120 -103 -148c-36 -22 -76 -36 -118 -36c-53 0 -105 27 -105 86c0 71 57 120 104 148c36 22 76 36 118 36z" fill="currentColor"/>
</a>
<rect transform="translate(368.0485, 15.3116)" x="-0.0795" y="-3.7424" width="0.1590" height="11.7424" ry="0.0400" fill="currentColor"/>
<a style="color:inherit;" xlink:href="textedit:///Users/jwy/Documents/OPUS/GitHub/interactiveLoopingLine_20231129/public/pieces/interactiveLoopingLine20231129/notation/ill20231129_003.ly:87:21:22">
<path transform="translate(367.9691, 11.3116) scale(0.0052, -0.0052)" d="M222 135c53 0 104 -27 104 -86c0 -71 -56 -120 -103 -148c-36 -22 -76 -36 -118 -36c-53 0 -105 27 -105 86c0 71 57 120 104 148c36 22 76 36 118 36z" fill="currentColor"/>
</a>
<path transform="translate(363.8791, 8.8516) scale(0.0066, -0.0066)" d="M0 0c0 -198 207 -336 207 -534c0 -71 -16 -142 -42 -208c-4 -7 -10 -11 -17 -11c-12 0 -24 10 -21 25c26 62 41 127 41 194c0 104 -96 209 -168 284h-14v250h14z" fill="currentColor"/>
<rect transform="translate(363.7997, 15.3116)" x="-0.0795" y="-6.5000" width="0.1590" height="8.7424" ry="0.0400" fill="currentColor"/>
<a style="color:inherit;" xlink:href="textedit:///Users/jwy/Documents/OPUS/GitHub/interactiveLoopingLine_20231129/public/pieces/interactiveLoopingLine20231129/notation/ill20231129_003.ly:85:25:26">
<path transform="translate(362.1691, 17.8116) scale(0.0052, -0.0052)" d="M222 135c53 0 104 -27 104 -86c0 -71 -56 -120 -103 -148c-36 -22 -76 -36 -118 -36c-53 0 -105 27 -105 86c0 71 57 120 104 148c36 22 76 36 118 36z" fill="currentColor"/>
</a>
<rect transform="translate(352.1997, 15.3116)" x="-0.0795" y="-8.5000" width="0.1590" height="8.7424" ry="0.0400" fill="currentColor"/>
<a style="color:inherit;" xlink:href="textedit:///Users/jwy/Documents/OPUS/GitHub/interactiveLoopingLine_20231129/public/pieces/interactiveLoopingLine20231129/notation/ill20231129_003.ly:85:21:22">
<path transform="translate(350.5691, 15.8116) scale(0.0052, -0.0052)" d="M222 135c53 0 104 -27 104 -86c0 -71 -56 -120 -103 -148c-36 -22 -76 -36 -118 -36c-53 0 -105 27 -105 86c0 71 57 120 104 148c36 22 76 36 118 36z" fill="currentColor"/>
</a>
<rect transform="translate(345.2397, 15.3116)" x="-0.0795" y="-7.8211" width="0.1590" height="10.5635" ry="0.0400" fill="currentColor"/>
<a style="color:inherit;" xlink:href="textedit:///Users/jwy/Documents/OPUS/GitHub/interactiveLoopingLine_20231129/public/pieces/interactiveLoopingLine20231129/notation/ill20231129_003.ly:83:36:37">
<path transform="translate(343.6091, 18.3116) scale(0.0052, -0.0052)" d="M222 135c53 0 104 -27 104 -86c0 -71 -56 -120 -103 -148c-36 -22 -76 -36 -118 -36c-53 0 -105 27 -105 86c0 71 57 120 104 148c36 22 76 36 118 36z" fill="currentColor"/>
</a>
<rect transform="translate(432.6771, 15.3116)" x="-0.0795" y="-4.2424" width="0.1590" height="10.0411" ry="0.0400" fill="currentColor"/>
<a style="color:inherit;" xlink:href="textedit:///Users/jwy/Documents/OPUS/GitHub/interactiveLoopingLine_20231129/public/pieces/interactiveLoopingLine20231129/notation/ill20231129_003.ly:93:42:43">
<path transform="translate(432.5976, 10.8116) scale(0.0052, -0.0052)" d="M222 135c53 0 104 -27 104 -86c0 -71 -56 -120 -103 -148c-36 -22 -76 -36 -118 -36c-53 0 -105 27 -105 86c0 71 57 120 104 148c36 22 76 36 118 36z" fill="currentColor"/>
</a>
<rect transform="translate(430.1914, 15.3116)" x="-0.0795" y="-3.2424" width="0.1590" height="9.6417" ry="0.0400" fill="currentColor"/>
<a style="color:inherit;" xlink:href="textedit:///Users/jwy/Documents/OPUS/GitHub/interactiveLoopingLine_20231129/public/pieces/interactiveLoopingLine20231129/notation/ill20231129_003.ly:93:38:39">
<path transform="translate(430.1119, 11.8116) scale(0.0052, -0.0052)" d="M222 135c53 0 104 -27 104 -86c0 -71 -56 -120 -103 -148c-36 -22 -76 -36 -118 -36c-53 0 -105 27 -105 86c0 71 57 120 104 148c36 22 76 36 118 36z" fill="currentColor"/>
</a>
<a style="color:inherit;" xlink:href="textedit:///Users/jwy/Documents/OPUS/GitHub/interactiveLoopingLine_20231129/public/pieces/interactiveLoopingLine20231129/notation/ill20231129_003.ly:95:8:9">
<path transform="translate(437.5691, 28.8116) scale(0.0052, -0.0052)" d="M215 114c-50 0 -71 -42 -71 -88c0 -79 60 -140 139 -140c50 0 70 42 70 88c0 79 -59 140 -138 140zM497 0c0 -43 -35 -74 -73 -95c-54 -29 -114 -40 -175 -40s-122 11 -176 40c-38 21 -73 52 -73 95s35 74 73 95c54 29 115 40 176 40s121 -11 175 -40
c38 -21 73 -52 73 -95z" fill="currentColor"/>
</a>
<a style="color:inherit;" xlink:href="textedit:///Users/jwy/Documents/OPUS/GitHub/interactiveLoopingLine_20231129/public/pieces/interactiveLoopingLine20231129/notation/ill20231129_003.ly:97:8:9">
<path transform="translate(507.1691, 17.3116) scale(0.0052, -0.0052)" d="M222 135c53 0 104 -27 104 -86c0 -71 -56 -120 -103 -148c-36 -22 -76 -36 -118 -36c-53 0 -105 27 -105 86c0 71 57 120 104 148c36 22 76 36 118 36z" fill="currentColor"/>
</a>
<rect transform="translate(435.1628, 15.3116)" x="-0.0795" y="-6.2424" width="0.1590" height="11.4404" ry="0.0400" fill="currentColor"/>
<a style="color:inherit;" xlink:href="textedit:///Users/jwy/Documents/OPUS/GitHub/interactiveLoopingLine_20231129/public/pieces/interactiveLoopingLine20231129/notation/ill20231129_003.ly:93:47:48">
<path transform="translate(435.0833, 8.8116) scale(0.0052, -0.0052)" d="M222 135c53 0 104 -27 104 -86c0 -71 -56 -120 -103 -148c-36 -22 -76 -36 -118 -36c-53 0 -105 27 -105 86c0 71 57 120 104 148c36 22 76 36 118 36z" fill="currentColor"/>
</a>
<rect transform="translate(508.7997, 15.3116)" x="-0.0795" y="-7.0000" width="0.1590" height="8.7424" ry="0.0400" fill="currentColor"/>
<a style="color:inherit;" xlink:href="textedit:///Users/jwy/Documents/OPUS/GitHub/interactiveLoopingLine_20231129/public/pieces/interactiveLoopingLine20231129/notation/ill20231129_003.ly:93:26:27">
<path transform="translate(422.6548, 14.8116) scale(0.0052, -0.0052)" d="M222 135c53 0 104 -27 104 -86c0 -71 -56 -120 -103 -148c-36 -22 -76 -36 -118 -36c-53 0 -105 27 -105 86c0 71 57 120 104 148c36 22 76 36 118 36z" fill="currentColor"/>
</a>
<a style="color:inherit;" xlink:href="textedit:///Users/jwy/Documents/OPUS/GitHub/interactiveLoopingLine_20231129/public/pieces/interactiveLoopingLine20231129/notation/ill20231129_003.ly:93:30:31">
<path transform="translate(425.1405, 13.8116) scale(0.0052, -0.0052)" d="M222 135c53 0 104 -27 104 -86c0 -71 -56 -120 -103 -148c-36 -22 -76 -36 -118 -36c-53 0 -105 27 -105 86c0 71 57 120 104 148c36 22 76 36 118 36z" fill="currentColor"/>
</a>
<rect transform="translate(6.9985, 15.3116)" x="-0.0795" y="2.2576" width="0.1590" height="8.2071" ry="0.0400" fill="currentColor"/>
<rect transform="translate(422.7343, 15.3116)" x="-0.0795" y="-0.2424" width="0.1590" height="8.4437" ry="0.0400" fill="currentColor"/>
<rect transform="translate(420.2485, 15.3116)" x="-0.0795" y="0.7576" width="0.1590" height="8.0443" ry="0.0400" fill="currentColor"/>
<a style="color:inherit;" xlink:href="textedit:///Users/jwy/Documents/OPUS/GitHub/interactiveLoopingLine_20231129/public/pieces/interactiveLoopingLine20231129/notation/ill20231129_003.ly:93:21:22">
<path transform="translate(420.1691, 15.8116) scale(0.0052, -0.0052)" d="M222 135c53 0 104 -27 104 -86c0 -71 -56 -120 -103 -148c-36 -22 -76 -36 -118 -36c-53 0 -105 27 -105 86c0 71 57 120 104 148c36 22 76 36 118 36z" fill="currentColor"/>
</a>
<a style="color:inherit;" xlink:href="textedit:///Users/jwy/Documents/OPUS/GitHub/interactiveLoopingLine_20231129/public/pieces/interactiveLoopingLine20231129/notation/ill20231129_003.ly:93:34:35">
<path transform="translate(427.6262, 12.8116) scale(0.0052, -0.0052)" d="M222 135c53 0 104 -27 104 -86c0 -71 -56 -120 -103 -148c-36 -22 -76 -36 -118 -36c-53 0 -105 27 -105 86c0 71 57 120 104 148c36 22 76 36 118 36z" fill="currentColor"/>
</a>
<path transform="translate(9.3828, 17.3116) scale(0.0066, -0.0066)" d="M0 0c0 32 25 57 57 57s57 -25 57 -57s-25 -57 -57 -57s-57 25 -57 57z" fill="currentColor"/>
<rect transform="translate(427.7057, 15.3116)" x="-0.0795" y="-2.2424" width="0.1590" height="9.2424" ry="0.0400" fill="currentColor"/>
<a style="color:inherit;" xlink:href="textedit:///Users/jwy/Documents/OPUS/GitHub/interactiveLoopingLine_20231129/public/pieces/interactiveLoopingLine20231129/notation/ill20231129_003.ly:72:15:16">
<path transform="translate(6.9191, 17.3116) scale(0.0052, -0.0052)" d="M222 135c53 0 104 -27 104 -86c0 -71 -56 -120 -103 -148c-36 -22 -76 -36 -118 -36c-53 0 -105 27 -105 86c0 71 57 120 104 148c36 22 76 36 118 36z" fill="currentColor"/>
</a>
<rect transform="translate(425.2200, 15.3116)" x="-0.0795" y="-1.2424" width="0.1590" height="8.8430" ry="0.0400" fill="currentColor"/>
</svg>
