<svg xmlns="http://www.w3.org/2000/svg" xmlns:xlink="http://www.w3.org/1999/xlink" version="1.2" width="1000.00mm" height="200.00mm" viewBox="0 0 569.0551 113.8110">
<style type="text/css">
<![CDATA[
tspan { white-space: pre; }
]]>
</style>
<!-- Page: 1/1 -->
<a style="color:inherit;" xlink:href="textedit://C:/Users/jwloy/Documents/GitHub/interactiveLoopingLine_20231129/public/pieces/interactiveLoopingLine20231129/notation/ill20231129.ly:71:30:31">
<g transform="translate(266.2893, 14.5731)">
<path transform="scale(0.0052, -0.0052)" d="M222 135c53 0 104 -27 104 -86c0 -71 -56 -120 -103 -148c-36 -22 -76 -36 -118 -36c-53 0 -105 27 -105 86c0 71 57 120 104 148c36 22 76 36 118 36z" fill="currentColor"/>
</g>
</a>
<g transform="translate(267.9199, 11.5731)">
<rect x="-0.0795" y="-5.8211" width="0.1590" height="8.5635" ry="0.0400" fill="currentColor"/>
</g>
<a style="color:inherit;" xlink:href="textedit://C:/Users/jwloy/Documents/GitHub/interactiveLoopingLine_20231129/public/pieces/interactiveLoopingLine20231129/notation/ill20231129.ly:71:33:34">
<g transform="translate(270.2794, 14.5731)">
<path transform="scale(0.0052, -0.0052)" d="M222 135c53 0 104 -27 104 -86c0 -71 -56 -120 -103 -148c-36 -22 -76 -36 -118 -36c-53 0 -105 27 -105 86c0 71 57 120 104 148c36 22 76 36 118 36z" fill="currentColor"/>
</g>
</a>
<g transform="translate(271.9100, 11.5731)">
<rect x="-0.0795" y="-5.8211" width="0.1590" height="8.5635" ry="0.0400" fill="currentColor"/>
</g>
<g transform="translate(459.3802, 11.5731)">
<rect x="-0.0795" y="-7.8211" width="0.1590" height="5.0635" ry="0.0400" fill="currentColor"/>
</g>
<a style="color:inherit;" xlink:href="textedit://C:/Users/jwloy/Documents/GitHub/interactiveLoopingLine_20231129/public/pieces/interactiveLoopingLine20231129/notation/ill20231129.ly:71:38:39">
<g transform="translate(274.2695, 14.5731)">
<path transform="scale(0.0052, -0.0052)" d="M222 135c53 0 104 -27 104 -86c0 -71 -56 -120 -103 -148c-36 -22 -76 -36 -118 -36c-53 0 -105 27 -105 86c0 71 57 120 104 148c36 22 76 36 118 36z" fill="currentColor"/>
</g>
</a>
<g transform="translate(274.3490, 11.5731)">
<rect x="-0.0795" y="3.2576" width="0.1590" height="7.5209" ry="0.0400" fill="currentColor"/>
</g>
<a style="color:inherit;" xlink:href="textedit://C:/Users/jwloy/Documents/GitHub/interactiveLoopingLine_20231129/public/pieces/interactiveLoopingLine20231129/notation/ill20231129.ly:78:32:33">
<g transform="translate(457.7496, 9.0731)">
<path transform="scale(0.0052, -0.0052)" d="M222 135c53 0 104 -27 104 -86c0 -71 -56 -120 -103 -148c-36 -22 -76 -36 -118 -36c-53 0 -105 27 -105 86c0 71 57 120 104 148c36 22 76 36 118 36z" fill="currentColor"/>
</g>
</a>
<a style="color:inherit;" xlink:href="textedit://C:/Users/jwloy/Documents/GitHub/interactiveLoopingLine_20231129/public/pieces/interactiveLoopingLine20231129/notation/ill20231129.ly:71:43:44">
<g transform="translate(279.3796, 7.5731)">
<path transform="scale(0.0052, -0.0052)" d="M222 135c53 0 104 -27 104 -86c0 -71 -56 -120 -103 -148c-36 -22 -76 -36 -118 -36c-53 0 -105 27 -105 86c0 71 57 120 104 148c36 22 76 36 118 36z" fill="currentColor"/>
</g>
</a>
<g transform="translate(281.8433, 7.5731)">
<path transform="scale(0.0066, -0.0066)" d="M0 0c0 32 25 57 57 57s57 -25 57 -57s-25 -57 -57 -57s-57 25 -57 57z" fill="currentColor"/>
</g>
<g transform="translate(279.4591, 11.5731)">
<rect x="-0.0795" y="-3.7424" width="0.1590" height="11.7849" ry="0.0400" fill="currentColor"/>
</g>
<g transform="translate(255.9496, 11.5731)">
<rect x="-0.0795" y="-5.8211" width="0.1590" height="8.5635" ry="0.0400" fill="currentColor"/>
</g>
<g transform="translate(466.6003, 11.5731)">
<rect x="-0.0795" y="-7.8211" width="0.1590" height="10.5635" ry="0.0400" fill="currentColor"/>
</g>
<a style="color:inherit;" xlink:href="textedit://C:/Users/jwloy/Documents/GitHub/interactiveLoopingLine_20231129/public/pieces/interactiveLoopingLine20231129/notation/ill20231129.ly:70:29:30">
<g transform="translate(244.8488, 13.5731)">
<path transform="scale(0.0052, -0.0052)" d="M222 135c53 0 104 -27 104 -86c0 -71 -56 -120 -103 -148c-36 -22 -76 -36 -118 -36c-53 0 -105 27 -105 86c0 71 57 120 104 148c36 22 76 36 118 36z" fill="currentColor"/>
</g>
</a>
<g transform="translate(244.9283, 11.5731)">
<rect x="-0.0795" y="2.2576" width="0.1590" height="8.1851" ry="0.0400" fill="currentColor"/>
</g>
<a style="color:inherit;" xlink:href="textedit://C:/Users/jwloy/Documents/GitHub/interactiveLoopingLine_20231129/public/pieces/interactiveLoopingLine20231129/notation/ill20231129.ly:70:32:33">
<g transform="translate(249.4589, 16.5731)">
<path transform="scale(0.0052, -0.0052)" d="M222 135c53 0 104 -27 104 -86c0 -71 -56 -120 -103 -148c-36 -22 -76 -36 -118 -36c-53 0 -105 27 -105 86c0 71 57 120 104 148c36 22 76 36 118 36z" fill="currentColor"/>
</g>
</a>
<g transform="translate(249.5384, 11.5731)">
<rect x="-0.0795" y="5.2576" width="0.1590" height="6.8918" ry="0.0400" fill="currentColor"/>
</g>
<a style="color:inherit;" xlink:href="textedit://C:/Users/jwloy/Documents/GitHub/interactiveLoopingLine_20231129/public/pieces/interactiveLoopingLine20231129/notation/ill20231129.ly:71:21:22">
<g transform="translate(254.3190, 14.5731)">
<path transform="scale(0.0052, -0.0052)" d="M222 135c53 0 104 -27 104 -86c0 -71 -56 -120 -103 -148c-36 -22 -76 -36 -118 -36c-53 0 -105 27 -105 86c0 71 57 120 104 148c36 22 76 36 118 36z" fill="currentColor"/>
</g>
</a>
<a style="color:inherit;" xlink:href="textedit://C:/Users/jwloy/Documents/GitHub/interactiveLoopingLine_20231129/public/pieces/interactiveLoopingLine20231129/notation/ill20231129.ly:71:24:25">
<g transform="translate(258.3091, 14.5731)">
<path transform="scale(0.0052, -0.0052)" d="M222 135c53 0 104 -27 104 -86c0 -71 -56 -120 -103 -148c-36 -22 -76 -36 -118 -36c-53 0 -105 27 -105 86c0 71 57 120 104 148c36 22 76 36 118 36z" fill="currentColor"/>
</g>
</a>
<g transform="translate(259.9397, 11.5731)">
<rect x="-0.0795" y="-5.8211" width="0.1590" height="8.5635" ry="0.0400" fill="currentColor"/>
</g>
<a style="color:inherit;" xlink:href="textedit://C:/Users/jwloy/Documents/GitHub/interactiveLoopingLine_20231129/public/pieces/interactiveLoopingLine20231129/notation/ill20231129.ly:71:27:28">
<g transform="translate(262.2992, 14.5731)">
<path transform="scale(0.0052, -0.0052)" d="M222 135c53 0 104 -27 104 -86c0 -71 -56 -120 -103 -148c-36 -22 -76 -36 -118 -36c-53 0 -105 27 -105 86c0 71 57 120 104 148c36 22 76 36 118 36z" fill="currentColor"/>
</g>
</a>
<g transform="translate(263.9298, 11.5731)">
<rect x="-0.0795" y="-5.8211" width="0.1590" height="8.5635" ry="0.0400" fill="currentColor"/>
</g>
<g transform="translate(274.2695, 21.5731)">
<polygon stroke-linejoin="round" stroke-linecap="round" stroke-width="0.0800" fill="currentColor" stroke="currentColor" points="1.1395 -0.8315 1.1395 -0.4315 0.0400 0.2000 0.0400 -0.2000"/>
</g>
<g transform="translate(274.2695, 22.3942)">
<polygon stroke-linejoin="round" stroke-linecap="round" stroke-width="0.0800" fill="currentColor" stroke="currentColor" points="5.2291 -3.0211 5.2291 -2.6211 0.0400 0.2000 0.0400 -0.2000"/>
</g>
<g transform="translate(451.6601, 11.5731)">
<rect x="-0.0795" y="-7.8211" width="0.1590" height="10.5635" ry="0.0400" fill="currentColor"/>
</g>
<a style="color:inherit;" xlink:href="textedit://C:/Users/jwloy/Documents/GitHub/interactiveLoopingLine_20231129/public/pieces/interactiveLoopingLine20231129/notation/ill20231129.ly:78:26:27">
<g transform="translate(442.8094, 11.5731)">
<path transform="scale(0.0052, -0.0052)" d="M222 135c53 0 104 -27 104 -86c0 -71 -56 -120 -103 -148c-36 -22 -76 -36 -118 -36c-53 0 -105 27 -105 86c0 71 57 120 104 148c36 22 76 36 118 36z" fill="currentColor"/>
</g>
</a>
<g transform="translate(444.4400, 11.5731)">
<rect x="-0.0795" y="-7.8211" width="0.1590" height="7.5635" ry="0.0400" fill="currentColor"/>
</g>
<a style="color:inherit;" xlink:href="textedit://C:/Users/jwloy/Documents/GitHub/interactiveLoopingLine_20231129/public/pieces/interactiveLoopingLine20231129/notation/ill20231129.ly:78:29:30">
<g transform="translate(450.0295, 14.5731)">
<path transform="scale(0.0052, -0.0052)" d="M222 135c53 0 104 -27 104 -86c0 -71 -56 -120 -103 -148c-36 -22 -76 -36 -118 -36c-53 0 -105 27 -105 86c0 71 57 120 104 148c36 22 76 36 118 36z" fill="currentColor"/>
</g>
</a>
<g transform="translate(437.1404, 3.7519)">
<polygon stroke-linejoin="round" stroke-linecap="round" stroke-width="0.0800" fill="currentColor" stroke="currentColor" points="29.4993 -0.2000 29.4993 0.2000 0.0400 0.2000 0.0400 -0.2000"/>
</g>
<a style="color:inherit;" xlink:href="textedit://C:/Users/jwloy/Documents/GitHub/interactiveLoopingLine_20231129/public/pieces/interactiveLoopingLine20231129/notation/ill20231129.ly:78:8:9">
<g transform="translate(449.9981, 3.3509)">
<text font-family="serif" font-style="italic" font-size="2.8814" text-anchor="start" fill="currentColor">
<tspan>5:2</tspan>
</text>
</g>
</a>
<a style="color:inherit;" xlink:href="textedit://C:/Users/jwloy/Documents/GitHub/interactiveLoopingLine_20231129/public/pieces/interactiveLoopingLine20231129/notation/ill20231129.ly:78:8:9">
<g transform="translate(437.1404, 2.4119)">
<line stroke-linejoin="round" stroke-linecap="round" stroke-width="0.1957" stroke="currentColor" x1="29.7393" y1="-0.0000" x2="29.7393" y2="0.7000"/>
</g>
<g transform="translate(437.1404, 2.4119)">
<line stroke-linejoin="round" stroke-linecap="round" stroke-width="0.1957" stroke="currentColor" x1="-0.2000" y1="-0.0000" x2="-0.2000" y2="0.7000"/>
</g>
<g transform="translate(437.1404, 2.4119)">
<line stroke-linejoin="round" stroke-linecap="round" stroke-width="0.1957" stroke="currentColor" x1="29.7393" y1="-0.0000" x2="17.2817" y2="-0.0000"/>
</g>
<g transform="translate(437.1404, 2.4119)">
<line stroke-linejoin="round" stroke-linecap="round" stroke-width="0.1957" stroke="currentColor" x1="-0.2000" y1="-0.0000" x2="12.4576" y2="-0.0000"/>
</g>
</a>
<a style="color:inherit;" xlink:href="textedit://C:/Users/jwloy/Documents/GitHub/interactiveLoopingLine_20231129/public/pieces/interactiveLoopingLine20231129/notation/ill20231129.ly:73:8:9">
<g transform="translate(412.6628, 5.5306)">
<text font-family="serif" font-style="italic" font-size="2.8814" text-anchor="start" fill="currentColor">
<tspan>3</tspan>
</text>
</g>
</a>
<a style="color:inherit;" xlink:href="textedit://C:/Users/jwloy/Documents/GitHub/interactiveLoopingLine_20231129/public/pieces/interactiveLoopingLine20231129/notation/ill20231129.ly:73:8:9">
<g transform="translate(401.5703, 3.6010)">
<line stroke-linejoin="round" stroke-linecap="round" stroke-width="0.1957" stroke="currentColor" x1="23.8184" y1="1.9637" x2="23.8184" y2="2.6637"/>
</g>
<g transform="translate(401.5703, 3.6010)">
<line stroke-linejoin="round" stroke-linecap="round" stroke-width="0.1957" stroke="currentColor" x1="-0.1993" y1="-0.0164" x2="-0.1993" y2="0.6836"/>
</g>
<g transform="translate(401.5703, 3.6010)">
<line stroke-linejoin="round" stroke-linecap="round" stroke-width="0.1957" stroke="currentColor" x1="23.8184" y1="1.9637" x2="13.1221" y2="1.0819"/>
</g>
<g transform="translate(401.5703, 3.6010)">
<line stroke-linejoin="round" stroke-linecap="round" stroke-width="0.1957" stroke="currentColor" x1="-0.1993" y1="-0.0164" x2="10.6963" y2="0.8819"/>
</g>
</a>
<g transform="translate(255.8701, 5.7519)">
<polygon stroke-linejoin="round" stroke-linecap="round" stroke-width="0.0800" fill="currentColor" stroke="currentColor" points="16.0793 -0.2000 16.0793 0.2000 0.0400 0.2000 0.0400 -0.2000"/>
</g>
<g transform="translate(255.8701, 6.5731)">
<polygon stroke-linejoin="round" stroke-linecap="round" stroke-width="0.0800" fill="currentColor" stroke="currentColor" points="16.0793 -0.2000 16.0793 0.2000 0.0400 0.2000 0.0400 -0.2000"/>
</g>
<a style="color:inherit;" xlink:href="textedit://C:/Users/jwloy/Documents/GitHub/interactiveLoopingLine_20231129/public/pieces/interactiveLoopingLine20231129/notation/ill20231129.ly:71:35:36">
<g transform="translate(270.2794, 11.5731)">
<path stroke-width="0.0978" stroke-linejoin="round" stroke-linecap="round" stroke="currentColor" fill="currentColor" d="M1.0550 3.7500C1.6483 4.4214 3.0763 4.4214 3.6696 3.7500L3.6696 3.7500C3.0763 4.2747 1.6483 4.2747 1.0550 3.7500z"/>
</g>
</a>
<g transform="translate(235.6287, 17.7519)">
<polygon stroke-linejoin="round" stroke-linecap="round" stroke-width="0.0800" fill="currentColor" stroke="currentColor" points="13.9492 4.9789 13.9492 5.3789 0.0400 0.2000 0.0400 -0.2000"/>
</g>
<g transform="translate(235.6287, 18.5731)">
<polygon stroke-linejoin="round" stroke-linecap="round" stroke-width="0.0800" fill="currentColor" stroke="currentColor" points="13.9492 4.9789 13.9492 5.3789 0.0400 0.2000 0.0400 -0.2000"/>
</g>
<a style="color:inherit;" xlink:href="textedit://C:/Users/jwloy/Documents/GitHub/interactiveLoopingLine_20231129/public/pieces/interactiveLoopingLine20231129/notation/ill20231129.ly:71:8:9">
<g transform="translate(263.2128, 5.3167)">
<text font-family="serif" font-style="italic" font-size="2.8814" text-anchor="start" fill="currentColor">
<tspan>5</tspan>
</text>
</g>
</a>
<a style="color:inherit;" xlink:href="textedit://C:/Users/jwloy/Documents/GitHub/interactiveLoopingLine_20231129/public/pieces/interactiveLoopingLine20231129/notation/ill20231129.ly:71:8:9">
<g transform="translate(255.8701, 4.4119)">
<line stroke-linejoin="round" stroke-linecap="round" stroke-width="0.1957" stroke="currentColor" x1="16.3193" y1="-0.0000" x2="16.3193" y2="0.7000"/>
</g>
<g transform="translate(255.8701, 4.4119)">
<line stroke-linejoin="round" stroke-linecap="round" stroke-width="0.1957" stroke="currentColor" x1="-0.2000" y1="-0.0000" x2="-0.2000" y2="0.7000"/>
</g>
<g transform="translate(255.8701, 4.4119)">
<line stroke-linejoin="round" stroke-linecap="round" stroke-width="0.1957" stroke="currentColor" x1="16.3193" y1="-0.0000" x2="9.3767" y2="-0.0000"/>
</g>
<g transform="translate(255.8701, 4.4119)">
<line stroke-linejoin="round" stroke-linecap="round" stroke-width="0.1957" stroke="currentColor" x1="-0.2000" y1="-0.0000" x2="6.9427" y2="-0.0000"/>
</g>
</a>
<g transform="translate(217.2085, 18.5731)">
<polygon stroke-linejoin="round" stroke-linecap="round" stroke-width="0.0800" fill="currentColor" stroke="currentColor" points="9.0791 2.9789 9.0791 3.3789 0.0400 0.2000 0.0400 -0.2000"/>
</g>
<a style="color:inherit;" xlink:href="textedit://C:/Users/jwloy/Documents/GitHub/interactiveLoopingLine_20231129/public/pieces/interactiveLoopingLine20231129/notation/ill20231129.ly:68:36:37">
<g transform="translate(96.7247, 11.5731)">
<path stroke-width="0.0978" stroke-linejoin="round" stroke-linecap="round" stroke="currentColor" fill="currentColor" d="M1.0550 -3.7500C2.4421 -4.7372 13.6981 -4.7372 15.0851 -3.7500L15.0851 -3.7500C13.6981 -4.5904 2.4421 -4.5904 1.0550 -3.7500z"/>
</g>
</a>
<a style="color:inherit;" xlink:href="textedit://C:/Users/jwloy/Documents/GitHub/interactiveLoopingLine_20231129/public/pieces/interactiveLoopingLine20231129/notation/ill20231129.ly:68:8:9">
<g transform="translate(68.4756, 2.8779)">
<text font-family="serif" font-style="italic" font-size="2.8814" text-anchor="start" fill="currentColor">
<tspan>5</tspan>
</text>
</g>
</a>
<a style="color:inherit;" xlink:href="textedit://C:/Users/jwloy/Documents/GitHub/interactiveLoopingLine_20231129/public/pieces/interactiveLoopingLine20231129/notation/ill20231129.ly:68:8:9">
<g transform="translate(39.9505, 1.9731)">
<line stroke-linejoin="round" stroke-linecap="round" stroke-width="0.1957" stroke="currentColor" x1="58.6843" y1="-0.0000" x2="58.6843" y2="0.7000"/>
</g>
<g transform="translate(39.9505, 1.9731)">
<line stroke-linejoin="round" stroke-linecap="round" stroke-width="0.1957" stroke="currentColor" x1="-0.2000" y1="-0.0000" x2="-0.2000" y2="0.7000"/>
</g>
<g transform="translate(39.9505, 1.9731)">
<line stroke-linejoin="round" stroke-linecap="round" stroke-width="0.1957" stroke="currentColor" x1="58.6843" y1="-0.0000" x2="30.5592" y2="-0.0000"/>
</g>
<g transform="translate(39.9505, 1.9731)">
<line stroke-linejoin="round" stroke-linecap="round" stroke-width="0.1957" stroke="currentColor" x1="-0.2000" y1="-0.0000" x2="28.1251" y2="-0.0000"/>
</g>
</a>
<a style="color:inherit;" xlink:href="textedit://C:/Users/jwloy/Documents/GitHub/interactiveLoopingLine_20231129/public/pieces/interactiveLoopingLine20231129/notation/ill20231129.ly:67:19:20">
<g transform="translate(7.1791, 11.5731)">
<path stroke-width="0.0978" stroke-linejoin="round" stroke-linecap="round" stroke="currentColor" fill="currentColor" d="M1.0550 2.7500C2.4146 3.7315 12.8556 3.7315 14.2151 2.7500L14.2151 2.7500C12.8556 3.5848 2.4146 3.5848 1.0550 2.7500z"/>
</g>
</a>
<a style="color:inherit;" xlink:href="textedit://C:/Users/jwloy/Documents/GitHub/interactiveLoopingLine_20231129/public/pieces/interactiveLoopingLine20231129/notation/ill20231129.ly:67:8:9">
<g transform="translate(2.5691, 19.2519)">
<polygon stroke-linejoin="round" stroke-linecap="round" stroke-width="0.0800" fill="currentColor" stroke="currentColor" points="1.1395 0.2946 1.1395 0.6946 0.0400 0.2000 0.0400 -0.2000"/>
</g>
<g transform="translate(2.5691, 20.0731)">
<polygon stroke-linejoin="round" stroke-linecap="round" stroke-width="0.0800" fill="currentColor" stroke="currentColor" points="4.7291 1.8000 4.7291 2.2000 0.0400 0.2000 0.0400 -0.2000"/>
</g>
</a>
<g transform="translate(401.6497, 11.5731)">
<rect x="-0.0795" y="-7.0000" width="0.1590" height="8.7424" ry="0.0400" fill="currentColor"/>
</g>
<a style="color:inherit;" xlink:href="textedit://C:/Users/jwloy/Documents/GitHub/interactiveLoopingLine_20231129/public/pieces/interactiveLoopingLine20231129/notation/ill20231129.ly:71:51:52">
<g transform="translate(292.9397, 18.5731)">
<path transform="scale(0.0052, -0.0052)" d="M215 114c-50 0 -71 -42 -71 -88c0 -79 60 -140 139 -140c50 0 70 42 70 88c0 79 -59 140 -138 140zM497 0c0 -43 -35 -74 -73 -95c-54 -29 -114 -40 -175 -40s-122 11 -176 40c-38 21 -73 52 -73 95s35 74 73 95c54 29 115 40 176 40s121 -11 175 -40
c38 -21 73 -52 73 -95z" fill="currentColor"/>
</g>
</a>
<a style="color:inherit;" xlink:href="textedit://C:/Users/jwloy/Documents/GitHub/interactiveLoopingLine_20231129/public/pieces/interactiveLoopingLine20231129/notation/ill20231129.ly:72:8:9">
<g transform="translate(363.9441, 11.5731)">
<path transform="scale(0.0066, -0.0066)" d="M510 -22h-645c-12 0 -21 10 -21 22s9 22 21 22h135v126c0 4 4 8 8 8h359c4 0 8 -4 8 -8v-126h135c12 0 21 -10 21 -22s-9 -22 -21 -22z" fill="currentColor"/>
</g>
</a>
<a style="color:inherit;" xlink:href="textedit://C:/Users/jwloy/Documents/GitHub/interactiveLoopingLine_20231129/public/pieces/interactiveLoopingLine20231129/notation/ill20231129.ly:73:21:22">
<g transform="translate(400.0191, 13.5731)">
<path transform="scale(0.0052, -0.0052)" d="M222 135c53 0 104 -27 104 -86c0 -71 -56 -120 -103 -148c-36 -22 -76 -36 -118 -36c-53 0 -105 27 -105 86c0 71 57 120 104 148c36 22 76 36 118 36z" fill="currentColor"/>
</g>
</a>
<a style="color:inherit;" xlink:href="textedit://C:/Users/jwloy/Documents/GitHub/interactiveLoopingLine_20231129/public/pieces/interactiveLoopingLine20231129/notation/ill20231129.ly:78:36:37">
<g transform="translate(464.9697, 14.5731)">
<path transform="scale(0.0052, -0.0052)" d="M222 135c53 0 104 -27 104 -86c0 -71 -56 -120 -103 -148c-36 -22 -76 -36 -118 -36c-53 0 -105 27 -105 86c0 71 57 120 104 148c36 22 76 36 118 36z" fill="currentColor"/>
</g>
</a>
<a style="color:inherit;" xlink:href="textedit://C:/Users/jwloy/Documents/GitHub/interactiveLoopingLine_20231129/public/pieces/interactiveLoopingLine20231129/notation/ill20231129.ly:73:25:26">
<g transform="translate(423.4792, 15.5731)">
<path transform="scale(0.0052, -0.0052)" d="M222 135c53 0 104 -27 104 -86c0 -71 -56 -120 -103 -148c-36 -22 -76 -36 -118 -36c-53 0 -105 27 -105 86c0 71 57 120 104 148c36 22 76 36 118 36z" fill="currentColor"/>
</g>
</a>
<g transform="translate(425.1098, 11.5731)">
<rect x="-0.0795" y="-5.0000" width="0.1590" height="8.7424" ry="0.0400" fill="currentColor"/>
</g>
<g transform="translate(425.1893, 6.6131)">
<path transform="scale(0.0066, -0.0066)" d="M0 0v-250h-14v250h14zM0 0c0 -198 207 -336 207 -534c0 -71 -16 -142 -42 -208c-4 -7 -10 -11 -17 -11c-12 0 -24 10 -21 25c26 62 41 127 41 194c0 104 -96 209 -168 284v250z" fill="currentColor"/>
</g>
<a style="color:inherit;" xlink:href="textedit://C:/Users/jwloy/Documents/GitHub/interactiveLoopingLine_20231129/public/pieces/interactiveLoopingLine20231129/notation/ill20231129.ly:78:21:22">
<g transform="translate(435.5893, 9.0731)">
<path transform="scale(0.0052, -0.0052)" d="M222 135c53 0 104 -27 104 -86c0 -71 -56 -120 -103 -148c-36 -22 -76 -36 -118 -36c-53 0 -105 27 -105 86c0 71 57 120 104 148c36 22 76 36 118 36z" fill="currentColor"/>
</g>
</a>
<g transform="translate(437.2199, 11.5731)">
<rect x="-0.0795" y="-7.8211" width="0.1590" height="5.0635" ry="0.0400" fill="currentColor"/>
</g>
<a style="color:inherit;" xlink:href="textedit://C:/Users/jwloy/Documents/GitHub/interactiveLoopingLine_20231129/public/pieces/interactiveLoopingLine20231129/notation/ill20231129.ly:68:29:30">
<g transform="translate(82.2946, 9.0731)">
<path transform="scale(0.0052, -0.0052)" d="M222 135c53 0 104 -27 104 -86c0 -71 -56 -120 -103 -148c-36 -22 -76 -36 -118 -36c-53 0 -105 27 -105 86c0 71 57 120 104 148c36 22 76 36 118 36z" fill="currentColor"/>
</g>
</a>
<a style="color:inherit;" xlink:href="textedit://C:/Users/jwloy/Documents/GitHub/interactiveLoopingLine_20231129/public/pieces/interactiveLoopingLine20231129/notation/ill20231129.ly:68:21:22">
<g transform="translate(38.3993, 15.0731)">
<path transform="scale(0.0052, -0.0052)" d="M222 135c53 0 104 -27 104 -86c0 -71 -56 -120 -103 -148c-36 -22 -76 -36 -118 -36c-53 0 -105 27 -105 86c0 71 57 120 104 148c36 22 76 36 118 36z" fill="currentColor"/>
</g>
</a>
<g transform="translate(40.0299, 11.5731)">
<rect x="-0.0795" y="-5.5000" width="0.1590" height="8.7424" ry="0.0400" fill="currentColor"/>
</g>
<a style="color:inherit;" xlink:href="textedit://C:/Users/jwloy/Documents/GitHub/interactiveLoopingLine_20231129/public/pieces/interactiveLoopingLine20231129/notation/ill20231129.ly:68:23:24">
<g transform="translate(52.8294, 14.5731)">
<path transform="scale(0.0052, -0.0052)" d="M222 135c53 0 104 -27 104 -86c0 -71 -56 -120 -103 -148c-36 -22 -76 -36 -118 -36c-53 0 -105 27 -105 86c0 71 57 120 104 148c36 22 76 36 118 36z" fill="currentColor"/>
</g>
</a>
<g transform="translate(54.4600, 11.5731)">
<rect x="-0.0795" y="-6.0000" width="0.1590" height="8.7424" ry="0.0400" fill="currentColor"/>
</g>
<a style="color:inherit;" xlink:href="textedit://C:/Users/jwloy/Documents/GitHub/interactiveLoopingLine_20231129/public/pieces/interactiveLoopingLine20231129/notation/ill20231129.ly:68:26:27">
<g transform="translate(67.5095, 12.0731)">
<path transform="scale(0.0052, -0.0052)" d="M222 135c53 0 104 -27 104 -86c0 -71 -56 -120 -103 -148c-36 -22 -76 -36 -118 -36c-53 0 -105 27 -105 86c0 71 57 120 104 148c36 22 76 36 118 36z" fill="currentColor"/>
</g>
</a>
<g transform="translate(69.1401, 11.5731)">
<rect x="-0.0795" y="-8.5000" width="0.1590" height="8.7424" ry="0.0400" fill="currentColor"/>
</g>
<g transform="translate(82.3741, 11.5731)">
<rect x="-0.0795" y="-2.2424" width="0.1590" height="8.7424" ry="0.0400" fill="currentColor"/>
</g>
<a style="color:inherit;" xlink:href="textedit://C:/Users/jwloy/Documents/GitHub/interactiveLoopingLine_20231129/public/pieces/interactiveLoopingLine20231129/notation/ill20231129.ly:68:33:34">
<g transform="translate(96.7247, 8.5731)">
<path transform="scale(0.0052, -0.0052)" d="M222 135c53 0 104 -27 104 -86c0 -71 -56 -120 -103 -148c-36 -22 -76 -36 -118 -36c-53 0 -105 27 -105 86c0 71 57 120 104 148c36 22 76 36 118 36z" fill="currentColor"/>
</g>
</a>
<g transform="translate(96.8041, 11.5731)">
<rect x="-0.0795" y="-2.7424" width="0.1590" height="8.7424" ry="0.0400" fill="currentColor"/>
</g>
<a style="color:inherit;" xlink:href="textedit://C:/Users/jwloy/Documents/GitHub/interactiveLoopingLine_20231129/public/pieces/interactiveLoopingLine20231129/notation/ill20231129.ly:68:39:40">
<g transform="translate(111.1547, 8.5731)">
<path transform="scale(0.0052, -0.0052)" d="M222 135c53 0 104 -27 104 -86c0 -71 -56 -120 -103 -148c-36 -22 -76 -36 -118 -36c-53 0 -105 27 -105 86c0 71 57 120 104 148c36 22 76 36 118 36z" fill="currentColor"/>
</g>
</a>
<g transform="translate(111.2342, 11.5731)">
<rect x="-0.0795" y="-2.7424" width="0.1590" height="8.7424" ry="0.0400" fill="currentColor"/>
</g>
<g transform="translate(111.3137, 17.5331)">
<path transform="scale(0.0066, -0.0066)" d="M0 0h-14v250h14v-250zM0 0v250c98 58 228 147 228 259c0 57 -15 112 -40 164c-3 15 9 25 21 25c7 0 14 -3 18 -10c25 -56 40 -117 40 -179c0 -203 -267 -306 -267 -509z" fill="currentColor"/>
</g>
<a style="color:inherit;" xlink:href="textedit://C:/Users/jwloy/Documents/GitHub/interactiveLoopingLine_20231129/public/pieces/interactiveLoopingLine20231129/notation/ill20231129.ly:67:9:10">
<g transform="translate(2.5691, 9.5731)">
<path transform="scale(0.0052, -0.0052)" d="M222 135c53 0 104 -27 104 -86c0 -71 -56 -120 -103 -148c-36 -22 -76 -36 -118 -36c-53 0 -105 27 -105 86c0 71 57 120 104 148c36 22 76 36 118 36z" fill="currentColor"/>
</g>
</a>
<g transform="translate(2.6485, 11.5731)">
<rect x="-0.0795" y="-1.7424" width="0.1590" height="10.2757" ry="0.0400" fill="currentColor"/>
</g>
<a style="color:inherit;" xlink:href="textedit://C:/Users/jwloy/Documents/GitHub/interactiveLoopingLine_20231129/public/pieces/interactiveLoopingLine20231129/notation/ill20231129.ly:67:15:16">
<g transform="translate(7.1791, 13.5731)">
<path transform="scale(0.0052, -0.0052)" d="M222 135c53 0 104 -27 104 -86c0 -71 -56 -120 -103 -148c-36 -22 -76 -36 -118 -36c-53 0 -105 27 -105 86c0 71 57 120 104 148c36 22 76 36 118 36z" fill="currentColor"/>
</g>
</a>
<g transform="translate(9.6429, 13.5731)">
<path transform="scale(0.0066, -0.0066)" d="M0 0c0 32 25 57 57 57s57 -25 57 -57s-25 -57 -57 -57s-57 25 -57 57z" fill="currentColor"/>
</g>
<g transform="translate(7.2586, 11.5731)">
<rect x="-0.0795" y="2.2576" width="0.1590" height="8.2090" ry="0.0400" fill="currentColor"/>
</g>
<a style="color:inherit;" xlink:href="textedit://C:/Users/jwloy/Documents/GitHub/interactiveLoopingLine_20231129/public/pieces/interactiveLoopingLine20231129/notation/ill20231129.ly:67:22:23">
<g transform="translate(20.7392, 13.5731)">
<path transform="scale(0.0052, -0.0052)" d="M222 135c53 0 104 -27 104 -86c0 -71 -56 -120 -103 -148c-36 -22 -76 -36 -118 -36c-53 0 -105 27 -105 86c0 71 57 120 104 148c36 22 76 36 118 36z" fill="currentColor"/>
</g>
</a>
<g transform="translate(22.3698, 11.5731)">
<rect x="-0.0795" y="-7.0000" width="0.1590" height="8.7424" ry="0.0400" fill="currentColor"/>
</g>
<a style="color:inherit;" xlink:href="textedit://C:/Users/jwloy/Documents/GitHub/interactiveLoopingLine_20231129/public/pieces/interactiveLoopingLine20231129/notation/ill20231129.ly:70:8:9">
<g transform="translate(217.2085, 8.0731)">
<path transform="scale(0.0052, -0.0052)" d="M222 135c53 0 104 -27 104 -86c0 -71 -56 -120 -103 -148c-36 -22 -76 -36 -118 -36c-53 0 -105 27 -105 86c0 71 57 120 104 148c36 22 76 36 118 36z" fill="currentColor"/>
</g>
</a>
<g transform="translate(217.2880, 11.5731)">
<rect x="-0.0795" y="-3.2424" width="0.1590" height="10.2701" ry="0.0400" fill="currentColor"/>
</g>
<a style="color:inherit;" xlink:href="textedit://C:/Users/jwloy/Documents/GitHub/interactiveLoopingLine_20231129/public/pieces/interactiveLoopingLine20231129/notation/ill20231129.ly:70:13:14">
<g transform="translate(226.1686, 14.0731)">
<path transform="scale(0.0052, -0.0052)" d="M222 135c53 0 104 -27 104 -86c0 -71 -56 -120 -103 -148c-36 -22 -76 -36 -118 -36c-53 0 -105 27 -105 86c0 71 57 120 104 148c36 22 76 36 118 36z" fill="currentColor"/>
</g>
</a>
<g transform="translate(226.2481, 11.5731)">
<rect x="-0.0795" y="2.7576" width="0.1590" height="7.3935" ry="0.0400" fill="currentColor"/>
</g>
<a style="color:inherit;" xlink:href="textedit://C:/Users/jwloy/Documents/GitHub/interactiveLoopingLine_20231129/public/pieces/interactiveLoopingLine20231129/notation/ill20231129.ly:70:18:19">
<g transform="translate(235.6287, 6.0731)">
<path transform="scale(0.0052, -0.0052)" d="M222 135c53 0 104 -27 104 -86c0 -71 -56 -120 -103 -148c-36 -22 -76 -36 -118 -36c-53 0 -105 27 -105 86c0 71 57 120 104 148c36 22 76 36 118 36z" fill="currentColor"/>
</g>
</a>
<g transform="translate(235.7081, 11.5731)">
<rect x="-0.0795" y="-5.2424" width="0.1590" height="12.2718" ry="0.0400" fill="currentColor"/>
</g>
<a style="color:inherit;" xlink:href="textedit://C:/Users/jwloy/Documents/GitHub/interactiveLoopingLine_20231129/public/pieces/interactiveLoopingLine20231129/notation/ill20231129.ly:70:25:26">
<g transform="translate(240.2387, 10.0731)">
<path transform="scale(0.0052, -0.0052)" d="M222 135c53 0 104 -27 104 -86c0 -71 -56 -120 -103 -148c-36 -22 -76 -36 -118 -36c-53 0 -105 27 -105 86c0 71 57 120 104 148c36 22 76 36 118 36z" fill="currentColor"/>
</g>
</a>
<g transform="translate(240.3182, 11.5731)">
<rect x="-0.0795" y="-1.2424" width="0.1590" height="9.9785" ry="0.0400" fill="currentColor"/>
</g>
<g transform="translate(157.8121, 18.0731)">
<path transform="scale(0.0066, -0.0066)" d="M0 0c0 32 25 57 57 57s57 -25 57 -57s-25 -57 -57 -57s-57 25 -57 57z" fill="currentColor"/>
</g>
<a style="color:inherit;" xlink:href="textedit://C:/Users/jwloy/Documents/GitHub/interactiveLoopingLine_20231129/public/pieces/interactiveLoopingLine20231129/notation/ill20231129.ly:69:13:14">
<g transform="translate(155.2617, 18.0731)">
<path transform="scale(0.0052, -0.0052)" d="M316 67c0 25 -20 42 -42 42c-4 0 -9 -1 -13 -2c-31 -9 -79 -41 -117 -65s-86 -55 -107 -80c-7 -8 -10 -19 -10 -29c0 -25 20 -42 42 -42c4 0 9 1 13 2c31 9 79 41 117 65s86 55 107 80c7 8 10 19 10 29zM265 135c44 0 78 -21 78 -68c0 -19 -5 -39 -11 -57
c-12 -37 -33 -71 -65 -93c-53 -36 -114 -52 -189 -52c-44 0 -78 21 -78 68c0 19 5 39 11 57c12 37 33 71 65 93c53 36 114 52 189 52z" fill="currentColor"/>
</g>
</a>
<g transform="translate(156.9790, 11.5731)">
<rect x="-0.0795" y="-2.5000" width="0.1590" height="8.6485" ry="0.0400" fill="currentColor"/>
</g>
<a style="color:inherit;" xlink:href="textedit://C:/Users/jwloy/Documents/GitHub/interactiveLoopingLine_20231129/public/pieces/interactiveLoopingLine20231129/notation/ill20231129.ly:69:17:18">
<g transform="translate(208.0585, 11.5731)">
<path transform="scale(0.0066, -0.0066)" d="M76 -250l116 327c-35 -12 -70 -23 -107 -23c-46 0 -87 34 -87 80c0 39 31 71 71 71c26 0 49 -16 57 -40c10 -28 6 -60 35 -60c17 0 58 54 65 70c5 11 20 10 24 0l-126 -425c-7 -6 -16 -9 -24 -9s-17 3 -24 9z" fill="currentColor"/>
</g>
</a>
<g transform="translate(120.4443, 11.5731)">
<rect x="-0.0795" y="-0.1485" width="0.1590" height="8.6485" ry="0.0400" fill="currentColor"/>
</g>
<a style="color:inherit;" xlink:href="textedit://C:/Users/jwloy/Documents/GitHub/interactiveLoopingLine_20231129/public/pieces/interactiveLoopingLine20231129/notation/ill20231129.ly:69:8:9">
<g transform="translate(120.3648, 11.0731)">
<path transform="scale(0.0052, -0.0052)" d="M316 67c0 25 -20 42 -42 42c-4 0 -9 -1 -13 -2c-31 -9 -79 -41 -117 -65s-86 -55 -107 -80c-7 -8 -10 -19 -10 -29c0 -25 20 -42 42 -42c4 0 9 1 13 2c31 9 79 41 117 65s86 55 107 80c7 8 10 19 10 29zM265 135c44 0 78 -21 78 -68c0 -19 -5 -39 -11 -57
c-12 -37 -33 -71 -65 -93c-53 -36 -114 -52 -189 -52c-44 0 -78 21 -78 68c0 19 5 39 11 57c12 37 33 71 65 93c53 36 114 52 189 52z" fill="currentColor"/>
</g>
</a>
</svg>
