<svg xmlns="http://www.w3.org/2000/svg" xmlns:xlink="http://www.w3.org/1999/xlink" version="1.2" width="800.00mm" height="300.00mm" viewBox="0 0 455.2441 170.7165">
<style text="style/css">
<![CDATA[
tspan { white-space: pre; }
]]>
</style>
<!-- Page: 1/2 -->
<text transform="translate(0.0000, -0.0000)" font-family="serif" font-size="2.2001" text-anchor="start" fill="currentColor">
<tspan/>
</text>
<line transform="translate(0.0000, 74.1500)" stroke-linejoin="round" stroke-linecap="round" stroke-width="0.2937" stroke="currentColor" x1="0.1469" y1="-0.0000" x2="455.0972" y2="-0.0000"/>
<line transform="translate(0.0000, 67.5000)" stroke-linejoin="round" stroke-linecap="round" stroke-width="0.2937" stroke="currentColor" x1="0.1469" y1="-0.0000" x2="455.0972" y2="-0.0000"/>
<line transform="translate(0.0000, 60.8500)" stroke-linejoin="round" stroke-linecap="round" stroke-width="0.2937" stroke="currentColor" x1="0.1469" y1="-0.0000" x2="455.0972" y2="-0.0000"/>
<line transform="translate(0.0000, 54.2000)" stroke-linejoin="round" stroke-linecap="round" stroke-width="0.2937" stroke="currentColor" x1="0.1469" y1="-0.0000" x2="455.0972" y2="-0.0000"/>
<line transform="translate(0.0000, 47.5500)" stroke-linejoin="round" stroke-linecap="round" stroke-width="0.2937" stroke="currentColor" x1="0.1469" y1="-0.0000" x2="455.0972" y2="-0.0000"/>
<rect transform="translate(0.0000, 80.8000)" x="399.6504" y="-0.4794" width="13.6860" height="0.9587" ry="0.4794" fill="currentColor"/>
<rect transform="translate(0.0000, 87.4500)" x="399.6504" y="-0.4794" width="13.6860" height="0.9587" ry="0.4794" fill="currentColor"/>
<rect transform="translate(0.0000, 94.1000)" x="399.6504" y="-0.4794" width="13.6860" height="0.9587" ry="0.4794" fill="currentColor"/>
<rect transform="translate(0.0000, 100.7500)" x="399.6504" y="-0.4794" width="13.6860" height="0.9587" ry="0.4794" fill="currentColor"/>
<rect transform="translate(0.0000, 107.4000)" x="399.6504" y="-0.4794" width="13.6860" height="0.9587" ry="0.4794" fill="currentColor"/>
<rect transform="translate(0.0000, 34.2500)" x="381.4297" y="-0.4794" width="13.0254" height="0.9587" ry="0.4794" fill="currentColor"/>
<rect transform="translate(0.0000, 40.9000)" x="381.4297" y="-0.4794" width="13.0254" height="0.9587" ry="0.4794" fill="currentColor"/>
<rect transform="translate(0.0000, 80.8000)" x="361.9119" y="-0.4794" width="12.9754" height="0.9587" ry="0.4794" fill="currentColor"/>
<rect transform="translate(0.0000, 80.8000)" x="348.8865" y="-0.4794" width="12.9254" height="0.9587" ry="0.4794" fill="currentColor"/>
<rect transform="translate(0.0000, 80.8000)" x="335.8610" y="-0.4794" width="12.9254" height="0.9587" ry="0.4794" fill="currentColor"/>
<rect transform="translate(0.0000, 80.8000)" x="322.8356" y="-0.4794" width="12.9254" height="0.9587" ry="0.4794" fill="currentColor"/>
<rect transform="translate(0.0000, 80.8000)" x="309.8102" y="-0.4794" width="12.9254" height="0.9587" ry="0.4794" fill="currentColor"/>
<rect transform="translate(0.0000, 80.8000)" x="296.7848" y="-0.4794" width="12.9254" height="0.9587" ry="0.4794" fill="currentColor"/>
<rect transform="translate(0.0000, 80.8000)" x="283.7094" y="-0.4794" width="12.9754" height="0.9587" ry="0.4794" fill="currentColor"/>
<rect transform="translate(0.0000, 87.4500)" x="283.7094" y="-0.4794" width="12.9754" height="0.9587" ry="0.4794" fill="currentColor"/>
<rect transform="translate(0.0000, 94.1000)" x="283.7094" y="-0.4794" width="12.9754" height="0.9587" ry="0.4794" fill="currentColor"/>
<rect transform="translate(0.0000, 27.6000)" x="251.4726" y="-0.4794" width="13.0254" height="0.9587" ry="0.4794" fill="currentColor"/>
<rect transform="translate(0.0000, 34.2500)" x="251.4726" y="-0.4794" width="13.0254" height="0.9587" ry="0.4794" fill="currentColor"/>
<rect transform="translate(0.0000, 40.9000)" x="251.4726" y="-0.4794" width="13.0254" height="0.9587" ry="0.4794" fill="currentColor"/>
<rect transform="translate(0.0000, 40.9000)" x="229.1776" y="-0.4794" width="13.0254" height="0.9587" ry="0.4794" fill="currentColor"/>
<rect transform="translate(0.0000, 80.8000)" x="162.7400" y="-0.4794" width="13.6860" height="0.9587" ry="0.4794" fill="currentColor"/>
<rect transform="translate(0.0000, 87.4500)" x="162.7400" y="-0.4794" width="13.6860" height="0.9587" ry="0.4794" fill="currentColor"/>
<rect transform="translate(0.0000, 94.1000)" x="162.7400" y="-0.4794" width="13.6860" height="0.9587" ry="0.4794" fill="currentColor"/>
<rect transform="translate(0.0000, 100.7500)" x="162.7400" y="-0.4794" width="13.6860" height="0.9587" ry="0.4794" fill="currentColor"/>
<rect transform="translate(0.0000, 40.9000)" x="110.1685" y="-0.4794" width="12.9754" height="0.9587" ry="0.4794" fill="currentColor"/>
<rect transform="translate(0.0000, 40.9000)" x="98.3510" y="-0.4794" width="11.7175" height="0.9587" ry="0.4794" fill="currentColor"/>
<rect transform="translate(0.0000, 80.8000)" x="57.0627" y="-0.4794" width="12.9754" height="0.9587" ry="0.4794" fill="currentColor"/>
<rect transform="translate(0.0000, 80.8000)" x="43.9873" y="-0.4794" width="12.9754" height="0.9587" ry="0.4794" fill="currentColor"/>
<a style="color:inherit;" xlink:href="textedit:///Users/jwy/Documents/OPUS/GitHub/interactiveLoopingLine_20231129/public/pieces/interactiveLoopingLine20231129/notation/ill20231129.ly:57:8:9">
<path transform="translate(127.3378, 57.5250) scale(0.0266, -0.0266)" d="M316 67c0 25 -20 42 -42 42c-4 0 -9 -1 -13 -2c-31 -9 -79 -41 -117 -65s-86 -55 -107 -80c-7 -8 -10 -19 -10 -29c0 -25 20 -42 42 -42c4 0 9 1 13 2c31 9 79 41 117 65s86 55 107 80c7 8 10 19 10 29zM265 135c44 0 78 -21 78 -68c0 -19 -5 -39 -11 -57
c-12 -37 -33 -71 -65 -93c-53 -36 -114 -52 -189 -52c-44 0 -78 21 -78 68c0 19 5 39 11 57c12 37 33 71 65 93c53 36 114 52 189 52z" fill="currentColor"/>
</a>
<rect transform="translate(127.5287, 60.8500)" x="-0.1909" y="-1.5402" width="0.3818" height="71.3652" ry="0.0400" fill="currentColor"/>
<a style="color:inherit;" xlink:href="textedit:///Users/jwy/Documents/OPUS/GitHub/interactiveLoopingLine_20231129/public/pieces/interactiveLoopingLine20231129/notation/ill20231129.ly:57:13:14">
<path transform="translate(165.0210, 104.0750) scale(0.0266, -0.0266)" d="M316 67c0 25 -20 42 -42 42c-4 0 -9 -1 -13 -2c-31 -9 -79 -41 -117 -65s-86 -55 -107 -80c-7 -8 -10 -19 -10 -29c0 -25 20 -42 42 -42c4 0 9 1 13 2c31 9 79 41 117 65s86 55 107 80c7 8 10 19 10 29zM265 135c44 0 78 -21 78 -68c0 -19 -5 -39 -11 -57
c-12 -37 -33 -71 -65 -93c-53 -36 -114 -52 -189 -52c-44 0 -78 21 -78 68c0 19 5 39 11 57c12 37 33 71 65 93c53 36 114 52 189 52z" fill="currentColor"/>
</a>
<path transform="translate(177.1825, 104.0750) scale(0.0266, -0.0266)" d="M0 0c0 32 25 57 57 57s57 -25 57 -57s-25 -57 -57 -57s-57 25 -57 57z" fill="currentColor"/>
<rect transform="translate(173.9541, 60.8500)" x="-0.1909" y="-29.9250" width="0.3818" height="71.3652" ry="0.0400" fill="currentColor"/>
<a style="color:inherit;" xlink:href="textedit:///Users/jwy/Documents/OPUS/GitHub/interactiveLoopingLine_20231129/public/pieces/interactiveLoopingLine20231129/notation/ill20231129.ly:57:17:18">
<path transform="translate(218.3337, 60.8500) scale(0.0266, -0.0266)" d="M76 -250l116 327c-35 -12 -70 -23 -107 -23c-46 0 -87 34 -87 80c0 39 31 71 71 71c26 0 49 -16 57 -40c10 -28 6 -60 35 -60c17 0 58 54 65 70c5 11 20 10 24 0l-126 -425c-7 -6 -16 -9 -24 -9s-17 3 -24 9z" fill="currentColor"/>
</a>
<a style="color:inherit;" xlink:href="textedit:///Users/jwy/Documents/OPUS/GitHub/interactiveLoopingLine_20231129/public/pieces/interactiveLoopingLine20231129/notation/ill20231129.ly:58:9:10">
<path transform="translate(231.3485, 37.5750) scale(0.0266, -0.0266)" d="M222 135c53 0 104 -27 104 -86c0 -71 -56 -120 -103 -148c-36 -22 -76 -36 -118 -36c-53 0 -105 27 -105 86c0 71 57 120 104 148c36 22 76 36 118 36z" fill="currentColor"/>
</a>
<rect transform="translate(231.5394, 60.8500)" x="-0.1909" y="-21.9667" width="0.3818" height="42.5406" ry="0.0400" fill="currentColor"/>
<a style="color:inherit;" xlink:href="textedit:///Users/jwy/Documents/OPUS/GitHub/interactiveLoopingLine_20231129/public/pieces/interactiveLoopingLine20231129/notation/ill20231129.ly:55:8:9">
<polygon transform="translate(2.0000, 83.6983)" stroke-linejoin="round" stroke-linecap="round" stroke-width="0.0800" fill="currentColor" stroke="currentColor" points="1.2509 -6.2993 1.2509 -3.1873 0.0400 1.5560 0.0400 -1.5560"/>
<polygon transform="translate(2.0000, 88.8991)" stroke-linejoin="round" stroke-linecap="round" stroke-width="0.0800" fill="currentColor" stroke="currentColor" points="11.6078 -44.3543 11.6078 -41.2423 0.0400 1.5560 0.0400 -1.5560"/>
</a>
<a style="color:inherit;" xlink:href="textedit:///Users/jwy/Documents/OPUS/GitHub/interactiveLoopingLine_20231129/public/pieces/interactiveLoopingLine20231129/notation/ill20231129.ly:56:28:29">
<path transform="translate(69.9432, 64.1750) scale(0.0266, -0.0266)" d="M222 135c53 0 104 -27 104 -86c0 -71 -56 -120 -103 -148c-36 -22 -76 -36 -118 -36c-53 0 -105 27 -105 86c0 71 57 120 104 148c36 22 76 36 118 36z" fill="currentColor"/>
</a>
<rect transform="translate(78.4359, 60.8500)" x="-0.1909" y="-12.8255" width="0.3818" height="14.8422" ry="0.0400" fill="currentColor"/>
<rect transform="translate(2.1909, 60.8500)" x="-0.1909" y="-11.9917" width="0.3818" height="39.3394" ry="0.0400" fill="currentColor"/>
<a style="color:inherit;" xlink:href="textedit:///Users/jwy/Documents/OPUS/GitHub/interactiveLoopingLine_20231129/public/pieces/interactiveLoopingLine20231129/notation/ill20231129.ly:56:31:32">
<path transform="translate(88.7545, 44.2250) scale(0.0266, -0.0266)" d="M222 135c53 0 104 -27 104 -86c0 -71 -56 -120 -103 -148c-36 -22 -76 -36 -118 -36c-53 0 -105 27 -105 86c0 71 57 120 104 148c36 22 76 36 118 36z" fill="currentColor"/>
</a>
<rect transform="translate(88.9454, 60.8500)" x="-0.1909" y="-15.3167" width="0.3818" height="23.9324" ry="0.0400" fill="currentColor"/>
<a style="color:inherit;" xlink:href="textedit:///Users/jwy/Documents/OPUS/GitHub/interactiveLoopingLine_20231129/public/pieces/interactiveLoopingLine20231129/notation/ill20231129.ly:56:35:36">
<path transform="translate(99.2640, 40.9000) scale(0.0266, -0.0266)" d="M222 135c53 0 104 -27 104 -86c0 -71 -56 -120 -103 -148c-36 -22 -76 -36 -118 -36c-53 0 -105 27 -105 86c0 71 57 120 104 148c36 22 76 36 118 36z" fill="currentColor"/>
</a>
<rect transform="translate(99.4549, 60.8500)" x="-0.1909" y="-18.6417" width="0.3818" height="43.4976" ry="0.0400" fill="currentColor"/>
<a style="color:inherit;" xlink:href="textedit:///Users/jwy/Documents/OPUS/GitHub/interactiveLoopingLine_20231129/public/pieces/interactiveLoopingLine20231129/notation/ill20231129.ly:56:41:42">
<path transform="translate(112.2894, 40.9000) scale(0.0266, -0.0266)" d="M222 135c53 0 104 -27 104 -86c0 -71 -56 -120 -103 -148c-36 -22 -76 -36 -118 -36c-53 0 -105 27 -105 86c0 71 57 120 104 148c36 22 76 36 118 36z" fill="currentColor"/>
</a>
<rect transform="translate(112.4803, 60.8500)" x="-0.1909" y="-18.6417" width="0.3818" height="71.8417" ry="0.0400" fill="currentColor"/>
<path transform="translate(112.6712, 114.0100) scale(0.0266, -0.0266)" d="M0 0h-14v250h14c98 58 228 147 228 259c0 57 -15 112 -40 164c-3 15 9 25 21 25c7 0 14 -3 18 -10c25 -56 40 -117 40 -179c0 -203 -267 -306 -267 -509z" fill="currentColor"/>
<a style="color:inherit;" xlink:href="textedit:///Users/jwy/Documents/OPUS/GitHub/interactiveLoopingLine_20231129/public/pieces/interactiveLoopingLine20231129/notation/ill20231129.ly:59:37:38">
<path transform="translate(351.0074, 60.8500)" stroke-width="0.2350" stroke-linejoin="round" stroke-linecap="round" stroke="currentColor" fill="currentColor" d="M9.1752 18.4537C9.9163 17.5847 12.0843 17.5847 12.8254 18.4537L12.8254 18.4537C12.0843 17.9371 9.9163 17.9371 9.1752 18.4537z"/>
</a>
<a style="color:inherit;" xlink:href="textedit:///Users/jwy/Documents/OPUS/GitHub/interactiveLoopingLine_20231129/public/pieces/interactiveLoopingLine20231129/notation/ill20231129.ly:59:22:23">
<path transform="translate(298.9057, 80.8000) scale(0.0266, -0.0266)" d="M222 135c53 0 104 -27 104 -86c0 -71 -56 -120 -103 -148c-36 -22 -76 -36 -118 -36c-53 0 -105 27 -105 86c0 71 57 120 104 148c36 22 76 36 118 36z" fill="currentColor"/>
</a>
<rect transform="translate(307.3984, 60.8500)" x="-0.1909" y="-51.7509" width="0.3818" height="70.3926" ry="0.0400" fill="currentColor"/>
<a style="color:inherit;" xlink:href="textedit:///Users/jwy/Documents/OPUS/GitHub/interactiveLoopingLine_20231129/public/pieces/interactiveLoopingLine20231129/notation/ill20231129.ly:59:25:26">
<path transform="translate(311.9311, 80.8000) scale(0.0266, -0.0266)" d="M222 135c53 0 104 -27 104 -86c0 -71 -56 -120 -103 -148c-36 -22 -76 -36 -118 -36c-53 0 -105 27 -105 86c0 71 57 120 104 148c36 22 76 36 118 36z" fill="currentColor"/>
</a>
<polygon transform="translate(372.3346, 35.6991)" stroke-linejoin="round" stroke-linecap="round" stroke-width="0.0800" fill="currentColor" stroke="currentColor" points="11.6078 38.3440 11.6078 41.4560 0.0400 1.5560 0.0400 -1.5560"/>
<polygon transform="translate(372.3346, 40.9000)" stroke-linejoin="round" stroke-linecap="round" stroke-width="0.0800" fill="currentColor" stroke="currentColor" points="1.2509 2.8661 1.2509 5.9781 0.0400 1.5560 0.0400 -1.5560"/>
<rect transform="translate(294.3730, 60.8500)" x="-0.1909" y="-50.0981" width="0.3818" height="82.0398" ry="0.0400" fill="currentColor"/>
<polygon transform="translate(253.6435, 54.2000)" stroke-linejoin="round" stroke-linecap="round" stroke-width="0.0800" fill="currentColor" stroke="currentColor" points="40.8804 -45.2077 40.8804 -42.0957 0.0400 1.5560 0.0400 -1.5560"/>
<polygon transform="translate(253.6435, 59.4009)" stroke-linejoin="round" stroke-linecap="round" stroke-width="0.0800" fill="currentColor" stroke="currentColor" points="40.8804 -45.2077 40.8804 -42.0957 0.0400 1.5560 0.0400 -1.5560"/>
<a style="color:inherit;" xlink:href="textedit:///Users/jwy/Documents/OPUS/GitHub/interactiveLoopingLine_20231129/public/pieces/interactiveLoopingLine20231129/notation/ill20231129.ly:59:8:9">
<text transform="translate(331.9679, 10.1760)" font-family="serif" font-style="italic" font-size="11.6123" text-anchor="start" fill="currentColor">
<tspan>5</tspan>
</text>
</a>
<a style="color:inherit;" xlink:href="textedit:///Users/jwy/Documents/OPUS/GitHub/interactiveLoopingLine_20231129/public/pieces/interactiveLoopingLine20231129/notation/ill20231129.ly:59:8:9">
<line transform="translate(307.2075, 6.4031)" stroke-linejoin="round" stroke-linecap="round" stroke-width="0.4699" stroke="currentColor" x1="56.6553" y1="-0.0000" x2="56.6553" y2="4.6550"/>
<line transform="translate(307.2075, 6.4031)" stroke-linejoin="round" stroke-linecap="round" stroke-width="0.4699" stroke="currentColor" x1="-1.3300" y1="-0.0000" x2="-1.3300" y2="4.6550"/>
<line transform="translate(307.2075, 6.4031)" stroke-linejoin="round" stroke-linecap="round" stroke-width="0.4699" stroke="currentColor" x1="56.6553" y1="-0.0000" x2="31.1648" y2="-0.0000"/>
<line transform="translate(307.2075, 6.4031)" stroke-linejoin="round" stroke-linecap="round" stroke-width="0.4699" stroke="currentColor" x1="-1.3300" y1="-0.0000" x2="24.3605" y2="-0.0000"/>
</a>
<a style="color:inherit;" xlink:href="textedit:///Users/jwy/Documents/OPUS/GitHub/interactiveLoopingLine_20231129/public/pieces/interactiveLoopingLine20231129/notation/ill20231129.ly:59:21:22">
<polygon transform="translate(307.2075, 9.0991)" stroke-linejoin="round" stroke-linecap="round" stroke-width="0.0800" fill="currentColor" stroke="currentColor" points="52.4435 -1.5560 52.4435 1.5560 0.0400 1.5560 0.0400 -1.5560"/>
<polygon transform="translate(307.2075, 14.3000)" stroke-linejoin="round" stroke-linecap="round" stroke-width="0.0800" fill="currentColor" stroke="currentColor" points="52.4435 -1.5560 52.4435 1.5560 0.0400 1.5560 0.0400 -1.5560"/>
</a>
<a style="color:inherit;" xlink:href="textedit:///Users/jwy/Documents/OPUS/GitHub/interactiveLoopingLine_20231129/public/pieces/interactiveLoopingLine20231129/notation/ill20231129.ly:58:8:9">
<polygon transform="translate(221.4678, 112.6009)" stroke-linejoin="round" stroke-linecap="round" stroke-width="0.0800" fill="currentColor" stroke="currentColor" points="25.2709 -79.9069 25.2709 -76.7949 0.0400 1.5560 0.0400 -1.5560"/>
</a>
<polygon transform="translate(54.4600, 10.9750)" stroke-linejoin="round" stroke-linecap="round" stroke-width="0.0800" fill="currentColor" stroke="currentColor" points="45.1458 68.2690 45.1458 71.3810 0.0400 1.5560 0.0400 -1.5560"/>
<polygon transform="translate(54.4600, 16.1759)" stroke-linejoin="round" stroke-linecap="round" stroke-width="0.0800" fill="currentColor" stroke="currentColor" points="45.1458 68.2690 45.1458 71.3810 0.0400 1.5560 0.0400 -1.5560"/>
<a style="color:inherit;" xlink:href="textedit:///Users/jwy/Documents/OPUS/GitHub/interactiveLoopingLine_20231129/public/pieces/interactiveLoopingLine20231129/notation/ill20231129.ly:56:38:39">
<path transform="translate(99.2640, 60.8500)" stroke-width="0.2350" stroke-linejoin="round" stroke-linecap="round" stroke="currentColor" fill="currentColor" d="M8.8836 -18.4537C9.6248 -17.5847 11.7927 -17.5847 12.5338 -18.4537L12.5338 -18.4537C11.7927 -17.9371 9.6248 -17.9371 8.8836 -18.4537z"/>
</a>
<a style="color:inherit;" xlink:href="textedit:///Users/jwy/Documents/OPUS/GitHub/interactiveLoopingLine_20231129/public/pieces/interactiveLoopingLine20231129/notation/ill20231129.ly:56:8:9">
<text transform="translate(79.7225, 12.3469)" font-family="serif" font-style="italic" font-size="11.6123" text-anchor="start" fill="currentColor">
<tspan>5</tspan>
</text>
</a>
<a style="color:inherit;" xlink:href="textedit:///Users/jwy/Documents/OPUS/GitHub/interactiveLoopingLine_20231129/public/pieces/interactiveLoopingLine20231129/notation/ill20231129.ly:56:8:9">
<line transform="translate(54.4600, 8.5740)" stroke-linejoin="round" stroke-linecap="round" stroke-width="0.4699" stroke="currentColor" x1="57.6594" y1="-0.0000" x2="57.6594" y2="4.6550"/>
<line transform="translate(54.4600, 8.5740)" stroke-linejoin="round" stroke-linecap="round" stroke-width="0.4699" stroke="currentColor" x1="-1.3300" y1="-0.0000" x2="-1.3300" y2="4.6550"/>
<line transform="translate(54.4600, 8.5740)" stroke-linejoin="round" stroke-linecap="round" stroke-width="0.4699" stroke="currentColor" x1="57.6594" y1="-0.0000" x2="31.6669" y2="-0.0000"/>
<line transform="translate(54.4600, 8.5740)" stroke-linejoin="round" stroke-linecap="round" stroke-width="0.4699" stroke="currentColor" x1="-1.3300" y1="-0.0000" x2="24.8625" y2="-0.0000"/>
</a>
<a style="color:inherit;" xlink:href="textedit:///Users/jwy/Documents/OPUS/GitHub/interactiveLoopingLine_20231129/public/pieces/interactiveLoopingLine20231129/notation/ill20231129.ly:55:19:20">
<path transform="translate(4.9642, 60.8500)" stroke-width="0.2350" stroke-linejoin="round" stroke-linecap="round" stroke="currentColor" fill="currentColor" d="M4.5418 16.8750C6.0384 17.9854 21.4760 17.9854 22.9726 16.8750L22.9726 16.8750C21.4760 17.6330 6.0384 17.6330 4.5418 16.8750z"/>
</a>
<a style="color:inherit;" xlink:href="textedit:///Users/jwy/Documents/OPUS/GitHub/interactiveLoopingLine_20231129/public/pieces/interactiveLoopingLine20231129/notation/ill20231129.ly:58:28:29">
<path transform="translate(263.8482, 50.8750) scale(0.0266, -0.0266)" d="M222 135c53 0 104 -27 104 -86c0 -71 -56 -120 -103 -148c-36 -22 -76 -36 -118 -36c-53 0 -105 27 -105 86c0 71 57 120 104 148c36 22 76 36 118 36z" fill="currentColor"/>
</a>
<a style="color:inherit;" xlink:href="textedit:///Users/jwy/Documents/OPUS/GitHub/interactiveLoopingLine_20231129/public/pieces/interactiveLoopingLine20231129/notation/ill20231129.ly:58:14:15">
<path transform="translate(238.0951, 77.4750) scale(0.0266, -0.0266)" d="M222 135c53 0 104 -27 104 -86c0 -71 -56 -120 -103 -148c-36 -22 -76 -36 -118 -36c-53 0 -105 27 -105 86c0 71 57 120 104 148c36 22 76 36 118 36z" fill="currentColor"/>
</a>
<rect transform="translate(246.5878, 60.8500)" x="-0.1909" y="-26.0090" width="0.3818" height="41.3258" ry="0.0400" fill="currentColor"/>
<a style="color:inherit;" xlink:href="textedit:///Users/jwy/Documents/OPUS/GitHub/interactiveLoopingLine_20231129/public/pieces/interactiveLoopingLine20231129/notation/ill20231129.ly:58:21:22">
<path transform="translate(253.6435, 24.2750) scale(0.0266, -0.0266)" d="M222 135c53 0 104 -27 104 -86c0 -71 -56 -120 -103 -148c-36 -22 -76 -36 -118 -36c-53 0 -105 27 -105 86c0 71 57 120 104 148c36 22 76 36 118 36z" fill="currentColor"/>
</a>
<rect transform="translate(253.8344, 60.8500)" x="-0.1909" y="-35.2667" width="0.3818" height="33.6139" ry="0.0400" fill="currentColor"/>
<rect transform="translate(272.3409, 60.8500)" x="-0.1909" y="-26.5954" width="0.3818" height="15.3122" ry="0.0400" fill="currentColor"/>
<a style="color:inherit;" xlink:href="textedit:///Users/jwy/Documents/OPUS/GitHub/interactiveLoopingLine_20231129/public/pieces/interactiveLoopingLine20231129/notation/ill20231129.ly:58:32:33">
<path transform="translate(274.8643, 74.1500) scale(0.0266, -0.0266)" d="M222 135c53 0 104 -27 104 -86c0 -71 -56 -120 -103 -148c-36 -22 -76 -36 -118 -36c-53 0 -105 27 -105 86c0 71 57 120 104 148c36 22 76 36 118 36z" fill="currentColor"/>
</a>
<rect transform="translate(283.3570, 60.8500)" x="-0.1909" y="-38.3467" width="0.3818" height="50.3385" ry="0.0400" fill="currentColor"/>
<a style="color:inherit;" xlink:href="textedit:///Users/jwy/Documents/OPUS/GitHub/interactiveLoopingLine_20231129/public/pieces/interactiveLoopingLine20231129/notation/ill20231129.ly:58:35:36">
<path transform="translate(285.8803, 94.1000) scale(0.0266, -0.0266)" d="M222 135c53 0 104 -27 104 -86c0 -71 -56 -120 -103 -148c-36 -22 -76 -36 -118 -36c-53 0 -105 27 -105 86c0 71 57 120 104 148c36 22 76 36 118 36z" fill="currentColor"/>
</a>
<rect transform="translate(333.4492, 60.8500)" x="-0.1909" y="-51.7509" width="0.3818" height="70.3926" ry="0.0400" fill="currentColor"/>
<a style="color:inherit;" xlink:href="textedit:///Users/jwy/Documents/OPUS/GitHub/interactiveLoopingLine_20231129/public/pieces/interactiveLoopingLine20231129/notation/ill20231129.ly:59:45:46">
<path transform="translate(383.6006, 34.2500) scale(0.0266, -0.0266)" d="M222 135c53 0 104 -27 104 -86c0 -71 -56 -120 -103 -148c-36 -22 -76 -36 -118 -36c-53 0 -105 27 -105 86c0 71 57 120 104 148c36 22 76 36 118 36z" fill="currentColor"/>
</a>
<a style="color:inherit;" xlink:href="textedit:///Users/jwy/Documents/OPUS/GitHub/interactiveLoopingLine_20231129/public/pieces/interactiveLoopingLine20231129/notation/ill20231129.ly:59:28:29">
<path transform="translate(324.9565, 80.8000) scale(0.0266, -0.0266)" d="M222 135c53 0 104 -27 104 -86c0 -71 -56 -120 -103 -148c-36 -22 -76 -36 -118 -36c-53 0 -105 27 -105 86c0 71 57 120 104 148c36 22 76 36 118 36z" fill="currentColor"/>
</a>
<path transform="translate(395.3217, 30.9250) scale(0.0266, -0.0266)" d="M0 0c0 32 25 57 57 57s57 -25 57 -57s-25 -57 -57 -57s-57 25 -57 57z" fill="currentColor"/>
<rect transform="translate(383.7915, 60.8500)" x="-0.1909" y="-25.2917" width="0.3818" height="39.3869" ry="0.0400" fill="currentColor"/>
<a style="color:inherit;" xlink:href="textedit:///Users/jwy/Documents/OPUS/GitHub/interactiveLoopingLine_20231129/public/pieces/interactiveLoopingLine20231129/notation/ill20231129.ly:60:8:9">
<path transform="translate(401.9314, 107.4000) scale(0.0266, -0.0266)" d="M316 67c0 25 -20 42 -42 42c-4 0 -9 -1 -13 -2c-31 -9 -79 -41 -117 -65s-86 -55 -107 -80c-7 -8 -10 -19 -10 -29c0 -25 20 -42 42 -42c4 0 9 1 13 2c31 9 79 41 117 65s86 55 107 80c7 8 10 19 10 29zM265 135c44 0 78 -21 78 -68c0 -19 -5 -39 -11 -57
c-12 -37 -33 -71 -65 -93c-53 -36 -114 -52 -189 -52c-44 0 -78 21 -78 68c0 19 5 39 11 57c12 37 33 71 65 93c53 36 114 52 189 52z" fill="currentColor"/>
</a>
<path transform="translate(414.0929, 104.0750) scale(0.0266, -0.0266)" d="M0 0c0 32 25 57 57 57s57 -25 57 -57s-25 -57 -57 -57s-57 25 -57 57z" fill="currentColor"/>
<rect transform="translate(410.8644, 60.8500)" x="-0.1909" y="-26.6000" width="0.3818" height="71.3652" ry="0.0400" fill="currentColor"/>
<a style="color:inherit;" xlink:href="textedit:///Users/jwy/Documents/OPUS/GitHub/interactiveLoopingLine_20231129/public/pieces/interactiveLoopingLine20231129/notation/ill20231129.ly:55:15:16">
<path transform="translate(4.9642, 74.1500) scale(0.0266, -0.0266)" d="M222 135c53 0 104 -27 104 -86c0 -71 -56 -120 -103 -148c-36 -22 -76 -36 -118 -36c-53 0 -105 27 -105 86c0 71 57 120 104 148c36 22 76 36 118 36z" fill="currentColor"/>
</a>
<rect transform="translate(359.5001, 60.8500)" x="-0.1909" y="-51.7509" width="0.3818" height="70.3926" ry="0.0400" fill="currentColor"/>
<a style="color:inherit;" xlink:href="textedit:///Users/jwy/Documents/OPUS/GitHub/interactiveLoopingLine_20231129/public/pieces/interactiveLoopingLine20231129/notation/ill20231129.ly:59:31:32">
<path transform="translate(337.9819, 80.8000) scale(0.0266, -0.0266)" d="M222 135c53 0 104 -27 104 -86c0 -71 -56 -120 -103 -148c-36 -22 -76 -36 -118 -36c-53 0 -105 27 -105 86c0 71 57 120 104 148c36 22 76 36 118 36z" fill="currentColor"/>
</a>
<path transform="translate(16.6854, 70.8250) scale(0.0266, -0.0266)" d="M0 0c0 32 25 57 57 57s57 -25 57 -57s-25 -57 -57 -57s-57 25 -57 57z" fill="currentColor"/>
<rect transform="translate(346.4746, 60.8500)" x="-0.1909" y="-51.7509" width="0.3818" height="70.3926" ry="0.0400" fill="currentColor"/>
<rect transform="translate(13.4569, 60.8500)" x="-0.1909" y="-14.0477" width="0.3818" height="26.0394" ry="0.0400" fill="currentColor"/>
<a style="color:inherit;" xlink:href="textedit:///Users/jwy/Documents/OPUS/GitHub/interactiveLoopingLine_20231129/public/pieces/interactiveLoopingLine20231129/notation/ill20231129.ly:59:34:35">
<path transform="translate(351.0074, 80.8000) scale(0.0266, -0.0266)" d="M222 135c53 0 104 -27 104 -86c0 -71 -56 -120 -103 -148c-36 -22 -76 -36 -118 -36c-53 0 -105 27 -105 86c0 71 57 120 104 148c36 22 76 36 118 36z" fill="currentColor"/>
</a>
<a style="color:inherit;" xlink:href="textedit:///Users/jwy/Documents/OPUS/GitHub/interactiveLoopingLine_20231129/public/pieces/interactiveLoopingLine20231129/notation/ill20231129.ly:59:40:41">
<path transform="translate(364.0328, 80.8000) scale(0.0266, -0.0266)" d="M222 135c53 0 104 -27 104 -86c0 -71 -56 -120 -103 -148c-36 -22 -76 -36 -118 -36c-53 0 -105 27 -105 86c0 71 57 120 104 148c36 22 76 36 118 36z" fill="currentColor"/>
</a>
<rect transform="translate(372.5255, 60.8500)" x="-0.1909" y="-24.4969" width="0.3818" height="43.1386" ry="0.0400" fill="currentColor"/>
<a style="color:inherit;" xlink:href="textedit:///Users/jwy/Documents/OPUS/GitHub/interactiveLoopingLine_20231129/public/pieces/interactiveLoopingLine20231129/notation/ill20231129.ly:56:21:22">
<path transform="translate(46.1582, 84.1250) scale(0.0266, -0.0266)" d="M222 135c53 0 104 -27 104 -86c0 -71 -56 -120 -103 -148c-36 -22 -76 -36 -118 -36c-53 0 -105 27 -105 86c0 71 57 120 104 148c36 22 76 36 118 36z" fill="currentColor"/>
</a>
<rect transform="translate(54.6509, 60.8500)" x="-0.1909" y="-49.5800" width="0.3818" height="71.5467" ry="0.0400" fill="currentColor"/>
<a style="color:inherit;" xlink:href="textedit:///Users/jwy/Documents/OPUS/GitHub/interactiveLoopingLine_20231129/public/pieces/interactiveLoopingLine20231129/notation/ill20231129.ly:50:8:9">
</a>
<a style="color:inherit;" xlink:href="textedit:///Users/jwy/Documents/OPUS/GitHub/interactiveLoopingLine_20231129/public/pieces/interactiveLoopingLine20231129/notation/ill20231129.ly:60:12:13">
<path transform="translate(401.9314, 60.8500)" stroke-width="0.2350" stroke-linejoin="round" stroke-linecap="round" stroke="currentColor" fill="currentColor" d="M9.3240 49.8750C11.0759 51.0235 51.3608 51.0235 53.1127 49.8750L53.1127 49.8750C51.3608 50.6710 11.0759 50.6710 9.3240 49.8750z"/>
</a>
<a style="color:inherit;" xlink:href="textedit:///Users/jwy/Documents/OPUS/GitHub/interactiveLoopingLine_20231129/public/pieces/interactiveLoopingLine20231129/notation/ill20231129.ly:56:25:26">
<path transform="translate(59.1836, 80.8000) scale(0.0266, -0.0266)" d="M222 135c53 0 104 -27 104 -86c0 -71 -56 -120 -103 -148c-36 -22 -76 -36 -118 -36c-53 0 -105 27 -105 86c0 71 57 120 104 148c36 22 76 36 118 36z" fill="currentColor"/>
</a>
<rect transform="translate(67.6763, 60.8500)" x="-0.1909" y="-29.4520" width="0.3818" height="48.0937" ry="0.0400" fill="currentColor"/>
<a style="color:inherit;" xlink:href="textedit:///Users/jwy/Documents/OPUS/GitHub/interactiveLoopingLine_20231129/public/pieces/interactiveLoopingLine20231129/notation/ill20231129.ly:55:9:10">
<path transform="translate(2.0000, 47.5500) scale(0.0266, -0.0266)" d="M222 135c53 0 104 -27 104 -86c0 -71 -56 -120 -103 -148c-36 -22 -76 -36 -118 -36c-53 0 -105 27 -105 86c0 71 57 120 104 148c36 22 76 36 118 36z" fill="currentColor"/>
</a>
<a style="color:inherit;" xlink:href="textedit:///Users/jwy/Documents/OPUS/GitHub/interactiveLoopingLine_20231129/public/pieces/interactiveLoopingLine20231129/notation/ill20231129.ly:55:22:23">
<path transform="translate(23.7950, 74.1500) scale(0.0266, -0.0266)" d="M222 135c53 0 104 -27 104 -86c0 -71 -56 -120 -103 -148c-36 -22 -76 -36 -118 -36c-53 0 -105 27 -105 86c0 71 57 120 104 148c36 22 76 36 118 36z" fill="currentColor"/>
</a>
<rect transform="translate(320.4238, 60.8500)" x="-0.1909" y="-51.7509" width="0.3818" height="70.3926" ry="0.0400" fill="currentColor"/>
<rect transform="translate(32.2877, 60.8500)" x="-0.1909" y="-59.8500" width="0.3818" height="71.8417" ry="0.0400" fill="currentColor"/>
</svg>
