<svg xmlns="http://www.w3.org/2000/svg" xmlns:xlink="http://www.w3.org/1999/xlink" version="1.2" width="1000.00mm" height="100.00mm" viewBox="0 0 569.0551 56.9055">
<style text="style/css">
<![CDATA[
tspan { white-space: pre; }
]]>
</style>
<!-- Page: 1/1 -->
<text transform="translate(0.5691, -0.0000)" font-family="serif" font-size="2.2001" text-anchor="start" fill="currentColor">
<tspan/>
</text>
<rect transform="translate(177.1485, 13.5107)" x="-0.0795" y="-5.2424" width="0.1590" height="12.2735" ry="0.0400" fill="currentColor"/>
<a style="color:inherit;" xlink:href="textedit:///Users/jwy/Documents/OPUS/GitHub/interactiveLoopingLine_20231129/public/pieces/interactiveLoopingLine20231129/notation/ill20231129.ly:73:18:19">
<path transform="translate(177.0691, 8.0107) scale(0.0052, -0.0052)" d="M222 135c53 0 104 -27 104 -86c0 -71 -56 -120 -103 -148c-36 -22 -76 -36 -118 -36c-53 0 -105 27 -105 86c0 71 57 120 104 148c36 22 76 36 118 36z" fill="currentColor"/>
</a>
<rect transform="translate(168.4485, 13.5107)" x="-0.0795" y="2.7576" width="0.1590" height="7.3927" ry="0.0400" fill="currentColor"/>
<a style="color:inherit;" xlink:href="textedit:///Users/jwy/Documents/OPUS/GitHub/interactiveLoopingLine_20231129/public/pieces/interactiveLoopingLine20231129/notation/ill20231129.ly:73:13:14">
<path transform="translate(168.3691, 16.0107) scale(0.0052, -0.0052)" d="M222 135c53 0 104 -27 104 -86c0 -71 -56 -120 -103 -148c-36 -22 -76 -36 -118 -36c-53 0 -105 27 -105 86c0 71 57 120 104 148c36 22 76 36 118 36z" fill="currentColor"/>
</a>
<rect transform="translate(159.7485, 13.5107)" x="-0.0795" y="-3.2424" width="0.1590" height="10.2709" ry="0.0400" fill="currentColor"/>
<a style="color:inherit;" xlink:href="textedit:///Users/jwy/Documents/OPUS/GitHub/interactiveLoopingLine_20231129/public/pieces/interactiveLoopingLine20231129/notation/ill20231129.ly:73:8:9">
<path transform="translate(159.6691, 10.0107) scale(0.0052, -0.0052)" d="M222 135c53 0 104 -27 104 -86c0 -71 -56 -120 -103 -148c-36 -22 -76 -36 -118 -36c-53 0 -105 27 -105 86c0 71 57 120 104 148c36 22 76 36 118 36z" fill="currentColor"/>
</a>
<a style="color:inherit;" xlink:href="textedit:///Users/jwy/Documents/OPUS/GitHub/interactiveLoopingLine_20231129/public/pieces/interactiveLoopingLine20231129/notation/ill20231129.ly:72:17:18">
<path transform="translate(150.9691, 13.5107) scale(0.0066, -0.0066)" d="M76 -250l116 327c-35 -12 -70 -23 -107 -23c-46 0 -87 34 -87 80c0 39 31 71 71 71c26 0 49 -16 57 -40c10 -28 6 -60 35 -60c17 0 58 54 65 70c5 11 20 10 24 0l-126 -425c-7 -6 -16 -9 -24 -9s-17 3 -24 9z" fill="currentColor"/>
</a>
<rect transform="translate(196.0997, 13.5107)" x="-0.0795" y="-5.8211" width="0.1590" height="8.5635" ry="0.0400" fill="currentColor"/>
<a style="color:inherit;" xlink:href="textedit:///Users/jwy/Documents/OPUS/GitHub/interactiveLoopingLine_20231129/public/pieces/interactiveLoopingLine20231129/notation/ill20231129.ly:74:21:22">
<path transform="translate(194.4691, 16.5107) scale(0.0052, -0.0052)" d="M222 135c53 0 104 -27 104 -86c0 -71 -56 -120 -103 -148c-36 -22 -76 -36 -118 -36c-53 0 -105 27 -105 86c0 71 57 120 104 148c36 22 76 36 118 36z" fill="currentColor"/>
</a>
<rect transform="translate(190.1985, 13.5107)" x="-0.0795" y="5.2576" width="0.1590" height="6.8901" ry="0.0400" fill="currentColor"/>
<a style="color:inherit;" xlink:href="textedit:///Users/jwy/Documents/OPUS/GitHub/interactiveLoopingLine_20231129/public/pieces/interactiveLoopingLine20231129/notation/ill20231129.ly:73:32:33">
<path transform="translate(190.1191, 18.5107) scale(0.0052, -0.0052)" d="M222 135c53 0 104 -27 104 -86c0 -71 -56 -120 -103 -148c-36 -22 -76 -36 -118 -36c-53 0 -105 27 -105 86c0 71 57 120 104 148c36 22 76 36 118 36z" fill="currentColor"/>
</a>
<rect transform="translate(185.8485, 13.5107)" x="-0.0795" y="2.2576" width="0.1590" height="8.1845" ry="0.0400" fill="currentColor"/>
<a style="color:inherit;" xlink:href="textedit:///Users/jwy/Documents/OPUS/GitHub/interactiveLoopingLine_20231129/public/pieces/interactiveLoopingLine20231129/notation/ill20231129.ly:73:29:30">
<path transform="translate(185.7691, 15.5107) scale(0.0052, -0.0052)" d="M222 135c53 0 104 -27 104 -86c0 -71 -56 -120 -103 -148c-36 -22 -76 -36 -118 -36c-53 0 -105 27 -105 86c0 71 57 120 104 148c36 22 76 36 118 36z" fill="currentColor"/>
</a>
<rect transform="translate(181.4985, 13.5107)" x="-0.0795" y="-1.2424" width="0.1590" height="9.9790" ry="0.0400" fill="currentColor"/>
<a style="color:inherit;" xlink:href="textedit:///Users/jwy/Documents/OPUS/GitHub/interactiveLoopingLine_20231129/public/pieces/interactiveLoopingLine20231129/notation/ill20231129.ly:73:25:26">
<path transform="translate(181.4191, 12.0107) scale(0.0052, -0.0052)" d="M222 135c53 0 104 -27 104 -86c0 -71 -56 -120 -103 -148c-36 -22 -76 -36 -118 -36c-53 0 -105 27 -105 86c0 71 57 120 104 148c36 22 76 36 118 36z" fill="currentColor"/>
</a>
<rect transform="translate(100.4864, 13.5107)" x="-0.0795" y="-2.5000" width="0.1590" height="8.6485" ry="0.0400" fill="currentColor"/>
<a style="color:inherit;" xlink:href="textedit:///Users/jwy/Documents/OPUS/GitHub/interactiveLoopingLine_20231129/public/pieces/interactiveLoopingLine20231129/notation/ill20231129.ly:71:31:32">
<path transform="translate(47.8091, 11.0107) scale(0.0052, -0.0052)" d="M222 135c53 0 104 -27 104 -86c0 -71 -56 -120 -103 -148c-36 -22 -76 -36 -118 -36c-53 0 -105 27 -105 86c0 71 57 120 104 148c36 22 76 36 118 36z" fill="currentColor"/>
</a>
<rect transform="translate(45.9597, 13.5107)" x="-0.0795" y="-8.1789" width="0.1590" height="8.4212" ry="0.0400" fill="currentColor"/>
<a style="color:inherit;" xlink:href="textedit:///Users/jwy/Documents/OPUS/GitHub/interactiveLoopingLine_20231129/public/pieces/interactiveLoopingLine20231129/notation/ill20231129.ly:71:28:29">
<path transform="translate(44.3291, 14.0107) scale(0.0052, -0.0052)" d="M222 135c53 0 104 -27 104 -86c0 -71 -56 -120 -103 -148c-36 -22 -76 -36 -118 -36c-53 0 -105 27 -105 86c0 71 57 120 104 148c36 22 76 36 118 36z" fill="currentColor"/>
</a>
<rect transform="translate(42.4797, 13.5107)" x="-0.0795" y="-7.1901" width="0.1590" height="9.9325" ry="0.0400" fill="currentColor"/>
<rect transform="translate(49.4397, 13.5107)" x="-0.0795" y="-9.1676" width="0.1590" height="6.4099" ry="0.0400" fill="currentColor"/>
<rect transform="translate(38.9997, 13.5107)" x="-0.0795" y="-6.2014" width="0.1590" height="9.4438" ry="0.0400" fill="currentColor"/>
<a style="color:inherit;" xlink:href="textedit:///Users/jwy/Documents/OPUS/GitHub/interactiveLoopingLine_20231129/public/pieces/interactiveLoopingLine20231129/notation/ill20231129.ly:71:21:22">
<path transform="translate(37.3691, 17.0107) scale(0.0052, -0.0052)" d="M222 135c53 0 104 -27 104 -86c0 -71 -56 -120 -103 -148c-36 -22 -76 -36 -118 -36c-53 0 -105 27 -105 86c0 71 57 120 104 148c36 22 76 36 118 36z" fill="currentColor"/>
</a>
<rect transform="translate(21.5997, 13.5107)" x="-0.0795" y="-7.0000" width="0.1590" height="8.7424" ry="0.0400" fill="currentColor"/>
<a style="color:inherit;" xlink:href="textedit:///Users/jwy/Documents/OPUS/GitHub/interactiveLoopingLine_20231129/public/pieces/interactiveLoopingLine20231129/notation/ill20231129.ly:70:22:23">
<path transform="translate(19.9691, 15.5107) scale(0.0052, -0.0052)" d="M222 135c53 0 104 -27 104 -86c0 -71 -56 -120 -103 -148c-36 -22 -76 -36 -118 -36c-53 0 -105 27 -105 86c0 71 57 120 104 148c36 22 76 36 118 36z" fill="currentColor"/>
</a>
<rect transform="translate(55.3485, 13.5107)" x="-0.0795" y="-2.7424" width="0.1590" height="8.7424" ry="0.0400" fill="currentColor"/>
<path transform="translate(101.3195, 20.0107) scale(0.0066, -0.0066)" d="M0 0c0 32 25 57 57 57s57 -25 57 -57s-25 -57 -57 -57s-57 25 -57 57z" fill="currentColor"/>
<a style="color:inherit;" xlink:href="textedit:///Users/jwy/Documents/OPUS/GitHub/interactiveLoopingLine_20231129/public/pieces/interactiveLoopingLine20231129/notation/ill20231129.ly:72:13:14">
<path transform="translate(98.7691, 20.0107) scale(0.0052, -0.0052)" d="M316 67c0 25 -20 42 -42 42c-4 0 -9 -1 -13 -2c-31 -9 -79 -41 -117 -65s-86 -55 -107 -80c-7 -8 -10 -19 -10 -29c0 -25 20 -42 42 -42c4 0 9 1 13 2c31 9 79 41 117 65s86 55 107 80c7 8 10 19 10 29zM265 135c44 0 78 -21 78 -68c0 -19 -5 -39 -11 -57
c-12 -37 -33 -71 -65 -93c-53 -36 -114 -52 -189 -52c-44 0 -78 21 -78 68c0 19 5 39 11 57c12 37 33 71 65 93c53 36 114 52 189 52z" fill="currentColor"/>
</a>
<rect transform="translate(64.0485, 13.5107)" x="-0.0795" y="-0.1485" width="0.1590" height="8.6485" ry="0.0400" fill="currentColor"/>
<a style="color:inherit;" xlink:href="textedit:///Users/jwy/Documents/OPUS/GitHub/interactiveLoopingLine_20231129/public/pieces/interactiveLoopingLine20231129/notation/ill20231129.ly:72:8:9">
<path transform="translate(63.9691, 13.0107) scale(0.0052, -0.0052)" d="M316 67c0 25 -20 42 -42 42c-4 0 -9 -1 -13 -2c-31 -9 -79 -41 -117 -65s-86 -55 -107 -80c-7 -8 -10 -19 -10 -29c0 -25 20 -42 42 -42c4 0 9 1 13 2c31 9 79 41 117 65s86 55 107 80c7 8 10 19 10 29zM265 135c44 0 78 -21 78 -68c0 -19 -5 -39 -11 -57
c-12 -37 -33 -71 -65 -93c-53 -36 -114 -52 -189 -52c-44 0 -78 21 -78 68c0 19 5 39 11 57c12 37 33 71 65 93c53 36 114 52 189 52z" fill="currentColor"/>
</a>
<path transform="translate(55.4280, 19.4707) scale(0.0066, -0.0066)" d="M0 0h-14v250h14c98 58 228 147 228 259c0 57 -15 112 -40 164c-3 15 9 25 21 25c7 0 14 -3 18 -10c25 -56 40 -117 40 -179c0 -203 -267 -306 -267 -509z" fill="currentColor"/>
<a style="color:inherit;" xlink:href="textedit:///Users/jwy/Documents/OPUS/GitHub/interactiveLoopingLine_20231129/public/pieces/interactiveLoopingLine20231129/notation/ill20231129.ly:71:41:42">
<path transform="translate(55.2691, 10.5107) scale(0.0052, -0.0052)" d="M222 135c53 0 104 -27 104 -86c0 -71 -56 -120 -103 -148c-36 -22 -76 -36 -118 -36c-53 0 -105 27 -105 86c0 71 57 120 104 148c36 22 76 36 118 36z" fill="currentColor"/>
</a>
<rect transform="translate(52.9197, 13.5107)" x="-0.0795" y="-10.1563" width="0.1590" height="6.8986" ry="0.0400" fill="currentColor"/>
<a style="color:inherit;" xlink:href="textedit:///Users/jwy/Documents/OPUS/GitHub/interactiveLoopingLine_20231129/public/pieces/interactiveLoopingLine20231129/notation/ill20231129.ly:71:35:36">
<path transform="translate(51.2891, 10.5107) scale(0.0052, -0.0052)" d="M222 135c53 0 104 -27 104 -86c0 -71 -56 -120 -103 -148c-36 -22 -76 -36 -118 -36c-53 0 -105 27 -105 86c0 71 57 120 104 148c36 22 76 36 118 36z" fill="currentColor"/>
</a>
<rect transform="translate(325.8597, 13.5107)" x="-0.0795" y="-7.8211" width="0.1590" height="7.5635" ry="0.0400" fill="currentColor"/>
<polygon transform="translate(370.4691, 21.5107)" stroke-linejoin="round" stroke-linecap="round" stroke-width="0.0800" fill="currentColor" stroke="currentColor" points="27.9590 -0.2000 27.9590 0.2000 0.0400 0.2000 0.0400 -0.2000"/>
<a style="color:inherit;" xlink:href="textedit:///Users/jwy/Documents/OPUS/GitHub/interactiveLoopingLine_20231129/public/pieces/interactiveLoopingLine20231129/notation/ill20231129.ly:91:8:9">
<line transform="translate(423.1691, 23.6526)" stroke-linejoin="round" stroke-linecap="round" stroke-width="0.1957" stroke="currentColor" x1="16.5953" y1="-3.6468" x2="16.5953" y2="-4.3468"/>
<line transform="translate(423.1691, 23.6526)" stroke-linejoin="round" stroke-linecap="round" stroke-width="0.1957" stroke="currentColor" x1="-0.1953" y1="0.0429" x2="-0.1953" y2="-0.6571"/>
<line transform="translate(423.1691, 23.6526)" stroke-linejoin="round" stroke-linecap="round" stroke-width="0.1957" stroke="currentColor" x1="16.5953" y1="-3.6468" x2="10.6535" y2="-2.3411"/>
<line transform="translate(423.1691, 23.6526)" stroke-linejoin="round" stroke-linecap="round" stroke-width="0.1957" stroke="currentColor" x1="-0.1953" y1="0.0429" x2="5.9419" y2="-1.3057"/>
</a>
<a style="color:inherit;" xlink:href="textedit:///Users/jwy/Documents/OPUS/GitHub/interactiveLoopingLine_20231129/public/pieces/interactiveLoopingLine20231129/notation/ill20231129.ly:91:8:9">
<text transform="translate(429.4570, 22.7896)" font-family="serif" font-style="italic" font-size="2.8814" text-anchor="start" fill="currentColor">
<tspan>7:1</tspan>
</text>
</a>
<polygon transform="translate(407.3202, 6.0107)" stroke-linejoin="round" stroke-linecap="round" stroke-width="0.0800" fill="currentColor" stroke="currentColor" points="13.1690 -1.7000 13.1690 -1.3000 0.0400 0.2000 0.0400 -0.2000"/>
<polygon transform="translate(407.3202, 6.8318)" stroke-linejoin="round" stroke-linecap="round" stroke-width="0.0800" fill="currentColor" stroke="currentColor" points="13.1690 -1.7000 13.1690 -1.3000 0.0400 0.2000 0.0400 -0.2000"/>
<polygon transform="translate(423.1691, 20.6895)" stroke-linejoin="round" stroke-linecap="round" stroke-width="0.0800" fill="currentColor" stroke="currentColor" points="15.0333 -3.8423 15.0333 -3.4423 0.0400 0.2000 0.0400 -0.2000"/>
<polygon transform="translate(423.1691, 21.5107)" stroke-linejoin="round" stroke-linecap="round" stroke-width="0.0800" fill="currentColor" stroke="currentColor" points="15.0333 -3.8423 15.0333 -3.4423 0.0400 0.2000 0.0400 -0.2000"/>
<polygon transform="translate(423.1691, 22.3318)" stroke-linejoin="round" stroke-linecap="round" stroke-width="0.0800" fill="currentColor" stroke="currentColor" points="15.0333 -3.8423 15.0333 -3.4423 0.0400 0.2000 0.0400 -0.2000"/>
<rect transform="translate(332.8197, 13.5107)" x="-0.0795" y="-7.8211" width="0.1590" height="10.5635" ry="0.0400" fill="currentColor"/>
<a style="color:inherit;" xlink:href="textedit:///Users/jwy/Documents/OPUS/GitHub/interactiveLoopingLine_20231129/public/pieces/interactiveLoopingLine20231129/notation/ill20231129.ly:81:29:30">
<path transform="translate(331.1891, 16.5107) scale(0.0052, -0.0052)" d="M222 135c53 0 104 -27 104 -86c0 -71 -56 -120 -103 -148c-36 -22 -76 -36 -118 -36c-53 0 -105 27 -105 86c0 71 57 120 104 148c36 22 76 36 118 36z" fill="currentColor"/>
</a>
<a style="color:inherit;" xlink:href="textedit:///Users/jwy/Documents/OPUS/GitHub/interactiveLoopingLine_20231129/public/pieces/interactiveLoopingLine20231129/notation/ill20231129.ly:85:8:9">
<text transform="translate(385.4570, 23.7896)" font-family="serif" font-style="italic" font-size="2.8814" text-anchor="start" fill="currentColor">
<tspan>5:2</tspan>
</text>
</a>
<a style="color:inherit;" xlink:href="textedit:///Users/jwy/Documents/OPUS/GitHub/interactiveLoopingLine_20231129/public/pieces/interactiveLoopingLine20231129/notation/ill20231129.ly:81:26:27">
<path transform="translate(324.2291, 13.5107) scale(0.0052, -0.0052)" d="M222 135c53 0 104 -27 104 -86c0 -71 -56 -120 -103 -148c-36 -22 -76 -36 -118 -36c-53 0 -105 27 -105 86c0 71 57 120 104 148c36 22 76 36 118 36z" fill="currentColor"/>
</a>
<rect transform="translate(318.8997, 13.5107)" x="-0.0795" y="-7.8211" width="0.1590" height="5.0635" ry="0.0400" fill="currentColor"/>
<a style="color:inherit;" xlink:href="textedit:///Users/jwy/Documents/OPUS/GitHub/interactiveLoopingLine_20231129/public/pieces/interactiveLoopingLine20231129/notation/ill20231129.ly:81:21:22">
<path transform="translate(317.2691, 11.0107) scale(0.0052, -0.0052)" d="M222 135c53 0 104 -27 104 -86c0 -71 -56 -120 -103 -148c-36 -22 -76 -36 -118 -36c-53 0 -105 27 -105 86c0 71 57 120 104 148c36 22 76 36 118 36z" fill="currentColor"/>
</a>
<path transform="translate(312.6791, 8.5507) scale(0.0066, -0.0066)" d="M0 0c0 -198 207 -336 207 -534c0 -71 -16 -142 -42 -208c-4 -7 -10 -11 -17 -11c-12 0 -24 10 -21 25c26 62 41 127 41 194c0 104 -96 209 -168 284h-14v250h14z" fill="currentColor"/>
<a style="color:inherit;" xlink:href="textedit:///Users/jwy/Documents/OPUS/GitHub/interactiveLoopingLine_20231129/public/pieces/interactiveLoopingLine20231129/notation/ill20231129.ly:74:35:36">
<path transform="translate(208.3891, 13.5107)" stroke-width="0.0978" stroke-linejoin="round" stroke-linecap="round" stroke="currentColor" fill="currentColor" d="M1.0550 3.7500C1.6467 4.4203 3.0679 4.4203 3.6595 3.7500L3.6595 3.7500C3.0679 4.2735 1.6467 4.2735 1.0550 3.7500z"/>
</a>
<a style="color:inherit;" xlink:href="textedit:///Users/jwy/Documents/OPUS/GitHub/interactiveLoopingLine_20231129/public/pieces/interactiveLoopingLine20231129/notation/ill20231129.ly:70:8:9">
<polygon transform="translate(2.5691, 21.1895)" stroke-linejoin="round" stroke-linecap="round" stroke-width="0.0800" fill="currentColor" stroke="currentColor" points="1.1395 0.3232 1.1395 0.7232 0.0400 0.2000 0.0400 -0.2000"/>
<polygon transform="translate(2.5691, 22.0107)" stroke-linejoin="round" stroke-linecap="round" stroke-width="0.0800" fill="currentColor" stroke="currentColor" points="4.4690 1.8000 4.4690 2.2000 0.0400 0.2000 0.0400 -0.2000"/>
</a>
<a style="color:inherit;" xlink:href="textedit:///Users/jwy/Documents/OPUS/GitHub/interactiveLoopingLine_20231129/public/pieces/interactiveLoopingLine20231129/notation/ill20231129.ly:70:19:20">
<path transform="translate(6.9191, 13.5107)" stroke-width="0.0978" stroke-linejoin="round" stroke-linecap="round" stroke="currentColor" fill="currentColor" d="M1.0550 2.7500C2.3972 3.7279 12.3629 3.7279 13.7050 2.7500L13.7050 2.7500C12.3629 3.5811 2.3972 3.5811 1.0550 2.7500z"/>
</a>
<a style="color:inherit;" xlink:href="textedit:///Users/jwy/Documents/OPUS/GitHub/interactiveLoopingLine_20231129/public/pieces/interactiveLoopingLine20231129/notation/ill20231129.ly:71:8:9">
<line transform="translate(38.9202, 5.1008)" stroke-linejoin="round" stroke-linecap="round" stroke-width="0.1957" stroke="currentColor" x1="15.0421" y1="-4.0063" x2="15.0421" y2="-3.3063"/>
<line transform="translate(38.9202, 5.1008)" stroke-linejoin="round" stroke-linecap="round" stroke-width="0.1957" stroke="currentColor" x1="-0.1933" y1="0.0515" x2="-0.1933" y2="0.7515"/>
<line transform="translate(38.9202, 5.1008)" stroke-linejoin="round" stroke-linecap="round" stroke-width="0.1957" stroke="currentColor" x1="15.0421" y1="-4.0063" x2="8.6971" y2="-2.3164"/>
<line transform="translate(38.9202, 5.1008)" stroke-linejoin="round" stroke-linecap="round" stroke-width="0.1957" stroke="currentColor" x1="-0.1933" y1="0.0515" x2="6.3451" y2="-1.6899"/>
</a>
<a style="color:inherit;" xlink:href="textedit:///Users/jwy/Documents/OPUS/GitHub/interactiveLoopingLine_20231129/public/pieces/interactiveLoopingLine20231129/notation/ill20231129.ly:71:8:9">
<text transform="translate(45.6276, 4.0282)" font-family="serif" font-style="italic" font-size="2.8814" text-anchor="start" fill="currentColor">
<tspan>5</tspan>
</text>
</a>
<a style="color:inherit;" xlink:href="textedit:///Users/jwy/Documents/OPUS/GitHub/interactiveLoopingLine_20231129/public/pieces/interactiveLoopingLine20231129/notation/ill20231129.ly:71:38:39">
<path transform="translate(51.2891, 13.5107)" stroke-width="0.0978" stroke-linejoin="round" stroke-linecap="round" stroke="currentColor" fill="currentColor" d="M2.0306 -3.7500C2.6222 -4.4203 4.0434 -4.4203 4.6350 -3.7500L4.6350 -3.7500C4.0434 -4.2735 2.6222 -4.2735 2.0306 -3.7500z"/>
</a>
<polygon transform="translate(38.9202, 7.3318)" stroke-linejoin="round" stroke-linecap="round" stroke-width="0.0800" fill="currentColor" stroke="currentColor" points="14.0390 -4.2000 14.0390 -3.8000 0.0400 0.2000 0.0400 -0.2000"/>
<polygon transform="translate(38.9202, 8.1529)" stroke-linejoin="round" stroke-linecap="round" stroke-width="0.0800" fill="currentColor" stroke="currentColor" points="14.0390 -4.2000 14.0390 -3.8000 0.0400 0.2000 0.0400 -0.2000"/>
<polygon transform="translate(159.6691, 20.5107)" stroke-linejoin="round" stroke-linecap="round" stroke-width="0.0800" fill="currentColor" stroke="currentColor" points="8.8190 2.9789 8.8190 3.3789 0.0400 0.2000 0.0400 -0.2000"/>
<a style="color:inherit;" xlink:href="textedit:///Users/jwy/Documents/OPUS/GitHub/interactiveLoopingLine_20231129/public/pieces/interactiveLoopingLine20231129/notation/ill20231129.ly:74:8:9">
<line transform="translate(196.0202, 6.3495)" stroke-linejoin="round" stroke-linecap="round" stroke-width="0.1957" stroke="currentColor" x1="15.0489" y1="-0.0000" x2="15.0489" y2="0.7000"/>
<line transform="translate(196.0202, 6.3495)" stroke-linejoin="round" stroke-linecap="round" stroke-width="0.1957" stroke="currentColor" x1="-0.2000" y1="-0.0000" x2="-0.2000" y2="0.7000"/>
<line transform="translate(196.0202, 6.3495)" stroke-linejoin="round" stroke-linecap="round" stroke-width="0.1957" stroke="currentColor" x1="15.0489" y1="-0.0000" x2="8.7414" y2="-0.0000"/>
<line transform="translate(196.0202, 6.3495)" stroke-linejoin="round" stroke-linecap="round" stroke-width="0.1957" stroke="currentColor" x1="-0.2000" y1="-0.0000" x2="6.3074" y2="-0.0000"/>
</a>
<a style="color:inherit;" xlink:href="textedit:///Users/jwy/Documents/OPUS/GitHub/interactiveLoopingLine_20231129/public/pieces/interactiveLoopingLine20231129/notation/ill20231129.ly:74:8:9">
<text transform="translate(202.7276, 7.2543)" font-family="serif" font-style="italic" font-size="2.8814" text-anchor="start" fill="currentColor">
<tspan>5</tspan>
</text>
</a>
<polygon transform="translate(177.0691, 19.6895)" stroke-linejoin="round" stroke-linecap="round" stroke-width="0.0800" fill="currentColor" stroke="currentColor" points="13.1690 4.9789 13.1690 5.3789 0.0400 0.2000 0.0400 -0.2000"/>
<polygon transform="translate(177.0691, 20.5107)" stroke-linejoin="round" stroke-linecap="round" stroke-width="0.0800" fill="currentColor" stroke="currentColor" points="13.1690 4.9789 13.1690 5.3789 0.0400 0.2000 0.0400 -0.2000"/>
<rect transform="translate(312.5997, 13.5107)" x="-0.0795" y="-5.0000" width="0.1590" height="8.7424" ry="0.0400" fill="currentColor"/>
<polygon transform="translate(196.0202, 7.6895)" stroke-linejoin="round" stroke-linecap="round" stroke-width="0.0800" fill="currentColor" stroke="currentColor" points="14.0390 -0.2000 14.0390 0.2000 0.0400 0.2000 0.0400 -0.2000"/>
<polygon transform="translate(196.0202, 8.5107)" stroke-linejoin="round" stroke-linecap="round" stroke-width="0.0800" fill="currentColor" stroke="currentColor" points="14.0390 -0.2000 14.0390 0.2000 0.0400 0.2000 0.0400 -0.2000"/>
<polygon transform="translate(212.3691, 23.1895)" stroke-linejoin="round" stroke-linecap="round" stroke-width="0.0800" fill="currentColor" stroke="currentColor" points="1.1395 -0.8540 1.1395 -0.4540 0.0400 0.2000 0.0400 -0.2000"/>
<polygon transform="translate(212.3691, 24.0107)" stroke-linejoin="round" stroke-linecap="round" stroke-width="0.0800" fill="currentColor" stroke="currentColor" points="4.4690 -2.7000 4.4690 -2.3000 0.0400 0.2000 0.0400 -0.2000"/>
<a style="color:inherit;" xlink:href="textedit:///Users/jwy/Documents/OPUS/GitHub/interactiveLoopingLine_20231129/public/pieces/interactiveLoopingLine20231129/notation/ill20231129.ly:76:8:9">
<line transform="translate(300.9202, 5.6012)" stroke-linejoin="round" stroke-linecap="round" stroke-width="0.1957" stroke="currentColor" x1="15.0472" y1="1.9733" x2="15.0472" y2="2.6733"/>
<line transform="translate(300.9202, 5.6012)" stroke-linejoin="round" stroke-linecap="round" stroke-width="0.1957" stroke="currentColor" x1="-0.1983" y1="-0.0260" x2="-0.1983" y2="0.6740"/>
<line transform="translate(300.9202, 5.6012)" stroke-linejoin="round" stroke-linecap="round" stroke-width="0.1957" stroke="currentColor" x1="15.0472" y1="1.9733" x2="8.7303" y2="1.1449"/>
<line transform="translate(300.9202, 5.6012)" stroke-linejoin="round" stroke-linecap="round" stroke-width="0.1957" stroke="currentColor" x1="-0.1983" y1="-0.0260" x2="6.3169" y2="0.8284"/>
</a>
<a style="color:inherit;" xlink:href="textedit:///Users/jwy/Documents/OPUS/GitHub/interactiveLoopingLine_20231129/public/pieces/interactiveLoopingLine20231129/notation/ill20231129.ly:76:8:9">
<text transform="translate(307.6276, 7.5309)" font-family="serif" font-style="italic" font-size="2.8814" text-anchor="start" fill="currentColor">
<tspan>3</tspan>
</text>
</a>
<a style="color:inherit;" xlink:href="textedit:///Users/jwy/Documents/OPUS/GitHub/interactiveLoopingLine_20231129/public/pieces/interactiveLoopingLine20231129/notation/ill20231129.ly:81:8:9">
<line transform="translate(318.8202, 4.3495)" stroke-linejoin="round" stroke-linecap="round" stroke-width="0.1957" stroke="currentColor" x1="32.4489" y1="-0.0000" x2="32.4489" y2="0.7000"/>
<line transform="translate(318.8202, 4.3495)" stroke-linejoin="round" stroke-linecap="round" stroke-width="0.1957" stroke="currentColor" x1="-0.2000" y1="-0.0000" x2="-0.2000" y2="0.7000"/>
<line transform="translate(318.8202, 4.3495)" stroke-linejoin="round" stroke-linecap="round" stroke-width="0.1957" stroke="currentColor" x1="32.4489" y1="-0.0000" x2="18.6365" y2="-0.0000"/>
<line transform="translate(318.8202, 4.3495)" stroke-linejoin="round" stroke-linecap="round" stroke-width="0.1957" stroke="currentColor" x1="-0.2000" y1="-0.0000" x2="13.8124" y2="-0.0000"/>
</a>
<a style="color:inherit;" xlink:href="textedit:///Users/jwy/Documents/OPUS/GitHub/interactiveLoopingLine_20231129/public/pieces/interactiveLoopingLine20231129/notation/ill20231129.ly:81:8:9">
<text transform="translate(333.0326, 5.2885)" font-family="serif" font-style="italic" font-size="2.8814" text-anchor="start" fill="currentColor">
<tspan>5:2</tspan>
</text>
</a>
<a style="color:inherit;" xlink:href="textedit:///Users/jwy/Documents/OPUS/GitHub/interactiveLoopingLine_20231129/public/pieces/interactiveLoopingLine20231129/notation/ill20231129.ly:83:8:9">
<line transform="translate(354.1202, 4.1012)" stroke-linejoin="round" stroke-linecap="round" stroke-width="0.1957" stroke="currentColor" x1="15.0472" y1="1.9733" x2="15.0472" y2="2.6733"/>
<line transform="translate(354.1202, 4.1012)" stroke-linejoin="round" stroke-linecap="round" stroke-width="0.1957" stroke="currentColor" x1="-0.1983" y1="-0.0260" x2="-0.1983" y2="0.6740"/>
<line transform="translate(354.1202, 4.1012)" stroke-linejoin="round" stroke-linecap="round" stroke-width="0.1957" stroke="currentColor" x1="15.0472" y1="1.9733" x2="8.7303" y2="1.1449"/>
<line transform="translate(354.1202, 4.1012)" stroke-linejoin="round" stroke-linecap="round" stroke-width="0.1957" stroke="currentColor" x1="-0.1983" y1="-0.0260" x2="6.3169" y2="0.8284"/>
</a>
<a style="color:inherit;" xlink:href="textedit:///Users/jwy/Documents/OPUS/GitHub/interactiveLoopingLine_20231129/public/pieces/interactiveLoopingLine20231129/notation/ill20231129.ly:83:8:9">
<text transform="translate(360.8276, 6.0309)" font-family="serif" font-style="italic" font-size="2.8814" text-anchor="start" fill="currentColor">
<tspan>3</tspan>
</text>
</a>
<polygon transform="translate(318.8202, 5.6895)" stroke-linejoin="round" stroke-linecap="round" stroke-width="0.0800" fill="currentColor" stroke="currentColor" points="27.9590 -0.2000 27.9590 0.2000 0.0400 0.2000 0.0400 -0.2000"/>
<a style="color:inherit;" xlink:href="textedit:///Users/jwy/Documents/OPUS/GitHub/interactiveLoopingLine_20231129/public/pieces/interactiveLoopingLine20231129/notation/ill20231129.ly:85:8:9">
<line transform="translate(370.4691, 22.8507)" stroke-linejoin="round" stroke-linecap="round" stroke-width="0.1957" stroke="currentColor" x1="34.0000" y1="-0.0000" x2="34.0000" y2="-0.7000"/>
<line transform="translate(370.4691, 22.8507)" stroke-linejoin="round" stroke-linecap="round" stroke-width="0.1957" stroke="currentColor" x1="-0.2000" y1="-0.0000" x2="-0.2000" y2="-0.7000"/>
<line transform="translate(370.4691, 22.8507)" stroke-linejoin="round" stroke-linecap="round" stroke-width="0.1957" stroke="currentColor" x1="34.0000" y1="-0.0000" x2="19.4120" y2="-0.0000"/>
<line transform="translate(370.4691, 22.8507)" stroke-linejoin="round" stroke-linecap="round" stroke-width="0.1957" stroke="currentColor" x1="-0.2000" y1="-0.0000" x2="14.5880" y2="-0.0000"/>
</a>
<rect transform="translate(210.0197, 13.5107)" x="-0.0795" y="-5.8211" width="0.1590" height="8.5635" ry="0.0400" fill="currentColor"/>
<a style="color:inherit;" xlink:href="textedit:///Users/jwy/Documents/OPUS/GitHub/interactiveLoopingLine_20231129/public/pieces/interactiveLoopingLine20231129/notation/ill20231129.ly:74:33:34">
<path transform="translate(208.3891, 16.5107) scale(0.0052, -0.0052)" d="M222 135c53 0 104 -27 104 -86c0 -71 -56 -120 -103 -148c-36 -22 -76 -36 -118 -36c-53 0 -105 27 -105 86c0 71 57 120 104 148c36 22 76 36 118 36z" fill="currentColor"/>
</a>
<rect transform="translate(206.5397, 13.5107)" x="-0.0795" y="-5.8211" width="0.1590" height="8.5635" ry="0.0400" fill="currentColor"/>
<a style="color:inherit;" xlink:href="textedit:///Users/jwy/Documents/OPUS/GitHub/interactiveLoopingLine_20231129/public/pieces/interactiveLoopingLine20231129/notation/ill20231129.ly:74:30:31">
<path transform="translate(204.9091, 16.5107) scale(0.0052, -0.0052)" d="M222 135c53 0 104 -27 104 -86c0 -71 -56 -120 -103 -148c-36 -22 -76 -36 -118 -36c-53 0 -105 27 -105 86c0 71 57 120 104 148c36 22 76 36 118 36z" fill="currentColor"/>
</a>
<a style="color:inherit;" xlink:href="textedit:///Users/jwy/Documents/OPUS/GitHub/interactiveLoopingLine_20231129/public/pieces/interactiveLoopingLine20231129/notation/ill20231129.ly:74:38:39">
<path transform="translate(212.3691, 16.5107) scale(0.0052, -0.0052)" d="M222 135c53 0 104 -27 104 -86c0 -71 -56 -120 -103 -148c-36 -22 -76 -36 -118 -36c-53 0 -105 27 -105 86c0 71 57 120 104 148c36 22 76 36 118 36z" fill="currentColor"/>
</a>
<rect transform="translate(203.0597, 13.5107)" x="-0.0795" y="-5.8211" width="0.1590" height="8.5635" ry="0.0400" fill="currentColor"/>
<a style="color:inherit;" xlink:href="textedit:///Users/jwy/Documents/OPUS/GitHub/interactiveLoopingLine_20231129/public/pieces/interactiveLoopingLine20231129/notation/ill20231129.ly:74:27:28">
<path transform="translate(201.4291, 16.5107) scale(0.0052, -0.0052)" d="M222 135c53 0 104 -27 104 -86c0 -71 -56 -120 -103 -148c-36 -22 -76 -36 -118 -36c-53 0 -105 27 -105 86c0 71 57 120 104 148c36 22 76 36 118 36z" fill="currentColor"/>
</a>
<rect transform="translate(199.5797, 13.5107)" x="-0.0795" y="-5.8211" width="0.1590" height="8.5635" ry="0.0400" fill="currentColor"/>
<a style="color:inherit;" xlink:href="textedit:///Users/jwy/Documents/OPUS/GitHub/interactiveLoopingLine_20231129/public/pieces/interactiveLoopingLine20231129/notation/ill20231129.ly:74:24:25">
<path transform="translate(197.9491, 16.5107) scale(0.0052, -0.0052)" d="M222 135c53 0 104 -27 104 -86c0 -71 -56 -120 -103 -148c-36 -22 -76 -36 -118 -36c-53 0 -105 27 -105 86c0 71 57 120 104 148c36 22 76 36 118 36z" fill="currentColor"/>
</a>
<a style="color:inherit;" xlink:href="textedit:///Users/jwy/Documents/OPUS/GitHub/interactiveLoopingLine_20231129/public/pieces/interactiveLoopingLine20231129/notation/ill20231129.ly:76:25:26">
<path transform="translate(310.9691, 17.5107) scale(0.0052, -0.0052)" d="M222 135c53 0 104 -27 104 -86c0 -71 -56 -120 -103 -148c-36 -22 -76 -36 -118 -36c-53 0 -105 27 -105 86c0 71 57 120 104 148c36 22 76 36 118 36z" fill="currentColor"/>
</a>
<rect transform="translate(300.9997, 13.5107)" x="-0.0795" y="-7.0000" width="0.1590" height="8.7424" ry="0.0400" fill="currentColor"/>
<a style="color:inherit;" xlink:href="textedit:///Users/jwy/Documents/OPUS/GitHub/interactiveLoopingLine_20231129/public/pieces/interactiveLoopingLine20231129/notation/ill20231129.ly:76:21:22">
<path transform="translate(299.3691, 15.5107) scale(0.0052, -0.0052)" d="M222 135c53 0 104 -27 104 -86c0 -71 -56 -120 -103 -148c-36 -22 -76 -36 -118 -36c-53 0 -105 27 -105 86c0 71 57 120 104 148c36 22 76 36 118 36z" fill="currentColor"/>
</a>
<a style="color:inherit;" xlink:href="textedit:///Users/jwy/Documents/OPUS/GitHub/interactiveLoopingLine_20231129/public/pieces/interactiveLoopingLine20231129/notation/ill20231129.ly:74:51:52">
<path transform="translate(229.7691, 20.5107) scale(0.0052, -0.0052)" d="M215 114c-50 0 -71 -42 -71 -88c0 -79 60 -140 139 -140c50 0 70 42 70 88c0 79 -59 140 -138 140zM497 0c0 -43 -35 -74 -73 -95c-54 -29 -114 -40 -175 -40s-122 11 -176 40c-38 21 -73 52 -73 95s35 74 73 95c54 29 115 40 176 40s121 -11 175 -40
c38 -21 73 -52 73 -95z" fill="currentColor"/>
</a>
<a style="color:inherit;" xlink:href="textedit:///Users/jwy/Documents/OPUS/GitHub/interactiveLoopingLine_20231129/public/pieces/interactiveLoopingLine20231129/notation/ill20231129.ly:71:25:26">
<path transform="translate(40.8491, 16.5107) scale(0.0052, -0.0052)" d="M222 135c53 0 104 -27 104 -86c0 -71 -56 -120 -103 -148c-36 -22 -76 -36 -118 -36c-53 0 -105 27 -105 86c0 71 57 120 104 148c36 22 76 36 118 36z" fill="currentColor"/>
</a>
<rect transform="translate(216.7985, 13.5107)" x="-0.0795" y="-3.7424" width="0.1590" height="11.7864" ry="0.0400" fill="currentColor"/>
<path transform="translate(219.1828, 9.5107) scale(0.0066, -0.0066)" d="M0 0c0 32 25 57 57 57s57 -25 57 -57s-25 -57 -57 -57s-57 25 -57 57z" fill="currentColor"/>
<a style="color:inherit;" xlink:href="textedit:///Users/jwy/Documents/OPUS/GitHub/interactiveLoopingLine_20231129/public/pieces/interactiveLoopingLine20231129/notation/ill20231129.ly:74:43:44">
<path transform="translate(216.7191, 9.5107) scale(0.0052, -0.0052)" d="M222 135c53 0 104 -27 104 -86c0 -71 -56 -120 -103 -148c-36 -22 -76 -36 -118 -36c-53 0 -105 27 -105 86c0 71 57 120 104 148c36 22 76 36 118 36z" fill="currentColor"/>
</a>
<rect transform="translate(212.4485, 13.5107)" x="-0.0795" y="3.2576" width="0.1590" height="7.1983" ry="0.0400" fill="currentColor"/>
<rect transform="translate(398.3885, 13.5107)" x="-0.0795" y="1.2576" width="0.1590" height="6.7424" ry="0.0400" fill="currentColor"/>
<a style="color:inherit;" xlink:href="textedit:///Users/jwy/Documents/OPUS/GitHub/interactiveLoopingLine_20231129/public/pieces/interactiveLoopingLine20231129/notation/ill20231129.ly:85:39:40">
<path transform="translate(398.3091, 14.5107) scale(0.0052, -0.0052)" d="M222 135c53 0 104 -27 104 -86c0 -71 -56 -120 -103 -148c-36 -22 -76 -36 -118 -36c-53 0 -105 27 -105 86c0 71 57 120 104 148c36 22 76 36 118 36z" fill="currentColor"/>
</a>
<rect transform="translate(391.4285, 13.5107)" x="-0.0795" y="-4.2424" width="0.1590" height="12.2424" ry="0.0400" fill="currentColor"/>
<a style="color:inherit;" xlink:href="textedit:///Users/jwy/Documents/OPUS/GitHub/interactiveLoopingLine_20231129/public/pieces/interactiveLoopingLine20231129/notation/ill20231129.ly:85:34:35">
<path transform="translate(391.3491, 9.0107) scale(0.0052, -0.0052)" d="M222 135c53 0 104 -27 104 -86c0 -71 -56 -120 -103 -148c-36 -22 -76 -36 -118 -36c-53 0 -105 27 -105 86c0 71 57 120 104 148c36 22 76 36 118 36z" fill="currentColor"/>
</a>
<rect transform="translate(384.4685, 13.5107)" x="-0.0795" y="1.2576" width="0.1590" height="6.7424" ry="0.0400" fill="currentColor"/>
<a style="color:inherit;" xlink:href="textedit:///Users/jwy/Documents/OPUS/GitHub/interactiveLoopingLine_20231129/public/pieces/interactiveLoopingLine20231129/notation/ill20231129.ly:85:31:32">
<path transform="translate(384.3891, 14.5107) scale(0.0052, -0.0052)" d="M222 135c53 0 104 -27 104 -86c0 -71 -56 -120 -103 -148c-36 -22 -76 -36 -118 -36c-53 0 -105 27 -105 86c0 71 57 120 104 148c36 22 76 36 118 36z" fill="currentColor"/>
</a>
<rect transform="translate(377.5085, 13.5107)" x="-0.0795" y="-1.7424" width="0.1590" height="9.7424" ry="0.0400" fill="currentColor"/>
<a style="color:inherit;" xlink:href="textedit:///Users/jwy/Documents/OPUS/GitHub/interactiveLoopingLine_20231129/public/pieces/interactiveLoopingLine20231129/notation/ill20231129.ly:85:27:28">
<path transform="translate(377.4291, 11.5107) scale(0.0052, -0.0052)" d="M222 135c53 0 104 -27 104 -86c0 -71 -56 -120 -103 -148c-36 -22 -76 -36 -118 -36c-53 0 -105 27 -105 86c0 71 57 120 104 148c36 22 76 36 118 36z" fill="currentColor"/>
</a>
<rect transform="translate(420.4497, 13.5107)" x="-0.0795" y="-8.9910" width="0.1590" height="6.7333" ry="0.0400" fill="currentColor"/>
<a style="color:inherit;" xlink:href="textedit:///Users/jwy/Documents/OPUS/GitHub/interactiveLoopingLine_20231129/public/pieces/interactiveLoopingLine20231129/notation/ill20231129.ly:88:19:20">
<path transform="translate(418.8191, 11.5107) scale(0.0052, -0.0052)" d="M222 135c53 0 104 -27 104 -86c0 -71 -56 -120 -103 -148c-36 -22 -76 -36 -118 -36c-53 0 -105 27 -105 86c0 71 57 120 104 148c36 22 76 36 118 36z" fill="currentColor"/>
</a>
<rect transform="translate(416.0997, 13.5107)" x="-0.0795" y="-8.4970" width="0.1590" height="10.7394" ry="0.0400" fill="currentColor"/>
<a style="color:inherit;" xlink:href="textedit:///Users/jwy/Documents/OPUS/GitHub/interactiveLoopingLine_20231129/public/pieces/interactiveLoopingLine20231129/notation/ill20231129.ly:88:16:17">
<path transform="translate(414.4691, 16.0107) scale(0.0052, -0.0052)" d="M222 135c53 0 104 -27 104 -86c0 -71 -56 -120 -103 -148c-36 -22 -76 -36 -118 -36c-53 0 -105 27 -105 86c0 71 57 120 104 148c36 22 76 36 118 36z" fill="currentColor"/>
</a>
<rect transform="translate(411.7497, 13.5107)" x="-0.0795" y="-8.0030" width="0.1590" height="8.2454" ry="0.0400" fill="currentColor"/>
<a style="color:inherit;" xlink:href="textedit:///Users/jwy/Documents/OPUS/GitHub/interactiveLoopingLine_20231129/public/pieces/interactiveLoopingLine20231129/notation/ill20231129.ly:88:13:14">
<path transform="translate(410.1191, 14.0107) scale(0.0052, -0.0052)" d="M222 135c53 0 104 -27 104 -86c0 -71 -56 -120 -103 -148c-36 -22 -76 -36 -118 -36c-53 0 -105 27 -105 86c0 71 57 120 104 148c36 22 76 36 118 36z" fill="currentColor"/>
</a>
<rect transform="translate(407.3997, 13.5107)" x="-0.0795" y="-7.5090" width="0.1590" height="8.7514" ry="0.0400" fill="currentColor"/>
<a style="color:inherit;" xlink:href="textedit:///Users/jwy/Documents/OPUS/GitHub/interactiveLoopingLine_20231129/public/pieces/interactiveLoopingLine20231129/notation/ill20231129.ly:88:8:9">
<path transform="translate(405.7691, 15.0107) scale(0.0052, -0.0052)" d="M222 135c53 0 104 -27 104 -86c0 -71 -56 -120 -103 -148c-36 -22 -76 -36 -118 -36c-53 0 -105 27 -105 86c0 71 57 120 104 148c36 22 76 36 118 36z" fill="currentColor"/>
</a>
<rect transform="translate(339.7797, 13.5107)" x="-0.0795" y="-7.8211" width="0.1590" height="5.0635" ry="0.0400" fill="currentColor"/>
<a style="color:inherit;" xlink:href="textedit:///Users/jwy/Documents/OPUS/GitHub/interactiveLoopingLine_20231129/public/pieces/interactiveLoopingLine20231129/notation/ill20231129.ly:81:32:33">
<path transform="translate(338.1491, 11.0107) scale(0.0052, -0.0052)" d="M222 135c53 0 104 -27 104 -86c0 -71 -56 -120 -103 -148c-36 -22 -76 -36 -118 -36c-53 0 -105 27 -105 86c0 71 57 120 104 148c36 22 76 36 118 36z" fill="currentColor"/>
</a>
<rect transform="translate(2.6485, 13.5107)" x="-0.0795" y="-1.7424" width="0.1590" height="10.2776" ry="0.0400" fill="currentColor"/>
<a style="color:inherit;" xlink:href="textedit:///Users/jwy/Documents/OPUS/GitHub/interactiveLoopingLine_20231129/public/pieces/interactiveLoopingLine20231129/notation/ill20231129.ly:66:8:9">
</a>
<a style="color:inherit;" xlink:href="textedit:///Users/jwy/Documents/OPUS/GitHub/interactiveLoopingLine_20231129/public/pieces/interactiveLoopingLine20231129/notation/ill20231129.ly:70:9:10">
<path transform="translate(2.5691, 11.5107) scale(0.0052, -0.0052)" d="M222 135c53 0 104 -27 104 -86c0 -71 -56 -120 -103 -148c-36 -22 -76 -36 -118 -36c-53 0 -105 27 -105 86c0 71 57 120 104 148c36 22 76 36 118 36z" fill="currentColor"/>
</a>
<rect transform="translate(370.5485, 13.5107)" x="-0.0795" y="-3.7424" width="0.1590" height="11.7424" ry="0.0400" fill="currentColor"/>
<a style="color:inherit;" xlink:href="textedit:///Users/jwy/Documents/OPUS/GitHub/interactiveLoopingLine_20231129/public/pieces/interactiveLoopingLine20231129/notation/ill20231129.ly:85:21:22">
<path transform="translate(370.4691, 9.5107) scale(0.0052, -0.0052)" d="M222 135c53 0 104 -27 104 -86c0 -71 -56 -120 -103 -148c-36 -22 -76 -36 -118 -36c-53 0 -105 27 -105 86c0 71 57 120 104 148c36 22 76 36 118 36z" fill="currentColor"/>
</a>
<path transform="translate(365.8791, 7.0507) scale(0.0066, -0.0066)" d="M0 0c0 -198 207 -336 207 -534c0 -71 -16 -142 -42 -208c-4 -7 -10 -11 -17 -11c-12 0 -24 10 -21 25c26 62 41 127 41 194c0 104 -96 209 -168 284h-14v250h14z" fill="currentColor"/>
<rect transform="translate(365.7997, 13.5107)" x="-0.0795" y="-6.5000" width="0.1590" height="8.7424" ry="0.0400" fill="currentColor"/>
<a style="color:inherit;" xlink:href="textedit:///Users/jwy/Documents/OPUS/GitHub/interactiveLoopingLine_20231129/public/pieces/interactiveLoopingLine20231129/notation/ill20231129.ly:83:25:26">
<path transform="translate(364.1691, 16.0107) scale(0.0052, -0.0052)" d="M222 135c53 0 104 -27 104 -86c0 -71 -56 -120 -103 -148c-36 -22 -76 -36 -118 -36c-53 0 -105 27 -105 86c0 71 57 120 104 148c36 22 76 36 118 36z" fill="currentColor"/>
</a>
<rect transform="translate(354.1997, 13.5107)" x="-0.0795" y="-8.5000" width="0.1590" height="8.7424" ry="0.0400" fill="currentColor"/>
<a style="color:inherit;" xlink:href="textedit:///Users/jwy/Documents/OPUS/GitHub/interactiveLoopingLine_20231129/public/pieces/interactiveLoopingLine20231129/notation/ill20231129.ly:83:21:22">
<path transform="translate(352.5691, 14.0107) scale(0.0052, -0.0052)" d="M222 135c53 0 104 -27 104 -86c0 -71 -56 -120 -103 -148c-36 -22 -76 -36 -118 -36c-53 0 -105 27 -105 86c0 71 57 120 104 148c36 22 76 36 118 36z" fill="currentColor"/>
</a>
<rect transform="translate(346.7397, 13.5107)" x="-0.0795" y="-7.8211" width="0.1590" height="10.5635" ry="0.0400" fill="currentColor"/>
<a style="color:inherit;" xlink:href="textedit:///Users/jwy/Documents/OPUS/GitHub/interactiveLoopingLine_20231129/public/pieces/interactiveLoopingLine20231129/notation/ill20231129.ly:81:36:37">
<path transform="translate(345.1091, 16.5107) scale(0.0052, -0.0052)" d="M222 135c53 0 104 -27 104 -86c0 -71 -56 -120 -103 -148c-36 -22 -76 -36 -118 -36c-53 0 -105 27 -105 86c0 71 57 120 104 148c36 22 76 36 118 36z" fill="currentColor"/>
</a>
<rect transform="translate(435.6771, 13.5107)" x="-0.0795" y="-4.2424" width="0.1590" height="10.0411" ry="0.0400" fill="currentColor"/>
<a style="color:inherit;" xlink:href="textedit:///Users/jwy/Documents/OPUS/GitHub/interactiveLoopingLine_20231129/public/pieces/interactiveLoopingLine20231129/notation/ill20231129.ly:91:42:43">
<path transform="translate(435.5976, 9.0107) scale(0.0052, -0.0052)" d="M222 135c53 0 104 -27 104 -86c0 -71 -56 -120 -103 -148c-36 -22 -76 -36 -118 -36c-53 0 -105 27 -105 86c0 71 57 120 104 148c36 22 76 36 118 36z" fill="currentColor"/>
</a>
<rect transform="translate(433.1914, 13.5107)" x="-0.0795" y="-3.2424" width="0.1590" height="9.6417" ry="0.0400" fill="currentColor"/>
<a style="color:inherit;" xlink:href="textedit:///Users/jwy/Documents/OPUS/GitHub/interactiveLoopingLine_20231129/public/pieces/interactiveLoopingLine20231129/notation/ill20231129.ly:91:38:39">
<path transform="translate(433.1119, 10.0107) scale(0.0052, -0.0052)" d="M222 135c53 0 104 -27 104 -86c0 -71 -56 -120 -103 -148c-36 -22 -76 -36 -118 -36c-53 0 -105 27 -105 86c0 71 57 120 104 148c36 22 76 36 118 36z" fill="currentColor"/>
</a>
<a style="color:inherit;" xlink:href="textedit:///Users/jwy/Documents/OPUS/GitHub/interactiveLoopingLine_20231129/public/pieces/interactiveLoopingLine20231129/notation/ill20231129.ly:93:8:9">
<path transform="translate(441.0691, 27.0107) scale(0.0052, -0.0052)" d="M215 114c-50 0 -71 -42 -71 -88c0 -79 60 -140 139 -140c50 0 70 42 70 88c0 79 -59 140 -138 140zM497 0c0 -43 -35 -74 -73 -95c-54 -29 -114 -40 -175 -40s-122 11 -176 40c-38 21 -73 52 -73 95s35 74 73 95c54 29 115 40 176 40s121 -11 175 -40
c38 -21 73 -52 73 -95z" fill="currentColor"/>
</a>
<a style="color:inherit;" xlink:href="textedit:///Users/jwy/Documents/OPUS/GitHub/interactiveLoopingLine_20231129/public/pieces/interactiveLoopingLine20231129/notation/ill20231129.ly:95:8:9">
<path transform="translate(511.9691, 15.5107) scale(0.0052, -0.0052)" d="M222 135c53 0 104 -27 104 -86c0 -71 -56 -120 -103 -148c-36 -22 -76 -36 -118 -36c-53 0 -105 27 -105 86c0 71 57 120 104 148c36 22 76 36 118 36z" fill="currentColor"/>
</a>
<rect transform="translate(438.1628, 13.5107)" x="-0.0795" y="-6.2424" width="0.1590" height="11.4404" ry="0.0400" fill="currentColor"/>
<a style="color:inherit;" xlink:href="textedit:///Users/jwy/Documents/OPUS/GitHub/interactiveLoopingLine_20231129/public/pieces/interactiveLoopingLine20231129/notation/ill20231129.ly:91:47:48">
<path transform="translate(438.0833, 7.0107) scale(0.0052, -0.0052)" d="M222 135c53 0 104 -27 104 -86c0 -71 -56 -120 -103 -148c-36 -22 -76 -36 -118 -36c-53 0 -105 27 -105 86c0 71 57 120 104 148c36 22 76 36 118 36z" fill="currentColor"/>
</a>
<rect transform="translate(513.5997, 13.5107)" x="-0.0795" y="-7.0000" width="0.1590" height="8.7424" ry="0.0400" fill="currentColor"/>
<a style="color:inherit;" xlink:href="textedit:///Users/jwy/Documents/OPUS/GitHub/interactiveLoopingLine_20231129/public/pieces/interactiveLoopingLine20231129/notation/ill20231129.ly:91:26:27">
<path transform="translate(425.6548, 13.0107) scale(0.0052, -0.0052)" d="M222 135c53 0 104 -27 104 -86c0 -71 -56 -120 -103 -148c-36 -22 -76 -36 -118 -36c-53 0 -105 27 -105 86c0 71 57 120 104 148c36 22 76 36 118 36z" fill="currentColor"/>
</a>
<a style="color:inherit;" xlink:href="textedit:///Users/jwy/Documents/OPUS/GitHub/interactiveLoopingLine_20231129/public/pieces/interactiveLoopingLine20231129/notation/ill20231129.ly:91:30:31">
<path transform="translate(428.1405, 12.0107) scale(0.0052, -0.0052)" d="M222 135c53 0 104 -27 104 -86c0 -71 -56 -120 -103 -148c-36 -22 -76 -36 -118 -36c-53 0 -105 27 -105 86c0 71 57 120 104 148c36 22 76 36 118 36z" fill="currentColor"/>
</a>
<rect transform="translate(6.9985, 13.5107)" x="-0.0795" y="2.2576" width="0.1590" height="8.2071" ry="0.0400" fill="currentColor"/>
<rect transform="translate(425.7343, 13.5107)" x="-0.0795" y="-0.2424" width="0.1590" height="8.4437" ry="0.0400" fill="currentColor"/>
<rect transform="translate(423.2485, 13.5107)" x="-0.0795" y="0.7576" width="0.1590" height="8.0443" ry="0.0400" fill="currentColor"/>
<a style="color:inherit;" xlink:href="textedit:///Users/jwy/Documents/OPUS/GitHub/interactiveLoopingLine_20231129/public/pieces/interactiveLoopingLine20231129/notation/ill20231129.ly:91:21:22">
<path transform="translate(423.1691, 14.0107) scale(0.0052, -0.0052)" d="M222 135c53 0 104 -27 104 -86c0 -71 -56 -120 -103 -148c-36 -22 -76 -36 -118 -36c-53 0 -105 27 -105 86c0 71 57 120 104 148c36 22 76 36 118 36z" fill="currentColor"/>
</a>
<a style="color:inherit;" xlink:href="textedit:///Users/jwy/Documents/OPUS/GitHub/interactiveLoopingLine_20231129/public/pieces/interactiveLoopingLine20231129/notation/ill20231129.ly:91:34:35">
<path transform="translate(430.6262, 11.0107) scale(0.0052, -0.0052)" d="M222 135c53 0 104 -27 104 -86c0 -71 -56 -120 -103 -148c-36 -22 -76 -36 -118 -36c-53 0 -105 27 -105 86c0 71 57 120 104 148c36 22 76 36 118 36z" fill="currentColor"/>
</a>
<path transform="translate(9.3828, 15.5107) scale(0.0066, -0.0066)" d="M0 0c0 32 25 57 57 57s57 -25 57 -57s-25 -57 -57 -57s-57 25 -57 57z" fill="currentColor"/>
<rect transform="translate(430.7057, 13.5107)" x="-0.0795" y="-2.2424" width="0.1590" height="9.2424" ry="0.0400" fill="currentColor"/>
<a style="color:inherit;" xlink:href="textedit:///Users/jwy/Documents/OPUS/GitHub/interactiveLoopingLine_20231129/public/pieces/interactiveLoopingLine20231129/notation/ill20231129.ly:70:15:16">
<path transform="translate(6.9191, 15.5107) scale(0.0052, -0.0052)" d="M222 135c53 0 104 -27 104 -86c0 -71 -56 -120 -103 -148c-36 -22 -76 -36 -118 -36c-53 0 -105 27 -105 86c0 71 57 120 104 148c36 22 76 36 118 36z" fill="currentColor"/>
</a>
<rect transform="translate(428.2200, 13.5107)" x="-0.0795" y="-1.2424" width="0.1590" height="8.8430" ry="0.0400" fill="currentColor"/>
</svg>
