<svg xmlns="http://www.w3.org/2000/svg" xmlns:xlink="http://www.w3.org/1999/xlink" version="1.2" width="1200.00mm" height="100.00mm" viewBox="0 0 682.8661 56.9055">
<style type="text/css">
<![CDATA[
tspan { white-space: pre; }
]]>
</style>
<!-- Page: 1/1 -->
<g transform="translate(0.5691, 32.3860)">
<line stroke-linejoin="round" stroke-linecap="round" stroke-width="0.2371" stroke="currentColor" x1="0.1186" y1="0" x2="415.7369" y2="0"/>
</g>
<g transform="translate(0.5691, 27.3860)">
<line stroke-linejoin="round" stroke-linecap="round" stroke-width="0.2371" stroke="currentColor" x1="0.1186" y1="0" x2="415.7369" y2="0"/>
</g>
<g transform="translate(0.5691, 22.3860)">
<line stroke-linejoin="round" stroke-linecap="round" stroke-width="0.2371" stroke="currentColor" x1="0.1186" y1="0" x2="415.7369" y2="0"/>
</g>
<g transform="translate(0.5691, 17.3860)">
<line stroke-linejoin="round" stroke-linecap="round" stroke-width="0.2371" stroke="currentColor" x1="0.1186" y1="0" x2="415.7369" y2="0"/>
</g>
<g transform="translate(0.5691, 12.3860)">
<line stroke-linejoin="round" stroke-linecap="round" stroke-width="0.2371" stroke="currentColor" x1="0.1186" y1="0" x2="415.7369" y2="0"/>
</g>
<a style="color:inherit;" xlink:href="textedit://C:/Users/jwloy/Documents/GitHub/interactiveLoopingLine_20231129/public/pieces/interactiveLoopingLine20231129/notation/proportional%20spacing%20template_withStaffLines.ly:64:74:75">
<g transform="translate(246.3572, 22.3860)">
<path transform="scale(0.0200, -0.0200)" d="M76 -250l116 327c-35 -12 -70 -23 -107 -23c-46 0 -87 34 -87 80c0 39 31 71 71 71c26 0 49 -16 57 -40c10 -28 6 -60 35 -60c17 0 58 54 65 70c5 11 20 10 24 0l-126 -425c-7 -6 -16 -9 -24 -9s-17 3 -24 9z" fill="currentColor"/>
</g>
</a>
<g transform="translate(245.0031, 22.3860)">
<rect x="-0.1541" y="-15.0000" width="0.3083" height="24.2193" ry="0.0400" fill="currentColor"/>
</g>
<a style="color:inherit;" xlink:href="textedit://C:/Users/jwloy/Documents/GitHub/interactiveLoopingLine_20231129/public/pieces/interactiveLoopingLine20231129/notation/proportional%20spacing%20template_withStaffLines.ly:64:66:67">
<g transform="translate(239.9751, 32.3860)">
<path transform="scale(0.0159, -0.0159)" d="M222 135c53 0 104 -27 104 -86c0 -71 -56 -120 -103 -148c-36 -22 -76 -36 -118 -36c-53 0 -105 27 -105 86c0 71 57 120 104 148c36 22 76 36 118 36z" fill="currentColor"/>
</g>
</a>
<g transform="translate(236.2590, 19.8860)">
<path transform="scale(0.0200, -0.0200)" d="M0 0c0 32 25 57 57 57s57 -25 57 -57s-25 -57 -57 -57s-57 25 -57 57z" fill="currentColor"/>
</g>
<a style="color:inherit;" xlink:href="textedit://C:/Users/jwloy/Documents/GitHub/interactiveLoopingLine_20231129/public/pieces/interactiveLoopingLine20231129/notation/proportional%20spacing%20template_withStaffLines.ly:64:61:62">
<g transform="translate(228.9751, 22.3860)">
<path transform="scale(0.0200, -0.0200)" d="M76 -250l116 327c-35 -12 -70 -23 -107 -23c-46 0 -87 34 -87 80c0 39 31 71 71 71c26 0 49 -16 57 -40c10 -28 6 -60 35 -60c17 0 58 54 65 70c5 11 20 10 24 0l-126 -425c-7 -6 -16 -9 -24 -9s-17 3 -24 9z" fill="currentColor"/>
</g>
</a>
<a style="color:inherit;" xlink:href="textedit://C:/Users/jwloy/Documents/GitHub/interactiveLoopingLine_20231129/public/pieces/interactiveLoopingLine20231129/notation/proportional%20spacing%20template_withStaffLines.ly:64:14:15">
<g transform="translate(168.3184, 32.3860)">
<path transform="scale(0.0159, -0.0159)" d="M222 135c53 0 104 -27 104 -86c0 -71 -56 -120 -103 -148c-36 -22 -76 -36 -118 -36c-53 0 -105 27 -105 86c0 71 57 120 104 148c36 22 76 36 118 36z" fill="currentColor"/>
</g>
</a>
<g transform="translate(283.7494, 22.3860)">
<rect x="-0.1541" y="-15.0000" width="0.3083" height="24.2193" ry="0.0400" fill="currentColor"/>
</g>
<a style="color:inherit;" xlink:href="textedit://C:/Users/jwloy/Documents/GitHub/interactiveLoopingLine_20231129/public/pieces/interactiveLoopingLine20231129/notation/proportional%20spacing%20template_withStaffLines.ly:64:94:95">
<g transform="translate(278.7214, 32.3860)">
<path transform="scale(0.0159, -0.0159)" d="M222 135c53 0 104 -27 104 -86c0 -71 -56 -120 -103 -148c-36 -22 -76 -36 -118 -36c-53 0 -105 27 -105 86c0 71 57 120 104 148c36 22 76 36 118 36z" fill="currentColor"/>
</g>
</a>
<g transform="translate(277.3673, 22.3860)">
<rect x="-0.1541" y="-15.0000" width="0.3083" height="24.2193" ry="0.0400" fill="currentColor"/>
</g>
<a style="color:inherit;" xlink:href="textedit://C:/Users/jwloy/Documents/GitHub/interactiveLoopingLine_20231129/public/pieces/interactiveLoopingLine20231129/notation/proportional%20spacing%20template_withStaffLines.ly:64:89:90">
<g transform="translate(272.3393, 32.3860)">
<path transform="scale(0.0159, -0.0159)" d="M222 135c53 0 104 -27 104 -86c0 -71 -56 -120 -103 -148c-36 -22 -76 -36 -118 -36c-53 0 -105 27 -105 86c0 71 57 120 104 148c36 22 76 36 118 36z" fill="currentColor"/>
</g>
</a>
<a style="color:inherit;" xlink:href="textedit://C:/Users/jwloy/Documents/GitHub/interactiveLoopingLine_20231129/public/pieces/interactiveLoopingLine20231129/notation/proportional%20spacing%20template_withStaffLines.ly:64:85:86">
<g transform="translate(263.7393, 22.3860)">
<path transform="scale(0.0200, -0.0200)" d="M76 -250l116 327c-35 -12 -70 -23 -107 -23c-46 0 -87 34 -87 80c0 39 31 71 71 71c26 0 49 -16 57 -40c10 -28 6 -60 35 -60c17 0 58 54 65 70c5 11 20 10 24 0l-126 -425c-7 -6 -16 -9 -24 -9s-17 3 -24 9z" fill="currentColor"/>
</g>
</a>
<g transform="translate(259.9852, 22.3860)">
<rect x="-0.1541" y="-16.0814" width="0.3083" height="25.3007" ry="0.0400" fill="currentColor"/>
</g>
<a style="color:inherit;" xlink:href="textedit://C:/Users/jwloy/Documents/GitHub/interactiveLoopingLine_20231129/public/pieces/interactiveLoopingLine20231129/notation/proportional%20spacing%20template_withStaffLines.ly:64:78:79">
<g transform="translate(254.9572, 32.3860)">
<path transform="scale(0.0159, -0.0159)" d="M222 135c53 0 104 -27 104 -86c0 -71 -56 -120 -103 -148c-36 -22 -76 -36 -118 -36c-53 0 -105 27 -105 86c0 71 57 120 104 148c36 22 76 36 118 36z" fill="currentColor"/>
</g>
</a>
<g transform="translate(201.2926, 22.3860)">
<rect x="-0.1541" y="-16.0814" width="0.3083" height="25.3007" ry="0.0400" fill="currentColor"/>
</g>
<a style="color:inherit;" xlink:href="textedit://C:/Users/jwloy/Documents/GitHub/interactiveLoopingLine_20231129/public/pieces/interactiveLoopingLine20231129/notation/proportional%20spacing%20template_withStaffLines.ly:64:41:42">
<g transform="translate(196.2647, 32.3860)">
<path transform="scale(0.0159, -0.0159)" d="M222 135c53 0 104 -27 104 -86c0 -71 -56 -120 -103 -148c-36 -22 -76 -36 -118 -36c-53 0 -105 27 -105 86c0 71 57 120 104 148c36 22 76 36 118 36z" fill="currentColor"/>
</g>
</a>
<g transform="translate(194.1105, 22.3860)">
<rect x="-0.1541" y="-16.0814" width="0.3083" height="25.3007" ry="0.0400" fill="currentColor"/>
</g>
<a style="color:inherit;" xlink:href="textedit://C:/Users/jwloy/Documents/GitHub/interactiveLoopingLine_20231129/public/pieces/interactiveLoopingLine20231129/notation/proportional%20spacing%20template_withStaffLines.ly:64:38:39">
<g transform="translate(189.0826, 32.3860)">
<path transform="scale(0.0159, -0.0159)" d="M222 135c53 0 104 -27 104 -86c0 -71 -56 -120 -103 -148c-36 -22 -76 -36 -118 -36c-53 0 -105 27 -105 86c0 71 57 120 104 148c36 22 76 36 118 36z" fill="currentColor"/>
</g>
</a>
<g transform="translate(186.9284, 22.3860)">
<rect x="-0.1541" y="-16.0814" width="0.3083" height="25.3007" ry="0.0400" fill="currentColor"/>
</g>
<a style="color:inherit;" xlink:href="textedit://C:/Users/jwloy/Documents/GitHub/interactiveLoopingLine_20231129/public/pieces/interactiveLoopingLine20231129/notation/proportional%20spacing%20template_withStaffLines.ly:64:34:35">
<g transform="translate(181.9005, 32.3860)">
<path transform="scale(0.0159, -0.0159)" d="M222 135c53 0 104 -27 104 -86c0 -71 -56 -120 -103 -148c-36 -22 -76 -36 -118 -36c-53 0 -105 27 -105 86c0 71 57 120 104 148c36 22 76 36 118 36z" fill="currentColor"/>
</g>
</a>
<g transform="translate(173.3463, 22.3860)">
<rect x="-0.1541" y="-17.5000" width="0.3083" height="26.7193" ry="0.0400" fill="currentColor"/>
</g>
<g transform="translate(227.6210, 22.3860)">
<rect x="-0.1541" y="-15.0000" width="0.3083" height="24.2193" ry="0.0400" fill="currentColor"/>
</g>
<a style="color:inherit;" xlink:href="textedit://C:/Users/jwloy/Documents/GitHub/interactiveLoopingLine_20231129/public/pieces/interactiveLoopingLine20231129/notation/proportional%20spacing%20template_withStaffLines.ly:64:56:57">
<g transform="translate(222.5931, 32.3860)">
<path transform="scale(0.0159, -0.0159)" d="M222 135c53 0 104 -27 104 -86c0 -71 -56 -120 -103 -148c-36 -22 -76 -36 -118 -36c-53 0 -105 27 -105 86c0 71 57 120 104 148c36 22 76 36 118 36z" fill="currentColor"/>
</g>
</a>
<g transform="translate(221.2389, 22.3860)">
<rect x="-0.1541" y="-15.0000" width="0.3083" height="24.2193" ry="0.0400" fill="currentColor"/>
</g>
<a style="color:inherit;" xlink:href="textedit://C:/Users/jwloy/Documents/GitHub/interactiveLoopingLine_20231129/public/pieces/interactiveLoopingLine20231129/notation/proportional%20spacing%20template_withStaffLines.ly:64:54:55">
<g transform="translate(216.2110, 32.3860)">
<path transform="scale(0.0159, -0.0159)" d="M222 135c53 0 104 -27 104 -86c0 -71 -56 -120 -103 -148c-36 -22 -76 -36 -118 -36c-53 0 -105 27 -105 86c0 71 57 120 104 148c36 22 76 36 118 36z" fill="currentColor"/>
</g>
</a>
<g transform="translate(214.8568, 22.3860)">
<rect x="-0.1541" y="-15.0000" width="0.3083" height="24.2193" ry="0.0400" fill="currentColor"/>
</g>
<a style="color:inherit;" xlink:href="textedit://C:/Users/jwloy/Documents/GitHub/interactiveLoopingLine_20231129/public/pieces/interactiveLoopingLine20231129/notation/proportional%20spacing%20template_withStaffLines.ly:64:52:53">
<g transform="translate(209.8289, 32.3860)">
<path transform="scale(0.0159, -0.0159)" d="M222 135c53 0 104 -27 104 -86c0 -71 -56 -120 -103 -148c-36 -22 -76 -36 -118 -36c-53 0 -105 27 -105 86c0 71 57 120 104 148c36 22 76 36 118 36z" fill="currentColor"/>
</g>
</a>
<g transform="translate(208.4747, 22.3860)">
<rect x="-0.1541" y="-15.0000" width="0.3083" height="24.2193" ry="0.0400" fill="currentColor"/>
</g>
<a style="color:inherit;" xlink:href="textedit://C:/Users/jwloy/Documents/GitHub/interactiveLoopingLine_20231129/public/pieces/interactiveLoopingLine20231129/notation/proportional%20spacing%20template_withStaffLines.ly:64:47:48">
<g transform="translate(203.4468, 32.3860)">
<path transform="scale(0.0159, -0.0159)" d="M222 135c53 0 104 -27 104 -86c0 -71 -56 -120 -103 -148c-36 -22 -76 -36 -118 -36c-53 0 -105 27 -105 86c0 71 57 120 104 148c36 22 76 36 118 36z" fill="currentColor"/>
</g>
</a>
<g transform="translate(380.7062, 22.3860)">
<rect x="-0.1541" y="-17.5000" width="0.3083" height="26.7193" ry="0.0400" fill="currentColor"/>
</g>
<a style="color:inherit;" xlink:href="textedit://C:/Users/jwloy/Documents/GitHub/interactiveLoopingLine_20231129/public/pieces/interactiveLoopingLine20231129/notation/proportional%20spacing%20template_withStaffLines.ly:65:20:21">
<g transform="translate(375.6782, 32.3860)">
<path transform="scale(0.0159, -0.0159)" d="M222 135c53 0 104 -27 104 -86c0 -71 -56 -120 -103 -148c-36 -22 -76 -36 -118 -36c-53 0 -105 27 -105 86c0 71 57 120 104 148c36 22 76 36 118 36z" fill="currentColor"/>
</g>
</a>
<g transform="translate(367.1241, 22.3860)">
<rect x="-0.1541" y="-17.5000" width="0.3083" height="26.7193" ry="0.0400" fill="currentColor"/>
</g>
<a style="color:inherit;" xlink:href="textedit://C:/Users/jwloy/Documents/GitHub/interactiveLoopingLine_20231129/public/pieces/interactiveLoopingLine20231129/notation/proportional%20spacing%20template_withStaffLines.ly:65:18:19">
<g transform="translate(362.0961, 32.3860)">
<path transform="scale(0.0159, -0.0159)" d="M222 135c53 0 104 -27 104 -86c0 -71 -56 -120 -103 -148c-36 -22 -76 -36 -118 -36c-53 0 -105 27 -105 86c0 71 57 120 104 148c36 22 76 36 118 36z" fill="currentColor"/>
</g>
</a>
<g transform="translate(353.5420, 22.3860)">
<rect x="-0.1541" y="-17.5000" width="0.3083" height="26.7193" ry="0.0400" fill="currentColor"/>
</g>
<a style="color:inherit;" xlink:href="textedit://C:/Users/jwloy/Documents/GitHub/interactiveLoopingLine_20231129/public/pieces/interactiveLoopingLine20231129/notation/proportional%20spacing%20template_withStaffLines.ly:65:16:17">
<g transform="translate(348.5140, 32.3860)">
<path transform="scale(0.0159, -0.0159)" d="M222 135c53 0 104 -27 104 -86c0 -71 -56 -120 -103 -148c-36 -22 -76 -36 -118 -36c-53 0 -105 27 -105 86c0 71 57 120 104 148c36 22 76 36 118 36z" fill="currentColor"/>
</g>
</a>
<g transform="translate(339.9599, 22.3860)">
<rect x="-0.1541" y="-17.5000" width="0.3083" height="26.7193" ry="0.0400" fill="currentColor"/>
</g>
<a style="color:inherit;" xlink:href="textedit://C:/Users/jwloy/Documents/GitHub/interactiveLoopingLine_20231129/public/pieces/interactiveLoopingLine20231129/notation/proportional%20spacing%20template_withStaffLines.ly:65:14:15">
<g transform="translate(334.9319, 32.3860)">
<path transform="scale(0.0159, -0.0159)" d="M222 135c53 0 104 -27 104 -86c0 -71 -56 -120 -103 -148c-36 -22 -76 -36 -118 -36c-53 0 -105 27 -105 86c0 71 57 120 104 148c36 22 76 36 118 36z" fill="currentColor"/>
</g>
</a>
<a style="color:inherit;" xlink:href="textedit://C:/Users/jwloy/Documents/GitHub/interactiveLoopingLine_20231129/public/pieces/interactiveLoopingLine20231129/notation/proportional%20spacing%20template_withStaffLines.ly:65:24:25">
<g transform="translate(402.8424, 32.3860)">
<path transform="scale(0.0159, -0.0159)" d="M222 135c53 0 104 -27 104 -86c0 -71 -56 -120 -103 -148c-36 -22 -76 -36 -118 -36c-53 0 -105 27 -105 86c0 71 57 120 104 148c36 22 76 36 118 36z" fill="currentColor"/>
</g>
</a>
<a style="color:inherit;" xlink:href="textedit://C:/Users/jwloy/Documents/GitHub/interactiveLoopingLine_20231129/public/pieces/interactiveLoopingLine20231129/notation/proportional%20spacing%20template_withStaffLines.ly:64:21:22">
<g transform="translate(191.9254, 6.9068)">
<text font-family="serif" font-style="italic" font-size="8.7314" text-anchor="start" fill="currentColor">
<tspan>3</tspan>
</text>
</g>
</a>
<a style="color:inherit;" xlink:href="textedit://C:/Users/jwloy/Documents/GitHub/interactiveLoopingLine_20231129/public/pieces/interactiveLoopingLine20231129/notation/proportional%20spacing%20template_withStaffLines.ly:63:26:27">
<g transform="translate(34.1750, 4.0046)">
<line stroke-linejoin="round" stroke-linecap="round" stroke-width="0.3794" stroke="currentColor" x1="15.6725" y1="-0.0000" x2="15.6725" y2="3.5000"/>
</g>
<g transform="translate(34.1750, 4.0046)">
<line stroke-linejoin="round" stroke-linecap="round" stroke-width="0.3794" stroke="currentColor" x1="-1.0000" y1="-0.0000" x2="-1.0000" y2="3.5000"/>
</g>
<g transform="translate(34.1750, 4.0046)">
<line stroke-linejoin="round" stroke-linecap="round" stroke-width="0.3794" stroke="currentColor" x1="15.6725" y1="-0.0000" x2="10.1214" y2="-0.0000"/>
</g>
<g transform="translate(34.1750, 4.0046)">
<line stroke-linejoin="round" stroke-linecap="round" stroke-width="0.3794" stroke="currentColor" x1="-1.0000" y1="-0.0000" x2="4.7511" y2="-0.0000"/>
</g>
</a>
<a style="color:inherit;" xlink:href="textedit://C:/Users/jwloy/Documents/GitHub/interactiveLoopingLine_20231129/public/pieces/interactiveLoopingLine20231129/notation/proportional%20spacing%20template_withStaffLines.ly:63:26:27">
<g transform="translate(39.3260, 6.9068)">
<text font-family="serif" font-style="italic" font-size="8.7314" text-anchor="start" fill="currentColor">
<tspan>3</tspan>
</text>
</g>
</a>
<g transform="translate(34.1750, 6.3046)">
<polygon stroke-linejoin="round" stroke-linecap="round" stroke-width="0.0800" fill="currentColor" stroke="currentColor" points="14.6325 -1.1600 14.6325 1.1600 0.0400 1.1600 0.0400 -1.1600"/>
</g>
<a style="color:inherit;" xlink:href="textedit://C:/Users/jwloy/Documents/GitHub/interactiveLoopingLine_20231129/public/pieces/interactiveLoopingLine20231129/notation/proportional%20spacing%20template_withStaffLines.ly:63:75:76">
<g transform="translate(78.7217, 7.3860)">
<polygon stroke-linejoin="round" stroke-linecap="round" stroke-width="0.0800" fill="currentColor" stroke="currentColor" points="13.7962 -1.1600 13.7962 1.1600 0.0400 1.1600 0.0400 -1.1600"/>
</g>
<g transform="translate(91.3038, 11.3046)">
<polygon stroke-linejoin="round" stroke-linecap="round" stroke-width="0.0800" fill="currentColor" stroke="currentColor" points="1.2141 -1.1600 1.2141 1.1600 0.0400 1.1600 0.0400 -1.1600"/>
</g>
</a>
<g transform="translate(55.7212, 7.3860)">
<polygon stroke-linejoin="round" stroke-linecap="round" stroke-width="0.0800" fill="currentColor" stroke="currentColor" points="19.4146 -1.1600 19.4146 1.1600 0.0400 1.1600 0.0400 -1.1600"/>
</g>
<g transform="translate(55.7212, 11.3046)">
<polygon stroke-linejoin="round" stroke-linecap="round" stroke-width="0.0800" fill="currentColor" stroke="currentColor" points="19.4146 -1.1600 19.4146 1.1600 0.0400 1.1600 0.0400 -1.1600"/>
</g>
<a style="color:inherit;" xlink:href="textedit://C:/Users/jwloy/Documents/GitHub/interactiveLoopingLine_20231129/public/pieces/interactiveLoopingLine20231129/notation/proportional%20spacing%20template_withStaffLines.ly:63:87:88">
<g transform="translate(96.1038, 6.3046)">
<polygon stroke-linejoin="round" stroke-linecap="round" stroke-width="0.0800" fill="currentColor" stroke="currentColor" points="11.3962 -1.1600 11.3962 1.1600 0.0400 1.1600 0.0400 -1.1600"/>
</g>
</a>
<a style="color:inherit;" xlink:href="textedit://C:/Users/jwloy/Documents/GitHub/interactiveLoopingLine_20231129/public/pieces/interactiveLoopingLine20231129/notation/proportional%20spacing%20template_withStaffLines.ly:63:98:99">
<g transform="translate(113.4859, 7.3860)">
<polygon stroke-linejoin="round" stroke-linecap="round" stroke-width="0.0800" fill="currentColor" stroke="currentColor" points="17.7783 -1.1600 17.7783 1.1600 0.0400 1.1600 0.0400 -1.1600"/>
</g>
<g transform="translate(124.6138, 11.3046)">
<polygon stroke-linejoin="round" stroke-linecap="round" stroke-width="0.0800" fill="currentColor" stroke="currentColor" points="6.6504 -1.1600 6.6504 1.1600 0.0400 1.1600 0.0400 -1.1600"/>
</g>
</a>
<a style="color:inherit;" xlink:href="textedit://C:/Users/jwloy/Documents/GitHub/interactiveLoopingLine_20231129/public/pieces/interactiveLoopingLine20231129/notation/proportional%20spacing%20template_withStaffLines.ly:63:117:118">
<g transform="translate(137.3780, 7.3860)">
<polygon stroke-linejoin="round" stroke-linecap="round" stroke-width="0.0800" fill="currentColor" stroke="currentColor" points="10.5045 -1.1600 10.5045 1.1600 0.0400 1.1600 0.0400 -1.1600"/>
</g>
<g transform="translate(137.3780, 11.3046)">
<polygon stroke-linejoin="round" stroke-linecap="round" stroke-width="0.0800" fill="currentColor" stroke="currentColor" points="6.6504 -1.1600 6.6504 1.1600 0.0400 1.1600 0.0400 -1.1600"/>
</g>
</a>
<a style="color:inherit;" xlink:href="textedit://C:/Users/jwloy/Documents/GitHub/interactiveLoopingLine_20231129/public/pieces/interactiveLoopingLine20231129/notation/proportional%20spacing%20template_withStaffLines.ly:64:21:22">
<g transform="translate(186.7743, 4.0046)">
<line stroke-linejoin="round" stroke-linecap="round" stroke-width="0.3794" stroke="currentColor" x1="15.6725" y1="-0.0000" x2="15.6725" y2="3.5000"/>
</g>
<g transform="translate(186.7743, 4.0046)">
<line stroke-linejoin="round" stroke-linecap="round" stroke-width="0.3794" stroke="currentColor" x1="-1.0000" y1="-0.0000" x2="-1.0000" y2="3.5000"/>
</g>
<g transform="translate(186.7743, 4.0046)">
<line stroke-linejoin="round" stroke-linecap="round" stroke-width="0.3794" stroke="currentColor" x1="15.6725" y1="-0.0000" x2="10.1214" y2="-0.0000"/>
</g>
<g transform="translate(186.7743, 4.0046)">
<line stroke-linejoin="round" stroke-linecap="round" stroke-width="0.3794" stroke="currentColor" x1="-1.0000" y1="-0.0000" x2="4.7511" y2="-0.0000"/>
</g>
</a>
<g transform="translate(186.7743, 6.3046)">
<polygon stroke-linejoin="round" stroke-linecap="round" stroke-width="0.0800" fill="currentColor" stroke="currentColor" points="14.6325 -1.1600 14.6325 1.1600 0.0400 1.1600 0.0400 -1.1600"/>
</g>
<a style="color:inherit;" xlink:href="textedit://C:/Users/jwloy/Documents/GitHub/interactiveLoopingLine_20231129/public/pieces/interactiveLoopingLine20231129/notation/proportional%20spacing%20template_withStaffLines.ly:64:65:66">
<g transform="translate(231.3210, 7.3860)">
<polygon stroke-linejoin="round" stroke-linecap="round" stroke-width="0.0800" fill="currentColor" stroke="currentColor" points="13.7962 -1.1600 13.7962 1.1600 0.0400 1.1600 0.0400 -1.1600"/>
</g>
<g transform="translate(243.9031, 11.3046)">
<polygon stroke-linejoin="round" stroke-linecap="round" stroke-width="0.0800" fill="currentColor" stroke="currentColor" points="1.2141 -1.1600 1.2141 1.1600 0.0400 1.1600 0.0400 -1.1600"/>
</g>
</a>
<g transform="translate(208.3206, 7.3860)">
<polygon stroke-linejoin="round" stroke-linecap="round" stroke-width="0.0800" fill="currentColor" stroke="currentColor" points="19.4146 -1.1600 19.4146 1.1600 0.0400 1.1600 0.0400 -1.1600"/>
</g>
<g transform="translate(208.3206, 11.3046)">
<polygon stroke-linejoin="round" stroke-linecap="round" stroke-width="0.0800" fill="currentColor" stroke="currentColor" points="19.4146 -1.1600 19.4146 1.1600 0.0400 1.1600 0.0400 -1.1600"/>
</g>
<a style="color:inherit;" xlink:href="textedit://C:/Users/jwloy/Documents/GitHub/interactiveLoopingLine_20231129/public/pieces/interactiveLoopingLine20231129/notation/proportional%20spacing%20template_withStaffLines.ly:64:77:78">
<g transform="translate(248.7031, 6.3046)">
<polygon stroke-linejoin="round" stroke-linecap="round" stroke-width="0.0800" fill="currentColor" stroke="currentColor" points="11.3962 -1.1600 11.3962 1.1600 0.0400 1.1600 0.0400 -1.1600"/>
</g>
</a>
<a style="color:inherit;" xlink:href="textedit://C:/Users/jwloy/Documents/GitHub/interactiveLoopingLine_20231129/public/pieces/interactiveLoopingLine20231129/notation/proportional%20spacing%20template_withStaffLines.ly:64:88:89">
<g transform="translate(266.0852, 7.3860)">
<polygon stroke-linejoin="round" stroke-linecap="round" stroke-width="0.0800" fill="currentColor" stroke="currentColor" points="17.7783 -1.1600 17.7783 1.1600 0.0400 1.1600 0.0400 -1.1600"/>
</g>
<g transform="translate(277.2132, 11.3046)">
<polygon stroke-linejoin="round" stroke-linecap="round" stroke-width="0.0800" fill="currentColor" stroke="currentColor" points="6.6504 -1.1600 6.6504 1.1600 0.0400 1.1600 0.0400 -1.1600"/>
</g>
</a>
<a style="color:inherit;" xlink:href="textedit://C:/Users/jwloy/Documents/GitHub/interactiveLoopingLine_20231129/public/pieces/interactiveLoopingLine20231129/notation/proportional%20spacing%20template_withStaffLines.ly:64:107:108">
<g transform="translate(289.9773, 7.3860)">
<polygon stroke-linejoin="round" stroke-linecap="round" stroke-width="0.0800" fill="currentColor" stroke="currentColor" points="10.5045 -1.1600 10.5045 1.1600 0.0400 1.1600 0.0400 -1.1600"/>
</g>
<g transform="translate(289.9773, 11.3046)">
<polygon stroke-linejoin="round" stroke-linecap="round" stroke-width="0.0800" fill="currentColor" stroke="currentColor" points="6.6504 -1.1600 6.6504 1.1600 0.0400 1.1600 0.0400 -1.1600"/>
</g>
</a>
<g transform="translate(394.2883, 22.3860)">
<rect x="-0.1541" y="-17.5000" width="0.3083" height="26.7193" ry="0.0400" fill="currentColor"/>
</g>
<a style="color:inherit;" xlink:href="textedit://C:/Users/jwloy/Documents/GitHub/interactiveLoopingLine_20231129/public/pieces/interactiveLoopingLine20231129/notation/proportional%20spacing%20template_withStaffLines.ly:65:22:23">
<g transform="translate(389.2603, 32.3860)">
<path transform="scale(0.0159, -0.0159)" d="M222 135c53 0 104 -27 104 -86c0 -71 -56 -120 -103 -148c-36 -22 -76 -36 -118 -36c-53 0 -105 27 -105 86c0 71 57 120 104 148c36 22 76 36 118 36z" fill="currentColor"/>
</g>
</a>
<a style="color:inherit;" xlink:href="textedit://C:/Users/jwloy/Documents/GitHub/interactiveLoopingLine_20231129/public/pieces/interactiveLoopingLine20231129/notation/proportional%20spacing%20template_withStaffLines.ly:64:108:109">
<g transform="translate(291.4856, 32.3860)">
<path transform="scale(0.0159, -0.0159)" d="M222 135c53 0 104 -27 104 -86c0 -71 -56 -120 -103 -148c-36 -22 -76 -36 -118 -36c-53 0 -105 27 -105 86c0 71 57 120 104 148c36 22 76 36 118 36z" fill="currentColor"/>
</g>
</a>
<a style="color:inherit;" xlink:href="textedit://C:/Users/jwloy/Documents/GitHub/interactiveLoopingLine_20231129/public/pieces/interactiveLoopingLine20231129/notation/proportional%20spacing%20template_withStaffLines.ly:64:111:112">
<g transform="translate(297.8677, 22.3860)">
<path transform="scale(0.0200, -0.0200)" d="M76 -250l116 327c-35 -12 -70 -23 -107 -23c-46 0 -87 34 -87 80c0 39 31 71 71 71c26 0 49 -16 57 -40c10 -28 6 -60 35 -60c17 0 58 54 65 70c5 11 20 10 24 0l-126 -425c-7 -6 -16 -9 -24 -9s-17 3 -24 9z" fill="currentColor"/>
</g>
</a>
<g transform="translate(296.5136, 22.3860)">
<rect x="-0.1541" y="-15.0000" width="0.3083" height="24.2193" ry="0.0400" fill="currentColor"/>
</g>
<g transform="translate(290.1315, 22.3860)">
<rect x="-0.1541" y="-15.0000" width="0.3083" height="24.2193" ry="0.0400" fill="currentColor"/>
</g>
<a style="color:inherit;" xlink:href="textedit://C:/Users/jwloy/Documents/GitHub/interactiveLoopingLine_20231129/public/pieces/interactiveLoopingLine20231129/notation/proportional%20spacing%20template_withStaffLines.ly:64:102:103">
<g transform="translate(285.1035, 32.3860)">
<path transform="scale(0.0159, -0.0159)" d="M222 135c53 0 104 -27 104 -86c0 -71 -56 -120 -103 -148c-36 -22 -76 -36 -118 -36c-53 0 -105 27 -105 86c0 71 57 120 104 148c36 22 76 36 118 36z" fill="currentColor"/>
</g>
</a>
<g transform="translate(326.3778, 22.3860)">
<rect x="-0.1541" y="-17.5000" width="0.3083" height="26.7193" ry="0.0400" fill="currentColor"/>
</g>
<a style="color:inherit;" xlink:href="textedit://C:/Users/jwloy/Documents/GitHub/interactiveLoopingLine_20231129/public/pieces/interactiveLoopingLine20231129/notation/proportional%20spacing%20template_withStaffLines.ly:65:12:13">
<g transform="translate(321.3498, 32.3860)">
<path transform="scale(0.0159, -0.0159)" d="M222 135c53 0 104 -27 104 -86c0 -71 -56 -120 -103 -148c-36 -22 -76 -36 -118 -36c-53 0 -105 27 -105 86c0 71 57 120 104 148c36 22 76 36 118 36z" fill="currentColor"/>
</g>
</a>
<g transform="translate(407.8703, 22.3860)">
<rect x="-0.1541" y="-17.5000" width="0.3083" height="26.7193" ry="0.0400" fill="currentColor"/>
</g>
<g transform="translate(312.7957, 22.3860)">
<rect x="-0.1541" y="-17.5000" width="0.3083" height="26.7193" ry="0.0400" fill="currentColor"/>
</g>
<a style="color:inherit;" xlink:href="textedit://C:/Users/jwloy/Documents/GitHub/interactiveLoopingLine_20231129/public/pieces/interactiveLoopingLine20231129/notation/proportional%20spacing%20template_withStaffLines.ly:65:8:9">
<g transform="translate(307.7677, 32.3860)">
<path transform="scale(0.0159, -0.0159)" d="M222 135c53 0 104 -27 104 -86c0 -71 -56 -120 -103 -148c-36 -22 -76 -36 -118 -36c-53 0 -105 27 -105 86c0 71 57 120 104 148c36 22 76 36 118 36z" fill="currentColor"/>
</g>
</a>
<a style="color:inherit;" xlink:href="textedit://C:/Users/jwloy/Documents/GitHub/interactiveLoopingLine_20231129/public/pieces/interactiveLoopingLine20231129/notation/proportional%20spacing%20template_withStaffLines.ly:63:64:65">
<g transform="translate(63.6116, 32.3860)">
<path transform="scale(0.0159, -0.0159)" d="M222 135c53 0 104 -27 104 -86c0 -71 -56 -120 -103 -148c-36 -22 -76 -36 -118 -36c-53 0 -105 27 -105 86c0 71 57 120 104 148c36 22 76 36 118 36z" fill="currentColor"/>
</g>
</a>
<g transform="translate(62.2575, 22.3860)">
<rect x="-0.1541" y="-15.0000" width="0.3083" height="24.2193" ry="0.0400" fill="currentColor"/>
</g>
<a style="color:inherit;" xlink:href="textedit://C:/Users/jwloy/Documents/GitHub/interactiveLoopingLine_20231129/public/pieces/interactiveLoopingLine20231129/notation/proportional%20spacing%20template_withStaffLines.ly:63:62:63">
<g transform="translate(57.2295, 32.3860)">
<path transform="scale(0.0159, -0.0159)" d="M222 135c53 0 104 -27 104 -86c0 -71 -56 -120 -103 -148c-36 -22 -76 -36 -118 -36c-53 0 -105 27 -105 86c0 71 57 120 104 148c36 22 76 36 118 36z" fill="currentColor"/>
</g>
</a>
<g transform="translate(68.6396, 22.3860)">
<rect x="-0.1541" y="-15.0000" width="0.3083" height="24.2193" ry="0.0400" fill="currentColor"/>
</g>
<g transform="translate(55.8754, 22.3860)">
<rect x="-0.1541" y="-15.0000" width="0.3083" height="24.2193" ry="0.0400" fill="currentColor"/>
</g>
<a style="color:inherit;" xlink:href="textedit://C:/Users/jwloy/Documents/GitHub/interactiveLoopingLine_20231129/public/pieces/interactiveLoopingLine20231129/notation/proportional%20spacing%20template_withStaffLines.ly:63:57:58">
<g transform="translate(50.8474, 32.3860)">
<path transform="scale(0.0159, -0.0159)" d="M222 135c53 0 104 -27 104 -86c0 -71 -56 -120 -103 -148c-36 -22 -76 -36 -118 -36c-53 0 -105 27 -105 86c0 71 57 120 104 148c36 22 76 36 118 36z" fill="currentColor"/>
</g>
</a>
<g transform="translate(48.6933, 22.3860)">
<rect x="-0.1541" y="-16.0814" width="0.3083" height="25.3007" ry="0.0400" fill="currentColor"/>
</g>
<g transform="translate(92.4038, 22.3860)">
<rect x="-0.1541" y="-15.0000" width="0.3083" height="24.2193" ry="0.0400" fill="currentColor"/>
</g>
<a style="color:inherit;" xlink:href="textedit://C:/Users/jwloy/Documents/GitHub/interactiveLoopingLine_20231129/public/pieces/interactiveLoopingLine20231129/notation/proportional%20spacing%20template_withStaffLines.ly:63:76:77">
<g transform="translate(87.3758, 32.3860)">
<path transform="scale(0.0159, -0.0159)" d="M222 135c53 0 104 -27 104 -86c0 -71 -56 -120 -103 -148c-36 -22 -76 -36 -118 -36c-53 0 -105 27 -105 86c0 71 57 120 104 148c36 22 76 36 118 36z" fill="currentColor"/>
</g>
</a>
<g transform="translate(83.6597, 19.8860)">
<path transform="scale(0.0200, -0.0200)" d="M0 0c0 32 25 57 57 57s57 -25 57 -57s-25 -57 -57 -57s-57 25 -57 57z" fill="currentColor"/>
</g>
<a style="color:inherit;" xlink:href="textedit://C:/Users/jwloy/Documents/GitHub/interactiveLoopingLine_20231129/public/pieces/interactiveLoopingLine20231129/notation/proportional%20spacing%20template_withStaffLines.ly:63:51:52">
<g transform="translate(43.6653, 32.3860)">
<path transform="scale(0.0159, -0.0159)" d="M222 135c53 0 104 -27 104 -86c0 -71 -56 -120 -103 -148c-36 -22 -76 -36 -118 -36c-53 0 -105 27 -105 86c0 71 57 120 104 148c36 22 76 36 118 36z" fill="currentColor"/>
</g>
</a>
<g transform="translate(75.0217, 22.3860)">
<rect x="-0.1541" y="-15.0000" width="0.3083" height="24.2193" ry="0.0400" fill="currentColor"/>
</g>
<a style="color:inherit;" xlink:href="textedit://C:/Users/jwloy/Documents/GitHub/interactiveLoopingLine_20231129/public/pieces/interactiveLoopingLine20231129/notation/proportional%20spacing%20template_withStaffLines.ly:63:66:67">
<g transform="translate(69.9937, 32.3860)">
<path transform="scale(0.0159, -0.0159)" d="M222 135c53 0 104 -27 104 -86c0 -71 -56 -120 -103 -148c-36 -22 -76 -36 -118 -36c-53 0 -105 27 -105 86c0 71 57 120 104 148c36 22 76 36 118 36z" fill="currentColor"/>
</g>
</a>
<a style="color:inherit;" xlink:href="textedit://C:/Users/jwloy/Documents/GitHub/interactiveLoopingLine_20231129/public/pieces/interactiveLoopingLine20231129/notation/proportional%20spacing%20template_withStaffLines.ly:63:17:18">
<g transform="translate(18.3101, 35.5247)">
<path transform="scale(0.0200, -0.0200)" d="M114 0c8 0 13 -8 10 -15l-114 -254c-2 -4 -6 -6 -10 -6s-8 2 -10 6l-114 254c-3 7 2 15 10 15h68c4 0 7 -2 9 -6l71 -156l70 156c2 4 6 6 10 6z" fill="currentColor"/>
</g>
</a>
<a style="color:inherit;" xlink:href="textedit://C:/Users/jwloy/Documents/GitHub/interactiveLoopingLine_20231129/public/pieces/interactiveLoopingLine20231129/notation/proportional%20spacing%20template_withStaffLines.ly:63:19:20">
<g transform="translate(14.1275, 46.0862)">
<g>
<path transform="scale(0.0159, -0.0159)" d="M162 74c0 58 -99 63 -99 120c0 55 46 98 101 98s78 -34 78 -62c0 -20 -12 -37 -31 -37c-18 0 -32 11 -32 22c0 3 1 5 3 7c6 8 9 18 9 26c0 13 -7 24 -19 24c-27 0 -48 -23 -48 -50c0 -17 16 -29 31 -38c33 -20 68 -43 68 -81c0 -60 -57 -103 -120 -103
c-43 0 -82 26 -82 65c0 21 12 42 31 42c18 0 32 -15 32 -33c0 -13 -21 -15 -21 -28c0 -16 18 -23 36 -23c33 0 63 20 63 51z" fill="currentColor"/>

<path transform="translate(3.2778, 0.0000) scale(0.0159, -0.0159)" d="M254 251l-51 -165c-30 -99 -121 -256 -218 -256c-45 0 -87 25 -87 65c0 39 17 77 52 77c24 0 44 -20 44 -44c0 -30 -38 -25 -38 -55c0 -10 11 -10 23 -10h6c50 0 60 61 73 113l69 275h-53c-9 0 -16 8 -16 17s7 17 16 17h62c31 97 119 193 214 193c45 0 87 -24 87 -64
c0 -39 -17 -78 -52 -78c-24 0 -44 20 -44 44c0 30 38 25 38 55c0 10 -10 11 -22 11c-2 0 -5 -1 -7 -1c-65 0 -70 -93 -87 -160h58c9 0 17 -8 17 -17s-8 -17 -17 -17h-67z" fill="currentColor"/>
</g>
</g>
</a>
<a style="color:inherit;" xlink:href="textedit://C:/Users/jwloy/Documents/GitHub/interactiveLoopingLine_20231129/public/pieces/interactiveLoopingLine20231129/notation/proportional%20spacing%20template_withStaffLines.ly:63:14:15">
<g transform="translate(15.7190, 32.3860)">
<path transform="scale(0.0159, -0.0159)" d="M222 135c53 0 104 -27 104 -86c0 -71 -56 -120 -103 -148c-36 -22 -76 -36 -118 -36c-53 0 -105 27 -105 86c0 71 57 120 104 148c36 22 76 36 118 36z" fill="currentColor"/>
</g>
</a>
<g transform="translate(20.7470, 22.3860)">
<rect x="-0.1541" y="-17.5000" width="0.3083" height="26.7193" ry="0.0400" fill="currentColor"/>
</g>
<a style="color:inherit;" xlink:href="textedit://C:/Users/jwloy/Documents/GitHub/interactiveLoopingLine_20231129/public/pieces/interactiveLoopingLine20231129/notation/proportional%20spacing%20template_withStaffLines.ly:63:8:9">
<g transform="translate(2.5691, 22.3860)">
<path transform="scale(0.0200, -0.0200)" d="M-23 -113c0 26 10 40 36 40c34 0 85 -15 130 -37l-137 164c-7 8 -10 17 -10 25c0 33 49 64 86 96c26 22 39 54 39 85c0 24 -8 47 -24 67l-39 46c-2 3 -3 6 -3 9c0 7 7 14 14 14c3 0 7 -1 10 -5l152 -182c7 -8 10 -17 10 -25c0 -33 -49 -64 -86 -96
c-26 -22 -39 -54 -39 -85c0 -24 8 -47 24 -67l87 -104c2 -3 3 -5 3 -8c0 -7 -7 -14 -14 -14c-3 0 -7 1 -10 5c-19 22 -66 43 -102 43c-40 0 -52 -29 -52 -70c0 -35 11 -75 28 -96c6 -7 -4 -16 -10 -9c-46 55 -93 150 -93 204z" fill="currentColor"/>
</g>
</a>
<g transform="translate(41.5112, 22.3860)">
<rect x="-0.1541" y="-16.0814" width="0.3083" height="25.3007" ry="0.0400" fill="currentColor"/>
</g>
<a style="color:inherit;" xlink:href="textedit://C:/Users/jwloy/Documents/GitHub/interactiveLoopingLine_20231129/public/pieces/interactiveLoopingLine20231129/notation/proportional%20spacing%20template_withStaffLines.ly:63:48:49">
<g transform="translate(36.4832, 32.3860)">
<path transform="scale(0.0159, -0.0159)" d="M222 135c53 0 104 -27 104 -86c0 -71 -56 -120 -103 -148c-36 -22 -76 -36 -118 -36c-53 0 -105 27 -105 86c0 71 57 120 104 148c36 22 76 36 118 36z" fill="currentColor"/>
</g>
</a>
<a style="color:inherit;" xlink:href="textedit://C:/Users/jwloy/Documents/GitHub/interactiveLoopingLine_20231129/public/pieces/interactiveLoopingLine20231129/notation/proportional%20spacing%20template_withStaffLines.ly:63:71:72">
<g transform="translate(76.3758, 22.3860)">
<path transform="scale(0.0200, -0.0200)" d="M76 -250l116 327c-35 -12 -70 -23 -107 -23c-46 0 -87 34 -87 80c0 39 31 71 71 71c26 0 49 -16 57 -40c10 -28 6 -60 35 -60c17 0 58 54 65 70c5 11 20 10 24 0l-126 -425c-7 -6 -16 -9 -24 -9s-17 3 -24 9z" fill="currentColor"/>
</g>
</a>
<g transform="translate(34.3291, 22.3860)">
<rect x="-0.1541" y="-16.0814" width="0.3083" height="25.3007" ry="0.0400" fill="currentColor"/>
</g>
<a style="color:inherit;" xlink:href="textedit://C:/Users/jwloy/Documents/GitHub/interactiveLoopingLine_20231129/public/pieces/interactiveLoopingLine20231129/notation/proportional%20spacing%20template_withStaffLines.ly:63:42:43">
<g transform="translate(31.8922, 35.5247)">
<path transform="scale(0.0200, -0.0200)" d="M114 0c8 0 13 -8 10 -15l-114 -254c-2 -4 -6 -6 -10 -6s-8 2 -10 6l-114 254c-3 7 2 15 10 15h68c4 0 7 -2 9 -6l71 -156l70 156c2 4 6 6 10 6z" fill="currentColor"/>
</g>
</a>
<a style="color:inherit;" xlink:href="textedit://C:/Users/jwloy/Documents/GitHub/interactiveLoopingLine_20231129/public/pieces/interactiveLoopingLine20231129/notation/proportional%20spacing%20template_withStaffLines.ly:63:44:45">
<g transform="translate(27.7096, 46.0862)">
<g>
<path transform="scale(0.0159, -0.0159)" d="M162 74c0 58 -99 63 -99 120c0 55 46 98 101 98s78 -34 78 -62c0 -20 -12 -37 -31 -37c-18 0 -32 11 -32 22c0 3 1 5 3 7c6 8 9 18 9 26c0 13 -7 24 -19 24c-27 0 -48 -23 -48 -50c0 -17 16 -29 31 -38c33 -20 68 -43 68 -81c0 -60 -57 -103 -120 -103
c-43 0 -82 26 -82 65c0 21 12 42 31 42c18 0 32 -15 32 -33c0 -13 -21 -15 -21 -28c0 -16 18 -23 36 -23c33 0 63 20 63 51z" fill="currentColor"/>

<path transform="translate(3.2778, 0.0000) scale(0.0159, -0.0159)" d="M254 251l-51 -165c-30 -99 -121 -256 -218 -256c-45 0 -87 25 -87 65c0 39 17 77 52 77c24 0 44 -20 44 -44c0 -30 -38 -25 -38 -55c0 -10 11 -10 23 -10h6c50 0 60 61 73 113l69 275h-53c-9 0 -16 8 -16 17s7 17 16 17h62c31 97 119 193 214 193c45 0 87 -24 87 -64
c0 -39 -17 -78 -52 -78c-24 0 -44 20 -44 44c0 30 38 25 38 55c0 10 -10 11 -22 11c-2 0 -5 -1 -7 -1c-65 0 -70 -93 -87 -160h58c9 0 17 -8 17 -17s-8 -17 -17 -17h-67z" fill="currentColor"/>
</g>
</g>
</a>
<a style="color:inherit;" xlink:href="textedit://C:/Users/jwloy/Documents/GitHub/interactiveLoopingLine_20231129/public/pieces/interactiveLoopingLine20231129/notation/proportional%20spacing%20template_withStaffLines.ly:63:39:40">
<g transform="translate(29.3011, 32.3860)">
<path transform="scale(0.0159, -0.0159)" d="M222 135c53 0 104 -27 104 -86c0 -71 -56 -120 -103 -148c-36 -22 -76 -36 -118 -36c-53 0 -105 27 -105 86c0 71 57 120 104 148c36 22 76 36 118 36z" fill="currentColor"/>
</g>
</a>
<a style="color:inherit;" xlink:href="textedit://C:/Users/jwloy/Documents/GitHub/interactiveLoopingLine_20231129/public/pieces/interactiveLoopingLine20231129/notation/proportional%20spacing%20template_withStaffLines.ly:63:112:113">
<g transform="translate(132.5042, 32.3860)">
<path transform="scale(0.0159, -0.0159)" d="M222 135c53 0 104 -27 104 -86c0 -71 -56 -120 -103 -148c-36 -22 -76 -36 -118 -36c-53 0 -105 27 -105 86c0 71 57 120 104 148c36 22 76 36 118 36z" fill="currentColor"/>
</g>
</a>
<g transform="translate(143.9142, 22.3860)">
<rect x="-0.1541" y="-15.0000" width="0.3083" height="24.2193" ry="0.0400" fill="currentColor"/>
</g>
<a style="color:inherit;" xlink:href="textedit://C:/Users/jwloy/Documents/GitHub/interactiveLoopingLine_20231129/public/pieces/interactiveLoopingLine20231129/notation/proportional%20spacing%20template_withStaffLines.ly:63:118:119">
<g transform="translate(138.8863, 32.3860)">
<path transform="scale(0.0159, -0.0159)" d="M222 135c53 0 104 -27 104 -86c0 -71 -56 -120 -103 -148c-36 -22 -76 -36 -118 -36c-53 0 -105 27 -105 86c0 71 57 120 104 148c36 22 76 36 118 36z" fill="currentColor"/>
</g>
</a>
<g transform="translate(137.5322, 22.3860)">
<rect x="-0.1541" y="-15.0000" width="0.3083" height="24.2193" ry="0.0400" fill="currentColor"/>
</g>
<g transform="translate(131.1501, 22.3860)">
<rect x="-0.1541" y="-15.0000" width="0.3083" height="24.2193" ry="0.0400" fill="currentColor"/>
</g>
<a style="color:inherit;" xlink:href="textedit://C:/Users/jwloy/Documents/GitHub/interactiveLoopingLine_20231129/public/pieces/interactiveLoopingLine20231129/notation/proportional%20spacing%20template_withStaffLines.ly:63:104:105">
<g transform="translate(126.1221, 32.3860)">
<path transform="scale(0.0159, -0.0159)" d="M222 135c53 0 104 -27 104 -86c0 -71 -56 -120 -103 -148c-36 -22 -76 -36 -118 -36c-53 0 -105 27 -105 86c0 71 57 120 104 148c36 22 76 36 118 36z" fill="currentColor"/>
</g>
</a>
<a style="color:inherit;" xlink:href="textedit://C:/Users/jwloy/Documents/GitHub/interactiveLoopingLine_20231129/public/pieces/interactiveLoopingLine20231129/notation/proportional%20spacing%20template_withStaffLines.ly:64:8:9">
<g transform="translate(155.1684, 22.3860)">
<path transform="scale(0.0200, -0.0200)" d="M-23 -113c0 26 10 40 36 40c34 0 85 -15 130 -37l-137 164c-7 8 -10 17 -10 25c0 33 49 64 86 96c26 22 39 54 39 85c0 24 -8 47 -24 67l-39 46c-2 3 -3 6 -3 9c0 7 7 14 14 14c3 0 7 -1 10 -5l152 -182c7 -8 10 -17 10 -25c0 -33 -49 -64 -86 -96
c-26 -22 -39 -54 -39 -85c0 -24 8 -47 24 -67l87 -104c2 -3 3 -5 3 -8c0 -7 -7 -14 -14 -14c-3 0 -7 1 -10 5c-19 22 -66 43 -102 43c-40 0 -52 -29 -52 -70c0 -35 11 -75 28 -96c6 -7 -4 -16 -10 -9c-46 55 -93 150 -93 204z" fill="currentColor"/>
</g>
</a>
<a style="color:inherit;" xlink:href="textedit://C:/Users/jwloy/Documents/GitHub/interactiveLoopingLine_20231129/public/pieces/interactiveLoopingLine20231129/notation/proportional%20spacing%20template_withStaffLines.ly:63:121:122">
<g transform="translate(145.2684, 22.3860)">
<path transform="scale(0.0200, -0.0200)" d="M76 -250l116 327c-35 -12 -70 -23 -107 -23c-46 0 -87 34 -87 80c0 39 31 71 71 71c26 0 49 -16 57 -40c10 -28 6 -60 35 -60c17 0 58 54 65 70c5 11 20 10 24 0l-126 -425c-7 -6 -16 -9 -24 -9s-17 3 -24 9z" fill="currentColor"/>
</g>
</a>
<a style="color:inherit;" xlink:href="textedit://C:/Users/jwloy/Documents/GitHub/interactiveLoopingLine_20231129/public/pieces/interactiveLoopingLine20231129/notation/proportional%20spacing%20template_withStaffLines.ly:63:84:85">
<g transform="translate(93.7579, 22.3860)">
<path transform="scale(0.0200, -0.0200)" d="M76 -250l116 327c-35 -12 -70 -23 -107 -23c-46 0 -87 34 -87 80c0 39 31 71 71 71c26 0 49 -16 57 -40c10 -28 6 -60 35 -60c17 0 58 54 65 70c5 11 20 10 24 0l-126 -425c-7 -6 -16 -9 -24 -9s-17 3 -24 9z" fill="currentColor"/>
</g>
</a>
<a style="color:inherit;" xlink:href="textedit://C:/Users/jwloy/Documents/GitHub/interactiveLoopingLine_20231129/public/pieces/interactiveLoopingLine20231129/notation/proportional%20spacing%20template_withStaffLines.ly:63:88:89">
<g transform="translate(102.3579, 32.3860)">
<path transform="scale(0.0159, -0.0159)" d="M222 135c53 0 104 -27 104 -86c0 -71 -56 -120 -103 -148c-36 -22 -76 -36 -118 -36c-53 0 -105 27 -105 86c0 71 57 120 104 148c36 22 76 36 118 36z" fill="currentColor"/>
</g>
</a>
<g transform="translate(107.3859, 22.3860)">
<rect x="-0.1541" y="-16.0814" width="0.3083" height="25.3007" ry="0.0400" fill="currentColor"/>
</g>
<a style="color:inherit;" xlink:href="textedit://C:/Users/jwloy/Documents/GitHub/interactiveLoopingLine_20231129/public/pieces/interactiveLoopingLine20231129/notation/proportional%20spacing%20template_withStaffLines.ly:63:95:96">
<g transform="translate(111.1400, 22.3860)">
<path transform="scale(0.0200, -0.0200)" d="M76 -250l116 327c-35 -12 -70 -23 -107 -23c-46 0 -87 34 -87 80c0 39 31 71 71 71c26 0 49 -16 57 -40c10 -28 6 -60 35 -60c17 0 58 54 65 70c5 11 20 10 24 0l-126 -425c-7 -6 -16 -9 -24 -9s-17 3 -24 9z" fill="currentColor"/>
</g>
</a>
<g transform="translate(124.7680, 22.3860)">
<rect x="-0.1541" y="-15.0000" width="0.3083" height="24.2193" ry="0.0400" fill="currentColor"/>
</g>
<a style="color:inherit;" xlink:href="textedit://C:/Users/jwloy/Documents/GitHub/interactiveLoopingLine_20231129/public/pieces/interactiveLoopingLine20231129/notation/proportional%20spacing%20template_withStaffLines.ly:63:99:100">
<g transform="translate(119.7400, 32.3860)">
<path transform="scale(0.0159, -0.0159)" d="M222 135c53 0 104 -27 104 -86c0 -71 -56 -120 -103 -148c-36 -22 -76 -36 -118 -36c-53 0 -105 27 -105 86c0 71 57 120 104 148c36 22 76 36 118 36z" fill="currentColor"/>
</g>
</a>
</svg>
