<svg xmlns="http://www.w3.org/2000/svg" xmlns:xlink="http://www.w3.org/1999/xlink" version="1.2" width="1000.00mm" height="200.00mm" viewBox="0 0 569.0551 113.8110">
<style type="text/css">
<![CDATA[
tspan { white-space: pre; }
]]>
</style>
<!-- Page: 1/1 -->
<g transform="translate(273.4769, 10.1513)">
<rect x="-0.0795" y="-6.8211" width="0.1590" height="8.5635" ry="0.0400" fill="currentColor"/>
</g>
<a style="color:inherit;" xlink:href="textedit://C:/Users/jwloy/Documents/GitHub/interactiveLoopingLine_20231129/public/pieces/interactiveLoopingLine20231129/notation/Template_width100px.ly:63:78:79">
<g transform="translate(271.8462, 12.1513)">
<path transform="scale(0.0052, -0.0052)" d="M222 135c53 0 104 -27 104 -86c0 -71 -56 -120 -103 -148c-36 -22 -76 -36 -118 -36c-53 0 -105 27 -105 86c0 71 57 120 104 148c36 22 76 36 118 36z" fill="currentColor"/>
</g>
</a>
<g transform="translate(502.1282, 10.1513)">
<rect x="-0.0795" y="-7.0000" width="0.1590" height="8.7424" ry="0.0400" fill="currentColor"/>
</g>
<a style="color:inherit;" xlink:href="textedit://C:/Users/jwloy/Documents/GitHub/interactiveLoopingLine_20231129/public/pieces/interactiveLoopingLine20231129/notation/Template_width100px.ly:63:74:75">
<g transform="translate(262.6962, 10.1513)">
<path transform="scale(0.0066, -0.0066)" d="M76 -250l116 327c-35 -12 -70 -23 -107 -23c-46 0 -87 34 -87 80c0 39 31 71 71 71c26 0 49 -16 57 -40c10 -28 6 -60 35 -60c17 0 58 54 65 70c5 11 20 10 24 0l-126 -425c-7 -6 -16 -9 -24 -9s-17 3 -24 9z" fill="currentColor"/>
</g>
</a>
<g transform="translate(259.4668, 10.1513)">
<rect x="-0.0795" y="-6.8211" width="0.1590" height="8.5635" ry="0.0400" fill="currentColor"/>
</g>
<a style="color:inherit;" xlink:href="textedit://C:/Users/jwloy/Documents/GitHub/interactiveLoopingLine_20231129/public/pieces/interactiveLoopingLine20231129/notation/Template_width100px.ly:63:66:67">
<g transform="translate(257.8362, 12.1513)">
<path transform="scale(0.0052, -0.0052)" d="M222 135c53 0 104 -27 104 -86c0 -71 -56 -120 -103 -148c-36 -22 -76 -36 -118 -36c-53 0 -105 27 -105 86c0 71 57 120 104 148c36 22 76 36 118 36z" fill="currentColor"/>
</g>
</a>
<g transform="translate(291.8369, 10.1513)">
<rect x="-0.0795" y="-6.8211" width="0.1590" height="8.5635" ry="0.0400" fill="currentColor"/>
</g>
<a style="color:inherit;" xlink:href="textedit://C:/Users/jwloy/Documents/GitHub/interactiveLoopingLine_20231129/public/pieces/interactiveLoopingLine20231129/notation/Template_width100px.ly:63:102:103">
<g transform="translate(299.9265, 12.1513)">
<path transform="scale(0.0052, -0.0052)" d="M222 135c53 0 104 -27 104 -86c0 -71 -56 -120 -103 -148c-36 -22 -76 -36 -118 -36c-53 0 -105 27 -105 86c0 71 57 120 104 148c36 22 76 36 118 36z" fill="currentColor"/>
</g>
</a>
<g transform="translate(296.6970, 10.1513)">
<rect x="-0.0795" y="-6.8211" width="0.1590" height="8.5635" ry="0.0400" fill="currentColor"/>
</g>
<a style="color:inherit;" xlink:href="textedit://C:/Users/jwloy/Documents/GitHub/interactiveLoopingLine_20231129/public/pieces/interactiveLoopingLine20231129/notation/Template_width100px.ly:63:94:95">
<g transform="translate(295.0664, 12.1513)">
<path transform="scale(0.0052, -0.0052)" d="M222 135c53 0 104 -27 104 -86c0 -71 -56 -120 -103 -148c-36 -22 -76 -36 -118 -36c-53 0 -105 27 -105 86c0 71 57 120 104 148c36 22 76 36 118 36z" fill="currentColor"/>
</g>
</a>
<a style="color:inherit;" xlink:href="textedit://C:/Users/jwloy/Documents/GitHub/interactiveLoopingLine_20231129/public/pieces/interactiveLoopingLine20231129/notation/Template_width100px.ly:63:89:90">
<g transform="translate(290.2063, 12.1513)">
<path transform="scale(0.0052, -0.0052)" d="M222 135c53 0 104 -27 104 -86c0 -71 -56 -120 -103 -148c-36 -22 -76 -36 -118 -36c-53 0 -105 27 -105 86c0 71 57 120 104 148c36 22 76 36 118 36z" fill="currentColor"/>
</g>
</a>
<a style="color:inherit;" xlink:href="textedit://C:/Users/jwloy/Documents/GitHub/interactiveLoopingLine_20231129/public/pieces/interactiveLoopingLine20231129/notation/Template_width100px.ly:64:35:36">
<g transform="translate(500.4976, 12.1513)">
<path transform="scale(0.0052, -0.0052)" d="M222 135c53 0 104 -27 104 -86c0 -71 -56 -120 -103 -148c-36 -22 -76 -36 -118 -36c-53 0 -105 27 -105 86c0 71 57 120 104 148c36 22 76 36 118 36z" fill="currentColor"/>
</g>
</a>
<a style="color:inherit;" xlink:href="textedit://C:/Users/jwloy/Documents/GitHub/interactiveLoopingLine_20231129/public/pieces/interactiveLoopingLine20231129/notation/Template_width100px.ly:63:85:86">
<g transform="translate(281.0563, 10.1513)">
<path transform="scale(0.0066, -0.0066)" d="M76 -250l116 327c-35 -12 -70 -23 -107 -23c-46 0 -87 34 -87 80c0 39 31 71 71 71c26 0 49 -16 57 -40c10 -28 6 -60 35 -60c17 0 58 54 65 70c5 11 20 10 24 0l-126 -425c-7 -6 -16 -9 -24 -9s-17 3 -24 9z" fill="currentColor"/>
</g>
</a>
<a style="color:inherit;" xlink:href="textedit://C:/Users/jwloy/Documents/GitHub/interactiveLoopingLine_20231129/public/pieces/interactiveLoopingLine20231129/notation/Template_width100px.ly:63:61:62">
<g transform="translate(244.3362, 10.1513)">
<path transform="scale(0.0066, -0.0066)" d="M76 -250l116 327c-35 -12 -70 -23 -107 -23c-46 0 -87 34 -87 80c0 39 31 71 71 71c26 0 49 -16 57 -40c10 -28 6 -60 35 -60c17 0 58 54 65 70c5 11 20 10 24 0l-126 -425c-7 -6 -16 -9 -24 -9s-17 3 -24 9z" fill="currentColor"/>
</g>
</a>
<g transform="translate(226.5264, 10.1513)">
<rect x="-0.0795" y="-6.8211" width="0.1590" height="8.5635" ry="0.0400" fill="currentColor"/>
</g>
<a style="color:inherit;" xlink:href="textedit://C:/Users/jwloy/Documents/GitHub/interactiveLoopingLine_20231129/public/pieces/interactiveLoopingLine20231129/notation/Template_width100px.ly:63:47:48">
<g transform="translate(224.8958, 12.1513)">
<path transform="scale(0.0052, -0.0052)" d="M222 135c53 0 104 -27 104 -86c0 -71 -56 -120 -103 -148c-36 -22 -76 -36 -118 -36c-53 0 -105 27 -105 86c0 71 57 120 104 148c36 22 76 36 118 36z" fill="currentColor"/>
</g>
</a>
<g transform="translate(220.2163, 10.1513)">
<rect x="-0.0795" y="-6.8211" width="0.1590" height="8.5635" ry="0.0400" fill="currentColor"/>
</g>
<g transform="translate(213.9062, 10.1513)">
<rect x="-0.0795" y="-6.8211" width="0.1590" height="8.5635" ry="0.0400" fill="currentColor"/>
</g>
<a style="color:inherit;" xlink:href="textedit://C:/Users/jwloy/Documents/GitHub/interactiveLoopingLine_20231129/public/pieces/interactiveLoopingLine20231129/notation/Template_width100px.ly:63:38:39">
<g transform="translate(212.2756, 12.1513)">
<path transform="scale(0.0052, -0.0052)" d="M222 135c53 0 104 -27 104 -86c0 -71 -56 -120 -103 -148c-36 -22 -76 -36 -118 -36c-53 0 -105 27 -105 86c0 71 57 120 104 148c36 22 76 36 118 36z" fill="currentColor"/>
</g>
</a>
<g transform="translate(301.5571, 10.1513)">
<rect x="-0.0795" y="-6.8211" width="0.1590" height="8.5635" ry="0.0400" fill="currentColor"/>
</g>
<g transform="translate(241.1067, 10.1513)">
<rect x="-0.0795" y="-6.8211" width="0.1590" height="8.5635" ry="0.0400" fill="currentColor"/>
</g>
<a style="color:inherit;" xlink:href="textedit://C:/Users/jwloy/Documents/GitHub/interactiveLoopingLine_20231129/public/pieces/interactiveLoopingLine20231129/notation/Template_width100px.ly:63:56:57">
<g transform="translate(239.4761, 12.1513)">
<path transform="scale(0.0052, -0.0052)" d="M222 135c53 0 104 -27 104 -86c0 -71 -56 -120 -103 -148c-36 -22 -76 -36 -118 -36c-53 0 -105 27 -105 86c0 71 57 120 104 148c36 22 76 36 118 36z" fill="currentColor"/>
</g>
</a>
<g transform="translate(246.7398, 10.1513)">
<path transform="scale(0.0066, -0.0066)" d="M0 0c0 32 25 57 57 57s57 -25 57 -57s-25 -57 -57 -57s-57 25 -57 57z" fill="currentColor"/>
</g>
<g transform="translate(236.2466, 10.1513)">
<rect x="-0.0795" y="-6.8211" width="0.1590" height="8.5635" ry="0.0400" fill="currentColor"/>
</g>
<a style="color:inherit;" xlink:href="textedit://C:/Users/jwloy/Documents/GitHub/interactiveLoopingLine_20231129/public/pieces/interactiveLoopingLine20231129/notation/Template_width100px.ly:63:54:55">
<g transform="translate(234.6160, 12.1513)">
<path transform="scale(0.0052, -0.0052)" d="M222 135c53 0 104 -27 104 -86c0 -71 -56 -120 -103 -148c-36 -22 -76 -36 -118 -36c-53 0 -105 27 -105 86c0 71 57 120 104 148c36 22 76 36 118 36z" fill="currentColor"/>
</g>
</a>
<g transform="translate(231.3865, 10.1513)">
<rect x="-0.0795" y="-6.8211" width="0.1590" height="8.5635" ry="0.0400" fill="currentColor"/>
</g>
<a style="color:inherit;" xlink:href="textedit://C:/Users/jwloy/Documents/GitHub/interactiveLoopingLine_20231129/public/pieces/interactiveLoopingLine20231129/notation/Template_width100px.ly:63:52:53">
<g transform="translate(229.7559, 12.1513)">
<path transform="scale(0.0052, -0.0052)" d="M222 135c53 0 104 -27 104 -86c0 -71 -56 -120 -103 -148c-36 -22 -76 -36 -118 -36c-53 0 -105 27 -105 86c0 71 57 120 104 148c36 22 76 36 118 36z" fill="currentColor"/>
</g>
</a>
<g transform="translate(447.0980, 10.1513)">
<rect x="-0.0795" y="-7.0000" width="0.1590" height="8.7424" ry="0.0400" fill="currentColor"/>
</g>
<a style="color:inherit;" xlink:href="textedit://C:/Users/jwloy/Documents/GitHub/interactiveLoopingLine_20231129/public/pieces/interactiveLoopingLine20231129/notation/Template_width100px.ly:64:22:23">
<g transform="translate(445.4673, 12.1513)">
<path transform="scale(0.0052, -0.0052)" d="M222 135c53 0 104 -27 104 -86c0 -71 -56 -120 -103 -148c-36 -22 -76 -36 -118 -36c-53 0 -105 27 -105 86c0 71 57 120 104 148c36 22 76 36 118 36z" fill="currentColor"/>
</g>
</a>
<g transform="translate(429.1879, 10.1513)">
<rect x="-0.0795" y="-7.0000" width="0.1590" height="8.7424" ry="0.0400" fill="currentColor"/>
</g>
<a style="color:inherit;" xlink:href="textedit://C:/Users/jwloy/Documents/GitHub/interactiveLoopingLine_20231129/public/pieces/interactiveLoopingLine20231129/notation/Template_width100px.ly:64:20:21">
<g transform="translate(427.5573, 12.1513)">
<path transform="scale(0.0052, -0.0052)" d="M222 135c53 0 104 -27 104 -86c0 -71 -56 -120 -103 -148c-36 -22 -76 -36 -118 -36c-53 0 -105 27 -105 86c0 71 57 120 104 148c36 22 76 36 118 36z" fill="currentColor"/>
</g>
</a>
<g transform="translate(411.2778, 10.1513)">
<rect x="-0.0795" y="-7.0000" width="0.1590" height="8.7424" ry="0.0400" fill="currentColor"/>
</g>
<a style="color:inherit;" xlink:href="textedit://C:/Users/jwloy/Documents/GitHub/interactiveLoopingLine_20231129/public/pieces/interactiveLoopingLine20231129/notation/Template_width100px.ly:64:18:19">
<g transform="translate(409.6472, 12.1513)">
<path transform="scale(0.0052, -0.0052)" d="M222 135c53 0 104 -27 104 -86c0 -71 -56 -120 -103 -148c-36 -22 -76 -36 -118 -36c-53 0 -105 27 -105 86c0 71 57 120 104 148c36 22 76 36 118 36z" fill="currentColor"/>
</g>
</a>
<g transform="translate(393.3677, 10.1513)">
<rect x="-0.0795" y="-7.0000" width="0.1590" height="8.7424" ry="0.0400" fill="currentColor"/>
</g>
<a style="color:inherit;" xlink:href="textedit://C:/Users/jwloy/Documents/GitHub/interactiveLoopingLine_20231129/public/pieces/interactiveLoopingLine20231129/notation/Template_width100px.ly:64:16:17">
<g transform="translate(391.7371, 12.1513)">
<path transform="scale(0.0052, -0.0052)" d="M222 135c53 0 104 -27 104 -86c0 -71 -56 -120 -103 -148c-36 -22 -76 -36 -118 -36c-53 0 -105 27 -105 86c0 71 57 120 104 148c36 22 76 36 118 36z" fill="currentColor"/>
</g>
</a>
<a style="color:inherit;" xlink:href="textedit://C:/Users/jwloy/Documents/GitHub/interactiveLoopingLine_20231129/public/pieces/interactiveLoopingLine20231129/notation/Template_width100px.ly:63:21:22">
<g transform="translate(213.1892, 2.9462)">
<text font-family="serif" font-style="italic" font-size="2.8814" text-anchor="start" fill="currentColor">
<tspan>3</tspan>
</text>
</g>
</a>
<a style="color:inherit;" xlink:href="textedit://C:/Users/jwloy/Documents/GitHub/interactiveLoopingLine_20231129/public/pieces/interactiveLoopingLine20231129/notation/Template_width100px.ly:62:26:27">
<g transform="translate(39.7978, 1.9902)">
<line stroke-linejoin="round" stroke-linecap="round" stroke-width="0.1957" stroke="currentColor" x1="12.9792" y1="-0.0000" x2="12.9792" y2="0.7000"/>
</g>
<g transform="translate(39.7978, 1.9902)">
<line stroke-linejoin="round" stroke-linecap="round" stroke-width="0.1957" stroke="currentColor" x1="-0.2000" y1="-0.0000" x2="-0.2000" y2="0.7000"/>
</g>
<g transform="translate(39.7978, 1.9902)">
<line stroke-linejoin="round" stroke-linecap="round" stroke-width="0.1957" stroke="currentColor" x1="12.9792" y1="-0.0000" x2="7.7066" y2="-0.0000"/>
</g>
<g transform="translate(39.7978, 1.9902)">
<line stroke-linejoin="round" stroke-linecap="round" stroke-width="0.1957" stroke="currentColor" x1="-0.2000" y1="-0.0000" x2="5.2726" y2="-0.0000"/>
</g>
</a>
<a style="color:inherit;" xlink:href="textedit://C:/Users/jwloy/Documents/GitHub/interactiveLoopingLine_20231129/public/pieces/interactiveLoopingLine20231129/notation/Template_width100px.ly:62:26:27">
<g transform="translate(45.4703, 2.9462)">
<text font-family="serif" font-style="italic" font-size="2.8814" text-anchor="start" fill="currentColor">
<tspan>3</tspan>
</text>
</g>
</a>
<g transform="translate(39.7978, 3.3302)">
<polygon stroke-linejoin="round" stroke-linecap="round" stroke-width="0.0800" fill="currentColor" stroke="currentColor" points="12.7392 -0.2000 12.7392 0.2000 0.0400 0.2000 0.0400 -0.2000"/>
</g>
<a style="color:inherit;" xlink:href="textedit://C:/Users/jwloy/Documents/GitHub/interactiveLoopingLine_20231129/public/pieces/interactiveLoopingLine20231129/notation/Template_width100px.ly:62:75:76">
<g transform="translate(77.3628, 3.3302)">
<polygon stroke-linejoin="round" stroke-linecap="round" stroke-width="0.0800" fill="currentColor" stroke="currentColor" points="14.4246 -0.2000 14.4246 0.2000 0.0400 0.2000 0.0400 -0.2000"/>
</g>
<g transform="translate(90.6479, 4.1513)">
<polygon stroke-linejoin="round" stroke-linecap="round" stroke-width="0.0800" fill="currentColor" stroke="currentColor" points="1.1395 -0.2000 1.1395 0.2000 0.0400 0.2000 0.0400 -0.2000"/>
</g>
</a>
<g transform="translate(58.7280, 3.3302)">
<polygon stroke-linejoin="round" stroke-linecap="round" stroke-width="0.0800" fill="currentColor" stroke="currentColor" points="14.6992 -0.2000 14.6992 0.2000 0.0400 0.2000 0.0400 -0.2000"/>
</g>
<g transform="translate(58.7280, 4.1513)">
<polygon stroke-linejoin="round" stroke-linecap="round" stroke-width="0.0800" fill="currentColor" stroke="currentColor" points="14.6992 -0.2000 14.6992 0.2000 0.0400 0.2000 0.0400 -0.2000"/>
</g>
<a style="color:inherit;" xlink:href="textedit://C:/Users/jwloy/Documents/GitHub/interactiveLoopingLine_20231129/public/pieces/interactiveLoopingLine20231129/notation/Template_width100px.ly:62:87:88">
<g transform="translate(95.7229, 3.3302)">
<polygon stroke-linejoin="round" stroke-linecap="round" stroke-width="0.0800" fill="currentColor" stroke="currentColor" points="10.0746 -0.2000 10.0746 0.2000 0.0400 0.2000 0.0400 -0.2000"/>
</g>
</a>
<a style="color:inherit;" xlink:href="textedit://C:/Users/jwloy/Documents/GitHub/interactiveLoopingLine_20231129/public/pieces/interactiveLoopingLine20231129/notation/Template_width100px.ly:62:98:99">
<g transform="translate(114.0830, 3.3302)">
<polygon stroke-linejoin="round" stroke-linecap="round" stroke-width="0.0800" fill="currentColor" stroke="currentColor" points="14.9347 -0.2000 14.9347 0.2000 0.0400 0.2000 0.0400 -0.2000"/>
</g>
<g transform="translate(124.0386, 4.1513)">
<polygon stroke-linejoin="round" stroke-linecap="round" stroke-width="0.0800" fill="currentColor" stroke="currentColor" points="4.9791 -0.2000 4.9791 0.2000 0.0400 0.2000 0.0400 -0.2000"/>
</g>
</a>
<a style="color:inherit;" xlink:href="textedit://C:/Users/jwloy/Documents/GitHub/interactiveLoopingLine_20231129/public/pieces/interactiveLoopingLine20231129/notation/Template_width100px.ly:62:117:118">
<g transform="translate(133.7588, 3.3302)">
<polygon stroke-linejoin="round" stroke-linecap="round" stroke-width="0.0800" fill="currentColor" stroke="currentColor" points="9.0335 -0.2000 9.0335 0.2000 0.0400 0.2000 0.0400 -0.2000"/>
</g>
<g transform="translate(133.7588, 4.1513)">
<polygon stroke-linejoin="round" stroke-linecap="round" stroke-width="0.0800" fill="currentColor" stroke="currentColor" points="4.9791 -0.2000 4.9791 0.2000 0.0400 0.2000 0.0400 -0.2000"/>
</g>
</a>
<a style="color:inherit;" xlink:href="textedit://C:/Users/jwloy/Documents/GitHub/interactiveLoopingLine_20231129/public/pieces/interactiveLoopingLine20231129/notation/Template_width100px.ly:63:21:22">
<g transform="translate(207.5166, 1.9902)">
<line stroke-linejoin="round" stroke-linecap="round" stroke-width="0.1957" stroke="currentColor" x1="12.9792" y1="-0.0000" x2="12.9792" y2="0.7000"/>
</g>
<g transform="translate(207.5166, 1.9902)">
<line stroke-linejoin="round" stroke-linecap="round" stroke-width="0.1957" stroke="currentColor" x1="-0.2000" y1="-0.0000" x2="-0.2000" y2="0.7000"/>
</g>
<g transform="translate(207.5166, 1.9902)">
<line stroke-linejoin="round" stroke-linecap="round" stroke-width="0.1957" stroke="currentColor" x1="12.9792" y1="-0.0000" x2="7.7066" y2="-0.0000"/>
</g>
<g transform="translate(207.5166, 1.9902)">
<line stroke-linejoin="round" stroke-linecap="round" stroke-width="0.1957" stroke="currentColor" x1="-0.2000" y1="-0.0000" x2="5.2726" y2="-0.0000"/>
</g>
</a>
<g transform="translate(375.4576, 10.1513)">
<rect x="-0.0795" y="-7.0000" width="0.1590" height="8.7424" ry="0.0400" fill="currentColor"/>
</g>
<g transform="translate(207.5166, 3.3302)">
<polygon stroke-linejoin="round" stroke-linecap="round" stroke-width="0.0800" fill="currentColor" stroke="currentColor" points="12.7392 -0.2000 12.7392 0.2000 0.0400 0.2000 0.0400 -0.2000"/>
</g>
<a style="color:inherit;" xlink:href="textedit://C:/Users/jwloy/Documents/GitHub/interactiveLoopingLine_20231129/public/pieces/interactiveLoopingLine20231129/notation/Template_width100px.ly:63:65:66">
<g transform="translate(245.0817, 3.3302)">
<polygon stroke-linejoin="round" stroke-linecap="round" stroke-width="0.0800" fill="currentColor" stroke="currentColor" points="14.4246 -0.2000 14.4246 0.2000 0.0400 0.2000 0.0400 -0.2000"/>
</g>
<g transform="translate(258.3668, 4.1513)">
<polygon stroke-linejoin="round" stroke-linecap="round" stroke-width="0.0800" fill="currentColor" stroke="currentColor" points="1.1395 -0.2000 1.1395 0.2000 0.0400 0.2000 0.0400 -0.2000"/>
</g>
</a>
<g transform="translate(226.4469, 3.3302)">
<polygon stroke-linejoin="round" stroke-linecap="round" stroke-width="0.0800" fill="currentColor" stroke="currentColor" points="14.6992 -0.2000 14.6992 0.2000 0.0400 0.2000 0.0400 -0.2000"/>
</g>
<g transform="translate(226.4469, 4.1513)">
<polygon stroke-linejoin="round" stroke-linecap="round" stroke-width="0.0800" fill="currentColor" stroke="currentColor" points="14.6992 -0.2000 14.6992 0.2000 0.0400 0.2000 0.0400 -0.2000"/>
</g>
<a style="color:inherit;" xlink:href="textedit://C:/Users/jwloy/Documents/GitHub/interactiveLoopingLine_20231129/public/pieces/interactiveLoopingLine20231129/notation/Template_width100px.ly:63:77:78">
<g transform="translate(263.4418, 3.3302)">
<polygon stroke-linejoin="round" stroke-linecap="round" stroke-width="0.0800" fill="currentColor" stroke="currentColor" points="10.0746 -0.2000 10.0746 0.2000 0.0400 0.2000 0.0400 -0.2000"/>
</g>
</a>
<a style="color:inherit;" xlink:href="textedit://C:/Users/jwloy/Documents/GitHub/interactiveLoopingLine_20231129/public/pieces/interactiveLoopingLine20231129/notation/Template_width100px.ly:63:88:89">
<g transform="translate(281.8019, 3.3302)">
<polygon stroke-linejoin="round" stroke-linecap="round" stroke-width="0.0800" fill="currentColor" stroke="currentColor" points="14.9347 -0.2000 14.9347 0.2000 0.0400 0.2000 0.0400 -0.2000"/>
</g>
<g transform="translate(291.7575, 4.1513)">
<polygon stroke-linejoin="round" stroke-linecap="round" stroke-width="0.0800" fill="currentColor" stroke="currentColor" points="4.9791 -0.2000 4.9791 0.2000 0.0400 0.2000 0.0400 -0.2000"/>
</g>
</a>
<a style="color:inherit;" xlink:href="textedit://C:/Users/jwloy/Documents/GitHub/interactiveLoopingLine_20231129/public/pieces/interactiveLoopingLine20231129/notation/Template_width100px.ly:63:107:108">
<g transform="translate(301.4776, 3.3302)">
<polygon stroke-linejoin="round" stroke-linecap="round" stroke-width="0.0800" fill="currentColor" stroke="currentColor" points="9.0335 -0.2000 9.0335 0.2000 0.0400 0.2000 0.0400 -0.2000"/>
</g>
<g transform="translate(301.4776, 4.1513)">
<polygon stroke-linejoin="round" stroke-linecap="round" stroke-width="0.0800" fill="currentColor" stroke="currentColor" points="4.9791 -0.2000 4.9791 0.2000 0.0400 0.2000 0.0400 -0.2000"/>
</g>
</a>
<a style="color:inherit;" xlink:href="textedit://C:/Users/jwloy/Documents/GitHub/interactiveLoopingLine_20231129/public/pieces/interactiveLoopingLine20231129/notation/Template_width100px.ly:64:24:25">
<g transform="translate(463.3774, 12.1513)">
<path transform="scale(0.0052, -0.0052)" d="M222 135c53 0 104 -27 104 -86c0 -71 -56 -120 -103 -148c-36 -22 -76 -36 -118 -36c-53 0 -105 27 -105 86c0 71 57 120 104 148c36 22 76 36 118 36z" fill="currentColor"/>
</g>
</a>
<g transform="translate(465.0080, 10.1513)">
<rect x="-0.0795" y="-7.0000" width="0.1590" height="8.7424" ry="0.0400" fill="currentColor"/>
</g>
<g transform="translate(320.4273, 10.1513)">
<rect x="-0.0795" y="-7.0000" width="0.1590" height="8.7424" ry="0.0400" fill="currentColor"/>
</g>
<a style="color:inherit;" xlink:href="textedit://C:/Users/jwloy/Documents/GitHub/interactiveLoopingLine_20231129/public/pieces/interactiveLoopingLine20231129/notation/Template_width100px.ly:63:122:123">
<g transform="translate(318.7967, 12.1513)">
<path transform="scale(0.0052, -0.0052)" d="M222 135c53 0 104 -27 104 -86c0 -71 -56 -120 -103 -148c-36 -22 -76 -36 -118 -36c-53 0 -105 27 -105 86c0 71 57 120 104 148c36 22 76 36 118 36z" fill="currentColor"/>
</g>
</a>
<a style="color:inherit;" xlink:href="textedit://C:/Users/jwloy/Documents/GitHub/interactiveLoopingLine_20231129/public/pieces/interactiveLoopingLine20231129/notation/Template_width100px.ly:63:111:112">
<g transform="translate(309.6467, 10.1513)">
<path transform="scale(0.0066, -0.0066)" d="M76 -250l116 327c-35 -12 -70 -23 -107 -23c-46 0 -87 34 -87 80c0 39 31 71 71 71c26 0 49 -16 57 -40c10 -28 6 -60 35 -60c17 0 58 54 65 70c5 11 20 10 24 0l-126 -425c-7 -6 -16 -9 -24 -9s-17 3 -24 9z" fill="currentColor"/>
</g>
</a>
<a style="color:inherit;" xlink:href="textedit://C:/Users/jwloy/Documents/GitHub/interactiveLoopingLine_20231129/public/pieces/interactiveLoopingLine20231129/notation/Template_width100px.ly:64:8:9">
<g transform="translate(338.0068, 12.1513)">
<path transform="scale(0.0052, -0.0052)" d="M222 135c53 0 104 -27 104 -86c0 -71 -56 -120 -103 -148c-36 -22 -76 -36 -118 -36c-53 0 -105 27 -105 86c0 71 57 120 104 148c36 22 76 36 118 36z" fill="currentColor"/>
</g>
</a>
<g transform="translate(306.4172, 10.1513)">
<rect x="-0.0795" y="-6.8211" width="0.1590" height="8.5635" ry="0.0400" fill="currentColor"/>
</g>
<a style="color:inherit;" xlink:href="textedit://C:/Users/jwloy/Documents/GitHub/interactiveLoopingLine_20231129/public/pieces/interactiveLoopingLine20231129/notation/Template_width100px.ly:63:108:109">
<g transform="translate(304.7866, 12.1513)">
<path transform="scale(0.0052, -0.0052)" d="M222 135c53 0 104 -27 104 -86c0 -71 -56 -120 -103 -148c-36 -22 -76 -36 -118 -36c-53 0 -105 27 -105 86c0 71 57 120 104 148c36 22 76 36 118 36z" fill="currentColor"/>
</g>
</a>
<a style="color:inherit;" xlink:href="textedit://C:/Users/jwloy/Documents/GitHub/interactiveLoopingLine_20231129/public/pieces/interactiveLoopingLine20231129/notation/Template_width100px.ly:64:14:15">
<g transform="translate(373.8270, 12.1513)">
<path transform="scale(0.0052, -0.0052)" d="M222 135c53 0 104 -27 104 -86c0 -71 -56 -120 -103 -148c-36 -22 -76 -36 -118 -36c-53 0 -105 27 -105 86c0 71 57 120 104 148c36 22 76 36 118 36z" fill="currentColor"/>
</g>
</a>
<a style="color:inherit;" xlink:href="textedit://C:/Users/jwloy/Documents/GitHub/interactiveLoopingLine_20231129/public/pieces/interactiveLoopingLine20231129/notation/Template_width100px.ly:64:31:32">
<g transform="translate(481.2875, 12.1513)">
<path transform="scale(0.0052, -0.0052)" d="M222 135c53 0 104 -27 104 -86c0 -71 -56 -120 -103 -148c-36 -22 -76 -36 -118 -36c-53 0 -105 27 -105 86c0 71 57 120 104 148c36 22 76 36 118 36z" fill="currentColor"/>
</g>
</a>
<g transform="translate(357.5475, 10.1513)">
<rect x="-0.0795" y="-7.0000" width="0.1590" height="8.7424" ry="0.0400" fill="currentColor"/>
</g>
<a style="color:inherit;" xlink:href="textedit://C:/Users/jwloy/Documents/GitHub/interactiveLoopingLine_20231129/public/pieces/interactiveLoopingLine20231129/notation/Template_width100px.ly:64:12:13">
<g transform="translate(355.9169, 12.1513)">
<path transform="scale(0.0052, -0.0052)" d="M222 135c53 0 104 -27 104 -86c0 -71 -56 -120 -103 -148c-36 -22 -76 -36 -118 -36c-53 0 -105 27 -105 86c0 71 57 120 104 148c36 22 76 36 118 36z" fill="currentColor"/>
</g>
</a>
<g transform="translate(482.9181, 10.1513)">
<rect x="-0.0795" y="-7.0000" width="0.1590" height="8.7424" ry="0.0400" fill="currentColor"/>
</g>
<a style="color:inherit;" xlink:href="textedit://C:/Users/jwloy/Documents/GitHub/interactiveLoopingLine_20231129/public/pieces/interactiveLoopingLine20231129/notation/Template_width100px.ly:63:41:42">
<g transform="translate(218.5857, 12.1513)">
<path transform="scale(0.0052, -0.0052)" d="M222 135c53 0 104 -27 104 -86c0 -71 -56 -120 -103 -148c-36 -22 -76 -36 -118 -36c-53 0 -105 27 -105 86c0 71 57 120 104 148c36 22 76 36 118 36z" fill="currentColor"/>
</g>
</a>
<g transform="translate(339.6374, 10.1513)">
<rect x="-0.0795" y="-7.0000" width="0.1590" height="8.7424" ry="0.0400" fill="currentColor"/>
</g>
<g transform="translate(79.0210, 10.1513)">
<path transform="scale(0.0066, -0.0066)" d="M0 0c0 32 25 57 57 57s57 -25 57 -57s-25 -57 -57 -57s-57 25 -57 57z" fill="currentColor"/>
</g>
<a style="color:inherit;" xlink:href="textedit://C:/Users/jwloy/Documents/GitHub/interactiveLoopingLine_20231129/public/pieces/interactiveLoopingLine20231129/notation/Template_width100px.ly:62:71:72">
<g transform="translate(76.6173, 10.1513)">
<path transform="scale(0.0066, -0.0066)" d="M76 -250l116 327c-35 -12 -70 -23 -107 -23c-46 0 -87 34 -87 80c0 39 31 71 71 71c26 0 49 -16 57 -40c10 -28 6 -60 35 -60c17 0 58 54 65 70c5 11 20 10 24 0l-126 -425c-7 -6 -16 -9 -24 -9s-17 3 -24 9z" fill="currentColor"/>
</g>
</a>
<g transform="translate(73.3878, 10.1513)">
<rect x="-0.0795" y="-6.8211" width="0.1590" height="8.5635" ry="0.0400" fill="currentColor"/>
</g>
<a style="color:inherit;" xlink:href="textedit://C:/Users/jwloy/Documents/GitHub/interactiveLoopingLine_20231129/public/pieces/interactiveLoopingLine20231129/notation/Template_width100px.ly:62:66:67">
<g transform="translate(71.7572, 12.1513)">
<path transform="scale(0.0052, -0.0052)" d="M222 135c53 0 104 -27 104 -86c0 -71 -56 -120 -103 -148c-36 -22 -76 -36 -118 -36c-53 0 -105 27 -105 86c0 71 57 120 104 148c36 22 76 36 118 36z" fill="currentColor"/>
</g>
</a>
<g transform="translate(68.5277, 10.1513)">
<rect x="-0.0795" y="-6.8211" width="0.1590" height="8.5635" ry="0.0400" fill="currentColor"/>
</g>
<a style="color:inherit;" xlink:href="textedit://C:/Users/jwloy/Documents/GitHub/interactiveLoopingLine_20231129/public/pieces/interactiveLoopingLine20231129/notation/Template_width100px.ly:62:64:65">
<g transform="translate(66.8971, 12.1513)">
<path transform="scale(0.0052, -0.0052)" d="M222 135c53 0 104 -27 104 -86c0 -71 -56 -120 -103 -148c-36 -22 -76 -36 -118 -36c-53 0 -105 27 -105 86c0 71 57 120 104 148c36 22 76 36 118 36z" fill="currentColor"/>
</g>
</a>
<g transform="translate(63.6676, 10.1513)">
<rect x="-0.0795" y="-6.8211" width="0.1590" height="8.5635" ry="0.0400" fill="currentColor"/>
</g>
<a style="color:inherit;" xlink:href="textedit://C:/Users/jwloy/Documents/GitHub/interactiveLoopingLine_20231129/public/pieces/interactiveLoopingLine20231129/notation/Template_width100px.ly:62:62:63">
<g transform="translate(62.0370, 12.1513)">
<path transform="scale(0.0052, -0.0052)" d="M222 135c53 0 104 -27 104 -86c0 -71 -56 -120 -103 -148c-36 -22 -76 -36 -118 -36c-53 0 -105 27 -105 86c0 71 57 120 104 148c36 22 76 36 118 36z" fill="currentColor"/>
</g>
</a>
<a style="color:inherit;" xlink:href="textedit://C:/Users/jwloy/Documents/GitHub/interactiveLoopingLine_20231129/public/pieces/interactiveLoopingLine20231129/notation/Template_width100px.ly:62:84:85">
<g transform="translate(94.9774, 10.1513)">
<path transform="scale(0.0066, -0.0066)" d="M76 -250l116 327c-35 -12 -70 -23 -107 -23c-46 0 -87 34 -87 80c0 39 31 71 71 71c26 0 49 -16 57 -40c10 -28 6 -60 35 -60c17 0 58 54 65 70c5 11 20 10 24 0l-126 -425c-7 -6 -16 -9 -24 -9s-17 3 -24 9z" fill="currentColor"/>
</g>
</a>
<g transform="translate(105.7580, 10.1513)">
<rect x="-0.0795" y="-6.8211" width="0.1590" height="8.5635" ry="0.0400" fill="currentColor"/>
</g>
<a style="color:inherit;" xlink:href="textedit://C:/Users/jwloy/Documents/GitHub/interactiveLoopingLine_20231129/public/pieces/interactiveLoopingLine20231129/notation/Template_width100px.ly:62:88:89">
<g transform="translate(104.1274, 12.1513)">
<path transform="scale(0.0052, -0.0052)" d="M222 135c53 0 104 -27 104 -86c0 -71 -56 -120 -103 -148c-36 -22 -76 -36 -118 -36c-53 0 -105 27 -105 86c0 71 57 120 104 148c36 22 76 36 118 36z" fill="currentColor"/>
</g>
</a>
<g transform="translate(91.7479, 10.1513)">
<rect x="-0.0795" y="-6.8211" width="0.1590" height="8.5635" ry="0.0400" fill="currentColor"/>
</g>
<a style="color:inherit;" xlink:href="textedit://C:/Users/jwloy/Documents/GitHub/interactiveLoopingLine_20231129/public/pieces/interactiveLoopingLine20231129/notation/Template_width100px.ly:62:76:77">
<g transform="translate(90.1173, 12.1513)">
<path transform="scale(0.0052, -0.0052)" d="M222 135c53 0 104 -27 104 -86c0 -71 -56 -120 -103 -148c-36 -22 -76 -36 -118 -36c-53 0 -105 27 -105 86c0 71 57 120 104 148c36 22 76 36 118 36z" fill="currentColor"/>
</g>
</a>
<g transform="translate(21.9672, 10.1513)">
<rect x="-0.0795" y="-7.0000" width="0.1590" height="8.7424" ry="0.0400" fill="currentColor"/>
</g>
<a style="color:inherit;" xlink:href="textedit://C:/Users/jwloy/Documents/GitHub/interactiveLoopingLine_20231129/public/pieces/interactiveLoopingLine20231129/notation/Template_width100px.ly:62:17:18">
<g transform="translate(21.1916, 13.0571)">
<path transform="scale(0.0066, -0.0066)" d="M114 0c8 0 13 -8 10 -15l-114 -254c-2 -4 -6 -6 -10 -6s-8 2 -10 6l-114 254c-3 7 2 15 10 15h68c4 0 7 -2 9 -6l71 -156l70 156c2 4 6 6 10 6z" fill="currentColor"/>
</g>
</a>
<a style="color:inherit;" xlink:href="textedit://C:/Users/jwloy/Documents/GitHub/interactiveLoopingLine_20231129/public/pieces/interactiveLoopingLine20231129/notation/Template_width100px.ly:62:19:20">
<g transform="translate(19.8088, 16.8371)">
<g>
<path transform="scale(0.0052, -0.0052)" d="M162 74c0 58 -99 63 -99 120c0 55 46 98 101 98s78 -34 78 -62c0 -20 -12 -37 -31 -37c-18 0 -32 11 -32 22c0 3 1 5 3 7c6 8 9 18 9 26c0 13 -7 24 -19 24c-27 0 -48 -23 -48 -50c0 -17 16 -29 31 -38c33 -20 68 -43 68 -81c0 -60 -57 -103 -120 -103
c-43 0 -82 26 -82 65c0 21 12 42 31 42c18 0 32 -15 32 -33c0 -13 -21 -15 -21 -28c0 -16 18 -23 36 -23c33 0 63 20 63 51z" fill="currentColor"/>

<path transform="translate(1.0926, 0.0000) scale(0.0052, -0.0052)" d="M254 251l-51 -165c-30 -99 -121 -256 -218 -256c-45 0 -87 25 -87 65c0 39 17 77 52 77c24 0 44 -20 44 -44c0 -30 -38 -25 -38 -55c0 -10 11 -10 23 -10h6c50 0 60 61 73 113l69 275h-53c-9 0 -16 8 -16 17s7 17 16 17h62c31 97 119 193 214 193c45 0 87 -24 87 -64
c0 -39 -17 -78 -52 -78c-24 0 -44 20 -44 44c0 30 38 25 38 55c0 10 -10 11 -22 11c-2 0 -5 -1 -7 -1c-65 0 -70 -93 -87 -160h58c9 0 17 -8 17 -17s-8 -17 -17 -17h-67z" fill="currentColor"/>
</g>
</g>
</a>
<a style="color:inherit;" xlink:href="textedit://C:/Users/jwloy/Documents/GitHub/interactiveLoopingLine_20231129/public/pieces/interactiveLoopingLine20231129/notation/Template_width100px.ly:62:14:15">
<g transform="translate(20.3366, 12.1513)">
<path transform="scale(0.0052, -0.0052)" d="M222 135c53 0 104 -27 104 -86c0 -71 -56 -120 -103 -148c-36 -22 -76 -36 -118 -36c-53 0 -105 27 -105 86c0 71 57 120 104 148c36 22 76 36 118 36z" fill="currentColor"/>
</g>
</a>
<a style="color:inherit;" xlink:href="textedit://C:/Users/jwloy/Documents/GitHub/interactiveLoopingLine_20231129/public/pieces/interactiveLoopingLine20231129/notation/Template_width100px.ly:62:8:9">
<g transform="translate(2.5691, 10.1513)">
<path transform="scale(0.0066, -0.0066)" d="M-23 -113c0 26 10 40 36 40c34 0 85 -15 130 -37l-137 164c-7 8 -10 17 -10 25c0 33 49 64 86 96c26 22 39 54 39 85c0 24 -8 47 -24 67l-39 46c-2 3 -3 6 -3 9c0 7 7 14 14 14c3 0 7 -1 10 -5l152 -182c7 -8 10 -17 10 -25c0 -33 -49 -64 -86 -96
c-26 -22 -39 -54 -39 -85c0 -24 8 -47 24 -67l87 -104c2 -3 3 -5 3 -8c0 -7 -7 -14 -14 -14c-3 0 -7 1 -10 5c-19 22 -66 43 -102 43c-40 0 -52 -29 -52 -70c0 -35 11 -75 28 -96c6 -7 -4 -16 -10 -9c-46 55 -93 150 -93 204z" fill="currentColor"/>
</g>
</a>
<g transform="translate(58.8075, 10.1513)">
<rect x="-0.0795" y="-6.8211" width="0.1590" height="8.5635" ry="0.0400" fill="currentColor"/>
</g>
<a style="color:inherit;" xlink:href="textedit://C:/Users/jwloy/Documents/GitHub/interactiveLoopingLine_20231129/public/pieces/interactiveLoopingLine20231129/notation/Template_width100px.ly:62:57:58">
<g transform="translate(57.1769, 12.1513)">
<path transform="scale(0.0052, -0.0052)" d="M222 135c53 0 104 -27 104 -86c0 -71 -56 -120 -103 -148c-36 -22 -76 -36 -118 -36c-53 0 -105 27 -105 86c0 71 57 120 104 148c36 22 76 36 118 36z" fill="currentColor"/>
</g>
</a>
<g transform="translate(52.4974, 10.1513)">
<rect x="-0.0795" y="-6.8211" width="0.1590" height="8.5635" ry="0.0400" fill="currentColor"/>
</g>
<a style="color:inherit;" xlink:href="textedit://C:/Users/jwloy/Documents/GitHub/interactiveLoopingLine_20231129/public/pieces/interactiveLoopingLine20231129/notation/Template_width100px.ly:62:51:52">
<g transform="translate(50.8668, 12.1513)">
<path transform="scale(0.0052, -0.0052)" d="M222 135c53 0 104 -27 104 -86c0 -71 -56 -120 -103 -148c-36 -22 -76 -36 -118 -36c-53 0 -105 27 -105 86c0 71 57 120 104 148c36 22 76 36 118 36z" fill="currentColor"/>
</g>
</a>
<g transform="translate(46.1873, 10.1513)">
<rect x="-0.0795" y="-6.8211" width="0.1590" height="8.5635" ry="0.0400" fill="currentColor"/>
</g>
<a style="color:inherit;" xlink:href="textedit://C:/Users/jwloy/Documents/GitHub/interactiveLoopingLine_20231129/public/pieces/interactiveLoopingLine20231129/notation/Template_width100px.ly:62:48:49">
<g transform="translate(44.5567, 12.1513)">
<path transform="scale(0.0052, -0.0052)" d="M222 135c53 0 104 -27 104 -86c0 -71 -56 -120 -103 -148c-36 -22 -76 -36 -118 -36c-53 0 -105 27 -105 86c0 71 57 120 104 148c36 22 76 36 118 36z" fill="currentColor"/>
</g>
</a>
<g transform="translate(39.8773, 10.1513)">
<rect x="-0.0795" y="-6.8211" width="0.1590" height="8.5635" ry="0.0400" fill="currentColor"/>
</g>
<a style="color:inherit;" xlink:href="textedit://C:/Users/jwloy/Documents/GitHub/interactiveLoopingLine_20231129/public/pieces/interactiveLoopingLine20231129/notation/Template_width100px.ly:62:42:43">
<g transform="translate(39.1017, 13.0571)">
<path transform="scale(0.0066, -0.0066)" d="M114 0c8 0 13 -8 10 -15l-114 -254c-2 -4 -6 -6 -10 -6s-8 2 -10 6l-114 254c-3 7 2 15 10 15h68c4 0 7 -2 9 -6l71 -156l70 156c2 4 6 6 10 6z" fill="currentColor"/>
</g>
</a>
<a style="color:inherit;" xlink:href="textedit://C:/Users/jwloy/Documents/GitHub/interactiveLoopingLine_20231129/public/pieces/interactiveLoopingLine20231129/notation/Template_width100px.ly:62:44:45">
<g transform="translate(37.7189, 16.8371)">
<g>
<path transform="scale(0.0052, -0.0052)" d="M162 74c0 58 -99 63 -99 120c0 55 46 98 101 98s78 -34 78 -62c0 -20 -12 -37 -31 -37c-18 0 -32 11 -32 22c0 3 1 5 3 7c6 8 9 18 9 26c0 13 -7 24 -19 24c-27 0 -48 -23 -48 -50c0 -17 16 -29 31 -38c33 -20 68 -43 68 -81c0 -60 -57 -103 -120 -103
c-43 0 -82 26 -82 65c0 21 12 42 31 42c18 0 32 -15 32 -33c0 -13 -21 -15 -21 -28c0 -16 18 -23 36 -23c33 0 63 20 63 51z" fill="currentColor"/>

<path transform="translate(1.0926, 0.0000) scale(0.0052, -0.0052)" d="M254 251l-51 -165c-30 -99 -121 -256 -218 -256c-45 0 -87 25 -87 65c0 39 17 77 52 77c24 0 44 -20 44 -44c0 -30 -38 -25 -38 -55c0 -10 11 -10 23 -10h6c50 0 60 61 73 113l69 275h-53c-9 0 -16 8 -16 17s7 17 16 17h62c31 97 119 193 214 193c45 0 87 -24 87 -64
c0 -39 -17 -78 -52 -78c-24 0 -44 20 -44 44c0 30 38 25 38 55c0 10 -10 11 -22 11c-2 0 -5 -1 -7 -1c-65 0 -70 -93 -87 -160h58c9 0 17 -8 17 -17s-8 -17 -17 -17h-67z" fill="currentColor"/>
</g>
</g>
</a>
<a style="color:inherit;" xlink:href="textedit://C:/Users/jwloy/Documents/GitHub/interactiveLoopingLine_20231129/public/pieces/interactiveLoopingLine20231129/notation/Template_width100px.ly:62:39:40">
<g transform="translate(38.2466, 12.1513)">
<path transform="scale(0.0052, -0.0052)" d="M222 135c53 0 104 -27 104 -86c0 -71 -56 -120 -103 -148c-36 -22 -76 -36 -118 -36c-53 0 -105 27 -105 86c0 71 57 120 104 148c36 22 76 36 118 36z" fill="currentColor"/>
</g>
</a>
<a style="color:inherit;" xlink:href="textedit://C:/Users/jwloy/Documents/GitHub/interactiveLoopingLine_20231129/public/pieces/interactiveLoopingLine20231129/notation/Template_width100px.ly:62:129:130">
<g transform="translate(151.0778, 12.1513)">
<path transform="scale(0.0052, -0.0052)" d="M222 135c53 0 104 -27 104 -86c0 -71 -56 -120 -103 -148c-36 -22 -76 -36 -118 -36c-53 0 -105 27 -105 86c0 71 57 120 104 148c36 22 76 36 118 36z" fill="currentColor"/>
</g>
</a>
<g transform="translate(138.6983, 10.1513)">
<rect x="-0.0795" y="-6.8211" width="0.1590" height="8.5635" ry="0.0400" fill="currentColor"/>
</g>
<a style="color:inherit;" xlink:href="textedit://C:/Users/jwloy/Documents/GitHub/interactiveLoopingLine_20231129/public/pieces/interactiveLoopingLine20231129/notation/Template_width100px.ly:62:118:119">
<g transform="translate(137.0677, 12.1513)">
<path transform="scale(0.0052, -0.0052)" d="M222 135c53 0 104 -27 104 -86c0 -71 -56 -120 -103 -148c-36 -22 -76 -36 -118 -36c-53 0 -105 27 -105 86c0 71 57 120 104 148c36 22 76 36 118 36z" fill="currentColor"/>
</g>
</a>
<g transform="translate(133.8383, 10.1513)">
<rect x="-0.0795" y="-6.8211" width="0.1590" height="8.5635" ry="0.0400" fill="currentColor"/>
</g>
<a style="color:inherit;" xlink:href="textedit://C:/Users/jwloy/Documents/GitHub/interactiveLoopingLine_20231129/public/pieces/interactiveLoopingLine20231129/notation/Template_width100px.ly:62:112:113">
<g transform="translate(132.2077, 12.1513)">
<path transform="scale(0.0052, -0.0052)" d="M222 135c53 0 104 -27 104 -86c0 -71 -56 -120 -103 -148c-36 -22 -76 -36 -118 -36c-53 0 -105 27 -105 86c0 71 57 120 104 148c36 22 76 36 118 36z" fill="currentColor"/>
</g>
</a>
<a style="color:inherit;" xlink:href="textedit://C:/Users/jwloy/Documents/GitHub/interactiveLoopingLine_20231129/public/pieces/interactiveLoopingLine20231129/notation/Template_width100px.ly:64:38:39">
<g transform="translate(518.4077, 12.1513)">
<path transform="scale(0.0052, -0.0052)" d="M222 135c53 0 104 -27 104 -86c0 -71 -56 -120 -103 -148c-36 -22 -76 -36 -118 -36c-53 0 -105 27 -105 86c0 71 57 120 104 148c36 22 76 36 118 36z" fill="currentColor"/>
</g>
</a>
<a style="color:inherit;" xlink:href="textedit://C:/Users/jwloy/Documents/GitHub/interactiveLoopingLine_20231129/public/pieces/interactiveLoopingLine20231129/notation/Template_width100px.ly:62:121:122">
<g transform="translate(141.9278, 10.1513)">
<path transform="scale(0.0066, -0.0066)" d="M76 -250l116 327c-35 -12 -70 -23 -107 -23c-46 0 -87 34 -87 80c0 39 31 71 71 71c26 0 49 -16 57 -40c10 -28 6 -60 35 -60c17 0 58 54 65 70c5 11 20 10 24 0l-126 -425c-7 -6 -16 -9 -24 -9s-17 3 -24 9z" fill="currentColor"/>
</g>
</a>
<g transform="translate(124.1181, 10.1513)">
<rect x="-0.0795" y="-6.8211" width="0.1590" height="8.5635" ry="0.0400" fill="currentColor"/>
</g>
<a style="color:inherit;" xlink:href="textedit://C:/Users/jwloy/Documents/GitHub/interactiveLoopingLine_20231129/public/pieces/interactiveLoopingLine20231129/notation/Template_width100px.ly:62:99:100">
<g transform="translate(122.4875, 12.1513)">
<path transform="scale(0.0052, -0.0052)" d="M222 135c53 0 104 -27 104 -86c0 -71 -56 -120 -103 -148c-36 -22 -76 -36 -118 -36c-53 0 -105 27 -105 86c0 71 57 120 104 148c36 22 76 36 118 36z" fill="currentColor"/>
</g>
</a>
<a style="color:inherit;" xlink:href="textedit://C:/Users/jwloy/Documents/GitHub/interactiveLoopingLine_20231129/public/pieces/interactiveLoopingLine20231129/notation/Template_width100px.ly:63:8:9">
<g transform="translate(170.2879, 10.1513)">
<path transform="scale(0.0066, -0.0066)" d="M-23 -113c0 26 10 40 36 40c34 0 85 -15 130 -37l-137 164c-7 8 -10 17 -10 25c0 33 49 64 86 96c26 22 39 54 39 85c0 24 -8 47 -24 67l-39 46c-2 3 -3 6 -3 9c0 7 7 14 14 14c3 0 7 -1 10 -5l152 -182c7 -8 10 -17 10 -25c0 -33 -49 -64 -86 -96
c-26 -22 -39 -54 -39 -85c0 -24 8 -47 24 -67l87 -104c2 -3 3 -5 3 -8c0 -7 -7 -14 -14 -14c-3 0 -7 1 -10 5c-19 22 -66 43 -102 43c-40 0 -52 -29 -52 -70c0 -35 11 -75 28 -96c6 -7 -4 -16 -10 -9c-46 55 -93 150 -93 204z" fill="currentColor"/>
</g>
</a>
<a style="color:inherit;" xlink:href="textedit://C:/Users/jwloy/Documents/GitHub/interactiveLoopingLine_20231129/public/pieces/interactiveLoopingLine20231129/notation/Template_width100px.ly:62:95:96">
<g transform="translate(113.3375, 10.1513)">
<path transform="scale(0.0066, -0.0066)" d="M76 -250l116 327c-35 -12 -70 -23 -107 -23c-46 0 -87 34 -87 80c0 39 31 71 71 71c26 0 49 -16 57 -40c10 -28 6 -60 35 -60c17 0 58 54 65 70c5 11 20 10 24 0l-126 -425c-7 -6 -16 -9 -24 -9s-17 3 -24 9z" fill="currentColor"/>
</g>
</a>
<a style="color:inherit;" xlink:href="textedit://C:/Users/jwloy/Documents/GitHub/interactiveLoopingLine_20231129/public/pieces/interactiveLoopingLine20231129/notation/Template_width100px.ly:63:34:35">
<g transform="translate(205.9655, 12.1513)">
<path transform="scale(0.0052, -0.0052)" d="M222 135c53 0 104 -27 104 -86c0 -71 -56 -120 -103 -148c-36 -22 -76 -36 -118 -36c-53 0 -105 27 -105 86c0 71 57 120 104 148c36 22 76 36 118 36z" fill="currentColor"/>
</g>
</a>
<g transform="translate(207.5961, 10.1513)">
<rect x="-0.0795" y="-6.8211" width="0.1590" height="8.5635" ry="0.0400" fill="currentColor"/>
</g>
<g transform="translate(189.6860, 10.1513)">
<rect x="-0.0795" y="-7.0000" width="0.1590" height="8.7424" ry="0.0400" fill="currentColor"/>
</g>
<a style="color:inherit;" xlink:href="textedit://C:/Users/jwloy/Documents/GitHub/interactiveLoopingLine_20231129/public/pieces/interactiveLoopingLine20231129/notation/Template_width100px.ly:63:14:15">
<g transform="translate(188.0554, 12.1513)">
<path transform="scale(0.0052, -0.0052)" d="M222 135c53 0 104 -27 104 -86c0 -71 -56 -120 -103 -148c-36 -22 -76 -36 -118 -36c-53 0 -105 27 -105 86c0 71 57 120 104 148c36 22 76 36 118 36z" fill="currentColor"/>
</g>
</a>
<g transform="translate(520.0383, 10.1513)">
<rect x="-0.0795" y="-7.0000" width="0.1590" height="8.7424" ry="0.0400" fill="currentColor"/>
</g>
<a style="color:inherit;" xlink:href="textedit://C:/Users/jwloy/Documents/GitHub/interactiveLoopingLine_20231129/public/pieces/interactiveLoopingLine20231129/notation/Template_width100px.ly:62:104:105">
<g transform="translate(127.3476, 12.1513)">
<path transform="scale(0.0052, -0.0052)" d="M222 135c53 0 104 -27 104 -86c0 -71 -56 -120 -103 -148c-36 -22 -76 -36 -118 -36c-53 0 -105 27 -105 86c0 71 57 120 104 148c36 22 76 36 118 36z" fill="currentColor"/>
</g>
</a>
<g transform="translate(128.9782, 10.1513)">
<rect x="-0.0795" y="-6.8211" width="0.1590" height="8.5635" ry="0.0400" fill="currentColor"/>
</g>
<g transform="translate(152.7084, 10.1513)">
<rect x="-0.0795" y="-7.0000" width="0.1590" height="8.7424" ry="0.0400" fill="currentColor"/>
</g>
</svg>
